<?xml version="1.0" encoding="UTF-8" standalone="no"?>
<!DOCTYPE svg PUBLIC "-//W3C//DTD SVG 1.1//EN"
 "http://www.w3.org/Graphics/SVG/1.1/DTD/svg11.dtd">
<!-- Generated by graphviz version 2.43.0 (0)
 -->
<!-- Title: penify_hook.ui_utils.format_info Pages: 1 -->
<svg width="1060pt" height="521pt"
 viewBox="0.00 0.00 1060.00 521.23" xmlns="http://www.w3.org/2000/svg" xmlns:xlink="http://www.w3.org/1999/xlink">
<g id="graph0" class="graph" transform="scale(1 1) rotate(0) translate(4 517.23)">
<title>penify_hook.ui_utils.format_info</title>
<polygon fill="white" stroke="transparent" points="-4,4 -4,-517.23 1056,-517.23 1056,4 -4,4"/>
<!-- Node1 -->
<g id="node1" class="node">
<title>Node1</title>
<g id="a_node1"><a xlink:title=" ">
<polygon fill="#bfbfbf" stroke="black" points="878,-439.23 878,-458.23 1052,-458.23 1052,-439.23 878,-439.23"/>
<text text-anchor="middle" x="965" y="-446.23" font-family="Helvetica,sans-Serif" font-size="10.00">penify_hook.ui_utils.format_info</text>
</a>
</g>
</g>
<!-- Node2 -->
<g id="node2" class="node">
<title>Node2</title>
<g id="a_node2"><a xlink:href="namespacepenify__hook_1_1ui__utils.html#a12b92532b1458af94f3649d411b5505c" target="_top" xlink:title=" ">
<polygon fill="white" stroke="black" points="686,-433.73 686,-463.73 834,-463.73 834,-433.73 686,-433.73"/>
<text text-anchor="start" x="694" y="-451.73" font-family="Helvetica,sans-Serif" font-size="10.00">penify_hook.ui_utils.create</text>
<text text-anchor="middle" x="760" y="-440.73" font-family="Helvetica,sans-Serif" font-size="10.00">_progress_bar</text>
</a>
</g>
</g>
<!-- Node1&#45;&gt;Node2 -->
<g id="edge1" class="edge">
<title>Node1&#45;&gt;Node2</title>
<path fill="none" stroke="midnightblue" d="M867.6,-448.73C856.32,-448.73 844.97,-448.73 834.08,-448.73"/>
<polygon fill="midnightblue" stroke="midnightblue" points="867.91,-452.23 877.91,-448.73 867.91,-445.23 867.91,-452.23"/>
</g>
<!-- Node4 -->
<g id="node4" class="node">
<title>Node4</title>
<g id="a_node4"><a xlink:href="namespacepenify__hook_1_1ui__utils.html#a3da02cd1140179a9ce60f62c85fccfef" target="_top" xlink:title=" ">
<polygon fill="white" stroke="black" points="686,-482.73 686,-512.73 834,-512.73 834,-482.73 686,-482.73"/>
<text text-anchor="start" x="694" y="-500.73" font-family="Helvetica,sans-Serif" font-size="10.00">penify_hook.ui_utils.create</text>
<text text-anchor="middle" x="760" y="-489.73" font-family="Helvetica,sans-Serif" font-size="10.00">_stage_progress_bar</text>
</a>
</g>
</g>
<!-- Node1&#45;&gt;Node4 -->
<g id="edge3" class="edge">
<title>Node1&#45;&gt;Node4</title>
<path fill="none" stroke="midnightblue" d="M914.59,-460.66C887.1,-467.3 852.62,-475.62 823.3,-482.7"/>
<polygon fill="midnightblue" stroke="midnightblue" points="915.48,-464.05 924.38,-458.3 913.84,-457.24 915.48,-464.05"/>
</g>
<!-- Node6 -->
<g id="node6" class="node">
<title>Node6</title>
<g id="a_node6"><a xlink:href="namespacepenify__hook_1_1ui__utils.html#a811f0adf6e9bf71510c379b6fa155e44" target="_top" xlink:title=" ">
<polygon fill="white" stroke="black" points="678,-286.23 678,-305.23 842,-305.23 842,-286.23 678,-286.23"/>
<text text-anchor="middle" x="760" y="-293.23" font-family="Helvetica,sans-Serif" font-size="10.00">penify_hook.ui_utils.print_info</text>
</a>
</g>
</g>
<!-- Node1&#45;&gt;Node6 -->
<g id="edge5" class="edge">
<title>Node1&#45;&gt;Node6</title>
<path fill="none" stroke="midnightblue" d="M943.18,-433.04C901.24,-401.43 807.72,-330.95 773.69,-305.3"/>
<polygon fill="midnightblue" stroke="midnightblue" points="941.21,-435.94 951.3,-439.16 945.42,-430.35 941.21,-435.94"/>
</g>
<!-- Node3 -->
<g id="node3" class="node">
<title>Node3</title>
<g id="a_node3"><a xlink:href="classpenify__hook_1_1git__analyzer_1_1GitDocGenHook.html#a3beba14e92d717391a74bb70b1fab0ae" target="_top" xlink:title=" ">
<polygon fill="white" stroke="black" points="467,-433.73 467,-463.73 608,-463.73 608,-433.73 467,-433.73"/>
<text text-anchor="start" x="475" y="-451.73" font-family="Helvetica,sans-Serif" font-size="10.00">penify_hook.git_analyzer.</text>
<text text-anchor="middle" x="537.5" y="-440.73" font-family="Helvetica,sans-Serif" font-size="10.00">GitDocGenHook.run</text>
</a>
</g>
</g>
<!-- Node2&#45;&gt;Node3 -->
<g id="edge2" class="edge">
<title>Node2&#45;&gt;Node3</title>
<path fill="none" stroke="midnightblue" d="M675.75,-448.73C653.44,-448.73 629.55,-448.73 608.05,-448.73"/>
<polygon fill="midnightblue" stroke="midnightblue" points="675.88,-452.23 685.88,-448.73 675.88,-445.23 675.88,-452.23"/>
</g>
<!-- Node5 -->
<g id="node5" class="node">
<title>Node5</title>
<g id="a_node5"><a xlink:href="classpenify__hook_1_1file__analyzer_1_1FileAnalyzerGenHook.html#a4f4dffbc432fac3e259d957dd1e187f1" target="_top" xlink:title=" ">
<polygon fill="white" stroke="black" points="466,-482.73 466,-512.73 609,-512.73 609,-482.73 466,-482.73"/>
<text text-anchor="start" x="474" y="-500.73" font-family="Helvetica,sans-Serif" font-size="10.00">penify_hook.file_analyzer.</text>
<text text-anchor="middle" x="537.5" y="-489.73" font-family="Helvetica,sans-Serif" font-size="10.00">FileAnalyzerGenHook.run</text>
</a>
</g>
</g>
<!-- Node4&#45;&gt;Node5 -->
<g id="edge4" class="edge">
<title>Node4&#45;&gt;Node5</title>
<path fill="none" stroke="midnightblue" d="M675.61,-497.73C653.72,-497.73 630.33,-497.73 609.17,-497.73"/>
<polygon fill="midnightblue" stroke="midnightblue" points="675.88,-501.23 685.88,-497.73 675.88,-494.23 675.88,-501.23"/>
</g>
<!-- Node6&#45;&gt;Node3 -->
<g id="edge23" class="edge">
<title>Node6&#45;&gt;Node3</title>
<path fill="none" stroke="midnightblue" d="M746.68,-313.82C727.45,-340.68 687.73,-390.93 642,-418.73 631.61,-425.05 619.82,-430.09 608.02,-434.1"/>
<polygon fill="midnightblue" stroke="midnightblue" points="749.73,-315.57 752.61,-305.37 744,-311.55 749.73,-315.57"/>
</g>
<!-- Node7 -->
<g id="node7" class="node">
<title>Node7</title>
<g id="a_node7"><a xlink:href="namespacepenify__hook_1_1commands_1_1commit__commands.html#a62564c4e8ad59fc46d56cb0f9122a71a" target="_top" xlink:title=" ">
<polygon fill="white" stroke="black" points="451,-187.73 451,-217.73 624,-217.73 624,-187.73 451,-187.73"/>
<text text-anchor="start" x="459" y="-205.73" font-family="Helvetica,sans-Serif" font-size="10.00">penify_hook.commands.commit</text>
<text text-anchor="middle" x="537.5" y="-194.73" font-family="Helvetica,sans-Serif" font-size="10.00">_commands.commit_code</text>
</a>
</g>
</g>
<!-- Node6&#45;&gt;Node7 -->
<g id="edge6" class="edge">
<title>Node6&#45;&gt;Node7</title>
<path fill="none" stroke="midnightblue" d="M734.84,-280.76C711.68,-266.88 675.41,-246.39 642,-232.73 628.15,-227.07 612.84,-222.02 598.35,-217.75"/>
<polygon fill="midnightblue" stroke="midnightblue" points="733.25,-283.89 743.62,-286.08 736.88,-277.9 733.25,-283.89"/>
</g>
<!-- Node8 -->
<g id="node8" class="node">
<title>Node8</title>
<g id="a_node8"><a xlink:href="namespacepenify__hook_1_1commands_1_1commit__commands.html#af4f739f524c38b437e4e47673d683e23" target="_top" xlink:title=" ">
<polygon fill="white" stroke="black" points="213.5,-302.73 213.5,-332.73 386.5,-332.73 386.5,-302.73 213.5,-302.73"/>
<text text-anchor="start" x="221.5" y="-320.73" font-family="Helvetica,sans-Serif" font-size="10.00">penify_hook.commands.commit</text>
<text text-anchor="middle" x="300" y="-309.73" font-family="Helvetica,sans-Serif" font-size="10.00">_commands.handle_commit</text>
</a>
</g>
</g>
<!-- Node6&#45;&gt;Node8 -->
<g id="edge19" class="edge">
<title>Node6&#45;&gt;Node8</title>
<path fill="none" stroke="midnightblue" d="M722.78,-283.07C661.42,-263.65 533.88,-232.11 433,-265.73 414.03,-272.06 415.02,-284.05 397,-292.73 389.09,-296.55 380.52,-299.83 371.87,-302.65"/>
<polygon fill="midnightblue" stroke="midnightblue" points="721.8,-286.43 732.39,-286.19 723.96,-279.78 721.8,-286.43"/>
</g>
<!-- Node9 -->
<g id="node9" class="node">
<title>Node9</title>
<g id="a_node9"><a xlink:href="namespacepenify__hook_1_1main.html#a16838b20df4bd14ee4b5e1dd2906738f" target="_top" xlink:title=" ">
<polygon fill="white" stroke="black" points="18,-127.23 18,-146.23 149,-146.23 149,-127.23 18,-127.23"/>
<text text-anchor="middle" x="83.5" y="-134.23" font-family="Helvetica,sans-Serif" font-size="10.00">penify_hook.main.main</text>
</a>
</g>
</g>
<!-- Node6&#45;&gt;Node9 -->
<g id="edge20" class="edge">
<title>Node6&#45;&gt;Node9</title>
<path fill="none" stroke="midnightblue" d="M753.16,-276.37C740.14,-236.63 704.81,-145.78 642,-99.73 483.27,16.62 388.68,23.51 203,-41.73 153.74,-59.04 109.79,-106.41 92.41,-126.98"/>
<polygon fill="midnightblue" stroke="midnightblue" points="749.9,-277.66 756.25,-286.14 756.57,-275.55 749.9,-277.66"/>
</g>
<!-- Node15 -->
<g id="node15" class="node">
<title>Node15</title>
<g id="a_node15"><a xlink:href="classpenify__hook_1_1jira__client_1_1JiraClient.html#a093d6456fe053ef7a7862d5d6851910c" target="_top" xlink:title=" ">
<polygon fill="white" stroke="black" points="472.5,-109.23 472.5,-150.23 602.5,-150.23 602.5,-109.23 472.5,-109.23"/>
<text text-anchor="start" x="480.5" y="-138.23" font-family="Helvetica,sans-Serif" font-size="10.00">penify_hook.jira_client.</text>
<text text-anchor="start" x="480.5" y="-127.23" font-family="Helvetica,sans-Serif" font-size="10.00">JiraClient.extract_issue</text>
<text text-anchor="middle" x="537.5" y="-116.23" font-family="Helvetica,sans-Serif" font-size="10.00">_keys_from_branch</text>
</a>
</g>
</g>
<!-- Node6&#45;&gt;Node15 -->
<g id="edge15" class="edge">
<title>Node6&#45;&gt;Node15</title>
<path fill="none" stroke="midnightblue" d="M745.05,-278.14C724.59,-253.22 684.25,-207.38 642,-177.73 626.84,-167.09 608.95,-157.82 592.34,-150.34"/>
<polygon fill="midnightblue" stroke="midnightblue" points="742.42,-280.45 751.43,-286.02 747.86,-276.05 742.42,-280.45"/>
</g>
<!-- Node16 -->
<g id="node16" class="node">
<title>Node16</title>
<g id="a_node16"><a xlink:href="classpenify__hook_1_1commit__analyzer_1_1CommitDocGenHook.html#a8496194276441fa2eb2fa014eaab9a37" target="_top" xlink:title=" ">
<polygon fill="white" stroke="black" points="443.5,-275.23 443.5,-316.23 631.5,-316.23 631.5,-275.23 443.5,-275.23"/>
<text text-anchor="start" x="451.5" y="-304.23" font-family="Helvetica,sans-Serif" font-size="10.00">penify_hook.commit</text>
<text text-anchor="start" x="451.5" y="-293.23" font-family="Helvetica,sans-Serif" font-size="10.00">_analyzer.CommitDocGenHook.get</text>
<text text-anchor="middle" x="537.5" y="-282.23" font-family="Helvetica,sans-Serif" font-size="10.00">_summary</text>
</a>
</g>
</g>
<!-- Node6&#45;&gt;Node16 -->
<g id="edge17" class="edge">
<title>Node6&#45;&gt;Node16</title>
<path fill="none" stroke="midnightblue" d="M667.55,-295.73C655.74,-295.73 643.63,-295.73 631.79,-295.73"/>
<polygon fill="midnightblue" stroke="midnightblue" points="667.83,-299.23 677.83,-295.73 667.83,-292.23 667.83,-299.23"/>
</g>
<!-- Node17 -->
<g id="node17" class="node">
<title>Node17</title>
<g id="a_node17"><a xlink:href="classpenify__hook_1_1commit__analyzer_1_1CommitDocGenHook.html#a6370a03f7ed9175ef6f81e931a105ea9" target="_top" xlink:title=" ">
<polygon fill="white" stroke="black" points="206,-351.73 206,-381.73 394,-381.73 394,-351.73 206,-351.73"/>
<text text-anchor="start" x="214" y="-369.73" font-family="Helvetica,sans-Serif" font-size="10.00">penify_hook.commit</text>
<text text-anchor="middle" x="300" y="-358.73" font-family="Helvetica,sans-Serif" font-size="10.00">_analyzer.CommitDocGenHook.run</text>
</a>
</g>
</g>
<!-- Node6&#45;&gt;Node17 -->
<g id="edge24" class="edge">
<title>Node6&#45;&gt;Node17</title>
<path fill="none" stroke="midnightblue" d="M743.91,-312.84C723.4,-334.67 684.38,-371.32 642,-385.73 544.75,-418.81 422.95,-398.42 354.37,-381.77"/>
<polygon fill="midnightblue" stroke="midnightblue" points="746.67,-315.02 750.84,-305.28 741.5,-310.29 746.67,-315.02"/>
</g>
<!-- Node18 -->
<g id="node18" class="node">
<title>Node18</title>
<g id="a_node18"><a xlink:href="classpenify__hook_1_1commit__analyzer_1_1CommitDocGenHook.html#adda13cc121d96342476ccf72b63a007f" target="_top" xlink:title=" ">
<polygon fill="white" stroke="black" points="433,-335.23 433,-376.23 642,-376.23 642,-335.23 433,-335.23"/>
<text text-anchor="start" x="441" y="-364.23" font-family="Helvetica,sans-Serif" font-size="10.00">penify_hook.commit</text>
<text text-anchor="start" x="441" y="-353.23" font-family="Helvetica,sans-Serif" font-size="10.00">_analyzer.CommitDocGenHook.process</text>
<text text-anchor="middle" x="537.5" y="-342.23" font-family="Helvetica,sans-Serif" font-size="10.00">_jira_integration</text>
</a>
</g>
</g>
<!-- Node6&#45;&gt;Node18 -->
<g id="edge21" class="edge">
<title>Node6&#45;&gt;Node18</title>
<path fill="none" stroke="midnightblue" d="M714.29,-307.9C685.49,-315.74 647.32,-326.12 613.91,-335.22"/>
<polygon fill="midnightblue" stroke="midnightblue" points="715.33,-311.24 724.06,-305.24 713.49,-304.49 715.33,-311.24"/>
</g>
<!-- Node7&#45;&gt;Node8 -->
<g id="edge7" class="edge">
<title>Node7&#45;&gt;Node8</title>
<path fill="none" stroke="midnightblue" d="M450.53,-221.94C444.31,-225.02 438.38,-228.59 433,-232.73 408.36,-251.71 421.9,-274.1 397,-292.73 391.9,-296.55 386.27,-299.79 380.36,-302.53"/>
<polygon fill="midnightblue" stroke="midnightblue" points="452.13,-225.06 459.82,-217.78 449.27,-218.68 452.13,-225.06"/>
</g>
<!-- Node11 -->
<g id="node11" class="node">
<title>Node11</title>
<g id="a_node11"><a xlink:href="classtests_1_1test__commit__commands_1_1TestCommitCommands.html#a43c2ff3707124aa48e8eb581106b8691" target="_top" xlink:title=" ">
<polygon fill="white" stroke="black" points="216.5,-111.23 216.5,-152.23 383.5,-152.23 383.5,-111.23 216.5,-111.23"/>
<text text-anchor="start" x="224.5" y="-140.23" font-family="Helvetica,sans-Serif" font-size="10.00">tests.test_commit_commands.</text>
<text text-anchor="start" x="224.5" y="-129.23" font-family="Helvetica,sans-Serif" font-size="10.00">TestCommitCommands.test</text>
<text text-anchor="middle" x="300" y="-118.23" font-family="Helvetica,sans-Serif" font-size="10.00">_commit_code_error_handling</text>
</a>
</g>
</g>
<!-- Node7&#45;&gt;Node11 -->
<g id="edge11" class="edge">
<title>Node7&#45;&gt;Node11</title>
<path fill="none" stroke="midnightblue" d="M456.81,-185.04C448.71,-182.78 440.65,-180.33 433,-177.73 416.42,-172.1 413.38,-167.91 397,-161.73 388.34,-158.47 379.15,-155.27 370.02,-152.25"/>
<polygon fill="midnightblue" stroke="midnightblue" points="456.12,-188.48 466.69,-187.7 457.95,-181.72 456.12,-188.48"/>
</g>
<!-- Node12 -->
<g id="node12" class="node">
<title>Node12</title>
<g id="a_node12"><a xlink:href="classtests_1_1test__commit__commands_1_1TestCommitCommands.html#af9c09013055ec39ddde86b487aefcf8b" target="_top" xlink:title=" ">
<polygon fill="white" stroke="black" points="216.5,-51.23 216.5,-92.23 383.5,-92.23 383.5,-51.23 216.5,-51.23"/>
<text text-anchor="start" x="224.5" y="-80.23" font-family="Helvetica,sans-Serif" font-size="10.00">tests.test_commit_commands.</text>
<text text-anchor="start" x="224.5" y="-69.23" font-family="Helvetica,sans-Serif" font-size="10.00">TestCommitCommands.test</text>
<text text-anchor="middle" x="300" y="-58.23" font-family="Helvetica,sans-Serif" font-size="10.00">_commit_code_with_jira_client</text>
</a>
</g>
</g>
<!-- Node7&#45;&gt;Node12 -->
<g id="edge12" class="edge">
<title>Node7&#45;&gt;Node12</title>
<path fill="none" stroke="midnightblue" d="M441.79,-183.92C438.72,-182.05 435.77,-179.99 433,-177.73 404,-154.15 425.21,-126.26 397,-101.73 392.91,-98.18 388.41,-95.05 383.65,-92.29"/>
<polygon fill="midnightblue" stroke="midnightblue" points="440.3,-187.09 450.77,-188.74 443.61,-180.93 440.3,-187.09"/>
</g>
<!-- Node13 -->
<g id="node13" class="node">
<title>Node13</title>
<g id="a_node13"><a xlink:href="classtests_1_1test__commit__commands_1_1TestCommitCommands.html#acea0d934ee0f2b914b0b893736e8fe4e" target="_top" xlink:title=" ">
<polygon fill="white" stroke="black" points="203,-231.73 203,-283.73 397,-283.73 397,-231.73 203,-231.73"/>
<text text-anchor="start" x="211" y="-271.73" font-family="Helvetica,sans-Serif" font-size="10.00">tests.test_commit_commands.</text>
<text text-anchor="start" x="211" y="-260.73" font-family="Helvetica,sans-Serif" font-size="10.00">TestCommitCommands.test</text>
<text text-anchor="start" x="211" y="-249.73" font-family="Helvetica,sans-Serif" font-size="10.00">_commit_code_with_jira_connection</text>
<text text-anchor="middle" x="300" y="-238.73" font-family="Helvetica,sans-Serif" font-size="10.00">_failure</text>
</a>
</g>
</g>
<!-- Node7&#45;&gt;Node13 -->
<g id="edge13" class="edge">
<title>Node7&#45;&gt;Node13</title>
<path fill="none" stroke="midnightblue" d="M462.19,-220.09C441.53,-224.91 418.8,-230.22 397.08,-235.29"/>
<polygon fill="midnightblue" stroke="midnightblue" points="463.21,-223.45 472.15,-217.76 461.61,-216.63 463.21,-223.45"/>
</g>
<!-- Node14 -->
<g id="node14" class="node">
<title>Node14</title>
<g id="a_node14"><a xlink:href="classtests_1_1test__commit__commands_1_1TestCommitCommands.html#acc4b1e4189792a3f7c11d2a745f479c0" target="_top" xlink:title=" ">
<polygon fill="white" stroke="black" points="216.5,-171.23 216.5,-212.23 383.5,-212.23 383.5,-171.23 216.5,-171.23"/>
<text text-anchor="start" x="224.5" y="-200.23" font-family="Helvetica,sans-Serif" font-size="10.00">tests.test_commit_commands.</text>
<text text-anchor="start" x="224.5" y="-189.23" font-family="Helvetica,sans-Serif" font-size="10.00">TestCommitCommands.test</text>
<text text-anchor="middle" x="300" y="-178.23" font-family="Helvetica,sans-Serif" font-size="10.00">_commit_code_with_llm_client</text>
</a>
</g>
</g>
<!-- Node7&#45;&gt;Node14 -->
<g id="edge14" class="edge">
<title>Node7&#45;&gt;Node14</title>
<path fill="none" stroke="midnightblue" d="M440.74,-198.26C421.89,-197.38 402.25,-196.46 383.87,-195.6"/>
<polygon fill="midnightblue" stroke="midnightblue" points="440.66,-201.76 450.81,-198.73 440.99,-194.77 440.66,-201.76"/>
</g>
<!-- Node8&#45;&gt;Node9 -->
<g id="edge8" class="edge">
<title>Node8&#45;&gt;Node9</title>
<path fill="none" stroke="midnightblue" d="M212.26,-298.19C209.06,-296.52 205.96,-294.7 203,-292.73 143.85,-253.31 102.3,-174.28 89.04,-146.59"/>
<polygon fill="midnightblue" stroke="midnightblue" points="211,-301.46 221.54,-302.53 213.97,-295.12 211,-301.46"/>
</g>
<!-- Node10 -->
<g id="node10" class="node">
<title>Node10</title>
<g id="a_node10"><a xlink:href="classtests_1_1test__commit__commands_1_1TestCommitCommands.html#ac13e368262340af98b30fd8ebdac6597" target="_top" xlink:title=" ">
<polygon fill="white" stroke="black" points="0,-297.23 0,-338.23 167,-338.23 167,-297.23 0,-297.23"/>
<text text-anchor="start" x="8" y="-326.23" font-family="Helvetica,sans-Serif" font-size="10.00">tests.test_commit_commands.</text>
<text text-anchor="start" x="8" y="-315.23" font-family="Helvetica,sans-Serif" font-size="10.00">TestCommitCommands.test</text>
<text text-anchor="middle" x="83.5" y="-304.23" font-family="Helvetica,sans-Serif" font-size="10.00">_handle_commit</text>
</a>
</g>
</g>
<!-- Node8&#45;&gt;Node10 -->
<g id="edge10" class="edge">
<title>Node8&#45;&gt;Node10</title>
<path fill="none" stroke="midnightblue" d="M203.27,-317.73C191.26,-317.73 179.06,-317.73 167.27,-317.73"/>
<polygon fill="midnightblue" stroke="midnightblue" points="203.3,-321.23 213.3,-317.73 203.3,-314.23 203.3,-321.23"/>
</g>
<!-- Node9&#45;&gt;Node9 -->
<g id="edge9" class="edge">
<title>Node9&#45;&gt;Node9</title>
<path fill="none" stroke="midnightblue" d="M123.9,-153.35C125.31,-159.59 111.85,-164.73 83.5,-164.73 44.9,-164.73 33.89,-155.19 50.48,-146.35"/>
<polygon fill="midnightblue" stroke="midnightblue" points="126.18,-150.69 116.52,-146.35 121.36,-155.77 126.18,-150.69"/>
</g>
<!-- Node15&#45;&gt;Node15 -->
<g id="edge16" class="edge">
<title>Node15&#45;&gt;Node15</title>
<path fill="none" stroke="midnightblue" d="M575.69,-160.59C570.01,-165.43 557.28,-168.73 537.5,-168.73 505.85,-168.73 492.25,-160.28 496.7,-150.6"/>
<polygon fill="midnightblue" stroke="midnightblue" points="579.16,-161.16 578.3,-150.6 572.39,-159.39 579.16,-161.16"/>
</g>
<!-- Node16&#45;&gt;Node17 -->
<g id="edge18" class="edge">
<title>Node16&#45;&gt;Node17</title>
<path fill="none" stroke="midnightblue" d="M451.36,-319.4C445.11,-321.45 438.94,-323.56 433,-325.73 416.55,-331.74 413.53,-335.95 397,-341.73 386.68,-345.34 375.57,-348.7 364.7,-351.71"/>
<polygon fill="midnightblue" stroke="midnightblue" points="452.75,-322.63 461.21,-316.25 450.62,-315.96 452.75,-322.63"/>
</g>
<!-- Node18&#45;&gt;Node17 -->
<g id="edge22" class="edge">
<title>Node18&#45;&gt;Node17</title>
<path fill="none" stroke="midnightblue" d="M422.6,-361.05C413.12,-361.5 403.6,-361.94 394.3,-362.38"/>
<polygon fill="midnightblue" stroke="midnightblue" points="423.04,-364.54 432.86,-360.57 422.71,-357.54 423.04,-364.54"/>
</g>
</g>
</svg>
