<?xml version="1.0" encoding="UTF-8" standalone="no"?>
<!DOCTYPE svg PUBLIC "-//W3C//DTD SVG 1.1//EN"
 "http://www.w3.org/Graphics/SVG/1.1/DTD/svg11.dtd">
<!-- Generated by graphviz version 2.43.0 (0)
 -->
<!-- Title: penify_hook.login_command.handle_login Pages: 1 -->
<svg width="776pt" height="57pt"
 viewBox="0.00 0.00 776.00 57.00" xmlns="http://www.w3.org/2000/svg" xmlns:xlink="http://www.w3.org/1999/xlink">
<g id="graph0" class="graph" transform="scale(1 1) rotate(0) translate(4 53)">
<title>penify_hook.login_command.handle_login</title>
<polygon fill="white" stroke="transparent" points="-4,4 -4,-53 772,-53 772,4 -4,4"/>
<!-- Node1 -->
<g id="node1" class="node">
<title>Node1</title>
<g id="a_node1"><a xlink:title=" ">
<polygon fill="#bfbfbf" stroke="black" points="0,-0.5 0,-30.5 193,-30.5 193,-0.5 0,-0.5"/>
<text text-anchor="start" x="8" y="-18.5" font-family="Helvetica,sans-Serif" font-size="10.00">penify_hook.login_command.handle</text>
<text text-anchor="middle" x="96.5" y="-7.5" font-family="Helvetica,sans-Serif" font-size="10.00">_login</text>
</a>
</g>
</g>
<!-- Node2 -->
<g id="node2" class="node">
<title>Node2</title>
<g id="a_node2"><a xlink:href="namespacepenify__hook_1_1commands_1_1auth__commands.html#a78f375c58bb6f69f98675e6a9ac84655" target="_top" xlink:title=" ">
<polygon fill="white" stroke="black" points="229,-0.5 229,-30.5 387,-30.5 387,-0.5 229,-0.5"/>
<text text-anchor="start" x="237" y="-18.5" font-family="Helvetica,sans-Serif" font-size="10.00">penify_hook.commands.auth</text>
<text text-anchor="middle" x="308" y="-7.5" font-family="Helvetica,sans-Serif" font-size="10.00">_commands.login</text>
</a>
</g>
</g>
<!-- Node1&#45;&gt;Node2 -->
<g id="edge1" class="edge">
<title>Node1&#45;&gt;Node2</title>
<path fill="none" stroke="midnightblue" d="M193.05,-15.5C201.57,-15.5 210.17,-15.5 218.62,-15.5"/>
<polygon fill="midnightblue" stroke="midnightblue" points="218.84,-19 228.84,-15.5 218.84,-12 218.84,-19"/>
</g>
<!-- Node3 -->
<g id="node3" class="node">
<title>Node3</title>
<g id="a_node3"><a xlink:href="namespacepenify__hook_1_1commands_1_1auth__commands.html#aa3956ca1749d4218ea1dc6e5b6218b24" target="_top" xlink:title=" ">
<polygon fill="white" stroke="black" points="423,-0.5 423,-30.5 584,-30.5 584,-0.5 423,-0.5"/>
<text text-anchor="start" x="431" y="-18.5" font-family="Helvetica,sans-Serif" font-size="10.00">penify_hook.commands.auth</text>
<text text-anchor="middle" x="503.5" y="-7.5" font-family="Helvetica,sans-Serif" font-size="10.00">_commands.save_credentials</text>
</a>
</g>
</g>
<!-- Node2&#45;&gt;Node3 -->
<g id="edge2" class="edge">
<title>Node2&#45;&gt;Node3</title>
<path fill="none" stroke="midnightblue" d="M387.15,-15.5C395.59,-15.5 404.23,-15.5 412.8,-15.5"/>
<polygon fill="midnightblue" stroke="midnightblue" points="412.8,-19 422.8,-15.5 412.8,-12 412.8,-19"/>
</g>
<!-- Node4 -->
<g id="node4" class="node">
<title>Node4</title>
<g id="a_node4"><a xlink:href="namespacepenify__hook_1_1utils.html#a95c3f9c80860d6a2e2d061d2fb660a3f" target="_top" xlink:title=" ">
<polygon fill="white" stroke="black" points="620,-0.5 620,-30.5 768,-30.5 768,-0.5 620,-0.5"/>
<text text-anchor="start" x="628" y="-18.5" font-family="Helvetica,sans-Serif" font-size="10.00">penify_hook.utils.recursive</text>
<text text-anchor="middle" x="694" y="-7.5" font-family="Helvetica,sans-Serif" font-size="10.00">_search_git_folder</text>
</a>
</g>
</g>
<!-- Node3&#45;&gt;Node4 -->
<g id="edge3" class="edge">
<title>Node3&#45;&gt;Node4</title>
<path fill="none" stroke="midnightblue" d="M584.17,-15.5C592.6,-15.5 601.19,-15.5 609.66,-15.5"/>
<polygon fill="midnightblue" stroke="midnightblue" points="609.91,-19 619.91,-15.5 609.91,-12 609.91,-19"/>
</g>
<!-- Node4&#45;&gt;Node4 -->
<g id="edge4" class="edge">
<title>Node4&#45;&gt;Node4</title>
<path fill="none" stroke="midnightblue" d="M660.89,-30.66C652.9,-40.06 663.94,-49 694,-49 712.32,-49 723.57,-45.68 727.76,-40.96"/>
<polygon fill="midnightblue" stroke="midnightblue" points="731.23,-40.42 727.11,-30.66 724.25,-40.86 731.23,-40.42"/>
</g>
</g>
</svg>
