<?xml version="1.0" encoding="UTF-8" standalone="no"?>
<!DOCTYPE svg PUBLIC "-//W3C//DTD SVG 1.1//EN"
 "http://www.w3.org/Graphics/SVG/1.1/DTD/svg11.dtd">
<!-- Generated by graphviz version 2.43.0 (0)
 -->
<!-- Title: penify_hook.commands.doc_commands.setup_docgen_parser Pages: 1 -->
<svg width="392pt" height="96pt"
 viewBox="0.00 0.00 392.00 95.50" xmlns="http://www.w3.org/2000/svg" xmlns:xlink="http://www.w3.org/1999/xlink">
<g id="graph0" class="graph" transform="scale(1 1) rotate(0) translate(4 91.5)">
<title>penify_hook.commands.doc_commands.setup_docgen_parser</title>
<polygon fill="white" stroke="transparent" points="-4,4 -4,-91.5 388,-91.5 388,4 -4,4"/>
<!-- Node1 -->
<g id="node1" class="node">
<title>Node1</title>
<g id="a_node1"><a xlink:title=" ">
<polygon fill="#bfbfbf" stroke="black" points="202,-22.5 202,-52.5 384,-52.5 384,-22.5 202,-22.5"/>
<text text-anchor="start" x="210" y="-40.5" font-family="Helvetica,sans-Serif" font-size="10.00">penify_hook.commands.doc</text>
<text text-anchor="middle" x="293" y="-29.5" font-family="Helvetica,sans-Serif" font-size="10.00">_commands.setup_docgen_parser</text>
</a>
</g>
</g>
<!-- Node2 -->
<g id="node2" class="node">
<title>Node2</title>
<g id="a_node2"><a xlink:href="namespacepenify__hook_1_1main.html#a16838b20df4bd14ee4b5e1dd2906738f" target="_top" xlink:title=" ">
<polygon fill="white" stroke="black" points="17.5,-50 17.5,-69 148.5,-69 148.5,-50 17.5,-50"/>
<text text-anchor="middle" x="83" y="-57" font-family="Helvetica,sans-Serif" font-size="10.00">penify_hook.main.main</text>
</a>
</g>
</g>
<!-- Node1&#45;&gt;Node2 -->
<g id="edge1" class="edge">
<title>Node1&#45;&gt;Node2</title>
<path fill="none" stroke="midnightblue" d="M191.87,-48.09C177.22,-49.64 162.46,-51.2 148.77,-52.65"/>
<polygon fill="midnightblue" stroke="midnightblue" points="192.4,-51.55 201.98,-47.02 191.67,-44.59 192.4,-51.55"/>
</g>
<!-- Node3 -->
<g id="node3" class="node">
<title>Node3</title>
<g id="a_node3"><a xlink:href="namespacetests_1_1test__doc__commands.html#a0f27751d0ba2acfe40ef7e85bccf47d7" target="_top" xlink:title=" ">
<polygon fill="white" stroke="black" points="0,-0.5 0,-30.5 166,-30.5 166,-0.5 0,-0.5"/>
<text text-anchor="start" x="8" y="-18.5" font-family="Helvetica,sans-Serif" font-size="10.00">tests.test_doc_commands.test</text>
<text text-anchor="middle" x="83" y="-7.5" font-family="Helvetica,sans-Serif" font-size="10.00">_setup_docgen_parser</text>
</a>
</g>
</g>
<!-- Node1&#45;&gt;Node3 -->
<g id="edge3" class="edge">
<title>Node1&#45;&gt;Node3</title>
<path fill="none" stroke="midnightblue" d="M191.93,-26.92C183.34,-26.01 174.72,-25.1 166.3,-24.2"/>
<polygon fill="midnightblue" stroke="midnightblue" points="191.67,-30.41 201.98,-27.98 192.4,-23.45 191.67,-30.41"/>
</g>
<!-- Node2&#45;&gt;Node2 -->
<g id="edge2" class="edge">
<title>Node2&#45;&gt;Node2</title>
<path fill="none" stroke="midnightblue" d="M122.28,-76.12C123.65,-82.36 110.56,-87.5 83,-87.5 45.47,-87.5 34.77,-77.96 50.89,-69.11"/>
<polygon fill="midnightblue" stroke="midnightblue" points="124.7,-73.6 115.11,-69.11 119.81,-78.6 124.7,-73.6"/>
</g>
</g>
</svg>
