<?xml version="1.0" encoding="UTF-8" standalone="no"?>
<!DOCTYPE svg PUBLIC "-//W3C//DTD SVG 1.1//EN"
 "http://www.w3.org/Graphics/SVG/1.1/DTD/svg11.dtd">
<!-- Generated by graphviz version 2.43.0 (0)
 -->
<!-- Title: penify_hook.commit_analyzer.CommitDocGenHook.process_jira_integration Pages: 1 -->
<svg width="627pt" height="78pt"
 viewBox="0.00 0.00 627.00 77.50" xmlns="http://www.w3.org/2000/svg" xmlns:xlink="http://www.w3.org/1999/xlink">
<g id="graph0" class="graph" transform="scale(1 1) rotate(0) translate(4 73.5)">
<title>penify_hook.commit_analyzer.CommitDocGenHook.process_jira_integration</title>
<polygon fill="white" stroke="transparent" points="-4,4 -4,-73.5 623,-73.5 623,4 -4,4"/>
<!-- Node1 -->
<g id="node1" class="node">
<title>Node1</title>
<g id="a_node1"><a xlink:title=" ">
<polygon fill="#bfbfbf" stroke="black" points="0,-17 0,-58 209,-58 209,-17 0,-17"/>
<text text-anchor="start" x="8" y="-46" font-family="Helvetica,sans-Serif" font-size="10.00">penify_hook.commit</text>
<text text-anchor="start" x="8" y="-35" font-family="Helvetica,sans-Serif" font-size="10.00">_analyzer.CommitDocGenHook.process</text>
<text text-anchor="middle" x="104.5" y="-24" font-family="Helvetica,sans-Serif" font-size="10.00">_jira_integration</text>
</a>
</g>
</g>
<!-- Node2 -->
<g id="node2" class="node">
<title>Node2</title>
<g id="a_node2"><a xlink:href="$namespacepenify__hook_1_1ui__utils.html#a811f0adf6e9bf71510c379b6fa155e44" xlink:title=" ">
<polygon fill="white" stroke="black" points="245,-50 245,-69 409,-69 409,-50 245,-50"/>
<text text-anchor="middle" x="327" y="-57" font-family="Helvetica,sans-Serif" font-size="10.00">penify_hook.ui_utils.print_info</text>
</a>
</g>
</g>
<!-- Node1&#45;&gt;Node2 -->
<g id="edge1" class="edge">
<title>Node1&#45;&gt;Node2</title>
<path fill="none" stroke="midnightblue" d="M209.29,-47.86C217.79,-48.7 226.34,-49.56 234.74,-50.39"/>
<polygon fill="midnightblue" stroke="midnightblue" points="234.59,-53.9 244.89,-51.41 235.29,-46.93 234.59,-53.9"/>
</g>
<!-- Node4 -->
<g id="node4" class="node">
<title>Node4</title>
<g id="a_node4"><a xlink:href="$namespacepenify__hook_1_1ui__utils.html#a1ffbb9671dbe233770268e2dd66a67fa" xlink:title=" ">
<polygon fill="white" stroke="black" points="257,-0.5 257,-30.5 397,-30.5 397,-0.5 257,-0.5"/>
<text text-anchor="start" x="265" y="-18.5" font-family="Helvetica,sans-Serif" font-size="10.00">penify_hook.ui_utils.print</text>
<text text-anchor="middle" x="327" y="-7.5" font-family="Helvetica,sans-Serif" font-size="10.00">_warning</text>
</a>
</g>
</g>
<!-- Node1&#45;&gt;Node4 -->
<g id="edge3" class="edge">
<title>Node1&#45;&gt;Node4</title>
<path fill="none" stroke="midnightblue" d="M209.29,-27.14C221.86,-25.89 234.54,-24.63 246.67,-23.41"/>
<polygon fill="midnightblue" stroke="midnightblue" points="247.12,-26.89 256.72,-22.41 246.43,-19.92 247.12,-26.89"/>
</g>
<!-- Node3 -->
<g id="node3" class="node">
<title>Node3</title>
<g id="a_node3"><a xlink:href="$namespacepenify__hook_1_1ui__utils.html#a92c3e466d1912058167be2eacf85b9f6" xlink:title=" ">
<polygon fill="white" stroke="black" points="445,-50 445,-69 619,-69 619,-50 445,-50"/>
<text text-anchor="middle" x="532" y="-57" font-family="Helvetica,sans-Serif" font-size="10.00">penify_hook.ui_utils.format_info</text>
</a>
</g>
</g>
<!-- Node2&#45;&gt;Node3 -->
<g id="edge2" class="edge">
<title>Node2&#45;&gt;Node3</title>
<path fill="none" stroke="midnightblue" d="M409.11,-59.5C417.52,-59.5 426.13,-59.5 434.69,-59.5"/>
<polygon fill="midnightblue" stroke="midnightblue" points="434.7,-63 444.7,-59.5 434.7,-56 434.7,-63"/>
</g>
<!-- Node5 -->
<g id="node5" class="node">
<title>Node5</title>
<g id="a_node5"><a xlink:href="$namespacepenify__hook_1_1ui__utils.html#a0a6fd2613c6fe053b6e4356cd9e5cda2" xlink:title=" ">
<polygon fill="white" stroke="black" points="457,-0.5 457,-30.5 607,-30.5 607,-0.5 457,-0.5"/>
<text text-anchor="start" x="465" y="-18.5" font-family="Helvetica,sans-Serif" font-size="10.00">penify_hook.ui_utils.format</text>
<text text-anchor="middle" x="532" y="-7.5" font-family="Helvetica,sans-Serif" font-size="10.00">_warning</text>
</a>
</g>
</g>
<!-- Node4&#45;&gt;Node5 -->
<g id="edge4" class="edge">
<title>Node4&#45;&gt;Node5</title>
<path fill="none" stroke="midnightblue" d="M397.01,-15.5C413,-15.5 430.2,-15.5 446.76,-15.5"/>
<polygon fill="midnightblue" stroke="midnightblue" points="446.97,-19 456.97,-15.5 446.97,-12 446.97,-19"/>
</g>
</g>
</svg>
