<?xml version="1.0" encoding="UTF-8" standalone="no"?>
<!DOCTYPE svg PUBLIC "-//W3C//DTD SVG 1.1//EN"
 "http://www.w3.org/Graphics/SVG/1.1/DTD/svg11.dtd">
<!-- Generated by graphviz version 2.43.0 (0)
 -->
<!-- Title: penify_hook.file_analyzer.FileAnalyzerGenHook.run Pages: 1 -->
<svg width="781pt" height="284pt"
 viewBox="0.00 0.00 781.00 284.00" xmlns="http://www.w3.org/2000/svg" xmlns:xlink="http://www.w3.org/1999/xlink">
<g id="graph0" class="graph" transform="scale(1 1) rotate(0) translate(4 280)">
<title>penify_hook.file_analyzer.FileAnalyzerGenHook.run</title>
<polygon fill="white" stroke="transparent" points="-4,4 -4,-280 777,-280 777,4 -4,4"/>
<!-- Node1 -->
<g id="node1" class="node">
<title>Node1</title>
<g id="a_node1"><a xlink:title=" ">
<polygon fill="#bfbfbf" stroke="black" points="0,-122.5 0,-152.5 143,-152.5 143,-122.5 0,-122.5"/>
<text text-anchor="start" x="8" y="-140.5" font-family="Helvetica,sans-Serif" font-size="10.00">penify_hook.file_analyzer.</text>
<text text-anchor="middle" x="71.5" y="-129.5" font-family="Helvetica,sans-Serif" font-size="10.00">FileAnalyzerGenHook.run</text>
</a>
</g>
</g>
<!-- Node2 -->
<g id="node2" class="node">
<title>Node2</title>
<g id="a_node2"><a xlink:href="$namespacepenify__hook_1_1ui__utils.html#a3da02cd1140179a9ce60f62c85fccfef" xlink:title=" ">
<polygon fill="white" stroke="black" points="196,-245.5 196,-275.5 344,-275.5 344,-245.5 196,-245.5"/>
<text text-anchor="start" x="204" y="-263.5" font-family="Helvetica,sans-Serif" font-size="10.00">penify_hook.ui_utils.create</text>
<text text-anchor="middle" x="270" y="-252.5" font-family="Helvetica,sans-Serif" font-size="10.00">_stage_progress_bar</text>
</a>
</g>
</g>
<!-- Node1&#45;&gt;Node2 -->
<g id="edge1" class="edge">
<title>Node1&#45;&gt;Node2</title>
<path fill="none" stroke="midnightblue" d="M84.57,-152.69C102.73,-174.51 139.23,-214.53 179,-236.5 182.31,-238.33 185.76,-240.02 189.31,-241.59"/>
<polygon fill="midnightblue" stroke="midnightblue" points="188.29,-244.96 198.88,-245.46 190.92,-238.47 188.29,-244.96"/>
</g>
<!-- Node4 -->
<g id="node4" class="node">
<title>Node4</title>
<g id="a_node4"><a xlink:href="$namespacepenify__hook_1_1ui__utils.html#aa6e684c00e26199440137a87ed9b195c" xlink:title=" ">
<polygon fill="white" stroke="black" points="200,-196.5 200,-226.5 340,-226.5 340,-196.5 200,-196.5"/>
<text text-anchor="start" x="208" y="-214.5" font-family="Helvetica,sans-Serif" font-size="10.00">penify_hook.ui_utils.print</text>
<text text-anchor="middle" x="270" y="-203.5" font-family="Helvetica,sans-Serif" font-size="10.00">_status</text>
</a>
</g>
</g>
<!-- Node1&#45;&gt;Node4 -->
<g id="edge3" class="edge">
<title>Node1&#45;&gt;Node4</title>
<path fill="none" stroke="midnightblue" d="M100.84,-152.5C121.96,-163.26 151.75,-177.56 179,-187.5 184.78,-189.61 190.83,-191.62 196.95,-193.52"/>
<polygon fill="midnightblue" stroke="midnightblue" points="195.99,-196.89 206.58,-196.41 198,-190.18 195.99,-196.89"/>
</g>
<!-- Node5 -->
<g id="node5" class="node">
<title>Node5</title>
<g id="a_node5"><a xlink:href="$namespacepenify__hook_1_1ui__utils.html#a2b16aa6b68a9edea5f29f84f1c4be79a" xlink:title=" ">
<polygon fill="white" stroke="black" points="200,-147.5 200,-177.5 340,-177.5 340,-147.5 200,-147.5"/>
<text text-anchor="start" x="208" y="-165.5" font-family="Helvetica,sans-Serif" font-size="10.00">penify_hook.ui_utils.print</text>
<text text-anchor="middle" x="270" y="-154.5" font-family="Helvetica,sans-Serif" font-size="10.00">_success</text>
</a>
</g>
</g>
<!-- Node1&#45;&gt;Node5 -->
<g id="edge4" class="edge">
<title>Node1&#45;&gt;Node5</title>
<path fill="none" stroke="midnightblue" d="M143.16,-146.49C158.33,-148.42 174.44,-150.47 189.9,-152.44"/>
<polygon fill="midnightblue" stroke="midnightblue" points="189.59,-155.92 199.95,-153.72 190.47,-148.98 189.59,-155.92"/>
</g>
<!-- Node7 -->
<g id="node7" class="node">
<title>Node7</title>
<g id="a_node7"><a xlink:href="$classpenify__hook_1_1git__analyzer_1_1GitDocGenHook.html#a05313caa22b173ce75638f0db08eeb85" xlink:title=" ">
<polygon fill="white" stroke="black" points="192.5,-98.5 192.5,-128.5 347.5,-128.5 347.5,-98.5 192.5,-98.5"/>
<text text-anchor="start" x="200.5" y="-116.5" font-family="Helvetica,sans-Serif" font-size="10.00">penify_hook.git_analyzer.</text>
<text text-anchor="middle" x="270" y="-105.5" font-family="Helvetica,sans-Serif" font-size="10.00">GitDocGenHook.process_file</text>
</a>
</g>
</g>
<!-- Node1&#45;&gt;Node7 -->
<g id="edge6" class="edge">
<title>Node1&#45;&gt;Node7</title>
<path fill="none" stroke="midnightblue" d="M143.16,-128.87C155.88,-127.32 169.26,-125.68 182.37,-124.08"/>
<polygon fill="midnightblue" stroke="midnightblue" points="182.81,-127.55 192.32,-122.87 181.97,-120.6 182.81,-127.55"/>
</g>
<!-- Node9 -->
<g id="node9" class="node">
<title>Node9</title>
<g id="a_node9"><a xlink:href="$classpenify__hook_1_1file__analyzer_1_1FileAnalyzerGenHook.html#a2cc6c22ef588fccf3eed9bbc57fb6d6e" xlink:title=" ">
<polygon fill="white" stroke="black" points="179,-49.5 179,-79.5 361,-79.5 361,-49.5 179,-49.5"/>
<text text-anchor="start" x="187" y="-67.5" font-family="Helvetica,sans-Serif" font-size="10.00">penify_hook.file_analyzer.</text>
<text text-anchor="middle" x="270" y="-56.5" font-family="Helvetica,sans-Serif" font-size="10.00">FileAnalyzerGenHook.process_file</text>
</a>
</g>
</g>
<!-- Node1&#45;&gt;Node9 -->
<g id="edge8" class="edge">
<title>Node1&#45;&gt;Node9</title>
<path fill="none" stroke="midnightblue" d="M102.75,-122.38C123.79,-112.23 152.68,-99.02 179,-89.5 185.71,-87.07 192.77,-84.74 199.87,-82.54"/>
<polygon fill="midnightblue" stroke="midnightblue" points="200.96,-85.87 209.53,-79.63 198.95,-79.16 200.96,-85.87"/>
</g>
<!-- Node12 -->
<g id="node12" class="node">
<title>Node12</title>
<g id="a_node12"><a xlink:href="$namespacepenify__hook_1_1ui__utils.html#a5a7340d0fc60fb80f17514d60bf45f1d" xlink:title=" ">
<polygon fill="white" stroke="black" points="416.5,-0.5 416.5,-30.5 567.5,-30.5 567.5,-0.5 416.5,-0.5"/>
<text text-anchor="start" x="424.5" y="-18.5" font-family="Helvetica,sans-Serif" font-size="10.00">penify_hook.ui_utils.update</text>
<text text-anchor="middle" x="492" y="-7.5" font-family="Helvetica,sans-Serif" font-size="10.00">_stage</text>
</a>
</g>
</g>
<!-- Node1&#45;&gt;Node12 -->
<g id="edge12" class="edge">
<title>Node1&#45;&gt;Node12</title>
<path fill="none" stroke="midnightblue" d="M83.54,-122.24C100.93,-99.58 137.07,-57.74 179,-39.5 251.11,-8.13 341.43,-4.56 406.31,-7.39"/>
<polygon fill="midnightblue" stroke="midnightblue" points="406.34,-10.89 416.5,-7.89 406.68,-3.9 406.34,-10.89"/>
</g>
<!-- Node3 -->
<g id="node3" class="node">
<title>Node3</title>
<g id="a_node3"><a xlink:href="$namespacepenify__hook_1_1ui__utils.html#a92c3e466d1912058167be2eacf85b9f6" xlink:title=" ">
<polygon fill="white" stroke="black" points="405,-251 405,-270 579,-270 579,-251 405,-251"/>
<text text-anchor="middle" x="492" y="-258" font-family="Helvetica,sans-Serif" font-size="10.00">penify_hook.ui_utils.format_info</text>
</a>
</g>
</g>
<!-- Node2&#45;&gt;Node3 -->
<g id="edge2" class="edge">
<title>Node2&#45;&gt;Node3</title>
<path fill="none" stroke="midnightblue" d="M344.26,-260.5C360.3,-260.5 377.52,-260.5 394.33,-260.5"/>
<polygon fill="midnightblue" stroke="midnightblue" points="394.72,-264 404.72,-260.5 394.72,-257 394.72,-264"/>
</g>
<!-- Node6 -->
<g id="node6" class="node">
<title>Node6</title>
<g id="a_node6"><a xlink:href="$namespacepenify__hook_1_1ui__utils.html#a532cdb4de7c679ce8b29c3e9116c4776" xlink:title=" ">
<polygon fill="white" stroke="black" points="417,-147.5 417,-177.5 567,-177.5 567,-147.5 417,-147.5"/>
<text text-anchor="start" x="425" y="-165.5" font-family="Helvetica,sans-Serif" font-size="10.00">penify_hook.ui_utils.format</text>
<text text-anchor="middle" x="492" y="-154.5" font-family="Helvetica,sans-Serif" font-size="10.00">_success</text>
</a>
</g>
</g>
<!-- Node5&#45;&gt;Node6 -->
<g id="edge5" class="edge">
<title>Node5&#45;&gt;Node6</title>
<path fill="none" stroke="midnightblue" d="M340.01,-162.5C361.21,-162.5 384.78,-162.5 406.87,-162.5"/>
<polygon fill="midnightblue" stroke="midnightblue" points="406.9,-166 416.9,-162.5 406.9,-159 406.9,-166"/>
</g>
<!-- Node8 -->
<g id="node8" class="node">
<title>Node8</title>
<g id="a_node8"><a xlink:href="$classpenify__hook_1_1git__analyzer_1_1GitDocGenHook.html#a974d2f51315ed6a1965a7fd7e2ced0cd" xlink:title=" ">
<polygon fill="white" stroke="black" points="397,-98.5 397,-128.5 587,-128.5 587,-98.5 397,-98.5"/>
<text text-anchor="start" x="405" y="-116.5" font-family="Helvetica,sans-Serif" font-size="10.00">penify_hook.git_analyzer.</text>
<text text-anchor="middle" x="492" y="-105.5" font-family="Helvetica,sans-Serif" font-size="10.00">GitDocGenHook.get_modified_lines</text>
</a>
</g>
</g>
<!-- Node7&#45;&gt;Node8 -->
<g id="edge7" class="edge">
<title>Node7&#45;&gt;Node8</title>
<path fill="none" stroke="midnightblue" d="M347.64,-113.5C360.29,-113.5 373.58,-113.5 386.77,-113.5"/>
<polygon fill="midnightblue" stroke="midnightblue" points="386.82,-117 396.82,-113.5 386.82,-110 386.82,-117"/>
</g>
<!-- Node10 -->
<g id="node10" class="node">
<title>Node10</title>
<g id="a_node10"><a xlink:href="$namespacepenify__hook_1_1ui__utils.html#a1ffbb9671dbe233770268e2dd66a67fa" xlink:title=" ">
<polygon fill="white" stroke="black" points="422,-49.5 422,-79.5 562,-79.5 562,-49.5 422,-49.5"/>
<text text-anchor="start" x="430" y="-67.5" font-family="Helvetica,sans-Serif" font-size="10.00">penify_hook.ui_utils.print</text>
<text text-anchor="middle" x="492" y="-56.5" font-family="Helvetica,sans-Serif" font-size="10.00">_warning</text>
</a>
</g>
</g>
<!-- Node9&#45;&gt;Node10 -->
<g id="edge9" class="edge">
<title>Node9&#45;&gt;Node10</title>
<path fill="none" stroke="midnightblue" d="M361.12,-64.5C377.92,-64.5 395.37,-64.5 411.81,-64.5"/>
<polygon fill="midnightblue" stroke="midnightblue" points="411.91,-68 421.91,-64.5 411.91,-61 411.91,-68"/>
</g>
<!-- Node9&#45;&gt;Node12 -->
<g id="edge11" class="edge">
<title>Node9&#45;&gt;Node12</title>
<path fill="none" stroke="midnightblue" d="M338.5,-49.47C362.26,-44.17 389.14,-38.19 413.65,-32.73"/>
<polygon fill="midnightblue" stroke="midnightblue" points="414.63,-36.1 423.63,-30.51 413.1,-29.26 414.63,-36.1"/>
</g>
<!-- Node11 -->
<g id="node11" class="node">
<title>Node11</title>
<g id="a_node11"><a xlink:href="$namespacepenify__hook_1_1ui__utils.html#a0a6fd2613c6fe053b6e4356cd9e5cda2" xlink:title=" ">
<polygon fill="white" stroke="black" points="623,-49.5 623,-79.5 773,-79.5 773,-49.5 623,-49.5"/>
<text text-anchor="start" x="631" y="-67.5" font-family="Helvetica,sans-Serif" font-size="10.00">penify_hook.ui_utils.format</text>
<text text-anchor="middle" x="698" y="-56.5" font-family="Helvetica,sans-Serif" font-size="10.00">_warning</text>
</a>
</g>
</g>
<!-- Node10&#45;&gt;Node11 -->
<g id="edge10" class="edge">
<title>Node10&#45;&gt;Node11</title>
<path fill="none" stroke="midnightblue" d="M562.07,-64.5C578.24,-64.5 595.66,-64.5 612.43,-64.5"/>
<polygon fill="midnightblue" stroke="midnightblue" points="612.77,-68 622.77,-64.5 612.77,-61 612.77,-68"/>
</g>
</g>
</svg>
