<?xml version="1.0" encoding="UTF-8" standalone="no"?>
<!DOCTYPE svg PUBLIC "-//W3C//DTD SVG 1.1//EN"
 "http://www.w3.org/Graphics/SVG/1.1/DTD/svg11.dtd">
<!-- Generated by graphviz version 2.43.0 (0)
 -->
<!-- Title: penify_hook.commands.auth_commands.login Pages: 1 -->
<svg width="547pt" height="57pt"
 viewBox="0.00 0.00 547.00 57.00" xmlns="http://www.w3.org/2000/svg" xmlns:xlink="http://www.w3.org/1999/xlink">
<g id="graph0" class="graph" transform="scale(1 1) rotate(0) translate(4 53)">
<title>penify_hook.commands.auth_commands.login</title>
<polygon fill="white" stroke="transparent" points="-4,4 -4,-53 543,-53 543,4 -4,4"/>
<!-- Node1 -->
<g id="node1" class="node">
<title>Node1</title>
<g id="a_node1"><a xlink:title=" ">
<polygon fill="#bfbfbf" stroke="black" points="0,-0.5 0,-30.5 158,-30.5 158,-0.5 0,-0.5"/>
<text text-anchor="start" x="8" y="-18.5" font-family="Helvetica,sans-Serif" font-size="10.00">penify_hook.commands.auth</text>
<text text-anchor="middle" x="79" y="-7.5" font-family="Helvetica,sans-Serif" font-size="10.00">_commands.login</text>
</a>
</g>
</g>
<!-- Node2 -->
<g id="node2" class="node">
<title>Node2</title>
<g id="a_node2"><a xlink:href="$namespacepenify__hook_1_1commands_1_1auth__commands.html#aa3956ca1749d4218ea1dc6e5b6218b24" xlink:title=" ">
<polygon fill="white" stroke="black" points="194,-0.5 194,-30.5 355,-30.5 355,-0.5 194,-0.5"/>
<text text-anchor="start" x="202" y="-18.5" font-family="Helvetica,sans-Serif" font-size="10.00">penify_hook.commands.auth</text>
<text text-anchor="middle" x="274.5" y="-7.5" font-family="Helvetica,sans-Serif" font-size="10.00">_commands.save_credentials</text>
</a>
</g>
</g>
<!-- Node1&#45;&gt;Node2 -->
<g id="edge1" class="edge">
<title>Node1&#45;&gt;Node2</title>
<path fill="none" stroke="midnightblue" d="M158.15,-15.5C166.59,-15.5 175.23,-15.5 183.8,-15.5"/>
<polygon fill="midnightblue" stroke="midnightblue" points="183.8,-19 193.8,-15.5 183.8,-12 183.8,-19"/>
</g>
<!-- Node3 -->
<g id="node3" class="node">
<title>Node3</title>
<g id="a_node3"><a xlink:href="$namespacepenify__hook_1_1utils.html#a95c3f9c80860d6a2e2d061d2fb660a3f" xlink:title=" ">
<polygon fill="white" stroke="black" points="391,-0.5 391,-30.5 539,-30.5 539,-0.5 391,-0.5"/>
<text text-anchor="start" x="399" y="-18.5" font-family="Helvetica,sans-Serif" font-size="10.00">penify_hook.utils.recursive</text>
<text text-anchor="middle" x="465" y="-7.5" font-family="Helvetica,sans-Serif" font-size="10.00">_search_git_folder</text>
</a>
</g>
</g>
<!-- Node2&#45;&gt;Node3 -->
<g id="edge2" class="edge">
<title>Node2&#45;&gt;Node3</title>
<path fill="none" stroke="midnightblue" d="M355.17,-15.5C363.6,-15.5 372.19,-15.5 380.66,-15.5"/>
<polygon fill="midnightblue" stroke="midnightblue" points="380.91,-19 390.91,-15.5 380.91,-12 380.91,-19"/>
</g>
<!-- Node3&#45;&gt;Node3 -->
<g id="edge3" class="edge">
<title>Node3&#45;&gt;Node3</title>
<path fill="none" stroke="midnightblue" d="M431.89,-30.66C423.9,-40.06 434.94,-49 465,-49 483.32,-49 494.57,-45.68 498.76,-40.96"/>
<polygon fill="midnightblue" stroke="midnightblue" points="502.23,-40.42 498.11,-30.66 495.25,-40.86 502.23,-40.42"/>
</g>
</g>
</svg>
