<?xml version="1.0" encoding="UTF-8" standalone="no"?>
<!DOCTYPE svg PUBLIC "-//W3C//DTD SVG 1.1//EN"
 "http://www.w3.org/Graphics/SVG/1.1/DTD/svg11.dtd">
<!-- Generated by graphviz version 2.43.0 (0)
 -->
<!-- Title: penify_hook.commands.commit_commands.setup_commit_parser Pages: 1 -->
<svg width="396pt" height="106pt"
 viewBox="0.00 0.00 396.00 106.00" xmlns="http://www.w3.org/2000/svg" xmlns:xlink="http://www.w3.org/1999/xlink">
<g id="graph0" class="graph" transform="scale(1 1) rotate(0) translate(4 102)">
<title>penify_hook.commands.commit_commands.setup_commit_parser</title>
<polygon fill="white" stroke="transparent" points="-4,4 -4,-102 392,-102 392,4 -4,4"/>
<!-- Node1 -->
<g id="node1" class="node">
<title>Node1</title>
<g id="a_node1"><a xlink:title=" ">
<polygon fill="#bfbfbf" stroke="black" points="203,-30 203,-60 388,-60 388,-30 203,-30"/>
<text text-anchor="start" x="211" y="-48" font-family="Helvetica,sans-Serif" font-size="10.00">penify_hook.commands.commit</text>
<text text-anchor="middle" x="295.5" y="-37" font-family="Helvetica,sans-Serif" font-size="10.00">_commands.setup_commit_parser</text>
</a>
</g>
</g>
<!-- Node2 -->
<g id="node2" class="node">
<title>Node2</title>
<g id="a_node2"><a xlink:href="$namespacepenify__hook_1_1main.html#a16838b20df4bd14ee4b5e1dd2906738f" xlink:title=" ">
<polygon fill="white" stroke="black" points="18,-60.5 18,-79.5 149,-79.5 149,-60.5 18,-60.5"/>
<text text-anchor="middle" x="83.5" y="-67.5" font-family="Helvetica,sans-Serif" font-size="10.00">penify_hook.main.main</text>
</a>
</g>
</g>
<!-- Node1&#45;&gt;Node2 -->
<g id="edge1" class="edge">
<title>Node1&#45;&gt;Node2</title>
<path fill="none" stroke="midnightblue" d="M192.54,-57.14C177.82,-58.89 163.03,-60.65 149.31,-62.28"/>
<polygon fill="midnightblue" stroke="midnightblue" points="193.18,-60.59 202.7,-55.93 192.35,-53.64 193.18,-60.59"/>
</g>
<!-- Node3 -->
<g id="node3" class="node">
<title>Node3</title>
<g id="a_node3"><a xlink:href="$classtests_1_1test__commit__commands_1_1TestCommitCommands.html#a4d04b125e102190a768f65f1948f15bc" xlink:title=" ">
<polygon fill="white" stroke="black" points="0,-0.5 0,-41.5 167,-41.5 167,-0.5 0,-0.5"/>
<text text-anchor="start" x="8" y="-29.5" font-family="Helvetica,sans-Serif" font-size="10.00">tests.test_commit_commands.</text>
<text text-anchor="start" x="8" y="-18.5" font-family="Helvetica,sans-Serif" font-size="10.00">TestCommitCommands.test</text>
<text text-anchor="middle" x="83.5" y="-7.5" font-family="Helvetica,sans-Serif" font-size="10.00">_setup_commit_parser</text>
</a>
</g>
</g>
<!-- Node1&#45;&gt;Node3 -->
<g id="edge3" class="edge">
<title>Node1&#45;&gt;Node3</title>
<path fill="none" stroke="midnightblue" d="M192.69,-33.36C184.15,-32.39 175.57,-31.41 167.2,-30.45"/>
<polygon fill="midnightblue" stroke="midnightblue" points="192.36,-36.85 202.7,-34.51 193.16,-29.9 192.36,-36.85"/>
</g>
<!-- Node2&#45;&gt;Node2 -->
<g id="edge2" class="edge">
<title>Node2&#45;&gt;Node2</title>
<path fill="none" stroke="midnightblue" d="M122.78,-86.62C124.15,-92.86 111.06,-98 83.5,-98 45.97,-98 35.27,-88.46 51.39,-79.61"/>
<polygon fill="midnightblue" stroke="midnightblue" points="125.2,-84.1 115.61,-79.61 120.31,-89.1 125.2,-84.1"/>
</g>
</g>
</svg>
