<?xml version="1.0" encoding="UTF-8" standalone="no"?>
<!DOCTYPE svg PUBLIC "-//W3C//DTD SVG 1.1//EN"
 "http://www.w3.org/Graphics/SVG/1.1/DTD/svg11.dtd">
<!-- Generated by graphviz version 2.43.0 (0)
 -->
<!-- Title: penify_hook.commands.auth_commands.save_credentials Pages: 1 -->
<svg width="353pt" height="57pt"
 viewBox="0.00 0.00 353.00 57.00" xmlns="http://www.w3.org/2000/svg" xmlns:xlink="http://www.w3.org/1999/xlink">
<g id="graph0" class="graph" transform="scale(1 1) rotate(0) translate(4 53)">
<title>penify_hook.commands.auth_commands.save_credentials</title>
<polygon fill="white" stroke="transparent" points="-4,4 -4,-53 349,-53 349,4 -4,4"/>
<!-- Node1 -->
<g id="node1" class="node">
<title>Node1</title>
<g id="a_node1"><a xlink:title=" ">
<polygon fill="#bfbfbf" stroke="black" points="0,-0.5 0,-30.5 161,-30.5 161,-0.5 0,-0.5"/>
<text text-anchor="start" x="8" y="-18.5" font-family="Helvetica,sans-Serif" font-size="10.00">penify_hook.commands.auth</text>
<text text-anchor="middle" x="80.5" y="-7.5" font-family="Helvetica,sans-Serif" font-size="10.00">_commands.save_credentials</text>
</a>
</g>
</g>
<!-- Node2 -->
<g id="node2" class="node">
<title>Node2</title>
<g id="a_node2"><a xlink:href="$namespacepenify__hook_1_1utils.html#a95c3f9c80860d6a2e2d061d2fb660a3f" xlink:title=" ">
<polygon fill="white" stroke="black" points="197,-0.5 197,-30.5 345,-30.5 345,-0.5 197,-0.5"/>
<text text-anchor="start" x="205" y="-18.5" font-family="Helvetica,sans-Serif" font-size="10.00">penify_hook.utils.recursive</text>
<text text-anchor="middle" x="271" y="-7.5" font-family="Helvetica,sans-Serif" font-size="10.00">_search_git_folder</text>
</a>
</g>
</g>
<!-- Node1&#45;&gt;Node2 -->
<g id="edge1" class="edge">
<title>Node1&#45;&gt;Node2</title>
<path fill="none" stroke="midnightblue" d="M161.17,-15.5C169.6,-15.5 178.19,-15.5 186.66,-15.5"/>
<polygon fill="midnightblue" stroke="midnightblue" points="186.91,-19 196.91,-15.5 186.91,-12 186.91,-19"/>
</g>
<!-- Node2&#45;&gt;Node2 -->
<g id="edge2" class="edge">
<title>Node2&#45;&gt;Node2</title>
<path fill="none" stroke="midnightblue" d="M237.89,-30.66C229.9,-40.06 240.94,-49 271,-49 289.32,-49 300.57,-45.68 304.76,-40.96"/>
<polygon fill="midnightblue" stroke="midnightblue" points="308.23,-40.42 304.11,-30.66 301.25,-40.86 308.23,-40.42"/>
</g>
</g>
</svg>
