<?xml version="1.0" encoding="UTF-8" standalone="no"?>
<!DOCTYPE svg PUBLIC "-//W3C//DTD SVG 1.1//EN"
 "http://www.w3.org/Graphics/SVG/1.1/DTD/svg11.dtd">
<!-- Generated by graphviz version 2.43.0 (0)
 -->
<!-- Title: penify_hook.commands.hook_commands.uninstall_git_hook Pages: 1 -->
<svg width="573pt" height="243pt"
 viewBox="0.00 0.00 573.00 242.50" xmlns="http://www.w3.org/2000/svg" xmlns:xlink="http://www.w3.org/1999/xlink">
<g id="graph0" class="graph" transform="scale(1 1) rotate(0) translate(4 238.5)">
<title>penify_hook.commands.hook_commands.uninstall_git_hook</title>
<polygon fill="white" stroke="transparent" points="-4,4 -4,-238.5 569,-238.5 569,4 -4,4"/>
<!-- Node1 -->
<g id="node1" class="node">
<title>Node1</title>
<g id="a_node1"><a xlink:title=" ">
<polygon fill="#bfbfbf" stroke="black" points="397,-98.5 397,-128.5 565,-128.5 565,-98.5 397,-98.5"/>
<text text-anchor="start" x="405" y="-116.5" font-family="Helvetica,sans-Serif" font-size="10.00">penify_hook.commands.hook</text>
<text text-anchor="middle" x="481" y="-105.5" font-family="Helvetica,sans-Serif" font-size="10.00">_commands.uninstall_git_hook</text>
</a>
</g>
</g>
<!-- Node2 -->
<g id="node2" class="node">
<title>Node2</title>
<g id="a_node2"><a xlink:href="$namespacepenify__hook_1_1commands_1_1doc__commands.html#a2006ab13bff718ef783868a910c0b704" xlink:title=" ">
<polygon fill="white" stroke="black" points="208,-98.5 208,-128.5 361,-128.5 361,-98.5 208,-98.5"/>
<text text-anchor="start" x="216" y="-116.5" font-family="Helvetica,sans-Serif" font-size="10.00">penify_hook.commands.doc</text>
<text text-anchor="middle" x="284.5" y="-105.5" font-family="Helvetica,sans-Serif" font-size="10.00">_commands.handle_docgen</text>
</a>
</g>
</g>
<!-- Node1&#45;&gt;Node2 -->
<g id="edge1" class="edge">
<title>Node1&#45;&gt;Node2</title>
<path fill="none" stroke="midnightblue" d="M386.88,-113.5C378.27,-113.5 369.62,-113.5 361.19,-113.5"/>
<polygon fill="midnightblue" stroke="midnightblue" points="386.95,-117 396.95,-113.5 386.95,-110 386.95,-117"/>
</g>
<!-- Node3 -->
<g id="node3" class="node">
<title>Node3</title>
<g id="a_node3"><a xlink:href="$namespacepenify__hook_1_1main.html#a16838b20df4bd14ee4b5e1dd2906738f" xlink:title=" ">
<polygon fill="white" stroke="black" points="20.5,-197 20.5,-216 151.5,-216 151.5,-197 20.5,-197"/>
<text text-anchor="middle" x="86" y="-204" font-family="Helvetica,sans-Serif" font-size="10.00">penify_hook.main.main</text>
</a>
</g>
</g>
<!-- Node2&#45;&gt;Node3 -->
<g id="edge2" class="edge">
<title>Node2&#45;&gt;Node3</title>
<path fill="none" stroke="midnightblue" d="M257.35,-134.89C235.71,-151.57 203.51,-174.07 172,-187.5 162.96,-191.35 153.03,-194.48 143.24,-196.99"/>
<polygon fill="midnightblue" stroke="midnightblue" points="259.67,-137.52 265.38,-128.6 255.35,-132.01 259.67,-137.52"/>
</g>
<!-- Node4 -->
<g id="node4" class="node">
<title>Node4</title>
<g id="a_node4"><a xlink:href="$namespacetests_1_1test__doc__commands.html#ab158ffa48469b6c097a7a55fcb20c21a" xlink:title=" ">
<polygon fill="white" stroke="black" points="3,-147.5 3,-177.5 169,-177.5 169,-147.5 3,-147.5"/>
<text text-anchor="start" x="11" y="-165.5" font-family="Helvetica,sans-Serif" font-size="10.00">tests.test_doc_commands.test</text>
<text text-anchor="middle" x="86" y="-154.5" font-family="Helvetica,sans-Serif" font-size="10.00">_handle_docgen_generate</text>
</a>
</g>
</g>
<!-- Node2&#45;&gt;Node4 -->
<g id="edge4" class="edge">
<title>Node2&#45;&gt;Node4</title>
<path fill="none" stroke="midnightblue" d="M213.41,-130.98C191.76,-136.38 168.1,-142.28 147.18,-147.49"/>
<polygon fill="midnightblue" stroke="midnightblue" points="214.35,-134.35 223.21,-128.53 212.66,-127.56 214.35,-134.35"/>
</g>
<!-- Node5 -->
<g id="node5" class="node">
<title>Node5</title>
<g id="a_node5"><a xlink:href="$namespacetests_1_1test__doc__commands.html#ab74688baa8c9b5ba302c2877a9789d05" xlink:title=" ">
<polygon fill="white" stroke="black" points="3,-98.5 3,-128.5 169,-128.5 169,-98.5 3,-98.5"/>
<text text-anchor="start" x="11" y="-116.5" font-family="Helvetica,sans-Serif" font-size="10.00">tests.test_doc_commands.test</text>
<text text-anchor="middle" x="86" y="-105.5" font-family="Helvetica,sans-Serif" font-size="10.00">_handle_docgen_install_hook</text>
</a>
</g>
</g>
<!-- Node2&#45;&gt;Node5 -->
<g id="edge5" class="edge">
<title>Node2&#45;&gt;Node5</title>
<path fill="none" stroke="midnightblue" d="M197.63,-113.5C188.19,-113.5 178.58,-113.5 169.18,-113.5"/>
<polygon fill="midnightblue" stroke="midnightblue" points="197.81,-117 207.81,-113.5 197.81,-110 197.81,-117"/>
</g>
<!-- Node6 -->
<g id="node6" class="node">
<title>Node6</title>
<g id="a_node6"><a xlink:href="$namespacetests_1_1test__doc__commands.html#af9b01e5fc89255cac96747fa081c442c" xlink:title=" ">
<polygon fill="white" stroke="black" points="3,-49.5 3,-79.5 169,-79.5 169,-49.5 3,-49.5"/>
<text text-anchor="start" x="11" y="-67.5" font-family="Helvetica,sans-Serif" font-size="10.00">tests.test_doc_commands.test</text>
<text text-anchor="middle" x="86" y="-56.5" font-family="Helvetica,sans-Serif" font-size="10.00">_handle_docgen_no_token</text>
</a>
</g>
</g>
<!-- Node2&#45;&gt;Node6 -->
<g id="edge6" class="edge">
<title>Node2&#45;&gt;Node6</title>
<path fill="none" stroke="midnightblue" d="M213.41,-96.02C191.76,-90.62 168.1,-84.72 147.18,-79.51"/>
<polygon fill="midnightblue" stroke="midnightblue" points="212.66,-99.44 223.21,-98.47 214.35,-92.65 212.66,-99.44"/>
</g>
<!-- Node7 -->
<g id="node7" class="node">
<title>Node7</title>
<g id="a_node7"><a xlink:href="$namespacetests_1_1test__doc__commands.html#a1458af9ad0128c3ca1263b552fd5e482" xlink:title=" ">
<polygon fill="white" stroke="black" points="0,-0.5 0,-30.5 172,-30.5 172,-0.5 0,-0.5"/>
<text text-anchor="start" x="8" y="-18.5" font-family="Helvetica,sans-Serif" font-size="10.00">tests.test_doc_commands.test</text>
<text text-anchor="middle" x="86" y="-7.5" font-family="Helvetica,sans-Serif" font-size="10.00">_handle_docgen_uninstall_hook</text>
</a>
</g>
</g>
<!-- Node2&#45;&gt;Node7 -->
<g id="edge7" class="edge">
<title>Node2&#45;&gt;Node7</title>
<path fill="none" stroke="midnightblue" d="M256.27,-92.39C234.47,-76.32 202.59,-54.64 172,-40.5 163.9,-36.76 155.11,-33.43 146.35,-30.52"/>
<polygon fill="midnightblue" stroke="midnightblue" points="254.28,-95.27 264.39,-98.46 258.47,-89.67 254.28,-95.27"/>
</g>
<!-- Node3&#45;&gt;Node3 -->
<g id="edge3" class="edge">
<title>Node3&#45;&gt;Node3</title>
<path fill="none" stroke="midnightblue" d="M123.12,-224C123.12,-229.84 110.74,-234.5 86,-234.5 50.81,-234.5 40.64,-225.07 55.48,-216.26"/>
<polygon fill="midnightblue" stroke="midnightblue" points="125.67,-221.59 116.52,-216.26 120.34,-226.14 125.67,-221.59"/>
</g>
</g>
</svg>
