<?xml version="1.0" encoding="UTF-8" standalone="no"?>
<!DOCTYPE svg PUBLIC "-//W3C//DTD SVG 1.1//EN"
 "http://www.w3.org/Graphics/SVG/1.1/DTD/svg11.dtd">
<!-- Generated by graphviz version 2.43.0 (0)
 -->
<!-- Title: penify_hook.commands.config_commands.load_env_files Pages: 1 -->
<svg width="958pt" height="576pt"
 viewBox="0.00 0.00 958.00 575.50" xmlns="http://www.w3.org/2000/svg" xmlns:xlink="http://www.w3.org/1999/xlink">
<g id="graph0" class="graph" transform="scale(1 1) rotate(0) translate(4 571.5)">
<title>penify_hook.commands.config_commands.load_env_files</title>
<polygon fill="white" stroke="transparent" points="-4,4 -4,-571.5 954,-571.5 954,4 -4,4"/>
<!-- Node1 -->
<g id="node1" class="node">
<title>Node1</title>
<g id="a_node1"><a xlink:title=" ">
<polygon fill="#bfbfbf" stroke="black" points="785,-336.5 785,-366.5 950,-366.5 950,-336.5 785,-336.5"/>
<text text-anchor="start" x="793" y="-354.5" font-family="Helvetica,sans-Serif" font-size="10.00">penify_hook.commands.config</text>
<text text-anchor="middle" x="867.5" y="-343.5" font-family="Helvetica,sans-Serif" font-size="10.00">_commands.load_env_files</text>
</a>
</g>
</g>
<!-- Node1&#45;&gt;Node1 -->
<g id="edge27" class="edge">
<title>Node1&#45;&gt;Node1</title>
<path fill="none" stroke="midnightblue" d="M903.04,-376.96C898.63,-381.68 886.78,-385 867.5,-385 835.86,-385 824.24,-376.06 832.65,-366.66"/>
<polygon fill="midnightblue" stroke="midnightblue" points="906.51,-376.41 902.35,-366.66 899.52,-376.87 906.51,-376.41"/>
</g>
<!-- Node2 -->
<g id="node2" class="node">
<title>Node2</title>
<g id="a_node2"><a xlink:href="$namespacepenify__hook_1_1commands_1_1config__commands.html#a15bf3685c4dcb5c15ba6a4055e484cf2" xlink:title=" ">
<polygon fill="white" stroke="black" points="584,-448.5 584,-478.5 749,-478.5 749,-448.5 584,-448.5"/>
<text text-anchor="start" x="592" y="-466.5" font-family="Helvetica,sans-Serif" font-size="10.00">penify_hook.commands.config</text>
<text text-anchor="middle" x="666.5" y="-455.5" font-family="Helvetica,sans-Serif" font-size="10.00">_commands.get_jira_config</text>
</a>
</g>
</g>
<!-- Node1&#45;&gt;Node2 -->
<g id="edge1" class="edge">
<title>Node1&#45;&gt;Node2</title>
<path fill="none" stroke="midnightblue" d="M830.69,-371.65C791.46,-393.73 729.43,-428.64 694.23,-448.46"/>
<polygon fill="midnightblue" stroke="midnightblue" points="832.66,-374.56 839.66,-366.6 829.23,-368.46 832.66,-374.56"/>
</g>
<!-- Node10 -->
<g id="node10" class="node">
<title>Node10</title>
<g id="a_node10"><a xlink:href="$namespacepenify__hook_1_1commands_1_1config__commands.html#a6492bc8e7df6e38bb06ad05e572d4cc0" xlink:title=" ">
<polygon fill="white" stroke="black" points="584,-336.5 584,-366.5 749,-366.5 749,-336.5 584,-336.5"/>
<text text-anchor="start" x="592" y="-354.5" font-family="Helvetica,sans-Serif" font-size="10.00">penify_hook.commands.config</text>
<text text-anchor="middle" x="666.5" y="-343.5" font-family="Helvetica,sans-Serif" font-size="10.00">_commands.get_llm_config</text>
</a>
</g>
</g>
<!-- Node1&#45;&gt;Node10 -->
<g id="edge11" class="edge">
<title>Node1&#45;&gt;Node10</title>
<path fill="none" stroke="midnightblue" d="M774.96,-351.5C766.37,-351.5 757.7,-351.5 749.21,-351.5"/>
<polygon fill="midnightblue" stroke="midnightblue" points="774.98,-355 784.98,-351.5 774.98,-348 774.98,-355"/>
</g>
<!-- Node14 -->
<g id="node14" class="node">
<title>Node14</title>
<g id="a_node14"><a xlink:href="$namespacepenify__hook_1_1commands_1_1config__commands.html#a5503d51c905e2f1b299b12d2a73bd812" xlink:title=" ">
<polygon fill="white" stroke="black" points="584,-156.5 584,-186.5 749,-186.5 749,-156.5 584,-156.5"/>
<text text-anchor="start" x="592" y="-174.5" font-family="Helvetica,sans-Serif" font-size="10.00">penify_hook.commands.config</text>
<text text-anchor="middle" x="666.5" y="-163.5" font-family="Helvetica,sans-Serif" font-size="10.00">_commands.get_token</text>
</a>
</g>
</g>
<!-- Node1&#45;&gt;Node14 -->
<g id="edge16" class="edge">
<title>Node1&#45;&gt;Node14</title>
<path fill="none" stroke="midnightblue" d="M842.25,-329.57C801.29,-292.52 719.42,-218.46 684.22,-186.62"/>
<polygon fill="midnightblue" stroke="midnightblue" points="840.11,-332.35 849.88,-336.46 844.81,-327.16 840.11,-332.35"/>
</g>
<!-- Node3 -->
<g id="node3" class="node">
<title>Node3</title>
<g id="a_node3"><a xlink:href="$namespacepenify__hook_1_1commands_1_1config__commands.html#af115198ea5d6808ccb98733957f50b06" xlink:title=" ">
<polygon fill="white" stroke="black" points="379,-531.5 379,-561.5 544,-561.5 544,-531.5 379,-531.5"/>
<text text-anchor="start" x="387" y="-549.5" font-family="Helvetica,sans-Serif" font-size="10.00">penify_hook.commands.config</text>
<text text-anchor="middle" x="461.5" y="-538.5" font-family="Helvetica,sans-Serif" font-size="10.00">_commands.config_jira_web</text>
</a>
</g>
</g>
<!-- Node2&#45;&gt;Node3 -->
<g id="edge2" class="edge">
<title>Node2&#45;&gt;Node3</title>
<path fill="none" stroke="midnightblue" d="M629.11,-483.51C606.27,-495.56 575.95,-510.61 548,-521.5 538.78,-525.09 528.82,-528.45 519.08,-531.47"/>
<polygon fill="midnightblue" stroke="midnightblue" points="630.92,-486.52 638.1,-478.73 627.63,-480.34 630.92,-486.52"/>
</g>
<!-- Node7 -->
<g id="node7" class="node">
<title>Node7</title>
<g id="a_node7"><a xlink:href="$namespacepenify__hook_1_1commands_1_1commit__commands.html#af4f739f524c38b437e4e47673d683e23" xlink:title=" ">
<polygon fill="white" stroke="black" points="375,-421.5 375,-451.5 548,-451.5 548,-421.5 375,-421.5"/>
<text text-anchor="start" x="383" y="-439.5" font-family="Helvetica,sans-Serif" font-size="10.00">penify_hook.commands.commit</text>
<text text-anchor="middle" x="461.5" y="-428.5" font-family="Helvetica,sans-Serif" font-size="10.00">_commands.handle_commit</text>
</a>
</g>
</g>
<!-- Node2&#45;&gt;Node7 -->
<g id="edge7" class="edge">
<title>Node2&#45;&gt;Node7</title>
<path fill="none" stroke="midnightblue" d="M573.79,-451.3C565.21,-450.16 556.53,-449.01 548,-447.87"/>
<polygon fill="midnightblue" stroke="midnightblue" points="573.44,-454.79 583.81,-452.63 574.36,-447.85 573.44,-454.79"/>
</g>
<!-- Node9 -->
<g id="node9" class="node">
<title>Node9</title>
<g id="a_node9"><a xlink:href="$classtests_1_1test__config__commands_1_1TestConfigCommands.html#aee37b97432821d19758c6325d4c74bcf" xlink:title=" ">
<polygon fill="white" stroke="black" points="382,-471 382,-512 541,-512 541,-471 382,-471"/>
<text text-anchor="start" x="390" y="-500" font-family="Helvetica,sans-Serif" font-size="10.00">tests.test_config_commands.</text>
<text text-anchor="start" x="390" y="-489" font-family="Helvetica,sans-Serif" font-size="10.00">TestConfigCommands.test</text>
<text text-anchor="middle" x="461.5" y="-478" font-family="Helvetica,sans-Serif" font-size="10.00">_get_jira_config_exists</text>
</a>
</g>
</g>
<!-- Node2&#45;&gt;Node9 -->
<g id="edge10" class="edge">
<title>Node2&#45;&gt;Node9</title>
<path fill="none" stroke="midnightblue" d="M573.82,-476.15C562.88,-477.65 551.79,-479.18 541.06,-480.66"/>
<polygon fill="midnightblue" stroke="midnightblue" points="574.38,-479.6 583.81,-474.77 573.43,-472.67 574.38,-479.6"/>
</g>
<!-- Node4 -->
<g id="node4" class="node">
<title>Node4</title>
<g id="a_node4"><a xlink:href="$namespacepenify__hook_1_1config__command.html#a240e5331681eb574ac319d7458783bde" xlink:title=" ">
<polygon fill="white" stroke="black" points="182.5,-476.5 182.5,-506.5 323.5,-506.5 323.5,-476.5 182.5,-476.5"/>
<text text-anchor="start" x="190.5" y="-494.5" font-family="Helvetica,sans-Serif" font-size="10.00">penify_hook.config</text>
<text text-anchor="middle" x="253" y="-483.5" font-family="Helvetica,sans-Serif" font-size="10.00">_command.handle_config</text>
</a>
</g>
</g>
<!-- Node3&#45;&gt;Node4 -->
<g id="edge3" class="edge">
<title>Node3&#45;&gt;Node4</title>
<path fill="none" stroke="midnightblue" d="M394.3,-528.87C367.26,-521.67 336.3,-513.42 310.36,-506.51"/>
<polygon fill="midnightblue" stroke="midnightblue" points="393.51,-532.28 404.07,-531.47 395.31,-525.52 393.51,-532.28"/>
</g>
<!-- Node6 -->
<g id="node6" class="node">
<title>Node6</title>
<g id="a_node6"><a xlink:href="$classtests_1_1test__web__config_1_1TestWebConfig.html#a06e600222e426b003850509cb1d3190a" xlink:title=" ">
<polygon fill="white" stroke="black" points="180,-526 180,-567 326,-567 326,-526 180,-526"/>
<text text-anchor="start" x="188" y="-555" font-family="Helvetica,sans-Serif" font-size="10.00">tests.test_web_config.Test</text>
<text text-anchor="start" x="188" y="-544" font-family="Helvetica,sans-Serif" font-size="10.00">WebConfig.test_config_jira</text>
<text text-anchor="middle" x="253" y="-533" font-family="Helvetica,sans-Serif" font-size="10.00">_web_server_setup</text>
</a>
</g>
</g>
<!-- Node3&#45;&gt;Node6 -->
<g id="edge6" class="edge">
<title>Node3&#45;&gt;Node6</title>
<path fill="none" stroke="midnightblue" d="M368.63,-546.5C354.46,-546.5 339.99,-546.5 326.32,-546.5"/>
<polygon fill="midnightblue" stroke="midnightblue" points="368.89,-550 378.89,-546.5 368.89,-543 368.89,-550"/>
</g>
<!-- Node5 -->
<g id="node5" class="node">
<title>Node5</title>
<g id="a_node5"><a xlink:href="$namespacepenify__hook_1_1main.html#a16838b20df4bd14ee4b5e1dd2906738f" xlink:title=" ">
<polygon fill="white" stroke="black" points="0,-378 0,-397 131,-397 131,-378 0,-378"/>
<text text-anchor="middle" x="65.5" y="-385" font-family="Helvetica,sans-Serif" font-size="10.00">penify_hook.main.main</text>
</a>
</g>
</g>
<!-- Node4&#45;&gt;Node5 -->
<g id="edge4" class="edge">
<title>Node4&#45;&gt;Node5</title>
<path fill="none" stroke="midnightblue" d="M181.1,-472.92C176.25,-470.96 171.5,-468.82 167,-466.5 129.92,-447.38 93.1,-413.74 76.16,-397.21"/>
<polygon fill="midnightblue" stroke="midnightblue" points="179.95,-476.22 190.54,-476.48 182.42,-469.67 179.95,-476.22"/>
</g>
<!-- Node5&#45;&gt;Node5 -->
<g id="edge5" class="edge">
<title>Node5&#45;&gt;Node5</title>
<path fill="none" stroke="midnightblue" d="M100.36,-405.39C99.85,-411.04 88.23,-415.5 65.5,-415.5 32.44,-415.5 22.89,-406.07 36.83,-397.26"/>
<polygon fill="midnightblue" stroke="midnightblue" points="103.01,-403.1 94.17,-397.26 97.44,-407.33 103.01,-403.1"/>
</g>
<!-- Node7&#45;&gt;Node5 -->
<g id="edge8" class="edge">
<title>Node7&#45;&gt;Node5</title>
<path fill="none" stroke="midnightblue" d="M398.03,-418.89C379.2,-414.17 358.38,-409.54 339,-406.5 268.49,-395.42 186.71,-390.8 131.27,-388.88"/>
<polygon fill="midnightblue" stroke="midnightblue" points="397.42,-422.34 407.98,-421.43 399.15,-415.56 397.42,-422.34"/>
</g>
<!-- Node8 -->
<g id="node8" class="node">
<title>Node8</title>
<g id="a_node8"><a xlink:href="$classtests_1_1test__commit__commands_1_1TestCommitCommands.html#ac13e368262340af98b30fd8ebdac6597" xlink:title=" ">
<polygon fill="white" stroke="black" points="169.5,-416 169.5,-457 336.5,-457 336.5,-416 169.5,-416"/>
<text text-anchor="start" x="177.5" y="-445" font-family="Helvetica,sans-Serif" font-size="10.00">tests.test_commit_commands.</text>
<text text-anchor="start" x="177.5" y="-434" font-family="Helvetica,sans-Serif" font-size="10.00">TestCommitCommands.test</text>
<text text-anchor="middle" x="253" y="-423" font-family="Helvetica,sans-Serif" font-size="10.00">_handle_commit</text>
</a>
</g>
</g>
<!-- Node7&#45;&gt;Node8 -->
<g id="edge9" class="edge">
<title>Node7&#45;&gt;Node8</title>
<path fill="none" stroke="midnightblue" d="M364.59,-436.5C355.22,-436.5 345.76,-436.5 336.53,-436.5"/>
<polygon fill="midnightblue" stroke="midnightblue" points="364.72,-440 374.72,-436.5 364.72,-433 364.72,-440"/>
</g>
<!-- Node10&#45;&gt;Node7 -->
<g id="edge12" class="edge">
<title>Node10&#45;&gt;Node7</title>
<path fill="none" stroke="midnightblue" d="M630.55,-371.54C607.6,-384.14 576.62,-400.12 548,-411.5 538.95,-415.1 529.17,-418.44 519.58,-421.43"/>
<polygon fill="midnightblue" stroke="midnightblue" points="632.51,-374.45 639.56,-366.54 629.12,-368.33 632.51,-374.45"/>
</g>
<!-- Node11 -->
<g id="node11" class="node">
<title>Node11</title>
<g id="a_node11"><a xlink:href="$classtests_1_1test__config__commands_1_1TestConfigCommands.html#abd12f028b89aa9cd1152c0b9ece5d3cd" xlink:title=" ">
<polygon fill="white" stroke="black" points="382,-361 382,-402 541,-402 541,-361 382,-361"/>
<text text-anchor="start" x="390" y="-390" font-family="Helvetica,sans-Serif" font-size="10.00">tests.test_config_commands.</text>
<text text-anchor="start" x="390" y="-379" font-family="Helvetica,sans-Serif" font-size="10.00">TestConfigCommands.test</text>
<text text-anchor="middle" x="461.5" y="-368" font-family="Helvetica,sans-Serif" font-size="10.00">_get_llm_config_empty</text>
</a>
</g>
</g>
<!-- Node10&#45;&gt;Node11 -->
<g id="edge13" class="edge">
<title>Node10&#45;&gt;Node11</title>
<path fill="none" stroke="midnightblue" d="M573.82,-365.05C562.88,-366.67 551.79,-368.3 541.06,-369.89"/>
<polygon fill="midnightblue" stroke="midnightblue" points="574.43,-368.5 583.81,-363.57 573.41,-361.57 574.43,-368.5"/>
</g>
<!-- Node12 -->
<g id="node12" class="node">
<title>Node12</title>
<g id="a_node12"><a xlink:href="$classtests_1_1test__config__commands_1_1TestConfigCommands.html#adf9f2233a3f4cc5725b9d4f05758b167" xlink:title=" ">
<polygon fill="white" stroke="black" points="382,-301 382,-342 541,-342 541,-301 382,-301"/>
<text text-anchor="start" x="390" y="-330" font-family="Helvetica,sans-Serif" font-size="10.00">tests.test_config_commands.</text>
<text text-anchor="start" x="390" y="-319" font-family="Helvetica,sans-Serif" font-size="10.00">TestConfigCommands.test</text>
<text text-anchor="middle" x="461.5" y="-308" font-family="Helvetica,sans-Serif" font-size="10.00">_get_llm_config_exists</text>
</a>
</g>
</g>
<!-- Node10&#45;&gt;Node12 -->
<g id="edge14" class="edge">
<title>Node10&#45;&gt;Node12</title>
<path fill="none" stroke="midnightblue" d="M573.82,-337.95C562.88,-336.33 551.79,-334.7 541.06,-333.11"/>
<polygon fill="midnightblue" stroke="midnightblue" points="573.41,-341.43 583.81,-339.43 574.43,-334.5 573.41,-341.43"/>
</g>
<!-- Node13 -->
<g id="node13" class="node">
<title>Node13</title>
<g id="a_node13"><a xlink:href="$classtests_1_1test__config__commands_1_1TestConfigCommands.html#a473984d31452b56acd6ce4011a1248bd" xlink:title=" ">
<polygon fill="white" stroke="black" points="382,-241 382,-282 541,-282 541,-241 382,-241"/>
<text text-anchor="start" x="390" y="-270" font-family="Helvetica,sans-Serif" font-size="10.00">tests.test_config_commands.</text>
<text text-anchor="start" x="390" y="-259" font-family="Helvetica,sans-Serif" font-size="10.00">TestConfigCommands.test</text>
<text text-anchor="middle" x="461.5" y="-248" font-family="Helvetica,sans-Serif" font-size="10.00">_get_llm_config_invalid_json</text>
</a>
</g>
</g>
<!-- Node10&#45;&gt;Node13 -->
<g id="edge15" class="edge">
<title>Node10&#45;&gt;Node13</title>
<path fill="none" stroke="midnightblue" d="M629.44,-331.49C606.49,-319.16 575.94,-303.47 548,-291.5 540.48,-288.28 532.49,-285.13 524.53,-282.15"/>
<polygon fill="midnightblue" stroke="midnightblue" points="628,-334.69 638.46,-336.37 631.33,-328.53 628,-334.69"/>
</g>
<!-- Node14&#45;&gt;Node7 -->
<g id="edge17" class="edge">
<title>Node14&#45;&gt;Node7</title>
<path fill="none" stroke="midnightblue" d="M652.05,-195.82C635.39,-226.27 606.46,-280.17 584,-327.5 566.58,-364.19 578.4,-384.56 548,-411.5 543.6,-415.4 538.63,-418.69 533.34,-421.47"/>
<polygon fill="midnightblue" stroke="midnightblue" points="655.26,-197.25 657.01,-186.8 649.13,-193.88 655.26,-197.25"/>
</g>
<!-- Node15 -->
<g id="node15" class="node">
<title>Node15</title>
<g id="a_node15"><a xlink:href="$namespacepenify__hook_1_1commands_1_1doc__commands.html#a2006ab13bff718ef783868a910c0b704" xlink:title=" ">
<polygon fill="white" stroke="black" points="385,-71.5 385,-101.5 538,-101.5 538,-71.5 385,-71.5"/>
<text text-anchor="start" x="393" y="-89.5" font-family="Helvetica,sans-Serif" font-size="10.00">penify_hook.commands.doc</text>
<text text-anchor="middle" x="461.5" y="-78.5" font-family="Helvetica,sans-Serif" font-size="10.00">_commands.handle_docgen</text>
</a>
</g>
</g>
<!-- Node14&#45;&gt;Node15 -->
<g id="edge18" class="edge">
<title>Node14&#45;&gt;Node15</title>
<path fill="none" stroke="midnightblue" d="M630.55,-151.46C607.6,-138.86 576.62,-122.88 548,-111.5 538.95,-107.9 529.17,-104.56 519.58,-101.57"/>
<polygon fill="midnightblue" stroke="midnightblue" points="629.12,-154.67 639.56,-156.46 632.51,-148.55 629.12,-154.67"/>
</g>
<!-- Node20 -->
<g id="node20" class="node">
<title>Node20</title>
<g id="a_node20"><a xlink:href="$classtests_1_1test__config__commands_1_1TestConfigCommands.html#a6c0207be563c3de59a6d16277805114c" xlink:title=" ">
<polygon fill="white" stroke="black" points="382,-11 382,-52 541,-52 541,-11 382,-11"/>
<text text-anchor="start" x="390" y="-40" font-family="Helvetica,sans-Serif" font-size="10.00">tests.test_config_commands.</text>
<text text-anchor="start" x="390" y="-29" font-family="Helvetica,sans-Serif" font-size="10.00">TestConfigCommands.test</text>
<text text-anchor="middle" x="461.5" y="-18" font-family="Helvetica,sans-Serif" font-size="10.00">_get_token_from_config</text>
</a>
</g>
</g>
<!-- Node14&#45;&gt;Node20 -->
<g id="edge24" class="edge">
<title>Node14&#45;&gt;Node20</title>
<path fill="none" stroke="midnightblue" d="M646.14,-148.78C624.41,-124.51 587.05,-86.33 548,-62.5 541.67,-58.63 534.77,-55.14 527.75,-52.02"/>
<polygon fill="midnightblue" stroke="midnightblue" points="643.65,-151.25 652.89,-156.43 648.9,-146.62 643.65,-151.25"/>
</g>
<!-- Node21 -->
<g id="node21" class="node">
<title>Node21</title>
<g id="a_node21"><a xlink:href="$classtests_1_1test__config__commands_1_1TestConfigCommands.html#a3355f7d313bebaa71694387cf2bc5232" xlink:title=" ">
<polygon fill="white" stroke="black" points="382,-181 382,-222 541,-222 541,-181 382,-181"/>
<text text-anchor="start" x="390" y="-210" font-family="Helvetica,sans-Serif" font-size="10.00">tests.test_config_commands.</text>
<text text-anchor="start" x="390" y="-199" font-family="Helvetica,sans-Serif" font-size="10.00">TestConfigCommands.test</text>
<text text-anchor="middle" x="461.5" y="-188" font-family="Helvetica,sans-Serif" font-size="10.00">_get_token_from_env</text>
</a>
</g>
</g>
<!-- Node14&#45;&gt;Node21 -->
<g id="edge25" class="edge">
<title>Node14&#45;&gt;Node21</title>
<path fill="none" stroke="midnightblue" d="M573.82,-185.05C562.88,-186.67 551.79,-188.3 541.06,-189.89"/>
<polygon fill="midnightblue" stroke="midnightblue" points="574.43,-188.5 583.81,-183.57 573.41,-181.57 574.43,-188.5"/>
</g>
<!-- Node22 -->
<g id="node22" class="node">
<title>Node22</title>
<g id="a_node22"><a xlink:href="$classtests_1_1test__config__commands_1_1TestConfigCommands.html#a400ca5d9fcdc159714e8df54920f9436" xlink:title=" ">
<polygon fill="white" stroke="black" points="382,-121 382,-162 541,-162 541,-121 382,-121"/>
<text text-anchor="start" x="390" y="-150" font-family="Helvetica,sans-Serif" font-size="10.00">tests.test_config_commands.</text>
<text text-anchor="start" x="390" y="-139" font-family="Helvetica,sans-Serif" font-size="10.00">TestConfigCommands.test</text>
<text text-anchor="middle" x="461.5" y="-128" font-family="Helvetica,sans-Serif" font-size="10.00">_get_token_not_found</text>
</a>
</g>
</g>
<!-- Node14&#45;&gt;Node22 -->
<g id="edge26" class="edge">
<title>Node14&#45;&gt;Node22</title>
<path fill="none" stroke="midnightblue" d="M573.82,-157.95C562.88,-156.33 551.79,-154.7 541.06,-153.11"/>
<polygon fill="midnightblue" stroke="midnightblue" points="573.41,-161.43 583.81,-159.43 574.43,-154.5 573.41,-161.43"/>
</g>
<!-- Node15&#45;&gt;Node5 -->
<g id="edge19" class="edge">
<title>Node15&#45;&gt;Node5</title>
<path fill="none" stroke="midnightblue" d="M374.37,-89.35C299.5,-93.5 198.27,-103.65 167,-128.5 83.73,-194.66 69.35,-339 66.96,-377.76"/>
<polygon fill="midnightblue" stroke="midnightblue" points="374.95,-92.82 384.75,-88.8 374.58,-85.83 374.95,-92.82"/>
</g>
<!-- Node16 -->
<g id="node16" class="node">
<title>Node16</title>
<g id="a_node16"><a xlink:href="$namespacetests_1_1test__doc__commands.html#ab158ffa48469b6c097a7a55fcb20c21a" xlink:title=" ">
<polygon fill="white" stroke="black" points="170,-49.5 170,-79.5 336,-79.5 336,-49.5 170,-49.5"/>
<text text-anchor="start" x="178" y="-67.5" font-family="Helvetica,sans-Serif" font-size="10.00">tests.test_doc_commands.test</text>
<text text-anchor="middle" x="253" y="-56.5" font-family="Helvetica,sans-Serif" font-size="10.00">_handle_docgen_generate</text>
</a>
</g>
</g>
<!-- Node15&#45;&gt;Node16 -->
<g id="edge20" class="edge">
<title>Node15&#45;&gt;Node16</title>
<path fill="none" stroke="midnightblue" d="M374.69,-77.36C362,-76.01 348.94,-74.61 336.32,-73.27"/>
<polygon fill="midnightblue" stroke="midnightblue" points="374.47,-80.85 384.78,-78.43 375.21,-73.89 374.47,-80.85"/>
</g>
<!-- Node17 -->
<g id="node17" class="node">
<title>Node17</title>
<g id="a_node17"><a xlink:href="$namespacetests_1_1test__doc__commands.html#ab74688baa8c9b5ba302c2877a9789d05" xlink:title=" ">
<polygon fill="white" stroke="black" points="170,-0.5 170,-30.5 336,-30.5 336,-0.5 170,-0.5"/>
<text text-anchor="start" x="178" y="-18.5" font-family="Helvetica,sans-Serif" font-size="10.00">tests.test_doc_commands.test</text>
<text text-anchor="middle" x="253" y="-7.5" font-family="Helvetica,sans-Serif" font-size="10.00">_handle_docgen_install_hook</text>
</a>
</g>
</g>
<!-- Node15&#45;&gt;Node17 -->
<g id="edge21" class="edge">
<title>Node15&#45;&gt;Node17</title>
<path fill="none" stroke="midnightblue" d="M392.04,-68.11C386.21,-66.06 380.46,-63.85 375,-61.5 357.98,-54.18 356.01,-47.83 339,-40.5 330.52,-36.85 321.35,-33.53 312.28,-30.6"/>
<polygon fill="midnightblue" stroke="midnightblue" points="391.28,-71.55 401.88,-71.42 393.52,-64.92 391.28,-71.55"/>
</g>
<!-- Node18 -->
<g id="node18" class="node">
<title>Node18</title>
<g id="a_node18"><a xlink:href="$namespacetests_1_1test__doc__commands.html#af9b01e5fc89255cac96747fa081c442c" xlink:title=" ">
<polygon fill="white" stroke="black" points="170,-186.5 170,-216.5 336,-216.5 336,-186.5 170,-186.5"/>
<text text-anchor="start" x="178" y="-204.5" font-family="Helvetica,sans-Serif" font-size="10.00">tests.test_doc_commands.test</text>
<text text-anchor="middle" x="253" y="-193.5" font-family="Helvetica,sans-Serif" font-size="10.00">_handle_docgen_no_token</text>
</a>
</g>
</g>
<!-- Node15&#45;&gt;Node18 -->
<g id="edge22" class="edge">
<title>Node15&#45;&gt;Node18</title>
<path fill="none" stroke="midnightblue" d="M382.13,-106.43C379.64,-107.99 377.26,-109.68 375,-111.5 348.98,-132.46 365.12,-156.66 339,-177.5 334.68,-180.94 329.9,-183.89 324.87,-186.42"/>
<polygon fill="midnightblue" stroke="midnightblue" points="383.85,-109.48 390.9,-101.57 380.46,-103.36 383.85,-109.48"/>
</g>
<!-- Node19 -->
<g id="node19" class="node">
<title>Node19</title>
<g id="a_node19"><a xlink:href="$namespacetests_1_1test__doc__commands.html#a1458af9ad0128c3ca1263b552fd5e482" xlink:title=" ">
<polygon fill="white" stroke="black" points="167,-137.5 167,-167.5 339,-167.5 339,-137.5 167,-137.5"/>
<text text-anchor="start" x="175" y="-155.5" font-family="Helvetica,sans-Serif" font-size="10.00">tests.test_doc_commands.test</text>
<text text-anchor="middle" x="253" y="-144.5" font-family="Helvetica,sans-Serif" font-size="10.00">_handle_docgen_uninstall_hook</text>
</a>
</g>
</g>
<!-- Node15&#45;&gt;Node19 -->
<g id="edge23" class="edge">
<title>Node15&#45;&gt;Node19</title>
<path fill="none" stroke="midnightblue" d="M397.8,-104.5C390.11,-106.81 382.36,-109.18 375,-111.5 348.98,-119.71 320.03,-129.49 296.98,-137.45"/>
<polygon fill="midnightblue" stroke="midnightblue" points="398.9,-107.83 407.49,-101.62 396.9,-101.12 398.9,-107.83"/>
</g>
</g>
</svg>
