<?xml version="1.0" encoding="UTF-8" standalone="no"?>
<!DOCTYPE svg PUBLIC "-//W3C//DTD SVG 1.1//EN"
 "http://www.w3.org/Graphics/SVG/1.1/DTD/svg11.dtd">
<!-- Generated by graphviz version 2.43.0 (0)
 -->
<!-- Title: penify_hook.commands.doc_commands.handle_docgen Pages: 1 -->
<svg width="750pt" height="198pt"
 viewBox="0.00 0.00 750.00 197.50" xmlns="http://www.w3.org/2000/svg" xmlns:xlink="http://www.w3.org/1999/xlink">
<g id="graph0" class="graph" transform="scale(1 1) rotate(0) translate(4 193.5)">
<title>penify_hook.commands.doc_commands.handle_docgen</title>
<polygon fill="white" stroke="transparent" points="-4,4 -4,-193.5 746,-193.5 746,4 -4,4"/>
<!-- Node1 -->
<g id="node1" class="node">
<title>Node1</title>
<g id="a_node1"><a xlink:title=" ">
<polygon fill="#bfbfbf" stroke="black" points="0,-73.5 0,-103.5 153,-103.5 153,-73.5 0,-73.5"/>
<text text-anchor="start" x="8" y="-91.5" font-family="Helvetica,sans-Serif" font-size="10.00">penify_hook.commands.doc</text>
<text text-anchor="middle" x="76.5" y="-80.5" font-family="Helvetica,sans-Serif" font-size="10.00">_commands.handle_docgen</text>
</a>
</g>
</g>
<!-- Node2 -->
<g id="node2" class="node">
<title>Node2</title>
<g id="a_node2"><a xlink:href="$namespacepenify__hook_1_1commands_1_1doc__commands.html#a4daac68bc563432bf25c85dc78081a25" xlink:title=" ">
<polygon fill="white" stroke="black" points="196.5,-147.5 196.5,-177.5 349.5,-177.5 349.5,-147.5 196.5,-147.5"/>
<text text-anchor="start" x="204.5" y="-165.5" font-family="Helvetica,sans-Serif" font-size="10.00">penify_hook.commands.doc</text>
<text text-anchor="middle" x="273" y="-154.5" font-family="Helvetica,sans-Serif" font-size="10.00">_commands.generate_doc</text>
</a>
</g>
</g>
<!-- Node1&#45;&gt;Node2 -->
<g id="edge1" class="edge">
<title>Node1&#45;&gt;Node2</title>
<path fill="none" stroke="midnightblue" d="M108.26,-103.7C130.38,-114.28 161.12,-128.27 189,-138.5 194.5,-140.52 200.26,-142.48 206.07,-144.35"/>
<polygon fill="midnightblue" stroke="midnightblue" points="205.26,-147.77 215.84,-147.42 207.35,-141.09 205.26,-147.77"/>
</g>
<!-- Node3 -->
<g id="node3" class="node">
<title>Node3</title>
<g id="a_node3"><a xlink:href="$namespacepenify__hook_1_1commands_1_1config__commands.html#a5503d51c905e2f1b299b12d2a73bd812" xlink:title=" ">
<polygon fill="white" stroke="black" points="190.5,-98.5 190.5,-128.5 355.5,-128.5 355.5,-98.5 190.5,-98.5"/>
<text text-anchor="start" x="198.5" y="-116.5" font-family="Helvetica,sans-Serif" font-size="10.00">penify_hook.commands.config</text>
<text text-anchor="middle" x="273" y="-105.5" font-family="Helvetica,sans-Serif" font-size="10.00">_commands.get_token</text>
</a>
</g>
</g>
<!-- Node1&#45;&gt;Node3 -->
<g id="edge2" class="edge">
<title>Node1&#45;&gt;Node3</title>
<path fill="none" stroke="midnightblue" d="M153.26,-98.24C162.09,-99.37 171.17,-100.54 180.2,-101.7"/>
<polygon fill="midnightblue" stroke="midnightblue" points="179.97,-105.2 190.34,-103 180.87,-98.26 179.97,-105.2"/>
</g>
<!-- Node8 -->
<g id="node8" class="node">
<title>Node8</title>
<g id="a_node8"><a xlink:href="$namespacepenify__hook_1_1commands_1_1hook__commands.html#adff8f5d3bf1c3795974a391ee95b72b2" xlink:title=" ">
<polygon fill="white" stroke="black" points="193,-49.5 193,-79.5 353,-79.5 353,-49.5 193,-49.5"/>
<text text-anchor="start" x="201" y="-67.5" font-family="Helvetica,sans-Serif" font-size="10.00">penify_hook.commands.hook</text>
<text text-anchor="middle" x="273" y="-56.5" font-family="Helvetica,sans-Serif" font-size="10.00">_commands.install_git_hook</text>
</a>
</g>
</g>
<!-- Node1&#45;&gt;Node8 -->
<g id="edge10" class="edge">
<title>Node1&#45;&gt;Node8</title>
<path fill="none" stroke="midnightblue" d="M153.26,-79.15C162.91,-77.96 172.87,-76.73 182.72,-75.52"/>
<polygon fill="midnightblue" stroke="midnightblue" points="183.42,-78.96 192.92,-74.26 182.57,-72.01 183.42,-78.96"/>
</g>
<!-- Node9 -->
<g id="node9" class="node">
<title>Node9</title>
<g id="a_node9"><a xlink:href="$namespacepenify__hook_1_1commands_1_1hook__commands.html#a81543eb5fa835fd1237f24e8bce6201d" xlink:title=" ">
<polygon fill="white" stroke="black" points="189,-0.5 189,-30.5 357,-30.5 357,-0.5 189,-0.5"/>
<text text-anchor="start" x="197" y="-18.5" font-family="Helvetica,sans-Serif" font-size="10.00">penify_hook.commands.hook</text>
<text text-anchor="middle" x="273" y="-7.5" font-family="Helvetica,sans-Serif" font-size="10.00">_commands.uninstall_git_hook</text>
</a>
</g>
</g>
<!-- Node1&#45;&gt;Node9 -->
<g id="edge11" class="edge">
<title>Node1&#45;&gt;Node9</title>
<path fill="none" stroke="midnightblue" d="M108.77,-73.43C130.87,-63.1 161.37,-49.52 189,-39.5 194.51,-37.5 200.27,-35.56 206.08,-33.69"/>
<polygon fill="midnightblue" stroke="midnightblue" points="207.36,-36.96 215.87,-30.63 205.28,-30.27 207.36,-36.96"/>
</g>
<!-- Node4 -->
<g id="node4" class="node">
<title>Node4</title>
<g id="a_node4"><a xlink:href="$namespacepenify__hook_1_1commands_1_1config__commands.html#a3caf2b062dd33b1f1d7ddc7224f0ff87" xlink:title=" ">
<polygon fill="white" stroke="black" points="393,-148 393,-189 558,-189 558,-148 393,-148"/>
<text text-anchor="start" x="401" y="-177" font-family="Helvetica,sans-Serif" font-size="10.00">penify_hook.commands.config</text>
<text text-anchor="start" x="401" y="-166" font-family="Helvetica,sans-Serif" font-size="10.00">_commands.get_env_var_or</text>
<text text-anchor="middle" x="475.5" y="-155" font-family="Helvetica,sans-Serif" font-size="10.00">_default</text>
</a>
</g>
</g>
<!-- Node3&#45;&gt;Node4 -->
<g id="edge3" class="edge">
<title>Node3&#45;&gt;Node4</title>
<path fill="none" stroke="midnightblue" d="M328.79,-128.53C347.61,-133.69 369.13,-139.6 389.76,-145.26"/>
<polygon fill="midnightblue" stroke="midnightblue" points="388.92,-148.65 399.48,-147.92 390.77,-141.9 388.92,-148.65"/>
</g>
<!-- Node5 -->
<g id="node5" class="node">
<title>Node5</title>
<g id="a_node5"><a xlink:href="$namespacepenify__hook_1_1commands_1_1config__commands.html#a6559a82d0bf727703d550d1003d3ed20" xlink:title=" ">
<polygon fill="white" stroke="black" points="393,-98.5 393,-128.5 558,-128.5 558,-98.5 393,-98.5"/>
<text text-anchor="start" x="401" y="-116.5" font-family="Helvetica,sans-Serif" font-size="10.00">penify_hook.commands.config</text>
<text text-anchor="middle" x="475.5" y="-105.5" font-family="Helvetica,sans-Serif" font-size="10.00">_commands.get_penify_config</text>
</a>
</g>
</g>
<!-- Node3&#45;&gt;Node5 -->
<g id="edge4" class="edge">
<title>Node3&#45;&gt;Node5</title>
<path fill="none" stroke="midnightblue" d="M355.55,-113.5C364.45,-113.5 373.56,-113.5 382.57,-113.5"/>
<polygon fill="midnightblue" stroke="midnightblue" points="382.7,-117 392.7,-113.5 382.7,-110 382.7,-117"/>
</g>
<!-- Node7 -->
<g id="node7" class="node">
<title>Node7</title>
<g id="a_node7"><a xlink:href="$namespacepenify__hook_1_1commands_1_1config__commands.html#aabe277132ce0bc0aacef951cf1dee2ae" xlink:title=" ">
<polygon fill="white" stroke="black" points="393,-31.5 393,-61.5 558,-61.5 558,-31.5 393,-31.5"/>
<text text-anchor="start" x="401" y="-49.5" font-family="Helvetica,sans-Serif" font-size="10.00">penify_hook.commands.config</text>
<text text-anchor="middle" x="475.5" y="-38.5" font-family="Helvetica,sans-Serif" font-size="10.00">_commands.load_env_files</text>
</a>
</g>
</g>
<!-- Node3&#45;&gt;Node7 -->
<g id="edge7" class="edge">
<title>Node3&#45;&gt;Node7</title>
<path fill="none" stroke="midnightblue" d="M325.49,-98.44C335.95,-95.25 346.85,-91.84 357,-88.5 379.21,-81.19 403.57,-72.58 424.32,-65.07"/>
<polygon fill="midnightblue" stroke="midnightblue" points="425.69,-68.3 433.89,-61.59 423.3,-61.72 425.69,-68.3"/>
</g>
<!-- Node6 -->
<g id="node6" class="node">
<title>Node6</title>
<g id="a_node6"><a xlink:href="$namespacepenify__hook_1_1utils.html#a95c3f9c80860d6a2e2d061d2fb660a3f" xlink:title=" ">
<polygon fill="white" stroke="black" points="594,-64.5 594,-94.5 742,-94.5 742,-64.5 594,-64.5"/>
<text text-anchor="start" x="602" y="-82.5" font-family="Helvetica,sans-Serif" font-size="10.00">penify_hook.utils.recursive</text>
<text text-anchor="middle" x="668" y="-71.5" font-family="Helvetica,sans-Serif" font-size="10.00">_search_git_folder</text>
</a>
</g>
</g>
<!-- Node5&#45;&gt;Node6 -->
<g id="edge5" class="edge">
<title>Node5&#45;&gt;Node6</title>
<path fill="none" stroke="midnightblue" d="M558.12,-98.93C566.68,-97.4 575.4,-95.85 583.98,-94.32"/>
<polygon fill="midnightblue" stroke="midnightblue" points="584.74,-97.74 593.97,-92.53 583.51,-90.85 584.74,-97.74"/>
</g>
<!-- Node6&#45;&gt;Node6 -->
<g id="edge6" class="edge">
<title>Node6&#45;&gt;Node6</title>
<path fill="none" stroke="midnightblue" d="M634.54,-94.66C626.47,-104.06 637.62,-113 668,-113 686.51,-113 697.88,-109.68 702.12,-104.96"/>
<polygon fill="midnightblue" stroke="midnightblue" points="705.59,-104.42 701.46,-94.66 698.6,-104.86 705.59,-104.42"/>
</g>
<!-- Node7&#45;&gt;Node6 -->
<g id="edge9" class="edge">
<title>Node7&#45;&gt;Node6</title>
<path fill="none" stroke="midnightblue" d="M558.12,-60.64C566.68,-62.12 575.4,-63.63 583.98,-65.12"/>
<polygon fill="midnightblue" stroke="midnightblue" points="583.52,-68.59 593.97,-66.85 584.72,-61.69 583.52,-68.59"/>
</g>
<!-- Node7&#45;&gt;Node7 -->
<g id="edge8" class="edge">
<title>Node7&#45;&gt;Node7</title>
<path fill="none" stroke="midnightblue" d="M442.04,-61.66C433.97,-71.06 445.12,-80 475.5,-80 494.01,-80 505.38,-76.68 509.62,-71.96"/>
<polygon fill="midnightblue" stroke="midnightblue" points="513.09,-71.42 508.96,-61.66 506.1,-71.86 513.09,-71.42"/>
</g>
</g>
</svg>
