<?xml version="1.0" encoding="UTF-8" standalone="no"?>
<!DOCTYPE svg PUBLIC "-//W3C//DTD SVG 1.1//EN"
 "http://www.w3.org/Graphics/SVG/1.1/DTD/svg11.dtd">
<!-- Generated by graphviz version 2.43.0 (0)
 -->
<!-- Title: penify_hook.commit_analyzer.CommitDocGenHook Pages: 1 -->
<svg width="177pt" height="292pt"
 viewBox="0.00 0.00 177.00 292.00" xmlns="http://www.w3.org/2000/svg" xmlns:xlink="http://www.w3.org/1999/xlink">
<g id="graph0" class="graph" transform="scale(1 1) rotate(0) translate(4 288)">
<title>penify_hook.commit_analyzer.CommitDocGenHook</title>
<polygon fill="white" stroke="transparent" points="-4,4 -4,-288 173,-288 173,4 -4,4"/>
<!-- Node1 -->
<g id="node1" class="node">
<title>Node1</title>
<g id="a_node1"><a xlink:title=" ">
<polygon fill="#bfbfbf" stroke="black" points="0,-0.5 0,-112.5 169,-112.5 169,-0.5 0,-0.5"/>
<text text-anchor="start" x="8" y="-100.5" font-family="Helvetica,sans-Serif" font-size="10.00">penify_hook.commit</text>
<text text-anchor="middle" x="84.5" y="-89.5" font-family="Helvetica,sans-Serif" font-size="10.00">_analyzer.CommitDocGenHook</text>
<polyline fill="none" stroke="black" points="0,-82.5 169,-82.5 "/>
<text text-anchor="start" x="8" y="-70.5" font-family="Helvetica,sans-Serif" font-size="10.00">+ llm_client</text>
<polyline fill="none" stroke="black" points="0,-63.5 169,-63.5 "/>
<text text-anchor="start" x="8" y="-51.5" font-family="Helvetica,sans-Serif" font-size="10.00">+ __init__()</text>
<text text-anchor="start" x="8" y="-40.5" font-family="Helvetica,sans-Serif" font-size="10.00">+ get_summary()</text>
<text text-anchor="start" x="8" y="-29.5" font-family="Helvetica,sans-Serif" font-size="10.00">+ run()</text>
<text text-anchor="start" x="8" y="-18.5" font-family="Helvetica,sans-Serif" font-size="10.00">+ process_jira_integration()</text>
<text text-anchor="start" x="8" y="-7.5" font-family="Helvetica,sans-Serif" font-size="10.00">&#45; _amend_commit()</text>
</a>
</g>
</g>
<!-- Node2 -->
<g id="node2" class="node">
<title>Node2</title>
<g id="a_node2"><a xlink:href="$classpenify__hook_1_1base__analyzer_1_1BaseAnalyzer.html" xlink:title=" ">
<polygon fill="white" stroke="black" points="8.5,-149.5 8.5,-283.5 160.5,-283.5 160.5,-149.5 8.5,-149.5"/>
<text text-anchor="start" x="16.5" y="-271.5" font-family="Helvetica,sans-Serif" font-size="10.00">penify_hook.base_analyzer.</text>
<text text-anchor="middle" x="84.5" y="-260.5" font-family="Helvetica,sans-Serif" font-size="10.00">BaseAnalyzer</text>
<polyline fill="none" stroke="black" points="8.5,-253.5 160.5,-253.5 "/>
<text text-anchor="start" x="16.5" y="-241.5" font-family="Helvetica,sans-Serif" font-size="10.00">+ folder_path</text>
<text text-anchor="start" x="16.5" y="-230.5" font-family="Helvetica,sans-Serif" font-size="10.00">+ repo_path</text>
<text text-anchor="start" x="16.5" y="-219.5" font-family="Helvetica,sans-Serif" font-size="10.00">+ repo</text>
<text text-anchor="start" x="16.5" y="-208.5" font-family="Helvetica,sans-Serif" font-size="10.00">+ repo_details</text>
<text text-anchor="start" x="16.5" y="-197.5" font-family="Helvetica,sans-Serif" font-size="10.00">+ relative_file_path</text>
<text text-anchor="start" x="16.5" y="-186.5" font-family="Helvetica,sans-Serif" font-size="10.00">+ api_client</text>
<text text-anchor="start" x="16.5" y="-175.5" font-family="Helvetica,sans-Serif" font-size="10.00">+ supported_file_types</text>
<polyline fill="none" stroke="black" points="8.5,-168.5 160.5,-168.5 "/>
<text text-anchor="start" x="16.5" y="-156.5" font-family="Helvetica,sans-Serif" font-size="10.00">+ __init__()</text>
</a>
</g>
</g>
<!-- Node2&#45;&gt;Node1 -->
<g id="edge1" class="edge">
<title>Node2&#45;&gt;Node1</title>
<path fill="none" stroke="midnightblue" d="M84.5,-139.35C84.5,-130.4 84.5,-121.4 84.5,-112.82"/>
<polygon fill="none" stroke="midnightblue" points="81,-139.41 84.5,-149.41 88,-139.41 81,-139.41"/>
</g>
</g>
</svg>
