<?xml version="1.0" encoding="UTF-8" standalone="no"?>
<!DOCTYPE svg PUBLIC "-//W3C//DTD SVG 1.1//EN"
 "http://www.w3.org/Graphics/SVG/1.1/DTD/svg11.dtd">
<!-- Generated by graphviz version 2.43.0 (0)
 -->
<!-- Title: penify_hook.commands.config_commands.config_jira_web Pages: 1 -->
<svg width="759pt" height="162pt"
 viewBox="0.00 0.00 759.00 161.50" xmlns="http://www.w3.org/2000/svg" xmlns:xlink="http://www.w3.org/1999/xlink">
<g id="graph0" class="graph" transform="scale(1 1) rotate(0) translate(4 157.5)">
<title>penify_hook.commands.config_commands.config_jira_web</title>
<polygon fill="white" stroke="transparent" points="-4,4 -4,-157.5 755,-157.5 755,4 -4,4"/>
<!-- Node1 -->
<g id="node1" class="node">
<title>Node1</title>
<g id="a_node1"><a xlink:title=" ">
<polygon fill="#bfbfbf" stroke="black" points="0,-24.5 0,-54.5 165,-54.5 165,-24.5 0,-24.5"/>
<text text-anchor="start" x="8" y="-42.5" font-family="Helvetica,sans-Serif" font-size="10.00">penify_hook.commands.config</text>
<text text-anchor="middle" x="82.5" y="-31.5" font-family="Helvetica,sans-Serif" font-size="10.00">_commands.config_jira_web</text>
</a>
</g>
</g>
<!-- Node2 -->
<g id="node2" class="node">
<title>Node2</title>
<g id="a_node2"><a xlink:href="$namespacepenify__hook_1_1commands_1_1config__commands.html#a15bf3685c4dcb5c15ba6a4055e484cf2" xlink:title=" ">
<polygon fill="white" stroke="black" points="201,-49.5 201,-79.5 366,-79.5 366,-49.5 201,-49.5"/>
<text text-anchor="start" x="209" y="-67.5" font-family="Helvetica,sans-Serif" font-size="10.00">penify_hook.commands.config</text>
<text text-anchor="middle" x="283.5" y="-56.5" font-family="Helvetica,sans-Serif" font-size="10.00">_commands.get_jira_config</text>
</a>
</g>
</g>
<!-- Node1&#45;&gt;Node2 -->
<g id="edge1" class="edge">
<title>Node1&#45;&gt;Node2</title>
<path fill="none" stroke="midnightblue" d="M165.02,-49.74C173.5,-50.81 182.17,-51.9 190.76,-52.97"/>
<polygon fill="midnightblue" stroke="midnightblue" points="190.43,-56.46 200.79,-54.23 191.3,-49.52 190.43,-56.46"/>
</g>
<!-- Node6 -->
<g id="node6" class="node">
<title>Node6</title>
<g id="a_node6"><a xlink:href="$namespacepenify__hook_1_1commands_1_1config__commands.html#ab2486ac2bf16b4a671e49625bfa4f9b4" xlink:title=" ">
<polygon fill="white" stroke="black" points="201,-0.5 201,-30.5 366,-30.5 366,-0.5 201,-0.5"/>
<text text-anchor="start" x="209" y="-18.5" font-family="Helvetica,sans-Serif" font-size="10.00">penify_hook.commands.config</text>
<text text-anchor="middle" x="283.5" y="-7.5" font-family="Helvetica,sans-Serif" font-size="10.00">_commands.save_jira_config</text>
</a>
</g>
</g>
<!-- Node1&#45;&gt;Node6 -->
<g id="edge7" class="edge">
<title>Node1&#45;&gt;Node6</title>
<path fill="none" stroke="midnightblue" d="M165.02,-29.67C173.5,-28.65 182.17,-27.6 190.76,-26.56"/>
<polygon fill="midnightblue" stroke="midnightblue" points="191.28,-30.03 200.79,-25.35 190.44,-23.08 191.28,-30.03"/>
</g>
<!-- Node3 -->
<g id="node3" class="node">
<title>Node3</title>
<g id="a_node3"><a xlink:href="$namespacepenify__hook_1_1commands_1_1config__commands.html#a3caf2b062dd33b1f1d7ddc7224f0ff87" xlink:title=" ">
<polygon fill="white" stroke="black" points="402,-112 402,-153 567,-153 567,-112 402,-112"/>
<text text-anchor="start" x="410" y="-141" font-family="Helvetica,sans-Serif" font-size="10.00">penify_hook.commands.config</text>
<text text-anchor="start" x="410" y="-130" font-family="Helvetica,sans-Serif" font-size="10.00">_commands.get_env_var_or</text>
<text text-anchor="middle" x="484.5" y="-119" font-family="Helvetica,sans-Serif" font-size="10.00">_default</text>
</a>
</g>
</g>
<!-- Node2&#45;&gt;Node3 -->
<g id="edge2" class="edge">
<title>Node2&#45;&gt;Node3</title>
<path fill="none" stroke="midnightblue" d="M328.66,-79.59C353.55,-88.1 385.22,-98.92 413.42,-108.55"/>
<polygon fill="midnightblue" stroke="midnightblue" points="412.64,-111.98 423.23,-111.91 414.9,-105.36 412.64,-111.98"/>
</g>
<!-- Node4 -->
<g id="node4" class="node">
<title>Node4</title>
<g id="a_node4"><a xlink:href="$namespacepenify__hook_1_1commands_1_1config__commands.html#aabe277132ce0bc0aacef951cf1dee2ae" xlink:title=" ">
<polygon fill="white" stroke="black" points="402,-44.5 402,-74.5 567,-74.5 567,-44.5 402,-44.5"/>
<text text-anchor="start" x="410" y="-62.5" font-family="Helvetica,sans-Serif" font-size="10.00">penify_hook.commands.config</text>
<text text-anchor="middle" x="484.5" y="-51.5" font-family="Helvetica,sans-Serif" font-size="10.00">_commands.load_env_files</text>
</a>
</g>
</g>
<!-- Node2&#45;&gt;Node4 -->
<g id="edge3" class="edge">
<title>Node2&#45;&gt;Node4</title>
<path fill="none" stroke="midnightblue" d="M366.02,-62.45C374.5,-62.24 383.17,-62.02 391.76,-61.81"/>
<polygon fill="midnightblue" stroke="midnightblue" points="391.88,-65.3 401.79,-61.55 391.7,-58.31 391.88,-65.3"/>
</g>
<!-- Node4&#45;&gt;Node4 -->
<g id="edge4" class="edge">
<title>Node4&#45;&gt;Node4</title>
<path fill="none" stroke="midnightblue" d="M451.04,-74.66C442.97,-84.06 454.12,-93 484.5,-93 503.01,-93 514.38,-89.68 518.62,-84.96"/>
<polygon fill="midnightblue" stroke="midnightblue" points="522.09,-84.42 517.96,-74.66 515.1,-84.86 522.09,-84.42"/>
</g>
<!-- Node5 -->
<g id="node5" class="node">
<title>Node5</title>
<g id="a_node5"><a xlink:href="$namespacepenify__hook_1_1utils.html#a95c3f9c80860d6a2e2d061d2fb660a3f" xlink:title=" ">
<polygon fill="white" stroke="black" points="603,-22.5 603,-52.5 751,-52.5 751,-22.5 603,-22.5"/>
<text text-anchor="start" x="611" y="-40.5" font-family="Helvetica,sans-Serif" font-size="10.00">penify_hook.utils.recursive</text>
<text text-anchor="middle" x="677" y="-29.5" font-family="Helvetica,sans-Serif" font-size="10.00">_search_git_folder</text>
</a>
</g>
</g>
<!-- Node4&#45;&gt;Node5 -->
<g id="edge5" class="edge">
<title>Node4&#45;&gt;Node5</title>
<path fill="none" stroke="midnightblue" d="M567.12,-50.07C575.68,-49.09 584.4,-48.08 592.98,-47.09"/>
<polygon fill="midnightblue" stroke="midnightblue" points="593.44,-50.56 602.97,-45.93 592.64,-43.6 593.44,-50.56"/>
</g>
<!-- Node5&#45;&gt;Node5 -->
<g id="edge6" class="edge">
<title>Node5&#45;&gt;Node5</title>
<path fill="none" stroke="midnightblue" d="M643.54,-52.66C635.47,-62.06 646.62,-71 677,-71 695.51,-71 706.88,-67.68 711.12,-62.96"/>
<polygon fill="midnightblue" stroke="midnightblue" points="714.59,-62.42 710.46,-52.66 707.6,-62.86 714.59,-62.42"/>
</g>
<!-- Node6&#45;&gt;Node5 -->
<g id="edge8" class="edge">
<title>Node6&#45;&gt;Node5</title>
<path fill="none" stroke="midnightblue" d="M366.09,-20.09C432.49,-23.82 525.82,-29.06 592.68,-32.82"/>
<polygon fill="midnightblue" stroke="midnightblue" points="592.58,-36.32 602.76,-33.38 592.97,-29.33 592.58,-36.32"/>
</g>
</g>
</svg>
