<?xml version="1.0" encoding="UTF-8" standalone="no"?>
<!DOCTYPE svg PUBLIC "-//W3C//DTD SVG 1.1//EN"
 "http://www.w3.org/Graphics/SVG/1.1/DTD/svg11.dtd">
<!-- Generated by graphviz version 2.43.0 (0)
 -->
<!-- Title: penify_hook.file_analyzer.FileAnalyzerGenHook.process_file Pages: 1 -->
<svg width="369pt" height="86pt"
 viewBox="0.00 0.00 369.00 86.00" xmlns="http://www.w3.org/2000/svg" xmlns:xlink="http://www.w3.org/1999/xlink">
<g id="graph0" class="graph" transform="scale(1 1) rotate(0) translate(4 82)">
<title>penify_hook.file_analyzer.FileAnalyzerGenHook.process_file</title>
<!-- Node1 -->
<g id="Node000001" class="node">
<title>Node1</title>
<g id="a_Node000001"><a xlink:title=" ">
<polygon fill="#999999" stroke="#666666" points="361,-54 179,-54 179,-24 361,-24 361,-54"/>
<text text-anchor="start" x="187" y="-42" font-family="Helvetica,sans-Serif" font-size="10.00">penify_hook.file_analyzer.</text>
<text text-anchor="middle" x="270" y="-31" font-family="Helvetica,sans-Serif" font-size="10.00">FileAnalyzerGenHook.process_file</text>
</a>
</g>
</g>
<!-- Node2 -->
<g id="Node000002" class="node">
<title>Node2</title>
<g id="a_Node000002"><a xlink:href="classpenify__hook_1_1file__analyzer_1_1FileAnalyzerGenHook.html#a503c97b07cb2db1df0d881094dd6bb49" target="_top" xlink:title=" ">
<polygon fill="white" stroke="#666666" points="143,-78 0,-78 0,-48 143,-48 143,-78"/>
<text text-anchor="start" x="8" y="-66" font-family="Helvetica,sans-Serif" font-size="10.00">penify_hook.file_analyzer.</text>
<text text-anchor="middle" x="71.5" y="-55" font-family="Helvetica,sans-Serif" font-size="10.00">FileAnalyzerGenHook.run</text>
</a>
</g>
</g>
<!-- Node1&#45;&gt;Node2 -->
<g id="edge1_Node000001_Node000002" class="edge">
<title>Node1&#45;&gt;Node2</title>
<g id="a_edge1_Node000001_Node000002"><a xlink:title=" ">
<path fill="none" stroke="#63b8ff" d="M168.65,-51.26C160,-52.31 151.36,-53.37 143.02,-54.39"/>
<polygon fill="#63b8ff" stroke="#63b8ff" points="169.3,-54.7 178.8,-50.02 168.45,-47.75 169.3,-54.7"/>
</a>
</g>
</g>
<!-- Node3 -->
<g id="Node000003" class="node">
<title>Node3</title>
<g id="a_Node000003"><a xlink:href="classpenify__hook_1_1git__analyzer_1_1GitDocGenHook.html#a38fe1e50fc9448d995851d933283b633" target="_top" xlink:title=" ">
<polygon fill="white" stroke="#666666" points="142,-30 1,-30 1,0 142,0 142,-30"/>
<text text-anchor="start" x="9" y="-18" font-family="Helvetica,sans-Serif" font-size="10.00">penify_hook.git_analyzer.</text>
<text text-anchor="middle" x="71.5" y="-7" font-family="Helvetica,sans-Serif" font-size="10.00">GitDocGenHook.run</text>
</a>
</g>
</g>
<!-- Node1&#45;&gt;Node3 -->
<g id="edge2_Node000001_Node000003" class="edge">
<title>Node1&#45;&gt;Node3</title>
<g id="a_edge2_Node000001_Node000003"><a xlink:title=" ">
<path fill="none" stroke="#63b8ff" d="M168.68,-26.75C159.71,-25.65 150.77,-24.56 142.15,-23.51"/>
<polygon fill="#63b8ff" stroke="#63b8ff" points="168.45,-30.25 178.8,-27.98 169.3,-23.3 168.45,-30.25"/>
</a>
</g>
</g>
</g>
</svg>
