<?xml version="1.0" encoding="UTF-8" standalone="no"?>
<!DOCTYPE svg PUBLIC "-//W3C//DTD SVG 1.1//EN"
 "http://www.w3.org/Graphics/SVG/1.1/DTD/svg11.dtd">
<!-- Generated by graphviz version 2.43.0 (0)
 -->
<!-- Title: penify_hook.jira_client.JiraClient.extract_issue_keys Pages: 1 -->
<svg width="525pt" height="50pt"
 viewBox="0.00 0.00 525.00 50.00" xmlns="http://www.w3.org/2000/svg" xmlns:xlink="http://www.w3.org/1999/xlink">
<g id="graph0" class="graph" transform="scale(1 1) rotate(0) translate(4 46)">
<title>penify_hook.jira_client.JiraClient.extract_issue_keys</title>
<polygon fill="white" stroke="transparent" points="-4,4 -4,-46 521,-46 521,4 -4,4"/>
<!-- Node1 -->
<g id="node1" class="node">
<title>Node1</title>
<g id="a_node1"><a xlink:title=" ">
<polygon fill="#bfbfbf" stroke="black" points="360,-6 360,-36 517,-36 517,-6 360,-6"/>
<text text-anchor="start" x="368" y="-24" font-family="Helvetica,sans-Serif" font-size="10.00">penify_hook.jira_client.</text>
<text text-anchor="middle" x="438.5" y="-13" font-family="Helvetica,sans-Serif" font-size="10.00">JiraClient.extract_issue_keys</text>
</a>
</g>
</g>
<!-- Node2 -->
<g id="node2" class="node">
<title>Node2</title>
<g id="a_node2"><a xlink:href="classpenify__hook_1_1jira__client_1_1JiraClient.html#a49ea1149758f7f5212149d357b13cc23" target="_top" xlink:title=" ">
<polygon fill="white" stroke="black" points="184,-0.5 184,-41.5 324,-41.5 324,-0.5 184,-0.5"/>
<text text-anchor="start" x="192" y="-29.5" font-family="Helvetica,sans-Serif" font-size="10.00">penify_hook.jira_client.</text>
<text text-anchor="start" x="192" y="-18.5" font-family="Helvetica,sans-Serif" font-size="10.00">JiraClient.format_commit</text>
<text text-anchor="middle" x="254" y="-7.5" font-family="Helvetica,sans-Serif" font-size="10.00">_message_with_jira_info</text>
</a>
</g>
</g>
<!-- Node1&#45;&gt;Node2 -->
<g id="edge1" class="edge">
<title>Node1&#45;&gt;Node2</title>
<path fill="none" stroke="midnightblue" d="M349.8,-21C341.21,-21 332.58,-21 324.22,-21"/>
<polygon fill="midnightblue" stroke="midnightblue" points="349.84,-24.5 359.84,-21 349.84,-17.5 349.84,-24.5"/>
</g>
<!-- Node3 -->
<g id="node3" class="node">
<title>Node3</title>
<g id="a_node3"><a xlink:href="classpenify__hook_1_1jira__client_1_1JiraClient.html#a70d2c5a6432aa6f238da0ff65d49a760" target="_top" xlink:title=" ">
<polygon fill="white" stroke="black" points="0,-0.5 0,-41.5 148,-41.5 148,-0.5 0,-0.5"/>
<text text-anchor="start" x="8" y="-29.5" font-family="Helvetica,sans-Serif" font-size="10.00">penify_hook.jira_client.</text>
<text text-anchor="start" x="8" y="-18.5" font-family="Helvetica,sans-Serif" font-size="10.00">JiraClient.enhance_commit</text>
<text text-anchor="middle" x="74" y="-7.5" font-family="Helvetica,sans-Serif" font-size="10.00">_message</text>
</a>
</g>
</g>
<!-- Node2&#45;&gt;Node3 -->
<g id="edge2" class="edge">
<title>Node2&#45;&gt;Node3</title>
<path fill="none" stroke="midnightblue" d="M173.66,-21C165.17,-21 156.57,-21 148.16,-21"/>
<polygon fill="midnightblue" stroke="midnightblue" points="173.93,-24.5 183.93,-21 173.93,-17.5 173.93,-24.5"/>
</g>
</g>
</svg>
