<?xml version="1.0" encoding="UTF-8" standalone="no"?>
<!DOCTYPE svg PUBLIC "-//W3C//DTD SVG 1.1//EN"
 "http://www.w3.org/Graphics/SVG/1.1/DTD/svg11.dtd">
<!-- Generated by graphviz version 2.43.0 (0)
 -->
<!-- Title: penify_hook.jira_client.JiraClient.get_issue_details Pages: 1 -->
<svg width="517pt" height="108pt"
 viewBox="0.00 0.00 517.00 108.00" xmlns="http://www.w3.org/2000/svg" xmlns:xlink="http://www.w3.org/1999/xlink">
<g id="graph0" class="graph" transform="scale(1 1) rotate(0) translate(4 104)">
<title>penify_hook.jira_client.JiraClient.get_issue_details</title>
<!-- Node1 -->
<g id="Node000001" class="node">
<title>Node1</title>
<g id="a_Node000001"><a xlink:title=" ">
<polygon fill="#999999" stroke="#666666" points="509,-64.5 360,-64.5 360,-34.5 509,-34.5 509,-64.5"/>
<text text-anchor="start" x="368" y="-52.5" font-family="Helvetica,sans-Serif" font-size="10.00">penify_hook.jira_client.</text>
<text text-anchor="middle" x="434.5" y="-41.5" font-family="Helvetica,sans-Serif" font-size="10.00">JiraClient.get_issue_details</text>
</a>
</g>
</g>
<!-- Node2 -->
<g id="Node000002" class="node">
<title>Node2</title>
<g id="a_Node000002"><a xlink:href="classpenify__hook_1_1jira__client_1_1JiraClient.html#a49ea1149758f7f5212149d357b13cc23" target="_top" xlink:title=" ">
<polygon fill="white" stroke="#666666" points="324,-100 184,-100 184,-59 324,-59 324,-100"/>
<text text-anchor="start" x="192" y="-88" font-family="Helvetica,sans-Serif" font-size="10.00">penify_hook.jira_client.</text>
<text text-anchor="start" x="192" y="-77" font-family="Helvetica,sans-Serif" font-size="10.00">JiraClient.format_commit</text>
<text text-anchor="middle" x="254" y="-66" font-family="Helvetica,sans-Serif" font-size="10.00">_message_with_jira_info</text>
</a>
</g>
</g>
<!-- Node1&#45;&gt;Node2 -->
<g id="edge1_Node000001_Node000002" class="edge">
<title>Node1&#45;&gt;Node2</title>
<g id="a_edge1_Node000001_Node000002"><a xlink:title=" ">
<path fill="none" stroke="#63b8ff" d="M349.83,-63.56C341.24,-65.01 332.57,-66.46 324.16,-67.88"/>
<polygon fill="#63b8ff" stroke="#63b8ff" points="350.59,-66.98 359.87,-61.88 349.42,-60.08 350.59,-66.98"/>
</a>
</g>
</g>
<!-- Node4 -->
<g id="Node000004" class="node">
<title>Node4</title>
<g id="a_Node000004"><a xlink:href="classpenify__hook_1_1jira__client_1_1JiraClient.html#afb41ce6f13c30b1265d439ddf04bf2cd" target="_top" xlink:title=" ">
<polygon fill="white" stroke="#666666" points="319,-41 189,-41 189,0 319,0 319,-41"/>
<text text-anchor="start" x="197" y="-29" font-family="Helvetica,sans-Serif" font-size="10.00">penify_hook.jira_client.</text>
<text text-anchor="start" x="197" y="-18" font-family="Helvetica,sans-Serif" font-size="10.00">JiraClient.get_commit</text>
<text text-anchor="middle" x="254" y="-7" font-family="Helvetica,sans-Serif" font-size="10.00">_context_from_issues</text>
</a>
</g>
</g>
<!-- Node1&#45;&gt;Node4 -->
<g id="edge3_Node000001_Node000004" class="edge">
<title>Node1&#45;&gt;Node4</title>
<g id="a_edge3_Node000001_Node000004"><a xlink:title=" ">
<path fill="none" stroke="#63b8ff" d="M349.96,-35.93C339.57,-34.24 329.09,-32.54 319.06,-30.91"/>
<polygon fill="#63b8ff" stroke="#63b8ff" points="349.43,-39.39 359.87,-37.54 350.56,-32.48 349.43,-39.39"/>
</a>
</g>
</g>
<!-- Node3 -->
<g id="Node000003" class="node">
<title>Node3</title>
<g id="a_Node000003"><a xlink:href="classpenify__hook_1_1jira__client_1_1JiraClient.html#a70d2c5a6432aa6f238da0ff65d49a760" target="_top" xlink:title=" ">
<polygon fill="white" stroke="#666666" points="148,-70 0,-70 0,-29 148,-29 148,-70"/>
<text text-anchor="start" x="8" y="-58" font-family="Helvetica,sans-Serif" font-size="10.00">penify_hook.jira_client.</text>
<text text-anchor="start" x="8" y="-47" font-family="Helvetica,sans-Serif" font-size="10.00">JiraClient.enhance_commit</text>
<text text-anchor="middle" x="74" y="-36" font-family="Helvetica,sans-Serif" font-size="10.00">_message</text>
</a>
</g>
</g>
<!-- Node2&#45;&gt;Node3 -->
<g id="edge2_Node000002_Node000003" class="edge">
<title>Node2&#45;&gt;Node3</title>
<g id="a_edge2_Node000002_Node000003"><a xlink:title=" ">
<path fill="none" stroke="#63b8ff" d="M173.94,-66.17C165.36,-64.73 156.66,-63.26 148.16,-61.83"/>
<polygon fill="#63b8ff" stroke="#63b8ff" points="173.48,-69.65 183.93,-67.86 174.65,-62.74 173.48,-69.65"/>
</a>
</g>
</g>
<!-- Node4&#45;&gt;Node3 -->
<g id="edge4_Node000004_Node000003" class="edge">
<title>Node4&#45;&gt;Node3</title>
<g id="a_edge4_Node000004_Node000003"><a xlink:title=" ">
<path fill="none" stroke="#63b8ff" d="M178.92,-32.57C168.73,-34.23 158.28,-35.93 148.12,-37.59"/>
<polygon fill="#63b8ff" stroke="#63b8ff" points="179.68,-35.99 188.99,-30.93 178.56,-29.08 179.68,-35.99"/>
</a>
</g>
</g>
</g>
</svg>
