<?xml version="1.0" encoding="UTF-8" standalone="no"?>
<!DOCTYPE svg PUBLIC "-//W3C//DTD SVG 1.1//EN"
 "http://www.w3.org/Graphics/SVG/1.1/DTD/svg11.dtd">
<!-- Generated by graphviz version 2.43.0 (0)
 -->
<!-- Title: penify_hook.file_analyzer.FileAnalyzerGenHook Pages: 1 -->
<svg width="160pt" height="281pt"
 viewBox="0.00 0.00 160.00 281.00" xmlns="http://www.w3.org/2000/svg" xmlns:xlink="http://www.w3.org/1999/xlink">
<g id="graph0" class="graph" transform="scale(1 1) rotate(0) translate(4 277)">
<title>penify_hook.file_analyzer.FileAnalyzerGenHook</title>
<polygon fill="white" stroke="transparent" points="-4,4 -4,-277 156,-277 156,4 -4,4"/>
<!-- Node1 -->
<g id="node1" class="node">
<title>Node1</title>
<g id="a_node1"><a xlink:title=" ">
<polygon fill="#bfbfbf" stroke="black" points="4.5,-0.5 4.5,-101.5 147.5,-101.5 147.5,-0.5 4.5,-0.5"/>
<text text-anchor="start" x="12.5" y="-89.5" font-family="Helvetica,sans-Serif" font-size="10.00">penify_hook.file_analyzer.</text>
<text text-anchor="middle" x="76" y="-78.5" font-family="Helvetica,sans-Serif" font-size="10.00">FileAnalyzerGenHook</text>
<polyline fill="none" stroke="black" points="4.5,-71.5 147.5,-71.5 "/>
<text text-anchor="start" x="12.5" y="-59.5" font-family="Helvetica,sans-Serif" font-size="10.00">+ file_path</text>
<polyline fill="none" stroke="black" points="4.5,-52.5 147.5,-52.5 "/>
<text text-anchor="start" x="12.5" y="-40.5" font-family="Helvetica,sans-Serif" font-size="10.00">+ __init__()</text>
<text text-anchor="start" x="12.5" y="-29.5" font-family="Helvetica,sans-Serif" font-size="10.00">+ process_file()</text>
<text text-anchor="start" x="12.5" y="-18.5" font-family="Helvetica,sans-Serif" font-size="10.00">+ print_processing()</text>
<text text-anchor="start" x="12.5" y="-7.5" font-family="Helvetica,sans-Serif" font-size="10.00">+ run()</text>
</a>
</g>
</g>
<!-- Node2 -->
<g id="node2" class="node">
<title>Node2</title>
<g id="a_node2"><a xlink:href="classpenify__hook_1_1base__analyzer_1_1BaseAnalyzer.html" target="_top" xlink:title=" ">
<polygon fill="white" stroke="black" points="0,-138.5 0,-272.5 152,-272.5 152,-138.5 0,-138.5"/>
<text text-anchor="start" x="8" y="-260.5" font-family="Helvetica,sans-Serif" font-size="10.00">penify_hook.base_analyzer.</text>
<text text-anchor="middle" x="76" y="-249.5" font-family="Helvetica,sans-Serif" font-size="10.00">BaseAnalyzer</text>
<polyline fill="none" stroke="black" points="0,-242.5 152,-242.5 "/>
<text text-anchor="start" x="8" y="-230.5" font-family="Helvetica,sans-Serif" font-size="10.00">+ folder_path</text>
<text text-anchor="start" x="8" y="-219.5" font-family="Helvetica,sans-Serif" font-size="10.00">+ repo_path</text>
<text text-anchor="start" x="8" y="-208.5" font-family="Helvetica,sans-Serif" font-size="10.00">+ repo</text>
<text text-anchor="start" x="8" y="-197.5" font-family="Helvetica,sans-Serif" font-size="10.00">+ repo_details</text>
<text text-anchor="start" x="8" y="-186.5" font-family="Helvetica,sans-Serif" font-size="10.00">+ relative_file_path</text>
<text text-anchor="start" x="8" y="-175.5" font-family="Helvetica,sans-Serif" font-size="10.00">+ api_client</text>
<text text-anchor="start" x="8" y="-164.5" font-family="Helvetica,sans-Serif" font-size="10.00">+ supported_file_types</text>
<polyline fill="none" stroke="black" points="0,-157.5 152,-157.5 "/>
<text text-anchor="start" x="8" y="-145.5" font-family="Helvetica,sans-Serif" font-size="10.00">+ __init__()</text>
</a>
</g>
</g>
<!-- Node2&#45;&gt;Node1 -->
<g id="edge1" class="edge">
<title>Node2&#45;&gt;Node1</title>
<path fill="none" stroke="midnightblue" d="M76,-128.27C76,-119.19 76,-110.11 76,-101.55"/>
<polygon fill="none" stroke="midnightblue" points="72.5,-128.5 76,-138.5 79.5,-128.5 72.5,-128.5"/>
</g>
</g>
</svg>
