<?xml version="1.0" encoding="UTF-8" standalone="no"?>
<!DOCTYPE svg PUBLIC "-//W3C//DTD SVG 1.1//EN"
 "http://www.w3.org/Graphics/SVG/1.1/DTD/svg11.dtd">
<!-- Generated by graphviz version 2.43.0 (0)
 -->
<!-- Title: penify_hook.base_analyzer.BaseAnalyzer Pages: 1 -->
<!--zoomable 303 -->
<svg id="main" version="1.1" xmlns="http://www.w3.org/2000/svg" xmlns:xlink="http://www.w3.org/1999/xlink" xml:space="preserve" onload="init(evt)">
<style type="text/css"><![CDATA[
.edge:hover path { stroke: red; }
.edge:hover polygon { stroke: red; fill: red; }
]]></style>
<script type="text/javascript"><![CDATA[
var edges = document.getElementsByTagName('g');
if (edges && edges.length) {
  for (var i=0;i<edges.length;i++) {
    if (edges[i].id.substr(0,4)=='edge') {
      edges[i].setAttribute('class','edge');
    }
  }
}
]]></script>
        <defs>
                <circle id="rim" cx="0" cy="0" r="7"/>
                <circle id="rim2" cx="0" cy="0" r="3.5"/>
                <g id="zoomPlus">
                        <use xlink:href="#rim" fill="#404040">
                                <set attributeName="fill" to="#808080" begin="zoomplus.mouseover" end="zoomplus.mouseout"/>
                        </use>
                        <path d="M-4,0h8M0,-4v8" fill="none" stroke="white" stroke-width="1.5" pointer-events="none"/>
                </g>
                <g id="zoomMin">
                        <use xlink:href="#rim" fill="#404040">
                                <set attributeName="fill" to="#808080" begin="zoomminus.mouseover" end="zoomminus.mouseout"/>
                        </use>
                        <path d="M-4,0h8" fill="none" stroke="white" stroke-width="1.5" pointer-events="none"/>
                </g>
                <g id="dirArrow">
                        <path fill="none" stroke="white" stroke-width="1.5" d="M0,-3.0v7 M-2.5,-0.5L0,-3.0L2.5,-0.5"/>
                </g>
               <g id="resetDef">
                       <use xlink:href="#rim2" fill="#404040">
                               <set attributeName="fill" to="#808080" begin="reset.mouseover" end="reset.mouseout"/>
                       </use>
               </g>
        </defs>

<script type="text/javascript">
var viewWidth = 700;
var viewHeight = 303;
var sectionId = 'dynsection-0';
</script>
<script xlink:href="svgpan.js"/>
<svg id="graph" class="graph">
<g id="viewport">
<title>penify_hook.base_analyzer.BaseAnalyzer</title>
<polygon fill="white" stroke="transparent" points="-4,4 -4,-299 696,-299 696,4 -4,4"/>
<!-- Node1 -->
<g id="node1" class="node">
<title>Node1</title>
<g id="a_node1"><a xlink:title=" ">
<polygon fill="#bfbfbf" stroke="black" points="273.5,-160.5 273.5,-294.5 425.5,-294.5 425.5,-160.5 273.5,-160.5"/>
<text text-anchor="start" x="281.5" y="-282.5" font-family="Helvetica,sans-Serif" font-size="10.00">penify_hook.base_analyzer.</text>
<text text-anchor="middle" x="349.5" y="-271.5" font-family="Helvetica,sans-Serif" font-size="10.00">BaseAnalyzer</text>
<polyline fill="none" stroke="black" points="273.5,-264.5 425.5,-264.5 "/>
<text text-anchor="start" x="281.5" y="-252.5" font-family="Helvetica,sans-Serif" font-size="10.00">+ folder_path</text>
<text text-anchor="start" x="281.5" y="-241.5" font-family="Helvetica,sans-Serif" font-size="10.00">+ repo_path</text>
<text text-anchor="start" x="281.5" y="-230.5" font-family="Helvetica,sans-Serif" font-size="10.00">+ repo</text>
<text text-anchor="start" x="281.5" y="-219.5" font-family="Helvetica,sans-Serif" font-size="10.00">+ repo_details</text>
<text text-anchor="start" x="281.5" y="-208.5" font-family="Helvetica,sans-Serif" font-size="10.00">+ relative_file_path</text>
<text text-anchor="start" x="281.5" y="-197.5" font-family="Helvetica,sans-Serif" font-size="10.00">+ api_client</text>
<text text-anchor="start" x="281.5" y="-186.5" font-family="Helvetica,sans-Serif" font-size="10.00">+ supported_file_types</text>
<polyline fill="none" stroke="black" points="273.5,-179.5 425.5,-179.5 "/>
<text text-anchor="start" x="281.5" y="-167.5" font-family="Helvetica,sans-Serif" font-size="10.00">+ __init__()</text>
</a>
</g>
</g>
<!-- Node2 -->
<g id="node2" class="node">
<title>Node2</title>
<g id="a_node2"><a xlink:href="classpenify__hook_1_1commit__analyzer_1_1CommitDocGenHook.html" target="_top" xlink:title=" ">
<polygon fill="white" stroke="black" points="0,-6 0,-118 169,-118 169,-6 0,-6"/>
<text text-anchor="start" x="8" y="-106" font-family="Helvetica,sans-Serif" font-size="10.00">penify_hook.commit</text>
<text text-anchor="middle" x="84.5" y="-95" font-family="Helvetica,sans-Serif" font-size="10.00">_analyzer.CommitDocGenHook</text>
<polyline fill="none" stroke="black" points="0,-88 169,-88 "/>
<text text-anchor="start" x="8" y="-76" font-family="Helvetica,sans-Serif" font-size="10.00">+ llm_client</text>
<polyline fill="none" stroke="black" points="0,-69 169,-69 "/>
<text text-anchor="start" x="8" y="-57" font-family="Helvetica,sans-Serif" font-size="10.00">+ __init__()</text>
<text text-anchor="start" x="8" y="-46" font-family="Helvetica,sans-Serif" font-size="10.00">+ get_summary()</text>
<text text-anchor="start" x="8" y="-35" font-family="Helvetica,sans-Serif" font-size="10.00">+ run()</text>
<text text-anchor="start" x="8" y="-24" font-family="Helvetica,sans-Serif" font-size="10.00">+ process_jira_integration()</text>
<text text-anchor="start" x="8" y="-13" font-family="Helvetica,sans-Serif" font-size="10.00">&#45; _amend_commit()</text>
</a>
</g>
</g>
<!-- Node1&#45;&gt;Node2 -->
<g id="edge1" class="edge">
<title>Node1&#45;&gt;Node2</title>
<path fill="none" stroke="midnightblue" d="M264.37,-176.75C236.53,-160.22 205.56,-141.55 177.5,-124 174.39,-122.05 171.23,-120.06 168.04,-118.04"/>
<polygon fill="none" stroke="midnightblue" points="262.91,-179.95 273.29,-182.04 266.48,-173.93 262.91,-179.95"/>
</g>
<!-- Node3 -->
<g id="node3" class="node">
<title>Node3</title>
<g id="a_node3"><a xlink:href="classpenify__hook_1_1file__analyzer_1_1FileAnalyzerGenHook.html" target="_top" xlink:title=" ">
<polygon fill="white" stroke="black" points="187,-11.5 187,-112.5 330,-112.5 330,-11.5 187,-11.5"/>
<text text-anchor="start" x="195" y="-100.5" font-family="Helvetica,sans-Serif" font-size="10.00">penify_hook.file_analyzer.</text>
<text text-anchor="middle" x="258.5" y="-89.5" font-family="Helvetica,sans-Serif" font-size="10.00">FileAnalyzerGenHook</text>
<polyline fill="none" stroke="black" points="187,-82.5 330,-82.5 "/>
<text text-anchor="start" x="195" y="-70.5" font-family="Helvetica,sans-Serif" font-size="10.00">+ file_path</text>
<polyline fill="none" stroke="black" points="187,-63.5 330,-63.5 "/>
<text text-anchor="start" x="195" y="-51.5" font-family="Helvetica,sans-Serif" font-size="10.00">+ __init__()</text>
<text text-anchor="start" x="195" y="-40.5" font-family="Helvetica,sans-Serif" font-size="10.00">+ process_file()</text>
<text text-anchor="start" x="195" y="-29.5" font-family="Helvetica,sans-Serif" font-size="10.00">+ print_processing()</text>
<text text-anchor="start" x="195" y="-18.5" font-family="Helvetica,sans-Serif" font-size="10.00">+ run()</text>
</a>
</g>
</g>
<!-- Node1&#45;&gt;Node3 -->
<g id="edge2" class="edge">
<title>Node1&#45;&gt;Node3</title>
<path fill="none" stroke="midnightblue" d="M307.72,-151.43C300.4,-138.28 292.96,-124.91 286.15,-112.68"/>
<polygon fill="none" stroke="midnightblue" points="304.83,-153.43 312.75,-160.47 310.94,-150.03 304.83,-153.43"/>
</g>
<!-- Node4 -->
<g id="node4" class="node">
<title>Node4</title>
<g id="a_node4"><a xlink:href="classpenify__hook_1_1folder__analyzer_1_1FolderAnalyzerGenHook.html" target="_top" xlink:title=" ">
<polygon fill="white" stroke="black" points="348.5,-17 348.5,-107 532.5,-107 532.5,-17 348.5,-17"/>
<text text-anchor="start" x="356.5" y="-95" font-family="Helvetica,sans-Serif" font-size="10.00">penify_hook.folder</text>
<text text-anchor="middle" x="440.5" y="-84" font-family="Helvetica,sans-Serif" font-size="10.00">_analyzer.FolderAnalyzerGenHook</text>
<polyline fill="none" stroke="black" points="348.5,-77 532.5,-77 "/>
<text text-anchor="start" x="356.5" y="-65" font-family="Helvetica,sans-Serif" font-size="10.00">+ dir_path</text>
<polyline fill="none" stroke="black" points="348.5,-58 532.5,-58 "/>
<text text-anchor="start" x="356.5" y="-46" font-family="Helvetica,sans-Serif" font-size="10.00">+ __init__()</text>
<text text-anchor="start" x="356.5" y="-35" font-family="Helvetica,sans-Serif" font-size="10.00">+ list_all_files_in_dir()</text>
<text text-anchor="start" x="356.5" y="-24" font-family="Helvetica,sans-Serif" font-size="10.00">+ run()</text>
</a>
</g>
</g>
<!-- Node1&#45;&gt;Node4 -->
<g id="edge3" class="edge">
<title>Node1&#45;&gt;Node4</title>
<path fill="none" stroke="midnightblue" d="M391.19,-151.59C399.64,-136.42 408.26,-120.93 415.88,-107.24"/>
<polygon fill="none" stroke="midnightblue" points="388.06,-150.03 386.25,-160.47 394.17,-153.43 388.06,-150.03"/>
</g>
<!-- Node5 -->
<g id="node5" class="node">
<title>Node5</title>
<g id="a_node5"><a xlink:href="classpenify__hook_1_1git__analyzer_1_1GitDocGenHook.html" target="_top" xlink:title=" ">
<polygon fill="white" stroke="black" points="551,-0.5 551,-123.5 692,-123.5 692,-0.5 551,-0.5"/>
<text text-anchor="start" x="559" y="-111.5" font-family="Helvetica,sans-Serif" font-size="10.00">penify_hook.git_analyzer.</text>
<text text-anchor="middle" x="621.5" y="-100.5" font-family="Helvetica,sans-Serif" font-size="10.00">GitDocGenHook</text>
<polyline fill="none" stroke="black" points="551,-93.5 692,-93.5 "/>
<text text-anchor="middle" x="621.5" y="-81.5" font-family="Helvetica,sans-Serif" font-size="10.00"> </text>
<polyline fill="none" stroke="black" points="551,-74.5 692,-74.5 "/>
<text text-anchor="start" x="559" y="-62.5" font-family="Helvetica,sans-Serif" font-size="10.00">+ __init__()</text>
<text text-anchor="start" x="559" y="-51.5" font-family="Helvetica,sans-Serif" font-size="10.00">+ get_modified_files</text>
<text text-anchor="start" x="559" y="-40.5" font-family="Helvetica,sans-Serif" font-size="10.00">_in_last_commit()</text>
<text text-anchor="start" x="559" y="-29.5" font-family="Helvetica,sans-Serif" font-size="10.00">+ get_modified_lines()</text>
<text text-anchor="start" x="559" y="-18.5" font-family="Helvetica,sans-Serif" font-size="10.00">+ process_file()</text>
<text text-anchor="start" x="559" y="-7.5" font-family="Helvetica,sans-Serif" font-size="10.00">+ run()</text>
</a>
</g>
</g>
<!-- Node1&#45;&gt;Node5 -->
<g id="edge4" class="edge">
<title>Node1&#45;&gt;Node5</title>
<path fill="none" stroke="midnightblue" d="M434.83,-184.7C468.73,-167.13 507.64,-145.74 541.5,-124 544.59,-122.02 547.7,-119.95 550.83,-117.83"/>
<polygon fill="none" stroke="midnightblue" points="433.16,-181.63 425.87,-189.32 436.36,-187.85 433.16,-181.63"/>
</g>
</g>
</svg>
        <g id="navigator" transform="translate(0 0)" fill="#404254">
                <rect fill="#f2f5e9" fill-opacity="0.5" stroke="#606060" stroke-width=".5" x="0" y="0" width="60" height="60"/>
                <use id="zoomplus" xlink:href="#zoomPlus" x="17" y="9" onmousedown="handleZoom(evt,'in')"/>
                <use id="zoomminus" xlink:href="#zoomMin" x="42" y="9" onmousedown="handleZoom(evt,'out')"/>
                <use id="reset" xlink:href="#resetDef" x="30" y="36" onmousedown="handleReset()"/>
                <g id="arrowUp" xlink:href="#dirArrow" transform="translate(30 24)" onmousedown="handlePan(0,-1)">
                  <use xlink:href="#rim" fill="#404040">
                        <set attributeName="fill" to="#808080" begin="arrowUp.mouseover" end="arrowUp.mouseout"/>
                  </use>
                  <path fill="none" stroke="white" stroke-width="1.5" d="M0,-3.0v7 M-2.5,-0.5L0,-3.0L2.5,-0.5"/>
                </g>
                <g id="arrowRight" xlink:href="#dirArrow" transform="rotate(90) translate(36 -43)" onmousedown="handlePan(1,0)">
                  <use xlink:href="#rim" fill="#404040">
                        <set attributeName="fill" to="#808080" begin="arrowRight.mouseover" end="arrowRight.mouseout"/>
                  </use>
                  <path fill="none" stroke="white" stroke-width="1.5" d="M0,-3.0v7 M-2.5,-0.5L0,-3.0L2.5,-0.5"/>
                </g>
                <g id="arrowDown" xlink:href="#dirArrow" transform="rotate(180) translate(-30 -48)" onmousedown="handlePan(0,1)">
                  <use xlink:href="#rim" fill="#404040">
                        <set attributeName="fill" to="#808080" begin="arrowDown.mouseover" end="arrowDown.mouseout"/>
                  </use>
                  <path fill="none" stroke="white" stroke-width="1.5" d="M0,-3.0v7 M-2.5,-0.5L0,-3.0L2.5,-0.5"/>
                </g>
                <g id="arrowLeft" xlink:href="#dirArrow" transform="rotate(270) translate(-36 17)" onmousedown="handlePan(-1,0)">
                  <use xlink:href="#rim" fill="#404040">
                        <set attributeName="fill" to="#808080" begin="arrowLeft.mouseover" end="arrowLeft.mouseout"/>
                  </use>
                  <path fill="none" stroke="white" stroke-width="1.5" d="M0,-3.0v7 M-2.5,-0.5L0,-3.0L2.5,-0.5"/>
                </g>
        </g>
        <svg viewBox="0 0 15 15" width="100%" height="30px" preserveAspectRatio="xMaxYMin meet">
         <g id="arrow_out" transform="scale(0.3 0.3)">
          <a xlink:href="classpenify__hook_1_1base__analyzer_1_1BaseAnalyzer__inherit__graph_org.svg" target="_base">
           <rect id="button" ry="5" rx="5" y="6" x="6" height="38" width="38"
                fill="#f2f5e9" fill-opacity="0.5" stroke="#606060" stroke-width="1.0"/>
           <path id="arrow"
             d="M 11.500037,31.436501 C 11.940474,20.09759 22.043105,11.32322 32.158766,21.979434 L 37.068811,17.246167 C 37.068811,17.246167 37.088388,32 37.088388,32 L 22.160133,31.978069 C 22.160133,31.978069 26.997745,27.140456 26.997745,27.140456 C 18.528582,18.264221 13.291696,25.230495 11.500037,31.436501 z"
             style="fill:#404040;"/>
          </a>
         </g>
        </svg>
</svg>
