<?xml version="1.0" encoding="UTF-8" standalone="no"?>
<!DOCTYPE svg PUBLIC "-//W3C//DTD SVG 1.1//EN"
 "http://www.w3.org/Graphics/SVG/1.1/DTD/svg11.dtd">
<!-- Generated by graphviz version 2.43.0 (0)
 -->
<!-- Title: penify_hook.git_analyzer.GitDocGenHook.get_modified_lines Pages: 1 -->
<svg width="568pt" height="88pt"
 viewBox="0.00 0.00 568.00 88.00" xmlns="http://www.w3.org/2000/svg" xmlns:xlink="http://www.w3.org/1999/xlink">
<g id="graph0" class="graph" transform="scale(1 1) rotate(0) translate(4 84)">
<title>penify_hook.git_analyzer.GitDocGenHook.get_modified_lines</title>
<polygon fill="white" stroke="transparent" points="-4,4 -4,-84 564,-84 564,4 -4,4"/>
<!-- Node1 -->
<g id="node1" class="node">
<title>Node1</title>
<g id="a_node1"><a xlink:title=" ">
<polygon fill="#bfbfbf" stroke="black" points="370,-24.5 370,-54.5 560,-54.5 560,-24.5 370,-24.5"/>
<text text-anchor="start" x="378" y="-42.5" font-family="Helvetica,sans-Serif" font-size="10.00">penify_hook.git_analyzer.</text>
<text text-anchor="middle" x="465" y="-31.5" font-family="Helvetica,sans-Serif" font-size="10.00">GitDocGenHook.get_modified_lines</text>
</a>
</g>
</g>
<!-- Node2 -->
<g id="node2" class="node">
<title>Node2</title>
<g id="a_node2"><a xlink:href="classpenify__hook_1_1git__analyzer_1_1GitDocGenHook.html#a05313caa22b173ce75638f0db08eeb85" target="_top" xlink:title=" ">
<polygon fill="white" stroke="black" points="179,-24.5 179,-54.5 334,-54.5 334,-24.5 179,-24.5"/>
<text text-anchor="start" x="187" y="-42.5" font-family="Helvetica,sans-Serif" font-size="10.00">penify_hook.git_analyzer.</text>
<text text-anchor="middle" x="256.5" y="-31.5" font-family="Helvetica,sans-Serif" font-size="10.00">GitDocGenHook.process_file</text>
</a>
</g>
</g>
<!-- Node1&#45;&gt;Node2 -->
<g id="edge1" class="edge">
<title>Node1&#45;&gt;Node2</title>
<path fill="none" stroke="midnightblue" d="M359.74,-39.5C351.15,-39.5 342.56,-39.5 334.23,-39.5"/>
<polygon fill="midnightblue" stroke="midnightblue" points="359.81,-43 369.81,-39.5 359.81,-36 359.81,-43"/>
</g>
<!-- Node3 -->
<g id="node3" class="node">
<title>Node3</title>
<g id="a_node3"><a xlink:href="classpenify__hook_1_1file__analyzer_1_1FileAnalyzerGenHook.html#a4f4dffbc432fac3e259d957dd1e187f1" target="_top" xlink:title=" ">
<polygon fill="white" stroke="black" points="0,-49.5 0,-79.5 143,-79.5 143,-49.5 0,-49.5"/>
<text text-anchor="start" x="8" y="-67.5" font-family="Helvetica,sans-Serif" font-size="10.00">penify_hook.file_analyzer.</text>
<text text-anchor="middle" x="71.5" y="-56.5" font-family="Helvetica,sans-Serif" font-size="10.00">FileAnalyzerGenHook.run</text>
</a>
</g>
</g>
<!-- Node2&#45;&gt;Node3 -->
<g id="edge2" class="edge">
<title>Node2&#45;&gt;Node3</title>
<path fill="none" stroke="midnightblue" d="M168.89,-51.33C160.28,-52.51 151.61,-53.69 143.19,-54.84"/>
<polygon fill="midnightblue" stroke="midnightblue" points="169.52,-54.78 178.95,-49.96 168.57,-47.84 169.52,-54.78"/>
</g>
<!-- Node4 -->
<g id="node4" class="node">
<title>Node4</title>
<g id="a_node4"><a xlink:href="classpenify__hook_1_1git__analyzer_1_1GitDocGenHook.html#a3beba14e92d717391a74bb70b1fab0ae" target="_top" xlink:title=" ">
<polygon fill="white" stroke="black" points="1,-0.5 1,-30.5 142,-30.5 142,-0.5 1,-0.5"/>
<text text-anchor="start" x="9" y="-18.5" font-family="Helvetica,sans-Serif" font-size="10.00">penify_hook.git_analyzer.</text>
<text text-anchor="middle" x="71.5" y="-7.5" font-family="Helvetica,sans-Serif" font-size="10.00">GitDocGenHook.run</text>
</a>
</g>
</g>
<!-- Node2&#45;&gt;Node4 -->
<g id="edge3" class="edge">
<title>Node2&#45;&gt;Node4</title>
<path fill="none" stroke="midnightblue" d="M168.85,-28.14C159.85,-26.96 150.8,-25.77 142.03,-24.62"/>
<polygon fill="midnightblue" stroke="midnightblue" points="168.58,-31.63 178.95,-29.46 169.49,-24.69 168.58,-31.63"/>
</g>
</g>
</svg>
