<?xml version="1.0" encoding="UTF-8" standalone="no"?>
<!DOCTYPE svg PUBLIC "-//W3C//DTD SVG 1.1//EN"
 "http://www.w3.org/Graphics/SVG/1.1/DTD/svg11.dtd">
<!-- Generated by graphviz version 2.43.0 (0)
 -->
<!-- Title: penify_hook.jira_client.JiraClient.is_connected Pages: 1 -->
<svg width="683pt" height="342pt"
 viewBox="0.00 0.00 683.00 341.50" xmlns="http://www.w3.org/2000/svg" xmlns:xlink="http://www.w3.org/1999/xlink">
<g id="graph0" class="graph" transform="scale(1 1) rotate(0) translate(4 337.5)">
<title>penify_hook.jira_client.JiraClient.is_connected</title>
<polygon fill="white" stroke="transparent" points="-4,4 -4,-337.5 679,-337.5 679,4 -4,4"/>
<!-- Node1 -->
<g id="node1" class="node">
<title>Node1</title>
<g id="a_node1"><a xlink:title=" ">
<polygon fill="#bfbfbf" stroke="black" points="545,-159 545,-189 675,-189 675,-159 545,-159"/>
<text text-anchor="start" x="553" y="-177" font-family="Helvetica,sans-Serif" font-size="10.00">penify_hook.jira_client.</text>
<text text-anchor="middle" x="610" y="-166" font-family="Helvetica,sans-Serif" font-size="10.00">JiraClient.is_connected</text>
</a>
</g>
</g>
<!-- Node2 -->
<g id="node2" class="node">
<title>Node2</title>
<g id="a_node2"><a xlink:href="classpenify__hook_1_1jira__client_1_1JiraClient.html#aa1f374116c64cd5f1492ec7f7e40f9c1" target="_top" xlink:title=" ">
<polygon fill="white" stroke="black" points="367.5,-285 367.5,-315 501.5,-315 501.5,-285 367.5,-285"/>
<text text-anchor="start" x="375.5" y="-303" font-family="Helvetica,sans-Serif" font-size="10.00">penify_hook.jira_client.</text>
<text text-anchor="middle" x="434.5" y="-292" font-family="Helvetica,sans-Serif" font-size="10.00">JiraClient.add_comment</text>
</a>
</g>
</g>
<!-- Node1&#45;&gt;Node2 -->
<g id="edge1" class="edge">
<title>Node1&#45;&gt;Node2</title>
<path fill="none" stroke="midnightblue" d="M589.9,-196.75C571.1,-217.99 540.67,-249.42 509,-270 500.1,-275.78 489.91,-280.8 480,-284.99"/>
<polygon fill="midnightblue" stroke="midnightblue" points="592.59,-198.99 596.51,-189.15 587.31,-194.4 592.59,-198.99"/>
</g>
<!-- Node3 -->
<g id="node3" class="node">
<title>Node3</title>
<g id="a_node3"><a xlink:href="classpenify__hook_1_1jira__client_1_1JiraClient.html#a70d2c5a6432aa6f238da0ff65d49a760" target="_top" xlink:title=" ">
<polygon fill="white" stroke="black" points="0,-182.5 0,-223.5 148,-223.5 148,-182.5 0,-182.5"/>
<text text-anchor="start" x="8" y="-211.5" font-family="Helvetica,sans-Serif" font-size="10.00">penify_hook.jira_client.</text>
<text text-anchor="start" x="8" y="-200.5" font-family="Helvetica,sans-Serif" font-size="10.00">JiraClient.enhance_commit</text>
<text text-anchor="middle" x="74" y="-189.5" font-family="Helvetica,sans-Serif" font-size="10.00">_message</text>
</a>
</g>
</g>
<!-- Node1&#45;&gt;Node3 -->
<g id="edge3" class="edge">
<title>Node1&#45;&gt;Node3</title>
<path fill="none" stroke="midnightblue" d="M570.51,-193.42C552.31,-201.75 530,-210.76 509,-216 368.66,-251.03 327.34,-252.37 184,-233 169.02,-230.98 153.19,-227.46 138.38,-223.52"/>
<polygon fill="midnightblue" stroke="midnightblue" points="572.06,-196.56 579.63,-189.15 569.09,-190.23 572.06,-196.56"/>
</g>
<!-- Node4 -->
<g id="node4" class="node">
<title>Node4</title>
<g id="a_node4"><a xlink:href="classpenify__hook_1_1jira__client_1_1JiraClient.html#a49ea1149758f7f5212149d357b13cc23" target="_top" xlink:title=" ">
<polygon fill="white" stroke="black" points="184,-182.5 184,-223.5 324,-223.5 324,-182.5 184,-182.5"/>
<text text-anchor="start" x="192" y="-211.5" font-family="Helvetica,sans-Serif" font-size="10.00">penify_hook.jira_client.</text>
<text text-anchor="start" x="192" y="-200.5" font-family="Helvetica,sans-Serif" font-size="10.00">JiraClient.format_commit</text>
<text text-anchor="middle" x="254" y="-189.5" font-family="Helvetica,sans-Serif" font-size="10.00">_message_with_jira_info</text>
</a>
</g>
</g>
<!-- Node1&#45;&gt;Node4 -->
<g id="edge4" class="edge">
<title>Node1&#45;&gt;Node4</title>
<path fill="none" stroke="midnightblue" d="M548.57,-191.47C535.62,-194.55 521.94,-197.3 509,-199 446.8,-207.16 375.3,-207.48 324.04,-206.16"/>
<polygon fill="midnightblue" stroke="midnightblue" points="549.43,-194.86 558.3,-189.07 547.76,-188.06 549.43,-194.86"/>
</g>
<!-- Node5 -->
<g id="node5" class="node">
<title>Node5</title>
<g id="a_node5"><a xlink:href="classpenify__hook_1_1jira__client_1_1JiraClient.html#afb41ce6f13c30b1265d439ddf04bf2cd" target="_top" xlink:title=" ">
<polygon fill="white" stroke="black" points="189,-114.5 189,-155.5 319,-155.5 319,-114.5 189,-114.5"/>
<text text-anchor="start" x="197" y="-143.5" font-family="Helvetica,sans-Serif" font-size="10.00">penify_hook.jira_client.</text>
<text text-anchor="start" x="197" y="-132.5" font-family="Helvetica,sans-Serif" font-size="10.00">JiraClient.get_commit</text>
<text text-anchor="middle" x="254" y="-121.5" font-family="Helvetica,sans-Serif" font-size="10.00">_context_from_issues</text>
</a>
</g>
</g>
<!-- Node1&#45;&gt;Node5 -->
<g id="edge6" class="edge">
<title>Node1&#45;&gt;Node5</title>
<path fill="none" stroke="midnightblue" d="M544.01,-156.65C532.42,-154.06 520.41,-151.69 509,-150 444.88,-140.49 370.8,-136.95 319.26,-135.67"/>
<polygon fill="midnightblue" stroke="midnightblue" points="543.53,-160.13 554.06,-158.97 545.11,-153.31 543.53,-160.13"/>
</g>
<!-- Node6 -->
<g id="node6" class="node">
<title>Node6</title>
<g id="a_node6"><a xlink:href="classpenify__hook_1_1jira__client_1_1JiraClient.html#aa967169a4b7970c67c0947b9ac56f746" target="_top" xlink:title=" ">
<polygon fill="white" stroke="black" points="369.5,-60.5 369.5,-101.5 499.5,-101.5 499.5,-60.5 369.5,-60.5"/>
<text text-anchor="start" x="377.5" y="-89.5" font-family="Helvetica,sans-Serif" font-size="10.00">penify_hook.jira_client.</text>
<text text-anchor="start" x="377.5" y="-78.5" font-family="Helvetica,sans-Serif" font-size="10.00">JiraClient.get_detailed</text>
<text text-anchor="middle" x="434.5" y="-67.5" font-family="Helvetica,sans-Serif" font-size="10.00">_issue_context</text>
</a>
</g>
</g>
<!-- Node1&#45;&gt;Node6 -->
<g id="edge8" class="edge">
<title>Node1&#45;&gt;Node6</title>
<path fill="none" stroke="midnightblue" d="M575.55,-153.69C556.3,-142.23 531.53,-127.87 509,-116 499.75,-111.12 489.7,-106.14 480.1,-101.52"/>
<polygon fill="midnightblue" stroke="midnightblue" points="573.87,-156.76 584.25,-158.89 577.46,-150.75 573.87,-156.76"/>
</g>
<!-- Node7 -->
<g id="node7" class="node">
<title>Node7</title>
<g id="a_node7"><a xlink:href="classpenify__hook_1_1jira__client_1_1JiraClient.html#a65f6924819084b7c8d268956a784804a" target="_top" xlink:title=" ">
<polygon fill="white" stroke="black" points="360,-159 360,-189 509,-189 509,-159 360,-159"/>
<text text-anchor="start" x="368" y="-177" font-family="Helvetica,sans-Serif" font-size="10.00">penify_hook.jira_client.</text>
<text text-anchor="middle" x="434.5" y="-166" font-family="Helvetica,sans-Serif" font-size="10.00">JiraClient.get_issue_details</text>
</a>
</g>
</g>
<!-- Node1&#45;&gt;Node7 -->
<g id="edge10" class="edge">
<title>Node1&#45;&gt;Node7</title>
<path fill="none" stroke="midnightblue" d="M534.63,-174C526.14,-174 517.49,-174 509.01,-174"/>
<polygon fill="midnightblue" stroke="midnightblue" points="534.89,-177.5 544.89,-174 534.89,-170.5 534.89,-177.5"/>
</g>
<!-- Node8 -->
<g id="node8" class="node">
<title>Node8</title>
<g id="a_node8"><a xlink:href="classpenify__hook_1_1jira__client_1_1JiraClient.html#aca8837552d37bfd611de23441a240826" target="_top" xlink:title=" ">
<polygon fill="white" stroke="black" points="369.5,-0.5 369.5,-41.5 499.5,-41.5 499.5,-0.5 369.5,-0.5"/>
<text text-anchor="start" x="377.5" y="-29.5" font-family="Helvetica,sans-Serif" font-size="10.00">penify_hook.jira_client.</text>
<text text-anchor="start" x="377.5" y="-18.5" font-family="Helvetica,sans-Serif" font-size="10.00">JiraClient.update_issue</text>
<text text-anchor="middle" x="434.5" y="-7.5" font-family="Helvetica,sans-Serif" font-size="10.00">_status</text>
</a>
</g>
</g>
<!-- Node1&#45;&gt;Node8 -->
<g id="edge13" class="edge">
<title>Node1&#45;&gt;Node8</title>
<path fill="none" stroke="midnightblue" d="M594.84,-150.15C577.61,-122.9 546.15,-78.53 509,-51 504.35,-47.55 499.25,-44.43 493.96,-41.62"/>
<polygon fill="midnightblue" stroke="midnightblue" points="591.89,-152.03 600.13,-158.69 597.84,-148.34 591.89,-152.03"/>
</g>
<!-- Node2&#45;&gt;Node2 -->
<g id="edge2" class="edge">
<title>Node2&#45;&gt;Node2</title>
<path fill="none" stroke="midnightblue" d="M465.42,-325.46C461.58,-330.18 451.27,-333.5 434.5,-333.5 406.97,-333.5 396.86,-324.56 404.18,-315.16"/>
<polygon fill="midnightblue" stroke="midnightblue" points="468.89,-324.94 464.82,-315.16 461.91,-325.34 468.89,-324.94"/>
</g>
<!-- Node4&#45;&gt;Node3 -->
<g id="edge5" class="edge">
<title>Node4&#45;&gt;Node3</title>
<path fill="none" stroke="midnightblue" d="M173.66,-203C165.17,-203 156.57,-203 148.16,-203"/>
<polygon fill="midnightblue" stroke="midnightblue" points="173.93,-206.5 183.93,-203 173.93,-199.5 173.93,-206.5"/>
</g>
<!-- Node5&#45;&gt;Node3 -->
<g id="edge7" class="edge">
<title>Node5&#45;&gt;Node3</title>
<path fill="none" stroke="midnightblue" d="M189.51,-159.25C169.61,-166.86 147.86,-175.17 128.71,-182.48"/>
<polygon fill="midnightblue" stroke="midnightblue" points="191.02,-162.43 199.11,-155.59 188.52,-155.89 191.02,-162.43"/>
</g>
<!-- Node6&#45;&gt;Node5 -->
<g id="edge9" class="edge">
<title>Node6&#45;&gt;Node5</title>
<path fill="none" stroke="midnightblue" d="M359.64,-103.34C346.23,-107.4 332.33,-111.61 319.22,-115.57"/>
<polygon fill="midnightblue" stroke="midnightblue" points="360.75,-106.66 369.31,-100.42 358.72,-99.96 360.75,-106.66"/>
</g>
<!-- Node7&#45;&gt;Node4 -->
<g id="edge11" class="edge">
<title>Node7&#45;&gt;Node4</title>
<path fill="none" stroke="midnightblue" d="M349.83,-187.59C341.24,-188.99 332.57,-190.4 324.16,-191.76"/>
<polygon fill="midnightblue" stroke="midnightblue" points="350.56,-191.02 359.87,-185.96 349.43,-184.11 350.56,-191.02"/>
</g>
<!-- Node7&#45;&gt;Node5 -->
<g id="edge12" class="edge">
<title>Node7&#45;&gt;Node5</title>
<path fill="none" stroke="midnightblue" d="M354.78,-156.8C342.83,-154.19 330.63,-151.52 319.04,-148.99"/>
<polygon fill="midnightblue" stroke="midnightblue" points="354.23,-160.26 364.74,-158.98 355.72,-153.42 354.23,-160.26"/>
</g>
</g>
</svg>
