<?xml version="1.0" encoding="UTF-8" standalone="no"?>
<!DOCTYPE svg PUBLIC "-//W3C//DTD SVG 1.1//EN"
 "http://www.w3.org/Graphics/SVG/1.1/DTD/svg11.dtd">
<!-- Generated by graphviz version 2.43.0 (0)
 -->
<!-- Title: penify_hook.commit_analyzer.CommitDocGenHook._amend_commit Pages: 1 -->
<svg width="404pt" height="50pt"
 viewBox="0.00 0.00 404.00 50.00" xmlns="http://www.w3.org/2000/svg" xmlns:xlink="http://www.w3.org/1999/xlink">
<g id="graph0" class="graph" transform="scale(1 1) rotate(0) translate(4 46)">
<title>penify_hook.commit_analyzer.CommitDocGenHook._amend_commit</title>
<polygon fill="white" stroke="transparent" points="-4,4 -4,-46 400,-46 400,4 -4,4"/>
<!-- Node1 -->
<g id="node1" class="node">
<title>Node1</title>
<g id="a_node1"><a xlink:title=" ">
<polygon fill="#bfbfbf" stroke="black" points="224,-0.5 224,-41.5 396,-41.5 396,-0.5 224,-0.5"/>
<text text-anchor="start" x="232" y="-29.5" font-family="Helvetica,sans-Serif" font-size="10.00">penify_hook.commit</text>
<text text-anchor="start" x="232" y="-18.5" font-family="Helvetica,sans-Serif" font-size="10.00">_analyzer.CommitDocGenHook.</text>
<text text-anchor="middle" x="310" y="-7.5" font-family="Helvetica,sans-Serif" font-size="10.00">_amend_commit</text>
</a>
</g>
</g>
<!-- Node2 -->
<g id="node2" class="node">
<title>Node2</title>
<g id="a_node2"><a xlink:href="classpenify__hook_1_1commit__analyzer_1_1CommitDocGenHook.html#a6370a03f7ed9175ef6f81e931a105ea9" target="_top" xlink:title=" ">
<polygon fill="white" stroke="black" points="0,-6 0,-36 188,-36 188,-6 0,-6"/>
<text text-anchor="start" x="8" y="-24" font-family="Helvetica,sans-Serif" font-size="10.00">penify_hook.commit</text>
<text text-anchor="middle" x="94" y="-13" font-family="Helvetica,sans-Serif" font-size="10.00">_analyzer.CommitDocGenHook.run</text>
</a>
</g>
</g>
<!-- Node1&#45;&gt;Node2 -->
<g id="edge1" class="edge">
<title>Node1&#45;&gt;Node2</title>
<path fill="none" stroke="midnightblue" d="M213.62,-21C205.22,-21 196.73,-21 188.34,-21"/>
<polygon fill="midnightblue" stroke="midnightblue" points="213.81,-24.5 223.81,-21 213.81,-17.5 213.81,-24.5"/>
</g>
</g>
</svg>
