<?xml version="1.0" encoding="UTF-8" standalone="no"?>
<!DOCTYPE svg PUBLIC "-//W3C//DTD SVG 1.1//EN"
 "http://www.w3.org/Graphics/SVG/1.1/DTD/svg11.dtd">
<!-- Generated by graphviz version 2.43.0 (0)
 -->
<!-- Title: penify_hook.commit_analyzer.CommitDocGenHook.get_summary Pages: 1 -->
<svg width="606pt" height="50pt"
 viewBox="0.00 0.00 606.00 50.00" xmlns="http://www.w3.org/2000/svg" xmlns:xlink="http://www.w3.org/1999/xlink">
<g id="graph0" class="graph" transform="scale(1 1) rotate(0) translate(4 46)">
<title>penify_hook.commit_analyzer.CommitDocGenHook.get_summary</title>
<polygon fill="white" stroke="transparent" points="-4,4 -4,-46 602,-46 602,4 -4,4"/>
<!-- Node1 -->
<g id="node1" class="node">
<title>Node1</title>
<g id="a_node1"><a xlink:title=" ">
<polygon fill="#bfbfbf" stroke="black" points="0,-0.5 0,-41.5 188,-41.5 188,-0.5 0,-0.5"/>
<text text-anchor="start" x="8" y="-29.5" font-family="Helvetica,sans-Serif" font-size="10.00">penify_hook.commit</text>
<text text-anchor="start" x="8" y="-18.5" font-family="Helvetica,sans-Serif" font-size="10.00">_analyzer.CommitDocGenHook.get</text>
<text text-anchor="middle" x="94" y="-7.5" font-family="Helvetica,sans-Serif" font-size="10.00">_summary</text>
</a>
</g>
</g>
<!-- Node2 -->
<g id="node2" class="node">
<title>Node2</title>
<g id="a_node2"><a xlink:href="namespacepenify__hook_1_1ui__utils.html#a811f0adf6e9bf71510c379b6fa155e44" target="_top" xlink:title=" ">
<polygon fill="white" stroke="black" points="224,-11.5 224,-30.5 388,-30.5 388,-11.5 224,-11.5"/>
<text text-anchor="middle" x="306" y="-18.5" font-family="Helvetica,sans-Serif" font-size="10.00">penify_hook.ui_utils.print_info</text>
</a>
</g>
</g>
<!-- Node1&#45;&gt;Node2 -->
<g id="edge1" class="edge">
<title>Node1&#45;&gt;Node2</title>
<path fill="none" stroke="midnightblue" d="M188.03,-21C196.53,-21 205.14,-21 213.62,-21"/>
<polygon fill="midnightblue" stroke="midnightblue" points="213.9,-24.5 223.9,-21 213.9,-17.5 213.9,-24.5"/>
</g>
<!-- Node3 -->
<g id="node3" class="node">
<title>Node3</title>
<g id="a_node3"><a xlink:href="namespacepenify__hook_1_1ui__utils.html#a92c3e466d1912058167be2eacf85b9f6" target="_top" xlink:title=" ">
<polygon fill="white" stroke="black" points="424,-11.5 424,-30.5 598,-30.5 598,-11.5 424,-11.5"/>
<text text-anchor="middle" x="511" y="-18.5" font-family="Helvetica,sans-Serif" font-size="10.00">penify_hook.ui_utils.format_info</text>
</a>
</g>
</g>
<!-- Node2&#45;&gt;Node3 -->
<g id="edge2" class="edge">
<title>Node2&#45;&gt;Node3</title>
<path fill="none" stroke="midnightblue" d="M388.11,-21C396.52,-21 405.13,-21 413.69,-21"/>
<polygon fill="midnightblue" stroke="midnightblue" points="413.7,-24.5 423.7,-21 413.7,-17.5 413.7,-24.5"/>
</g>
</g>
</svg>
