<?xml version="1.0" encoding="UTF-8" standalone="no"?>
<!DOCTYPE svg PUBLIC "-//W3C//DTD SVG 1.1//EN"
 "http://www.w3.org/Graphics/SVG/1.1/DTD/svg11.dtd">
<!-- Generated by graphviz version 2.43.0 (0)
 -->
<!-- Title: penify_hook.commit_analyzer.CommitDocGenHook Pages: 1 -->
<svg width="171pt" height="329pt"
 viewBox="0.00 0.00 171.00 329.00" xmlns="http://www.w3.org/2000/svg" xmlns:xlink="http://www.w3.org/1999/xlink">

<svg id="main" version="1.1" xmlns="http://www.w3.org/2000/svg" xmlns:xlink="http://www.w3.org/1999/xlink" xml:space="preserve">

<style type="text/css"><![CDATA[
.node, .edge {opacity: 0.7;}
.node.selected, .edge.selected {opacity: 1;}
.edge:hover path { stroke: red; }
.edge:hover polygon { stroke: red; fill: red; }
]]></style>
<script type="application/ecmascript" xlink:href="svg.min.js"/>
<svg id="graph" class="graph">
<g id="graph0" class="graph" transform="scale(1 1) rotate(0) translate(4 325)">
<title>penify_hook.commit_analyzer.CommitDocGenHook</title>
<!-- Node1 -->
<g id="Node000001" class="node">
<title>Node1</title>
<g id="a_Node000001"><a xlink:title=" ">
<polygon fill="#999999" stroke="transparent" points="163,-135 0,-135 0,0 163,0 163,-135"/>
<text text-anchor="start" x="5.5" y="-122.5" font-family="Helvetica,sans-Serif" font-size="10.00">penify_hook.commit</text>
<text text-anchor="start" x="5.5" y="-111.5" font-family="Helvetica,sans-Serif" font-size="10.00">_analyzer.CommitDocGenHook</text>
<text text-anchor="start" x="8.5" y="-96.5" font-family="Helvetica,sans-Serif" font-size="10.00">+</text>
<text text-anchor="start" x="25.5" y="-96.5" font-family="Helvetica,sans-Serif" font-size="10.00">llm_client</text>
<text text-anchor="start" x="8.5" y="-81.5" font-family="Helvetica,sans-Serif" font-size="10.00">+</text>
<text text-anchor="start" x="25.5" y="-81.5" font-family="Helvetica,sans-Serif" font-size="10.00">jira_client</text>
<text text-anchor="start" x="8.5" y="-66.5" font-family="Helvetica,sans-Serif" font-size="10.00">+</text>
<text text-anchor="start" x="25.5" y="-66.5" font-family="Helvetica,sans-Serif" font-size="10.00">__init__()</text>
<text text-anchor="start" x="8.5" y="-51.5" font-family="Helvetica,sans-Serif" font-size="10.00">+</text>
<text text-anchor="start" x="25.5" y="-51.5" font-family="Helvetica,sans-Serif" font-size="10.00">get_summary()</text>
<text text-anchor="start" x="8.5" y="-36.5" font-family="Helvetica,sans-Serif" font-size="10.00">+</text>
<text text-anchor="start" x="25.5" y="-36.5" font-family="Helvetica,sans-Serif" font-size="10.00">run()</text>
<text text-anchor="start" x="8.5" y="-21.5" font-family="Helvetica,sans-Serif" font-size="10.00">+</text>
<text text-anchor="start" x="25.5" y="-21.5" font-family="Helvetica,sans-Serif" font-size="10.00">process_jira_integration()</text>
<text text-anchor="start" x="8.5" y="-6.5" font-family="Helvetica,sans-Serif" font-size="10.00">#</text>
<text text-anchor="start" x="25.5" y="-6.5" font-family="Helvetica,sans-Serif" font-size="10.00">_amend_commit()</text>
<polygon fill="#666666" stroke="#666666" points="0.5,-106.5 0.5,-106.5 163.5,-106.5 163.5,-106.5 0.5,-106.5"/>
<polygon fill="#666666" stroke="#666666" points="0.5,-76.5 0.5,-76.5 23.5,-76.5 23.5,-76.5 0.5,-76.5"/>
<polygon fill="#666666" stroke="#666666" points="23.5,-76.5 23.5,-76.5 163.5,-76.5 163.5,-76.5 23.5,-76.5"/>
<polygon fill="none" stroke="#666666" points="0,0 0,-135 163,-135 163,0 0,0"/>
</a>
</g>
</g>
<!-- Node2 -->
<g id="Node000002" class="node">
<title>Node2</title>
<g id="a_Node000002"><a xlink:href="classpenify__hook_1_1base__analyzer_1_1BaseAnalyzer.html" target="_top" xlink:title=" ">
<polygon fill="white" stroke="transparent" points="154.5,-321 8.5,-321 8.5,-171 154.5,-171 154.5,-321"/>
<text text-anchor="start" x="13.5" y="-309" font-family="Helvetica,sans-Serif" font-size="10.00">penify_hook.base_analyzer.</text>
<text text-anchor="start" x="48" y="-298" font-family="Helvetica,sans-Serif" font-size="10.00">BaseAnalyzer</text>
<text text-anchor="start" x="18" y="-283" font-family="Helvetica,sans-Serif" font-size="10.00">+</text>
<text text-anchor="start" x="36.5" y="-283" font-family="Helvetica,sans-Serif" font-size="10.00">folder_path</text>
<text text-anchor="start" x="18" y="-268" font-family="Helvetica,sans-Serif" font-size="10.00">+</text>
<text text-anchor="start" x="36.5" y="-268" font-family="Helvetica,sans-Serif" font-size="10.00">repo_path</text>
<text text-anchor="start" x="18" y="-253" font-family="Helvetica,sans-Serif" font-size="10.00">+</text>
<text text-anchor="start" x="36.5" y="-253" font-family="Helvetica,sans-Serif" font-size="10.00">repo</text>
<text text-anchor="start" x="18" y="-238" font-family="Helvetica,sans-Serif" font-size="10.00">+</text>
<text text-anchor="start" x="36.5" y="-238" font-family="Helvetica,sans-Serif" font-size="10.00">repo_details</text>
<text text-anchor="start" x="18" y="-223" font-family="Helvetica,sans-Serif" font-size="10.00">+</text>
<text text-anchor="start" x="36.5" y="-223" font-family="Helvetica,sans-Serif" font-size="10.00">relative_file_path</text>
<text text-anchor="start" x="18" y="-208" font-family="Helvetica,sans-Serif" font-size="10.00">+</text>
<text text-anchor="start" x="36.5" y="-208" font-family="Helvetica,sans-Serif" font-size="10.00">api_client</text>
<text text-anchor="start" x="18" y="-193" font-family="Helvetica,sans-Serif" font-size="10.00">+</text>
<text text-anchor="start" x="36.5" y="-193" font-family="Helvetica,sans-Serif" font-size="10.00">supported_file_types</text>
<text text-anchor="start" x="18" y="-178" font-family="Helvetica,sans-Serif" font-size="10.00">+</text>
<text text-anchor="start" x="36.5" y="-178" font-family="Helvetica,sans-Serif" font-size="10.00">__init__()</text>
<polygon fill="#666666" stroke="#666666" points="8.5,-293 8.5,-293 154.5,-293 154.5,-293 8.5,-293"/>
<polygon fill="#666666" stroke="#666666" points="8.5,-188 8.5,-188 34.5,-188 34.5,-188 8.5,-188"/>
<polygon fill="#666666" stroke="#666666" points="34.5,-188 34.5,-188 154.5,-188 154.5,-188 34.5,-188"/>
<polygon fill="none" stroke="#666666" points="8.5,-171 8.5,-321 154.5,-321 154.5,-171 8.5,-171"/>
</a>
</g>
</g>
<!-- Node2&#45;&gt;Node1 -->
<g id="edge1_Node000001_Node000002" class="edge">
<title>Node2&#45;&gt;Node1</title>
<g id="a_edge1_Node000001_Node000002"><a xlink:title=" ">
<path fill="none" stroke="#63b8ff" d="M81.5,-160.82C81.5,-152.19 81.5,-143.5 81.5,-135.09"/>
<polygon fill="none" stroke="#63b8ff" points="78,-160.92 81.5,-170.92 85,-160.92 78,-160.92"/>
</a>
</g>
</g>
</g>
</svg>
</svg>

<style type='text/css'>
<![CDATA[
[data-mouse-over-selected='false'] { opacity: 0.7; }
[data-mouse-over-selected='true']  { opacity: 1.0; }
]]>
</style>
<script type="application/ecmascript"><![CDATA[
document.addEventListener('DOMContentLoaded', (event) => {
  highlightEdges();
  highlightAdjacentNodes();
});
]]></script>
</svg>
