<?xml version="1.0" encoding="UTF-8" standalone="no"?>
<!DOCTYPE svg PUBLIC "-//W3C//DTD SVG 1.1//EN"
 "http://www.w3.org/Graphics/SVG/1.1/DTD/svg11.dtd">
<!-- Generated by graphviz version 2.43.0 (0)
 -->
<!-- Title: penify_hook.jira_client.JiraClient.extract_issue_keys_from_branch Pages: 1 -->
<svg width="548pt" height="50pt"
 viewBox="0.00 0.00 548.00 50.00" xmlns="http://www.w3.org/2000/svg" xmlns:xlink="http://www.w3.org/1999/xlink">
<g id="graph0" class="graph" transform="scale(1 1) rotate(0) translate(4 46)">
<title>penify_hook.jira_client.JiraClient.extract_issue_keys_from_branch</title>
<polygon fill="white" stroke="transparent" points="-4,4 -4,-46 544,-46 544,4 -4,4"/>
<!-- Node1 -->
<g id="node1" class="node">
<title>Node1</title>
<g id="a_node1"><a xlink:title=" ">
<polygon fill="#bfbfbf" stroke="black" points="0,-0.5 0,-41.5 130,-41.5 130,-0.5 0,-0.5"/>
<text text-anchor="start" x="8" y="-29.5" font-family="Helvetica,sans-Serif" font-size="10.00">penify_hook.jira_client.</text>
<text text-anchor="start" x="8" y="-18.5" font-family="Helvetica,sans-Serif" font-size="10.00">JiraClient.extract_issue</text>
<text text-anchor="middle" x="65" y="-7.5" font-family="Helvetica,sans-Serif" font-size="10.00">_keys_from_branch</text>
</a>
</g>
</g>
<!-- Node2 -->
<g id="node2" class="node">
<title>Node2</title>
<g id="a_node2"><a xlink:href="namespacepenify__hook_1_1ui__utils.html#a811f0adf6e9bf71510c379b6fa155e44" target="_top" xlink:title=" ">
<polygon fill="white" stroke="black" points="166,-11.5 166,-30.5 330,-30.5 330,-11.5 166,-11.5"/>
<text text-anchor="middle" x="248" y="-18.5" font-family="Helvetica,sans-Serif" font-size="10.00">penify_hook.ui_utils.print_info</text>
</a>
</g>
</g>
<!-- Node1&#45;&gt;Node2 -->
<g id="edge1" class="edge">
<title>Node1&#45;&gt;Node2</title>
<path fill="none" stroke="midnightblue" d="M130.07,-21C138.4,-21 147.06,-21 155.73,-21"/>
<polygon fill="midnightblue" stroke="midnightblue" points="155.89,-24.5 165.89,-21 155.89,-17.5 155.89,-24.5"/>
</g>
<!-- Node3 -->
<g id="node3" class="node">
<title>Node3</title>
<g id="a_node3"><a xlink:href="namespacepenify__hook_1_1ui__utils.html#a92c3e466d1912058167be2eacf85b9f6" target="_top" xlink:title=" ">
<polygon fill="white" stroke="black" points="366,-11.5 366,-30.5 540,-30.5 540,-11.5 366,-11.5"/>
<text text-anchor="middle" x="453" y="-18.5" font-family="Helvetica,sans-Serif" font-size="10.00">penify_hook.ui_utils.format_info</text>
</a>
</g>
</g>
<!-- Node2&#45;&gt;Node3 -->
<g id="edge2" class="edge">
<title>Node2&#45;&gt;Node3</title>
<path fill="none" stroke="midnightblue" d="M330.11,-21C338.52,-21 347.13,-21 355.69,-21"/>
<polygon fill="midnightblue" stroke="midnightblue" points="355.7,-24.5 365.7,-21 355.7,-17.5 355.7,-24.5"/>
</g>
</g>
</svg>
