<?xml version="1.0" encoding="UTF-8" standalone="no"?>
<!DOCTYPE svg PUBLIC "-//W3C//DTD SVG 1.1//EN"
 "http://www.w3.org/Graphics/SVG/1.1/DTD/svg11.dtd">
<!-- Generated by graphviz version 2.43.0 (0)
 -->
<!-- Title: penify_hook.file_analyzer.FileAnalyzerGenHook Pages: 1 -->
<svg width="154pt" height="299pt"
 viewBox="0.00 0.00 154.00 299.00" xmlns="http://www.w3.org/2000/svg" xmlns:xlink="http://www.w3.org/1999/xlink">
<g id="graph0" class="graph" transform="scale(1 1) rotate(0) translate(4 295)">
<title>penify_hook.file_analyzer.FileAnalyzerGenHook</title>
<!-- Node1 -->
<g id="Node000001" class="node">
<title>Node1</title>
<g id="a_Node000001"><a xlink:title=" ">
<polygon fill="#999999" stroke="transparent" points="141.5,-105 4.5,-105 4.5,0 141.5,0 141.5,-105"/>
<text text-anchor="start" x="10" y="-92.5" font-family="Helvetica,sans-Serif" font-size="10.00">penify_hook.file_analyzer.</text>
<text text-anchor="start" x="20.5" y="-81.5" font-family="Helvetica,sans-Serif" font-size="10.00">FileAnalyzerGenHook</text>
<text text-anchor="start" x="16" y="-66.5" font-family="Helvetica,sans-Serif" font-size="10.00">+</text>
<text text-anchor="start" x="36" y="-66.5" font-family="Helvetica,sans-Serif" font-size="10.00">file_path</text>
<text text-anchor="start" x="16" y="-51.5" font-family="Helvetica,sans-Serif" font-size="10.00">+</text>
<text text-anchor="start" x="36" y="-51.5" font-family="Helvetica,sans-Serif" font-size="10.00">__init__()</text>
<text text-anchor="start" x="16" y="-36.5" font-family="Helvetica,sans-Serif" font-size="10.00">+</text>
<text text-anchor="start" x="36" y="-36.5" font-family="Helvetica,sans-Serif" font-size="10.00">process_file()</text>
<text text-anchor="start" x="16" y="-21.5" font-family="Helvetica,sans-Serif" font-size="10.00">+</text>
<text text-anchor="start" x="36" y="-21.5" font-family="Helvetica,sans-Serif" font-size="10.00">print_processing()</text>
<text text-anchor="start" x="16" y="-6.5" font-family="Helvetica,sans-Serif" font-size="10.00">+</text>
<text text-anchor="start" x="36" y="-6.5" font-family="Helvetica,sans-Serif" font-size="10.00">run()</text>
<polygon fill="#666666" stroke="#666666" points="5,-76.5 5,-76.5 142,-76.5 142,-76.5 5,-76.5"/>
<polygon fill="#666666" stroke="#666666" points="5,-61.5 5,-61.5 34,-61.5 34,-61.5 5,-61.5"/>
<polygon fill="#666666" stroke="#666666" points="34,-61.5 34,-61.5 142,-61.5 142,-61.5 34,-61.5"/>
<polygon fill="none" stroke="#666666" points="4.5,0 4.5,-105 141.5,-105 141.5,0 4.5,0"/>
</a>
</g>
</g>
<!-- Node2 -->
<g id="Node000002" class="node">
<title>Node2</title>
<g id="a_Node000002"><a xlink:href="classpenify__hook_1_1base__analyzer_1_1BaseAnalyzer.html" target="_top" xlink:title=" ">
<polygon fill="white" stroke="transparent" points="146,-291 0,-291 0,-141 146,-141 146,-291"/>
<text text-anchor="start" x="5" y="-279" font-family="Helvetica,sans-Serif" font-size="10.00">penify_hook.base_analyzer.</text>
<text text-anchor="start" x="39.5" y="-268" font-family="Helvetica,sans-Serif" font-size="10.00">BaseAnalyzer</text>
<text text-anchor="start" x="9.5" y="-253" font-family="Helvetica,sans-Serif" font-size="10.00">+</text>
<text text-anchor="start" x="28" y="-253" font-family="Helvetica,sans-Serif" font-size="10.00">folder_path</text>
<text text-anchor="start" x="9.5" y="-238" font-family="Helvetica,sans-Serif" font-size="10.00">+</text>
<text text-anchor="start" x="28" y="-238" font-family="Helvetica,sans-Serif" font-size="10.00">repo_path</text>
<text text-anchor="start" x="9.5" y="-223" font-family="Helvetica,sans-Serif" font-size="10.00">+</text>
<text text-anchor="start" x="28" y="-223" font-family="Helvetica,sans-Serif" font-size="10.00">repo</text>
<text text-anchor="start" x="9.5" y="-208" font-family="Helvetica,sans-Serif" font-size="10.00">+</text>
<text text-anchor="start" x="28" y="-208" font-family="Helvetica,sans-Serif" font-size="10.00">repo_details</text>
<text text-anchor="start" x="9.5" y="-193" font-family="Helvetica,sans-Serif" font-size="10.00">+</text>
<text text-anchor="start" x="28" y="-193" font-family="Helvetica,sans-Serif" font-size="10.00">relative_file_path</text>
<text text-anchor="start" x="9.5" y="-178" font-family="Helvetica,sans-Serif" font-size="10.00">+</text>
<text text-anchor="start" x="28" y="-178" font-family="Helvetica,sans-Serif" font-size="10.00">api_client</text>
<text text-anchor="start" x="9.5" y="-163" font-family="Helvetica,sans-Serif" font-size="10.00">+</text>
<text text-anchor="start" x="28" y="-163" font-family="Helvetica,sans-Serif" font-size="10.00">supported_file_types</text>
<text text-anchor="start" x="9.5" y="-148" font-family="Helvetica,sans-Serif" font-size="10.00">+</text>
<text text-anchor="start" x="28" y="-148" font-family="Helvetica,sans-Serif" font-size="10.00">__init__()</text>
<polygon fill="#666666" stroke="#666666" points="0,-263 0,-263 146,-263 146,-263 0,-263"/>
<polygon fill="#666666" stroke="#666666" points="0,-158 0,-158 26,-158 26,-158 0,-158"/>
<polygon fill="#666666" stroke="#666666" points="26,-158 26,-158 146,-158 146,-158 26,-158"/>
<polygon fill="none" stroke="#666666" points="0,-141 0,-291 146,-291 146,-141 0,-141"/>
</a>
</g>
</g>
<!-- Node2&#45;&gt;Node1 -->
<g id="edge1_Node000001_Node000002" class="edge">
<title>Node2&#45;&gt;Node1</title>
<g id="a_edge1_Node000001_Node000002"><a xlink:title=" ">
<path fill="none" stroke="#63b8ff" d="M73,-130.63C73,-121.91 73,-113.25 73,-105.05"/>
<polygon fill="none" stroke="#63b8ff" points="69.5,-130.87 73,-140.87 76.5,-130.87 69.5,-130.87"/>
</a>
</g>
</g>
</g>
</svg>
