<?xml version="1.0" encoding="UTF-8" standalone="no"?>
<!DOCTYPE svg PUBLIC "-//W3C//DTD SVG 1.1//EN"
 "http://www.w3.org/Graphics/SVG/1.1/DTD/svg11.dtd">
<!-- Generated by graphviz version 2.43.0 (0)
 -->
<!-- Title: penify_hook.git_analyzer.GitDocGenHook Pages: 1 -->
<svg width="154pt" height="325pt"
 viewBox="0.00 0.00 154.00 325.00" xmlns="http://www.w3.org/2000/svg" xmlns:xlink="http://www.w3.org/1999/xlink">
<g id="graph0" class="graph" transform="scale(1 1) rotate(0) translate(4 321)">
<title>penify_hook.git_analyzer.GitDocGenHook</title>
<!-- Node1 -->
<g id="Node000001" class="node">
<title>Node1</title>
<g id="a_Node000001"><a xlink:title=" ">
<polygon fill="#999999" stroke="transparent" points="140.5,-131 5.5,-131 5.5,0 140.5,0 140.5,-131"/>
<text text-anchor="start" x="11" y="-118.5" font-family="Helvetica,sans-Serif" font-size="10.00">penify_hook.git_analyzer.</text>
<text text-anchor="start" x="34" y="-107.5" font-family="Helvetica,sans-Serif" font-size="10.00">GitDocGenHook</text>
<text text-anchor="start" x="71.5" y="-92.5" font-family="Helvetica,sans-Serif" font-size="10.00"> </text>
<text text-anchor="start" x="13.5" y="-77.5" font-family="Helvetica,sans-Serif" font-size="10.00">+</text>
<text text-anchor="start" x="30" y="-77.5" font-family="Helvetica,sans-Serif" font-size="10.00">__init__()</text>
<text text-anchor="start" x="13.5" y="-62.5" font-family="Helvetica,sans-Serif" font-size="10.00">+</text>
<text text-anchor="start" x="30" y="-62.5" font-family="Helvetica,sans-Serif" font-size="10.00">get_modified_files</text>
<text text-anchor="start" x="30" y="-51.5" font-family="Helvetica,sans-Serif" font-size="10.00">_in_last_commit()</text>
<text text-anchor="start" x="13.5" y="-36.5" font-family="Helvetica,sans-Serif" font-size="10.00">+</text>
<text text-anchor="start" x="30" y="-36.5" font-family="Helvetica,sans-Serif" font-size="10.00">get_modified_lines()</text>
<text text-anchor="start" x="13.5" y="-21.5" font-family="Helvetica,sans-Serif" font-size="10.00">+</text>
<text text-anchor="start" x="30" y="-21.5" font-family="Helvetica,sans-Serif" font-size="10.00">process_file()</text>
<text text-anchor="start" x="13.5" y="-6.5" font-family="Helvetica,sans-Serif" font-size="10.00">+</text>
<text text-anchor="start" x="30" y="-6.5" font-family="Helvetica,sans-Serif" font-size="10.00">run()</text>
<polygon fill="#666666" stroke="#666666" points="6,-102.5 6,-102.5 141,-102.5 141,-102.5 6,-102.5"/>
<polygon fill="#666666" stroke="#666666" points="6,-87.5 6,-87.5 141,-87.5 141,-87.5 6,-87.5"/>
<polygon fill="none" stroke="#666666" points="5.5,0 5.5,-131 140.5,-131 140.5,0 5.5,0"/>
</a>
</g>
</g>
<!-- Node2 -->
<g id="Node000002" class="node">
<title>Node2</title>
<g id="a_Node000002"><a xlink:href="classpenify__hook_1_1base__analyzer_1_1BaseAnalyzer.html" target="_top" xlink:title=" ">
<polygon fill="white" stroke="transparent" points="146,-317 0,-317 0,-167 146,-167 146,-317"/>
<text text-anchor="start" x="5" y="-305" font-family="Helvetica,sans-Serif" font-size="10.00">penify_hook.base_analyzer.</text>
<text text-anchor="start" x="39.5" y="-294" font-family="Helvetica,sans-Serif" font-size="10.00">BaseAnalyzer</text>
<text text-anchor="start" x="9.5" y="-279" font-family="Helvetica,sans-Serif" font-size="10.00">+</text>
<text text-anchor="start" x="28" y="-279" font-family="Helvetica,sans-Serif" font-size="10.00">folder_path</text>
<text text-anchor="start" x="9.5" y="-264" font-family="Helvetica,sans-Serif" font-size="10.00">+</text>
<text text-anchor="start" x="28" y="-264" font-family="Helvetica,sans-Serif" font-size="10.00">repo_path</text>
<text text-anchor="start" x="9.5" y="-249" font-family="Helvetica,sans-Serif" font-size="10.00">+</text>
<text text-anchor="start" x="28" y="-249" font-family="Helvetica,sans-Serif" font-size="10.00">repo</text>
<text text-anchor="start" x="9.5" y="-234" font-family="Helvetica,sans-Serif" font-size="10.00">+</text>
<text text-anchor="start" x="28" y="-234" font-family="Helvetica,sans-Serif" font-size="10.00">repo_details</text>
<text text-anchor="start" x="9.5" y="-219" font-family="Helvetica,sans-Serif" font-size="10.00">+</text>
<text text-anchor="start" x="28" y="-219" font-family="Helvetica,sans-Serif" font-size="10.00">relative_file_path</text>
<text text-anchor="start" x="9.5" y="-204" font-family="Helvetica,sans-Serif" font-size="10.00">+</text>
<text text-anchor="start" x="28" y="-204" font-family="Helvetica,sans-Serif" font-size="10.00">api_client</text>
<text text-anchor="start" x="9.5" y="-189" font-family="Helvetica,sans-Serif" font-size="10.00">+</text>
<text text-anchor="start" x="28" y="-189" font-family="Helvetica,sans-Serif" font-size="10.00">supported_file_types</text>
<text text-anchor="start" x="9.5" y="-174" font-family="Helvetica,sans-Serif" font-size="10.00">+</text>
<text text-anchor="start" x="28" y="-174" font-family="Helvetica,sans-Serif" font-size="10.00">__init__()</text>
<polygon fill="#666666" stroke="#666666" points="0,-289 0,-289 146,-289 146,-289 0,-289"/>
<polygon fill="#666666" stroke="#666666" points="0,-184 0,-184 26,-184 26,-184 0,-184"/>
<polygon fill="#666666" stroke="#666666" points="26,-184 26,-184 146,-184 146,-184 26,-184"/>
<polygon fill="none" stroke="#666666" points="0,-167 0,-317 146,-317 146,-167 0,-167"/>
</a>
</g>
</g>
<!-- Node2&#45;&gt;Node1 -->
<g id="edge1_Node000001_Node000002" class="edge">
<title>Node2&#45;&gt;Node1</title>
<g id="a_edge1_Node000001_Node000002"><a xlink:title=" ">
<path fill="none" stroke="#63b8ff" d="M73,-156.9C73,-148.27 73,-139.6 73,-131.23"/>
<polygon fill="none" stroke="#63b8ff" points="69.5,-157 73,-167 76.5,-157 69.5,-157"/>
</a>
</g>
</g>
</g>
</svg>
