<?xml version="1.0" encoding="UTF-8" standalone="no"?>
<!DOCTYPE svg PUBLIC "-//W3C//DTD SVG 1.1//EN"
 "http://www.w3.org/Graphics/SVG/1.1/DTD/svg11.dtd">
<!-- Generated by graphviz version 2.43.0 (0)
 -->
<!-- Title: penify_hook.jira_client.JiraClient.enhance_commit_message Pages: 1 -->
<!--zoomable 223 -->
<svg id="main" version="1.1" xmlns="http://www.w3.org/2000/svg" xmlns:xlink="http://www.w3.org/1999/xlink" xml:space="preserve" onload="init(evt)">
<style type="text/css"><![CDATA[
.edge:hover path { stroke: red; }
.edge:hover polygon { stroke: red; fill: red; }
]]></style>
<script type="text/javascript"><![CDATA[
var edges = document.getElementsByTagName('g');
if (edges && edges.length) {
  for (var i=0;i<edges.length;i++) {
    if (edges[i].id.substr(0,4)=='edge') {
      edges[i].setAttribute('class','edge');
    }
  }
}
]]></script>
        <defs>
                <circle id="rim" cx="0" cy="0" r="7"/>
                <circle id="rim2" cx="0" cy="0" r="3.5"/>
                <g id="zoomPlus">
                        <use xlink:href="#rim" fill="#404040">
                                <set attributeName="fill" to="#808080" begin="zoomplus.mouseover" end="zoomplus.mouseout"/>
                        </use>
                        <path d="M-4,0h8M0,-4v8" fill="none" stroke="white" stroke-width="1.5" pointer-events="none"/>
                </g>
                <g id="zoomMin">
                        <use xlink:href="#rim" fill="#404040">
                                <set attributeName="fill" to="#808080" begin="zoomminus.mouseover" end="zoomminus.mouseout"/>
                        </use>
                        <path d="M-4,0h8" fill="none" stroke="white" stroke-width="1.5" pointer-events="none"/>
                </g>
                <g id="dirArrow">
                        <path fill="none" stroke="white" stroke-width="1.5" d="M0,-3.0v7 M-2.5,-0.5L0,-3.0L2.5,-0.5"/>
                </g>
               <g id="resetDef">
                       <use xlink:href="#rim2" fill="#404040">
                               <set attributeName="fill" to="#808080" begin="reset.mouseover" end="reset.mouseout"/>
                       </use>
               </g>
        </defs>

<script type="text/javascript">
var viewWidth = 691;
var viewHeight = 223;
var sectionId = 'dynsection-3';
</script>
<script xlink:href="svgpan.js"/>
<svg id="graph" class="graph">
<g id="viewport">
<title>penify_hook.jira_client.JiraClient.enhance_commit_message</title>
<polygon fill="white" stroke="transparent" points="-4,4 -4,-219.11 687,-219.11 687,4 -4,4"/>
<!-- Node1 -->
<g id="node1" class="node">
<title>Node1</title>
<g id="a_node1"><a xlink:title=" ">
<polygon fill="#bfbfbf" stroke="black" points="0,-36.11 0,-77.11 148,-77.11 148,-36.11 0,-36.11"/>
<text text-anchor="start" x="8" y="-65.11" font-family="Helvetica,sans-Serif" font-size="10.00">penify_hook.jira_client.</text>
<text text-anchor="start" x="8" y="-54.11" font-family="Helvetica,sans-Serif" font-size="10.00">JiraClient.enhance_commit</text>
<text text-anchor="middle" x="74" y="-43.11" font-family="Helvetica,sans-Serif" font-size="10.00">_message</text>
</a>
</g>
</g>
<!-- Node2 -->
<g id="node2" class="node">
<title>Node2</title>
<g id="a_node2"><a xlink:href="classpenify__hook_1_1jira__client_1_1JiraClient.html#a49ea1149758f7f5212149d357b13cc23" target="_top" xlink:title=" ">
<polygon fill="white" stroke="black" points="184,-115.11 184,-156.11 324,-156.11 324,-115.11 184,-115.11"/>
<text text-anchor="start" x="192" y="-144.11" font-family="Helvetica,sans-Serif" font-size="10.00">penify_hook.jira_client.</text>
<text text-anchor="start" x="192" y="-133.11" font-family="Helvetica,sans-Serif" font-size="10.00">JiraClient.format_commit</text>
<text text-anchor="middle" x="254" y="-122.11" font-family="Helvetica,sans-Serif" font-size="10.00">_message_with_jira_info</text>
</a>
</g>
</g>
<!-- Node1&#45;&gt;Node2 -->
<g id="edge1" class="edge">
<title>Node1&#45;&gt;Node2</title>
<path fill="none" stroke="midnightblue" d="M121.3,-77.16C144.59,-87.5 173,-100.1 197.46,-110.96"/>
<polygon fill="midnightblue" stroke="midnightblue" points="196.06,-114.17 206.62,-115.02 198.9,-107.77 196.06,-114.17"/>
</g>
<!-- Node5 -->
<g id="node5" class="node">
<title>Node5</title>
<g id="a_node5"><a xlink:href="classpenify__hook_1_1jira__client_1_1JiraClient.html#a00d0f9ae006313a21576362d26ac5ec8" target="_top" xlink:title=" ">
<polygon fill="white" stroke="black" points="553,-41.61 553,-71.61 683,-71.61 683,-41.61 553,-41.61"/>
<text text-anchor="start" x="561" y="-59.61" font-family="Helvetica,sans-Serif" font-size="10.00">penify_hook.jira_client.</text>
<text text-anchor="middle" x="618" y="-48.61" font-family="Helvetica,sans-Serif" font-size="10.00">JiraClient.is_connected</text>
</a>
</g>
</g>
<!-- Node1&#45;&gt;Node5 -->
<g id="edge11" class="edge">
<title>Node1&#45;&gt;Node5</title>
<path fill="none" stroke="midnightblue" d="M141.09,-36.08C155.14,-32.38 169.96,-28.95 184,-26.61 330.06,-2.21 371.71,13.02 517,-15.61 538.48,-19.84 561.15,-28.73 579.46,-37.15"/>
<polygon fill="midnightblue" stroke="midnightblue" points="578.08,-40.37 588.61,-41.49 581.08,-34.04 578.08,-40.37"/>
</g>
<!-- Node6 -->
<g id="node6" class="node">
<title>Node6</title>
<g id="a_node6"><a xlink:href="classpenify__hook_1_1jira__client_1_1JiraClient.html#afb41ce6f13c30b1265d439ddf04bf2cd" target="_top" xlink:title=" ">
<polygon fill="white" stroke="black" points="189,-36.11 189,-77.11 319,-77.11 319,-36.11 189,-36.11"/>
<text text-anchor="start" x="197" y="-65.11" font-family="Helvetica,sans-Serif" font-size="10.00">penify_hook.jira_client.</text>
<text text-anchor="start" x="197" y="-54.11" font-family="Helvetica,sans-Serif" font-size="10.00">JiraClient.get_commit</text>
<text text-anchor="middle" x="254" y="-43.11" font-family="Helvetica,sans-Serif" font-size="10.00">_context_from_issues</text>
</a>
</g>
</g>
<!-- Node1&#45;&gt;Node6 -->
<g id="edge6" class="edge">
<title>Node1&#45;&gt;Node6</title>
<path fill="none" stroke="midnightblue" d="M148.17,-56.61C158.31,-56.61 168.73,-56.61 178.89,-56.61"/>
<polygon fill="midnightblue" stroke="midnightblue" points="178.94,-60.11 188.94,-56.61 178.94,-53.11 178.94,-60.11"/>
</g>
<!-- Node3 -->
<g id="node3" class="node">
<title>Node3</title>
<g id="a_node3"><a xlink:href="classpenify__hook_1_1jira__client_1_1JiraClient.html#ad2823ad1d3baaedd38039913c3a97fd7" target="_top" xlink:title=" ">
<polygon fill="white" stroke="black" points="360,-184.61 360,-214.61 517,-214.61 517,-184.61 360,-184.61"/>
<text text-anchor="start" x="368" y="-202.61" font-family="Helvetica,sans-Serif" font-size="10.00">penify_hook.jira_client.</text>
<text text-anchor="middle" x="438.5" y="-191.61" font-family="Helvetica,sans-Serif" font-size="10.00">JiraClient.extract_issue_keys</text>
</a>
</g>
</g>
<!-- Node2&#45;&gt;Node3 -->
<g id="edge2" class="edge">
<title>Node2&#45;&gt;Node3</title>
<path fill="none" stroke="midnightblue" d="M313.5,-156.12C336.47,-164.18 362.65,-173.36 385.01,-181.2"/>
<polygon fill="midnightblue" stroke="midnightblue" points="384.06,-184.58 394.66,-184.58 386.38,-177.97 384.06,-184.58"/>
</g>
<!-- Node4 -->
<g id="node4" class="node">
<title>Node4</title>
<g id="a_node4"><a xlink:href="classpenify__hook_1_1jira__client_1_1JiraClient.html#a65f6924819084b7c8d268956a784804a" target="_top" xlink:title=" ">
<polygon fill="white" stroke="black" points="364,-96.61 364,-126.61 513,-126.61 513,-96.61 364,-96.61"/>
<text text-anchor="start" x="372" y="-114.61" font-family="Helvetica,sans-Serif" font-size="10.00">penify_hook.jira_client.</text>
<text text-anchor="middle" x="438.5" y="-103.61" font-family="Helvetica,sans-Serif" font-size="10.00">JiraClient.get_issue_details</text>
</a>
</g>
</g>
<!-- Node2&#45;&gt;Node4 -->
<g id="edge3" class="edge">
<title>Node2&#45;&gt;Node4</title>
<path fill="none" stroke="midnightblue" d="M324.26,-126.5C333.84,-125.24 343.76,-123.94 353.57,-122.65"/>
<polygon fill="midnightblue" stroke="midnightblue" points="354.27,-126.08 363.73,-121.31 353.36,-119.14 354.27,-126.08"/>
</g>
<!-- Node2&#45;&gt;Node5 -->
<g id="edge5" class="edge">
<title>Node2&#45;&gt;Node5</title>
<path fill="none" stroke="midnightblue" d="M324.12,-148.22C378.19,-155.19 454.44,-158.55 517,-136.61 549.27,-125.29 578.86,-98.69 597.34,-79.26"/>
<polygon fill="midnightblue" stroke="midnightblue" points="600.12,-81.42 604.33,-71.7 594.97,-76.67 600.12,-81.42"/>
</g>
<!-- Node4&#45;&gt;Node5 -->
<g id="edge4" class="edge">
<title>Node4&#45;&gt;Node5</title>
<path fill="none" stroke="midnightblue" d="M488,-96.58C509.92,-89.79 535.99,-81.71 558.93,-74.6"/>
<polygon fill="midnightblue" stroke="midnightblue" points="560.04,-77.92 568.56,-71.62 557.97,-71.24 560.04,-77.92"/>
</g>
<!-- Node6&#45;&gt;Node4 -->
<g id="edge9" class="edge">
<title>Node6&#45;&gt;Node4</title>
<path fill="none" stroke="midnightblue" d="M319.09,-75.92C338.24,-81.69 359.15,-88 378,-93.68"/>
<polygon fill="midnightblue" stroke="midnightblue" points="377.06,-97.05 387.64,-96.58 379.08,-90.35 377.06,-97.05"/>
</g>
<!-- Node6&#45;&gt;Node5 -->
<g id="edge10" class="edge">
<title>Node6&#45;&gt;Node5</title>
<path fill="none" stroke="midnightblue" d="M316.01,-36.09C330.28,-32.15 345.54,-28.63 360,-26.61 429.1,-16.93 447.96,-16.48 517,-26.61 533.33,-29.01 550.69,-33.49 566.29,-38.28"/>
<polygon fill="midnightblue" stroke="midnightblue" points="565.67,-41.75 576.26,-41.45 567.79,-35.08 565.67,-41.75"/>
</g>
<!-- Node7 -->
<g id="node7" class="node">
<title>Node7</title>
<g id="a_node7"><a xlink:href="classpenify__hook_1_1jira__client_1_1JiraClient.html#aa967169a4b7970c67c0947b9ac56f746" target="_top" xlink:title=" ">
<polygon fill="white" stroke="black" points="373.5,-36.11 373.5,-77.11 503.5,-77.11 503.5,-36.11 373.5,-36.11"/>
<text text-anchor="start" x="381.5" y="-65.11" font-family="Helvetica,sans-Serif" font-size="10.00">penify_hook.jira_client.</text>
<text text-anchor="start" x="381.5" y="-54.11" font-family="Helvetica,sans-Serif" font-size="10.00">JiraClient.get_detailed</text>
<text text-anchor="middle" x="438.5" y="-43.11" font-family="Helvetica,sans-Serif" font-size="10.00">_issue_context</text>
</a>
</g>
</g>
<!-- Node6&#45;&gt;Node7 -->
<g id="edge7" class="edge">
<title>Node6&#45;&gt;Node7</title>
<path fill="none" stroke="midnightblue" d="M319.09,-56.61C333.36,-56.61 348.6,-56.61 363.24,-56.61"/>
<polygon fill="midnightblue" stroke="midnightblue" points="363.26,-60.11 373.26,-56.61 363.26,-53.11 363.26,-60.11"/>
</g>
<!-- Node7&#45;&gt;Node5 -->
<g id="edge8" class="edge">
<title>Node7&#45;&gt;Node5</title>
<path fill="none" stroke="midnightblue" d="M503.58,-56.61C516.2,-56.61 529.53,-56.61 542.46,-56.61"/>
<polygon fill="midnightblue" stroke="midnightblue" points="542.71,-60.11 552.71,-56.61 542.71,-53.11 542.71,-60.11"/>
</g>
</g>
</svg>
        <g id="navigator" transform="translate(0 0)" fill="#404254">
                <rect fill="#f2f5e9" fill-opacity="0.5" stroke="#606060" stroke-width=".5" x="0" y="0" width="60" height="60"/>
                <use id="zoomplus" xlink:href="#zoomPlus" x="17" y="9" onmousedown="handleZoom(evt,'in')"/>
                <use id="zoomminus" xlink:href="#zoomMin" x="42" y="9" onmousedown="handleZoom(evt,'out')"/>
                <use id="reset" xlink:href="#resetDef" x="30" y="36" onmousedown="handleReset()"/>
                <g id="arrowUp" xlink:href="#dirArrow" transform="translate(30 24)" onmousedown="handlePan(0,-1)">
                  <use xlink:href="#rim" fill="#404040">
                        <set attributeName="fill" to="#808080" begin="arrowUp.mouseover" end="arrowUp.mouseout"/>
                  </use>
                  <path fill="none" stroke="white" stroke-width="1.5" d="M0,-3.0v7 M-2.5,-0.5L0,-3.0L2.5,-0.5"/>
                </g>
                <g id="arrowRight" xlink:href="#dirArrow" transform="rotate(90) translate(36 -43)" onmousedown="handlePan(1,0)">
                  <use xlink:href="#rim" fill="#404040">
                        <set attributeName="fill" to="#808080" begin="arrowRight.mouseover" end="arrowRight.mouseout"/>
                  </use>
                  <path fill="none" stroke="white" stroke-width="1.5" d="M0,-3.0v7 M-2.5,-0.5L0,-3.0L2.5,-0.5"/>
                </g>
                <g id="arrowDown" xlink:href="#dirArrow" transform="rotate(180) translate(-30 -48)" onmousedown="handlePan(0,1)">
                  <use xlink:href="#rim" fill="#404040">
                        <set attributeName="fill" to="#808080" begin="arrowDown.mouseover" end="arrowDown.mouseout"/>
                  </use>
                  <path fill="none" stroke="white" stroke-width="1.5" d="M0,-3.0v7 M-2.5,-0.5L0,-3.0L2.5,-0.5"/>
                </g>
                <g id="arrowLeft" xlink:href="#dirArrow" transform="rotate(270) translate(-36 17)" onmousedown="handlePan(-1,0)">
                  <use xlink:href="#rim" fill="#404040">
                        <set attributeName="fill" to="#808080" begin="arrowLeft.mouseover" end="arrowLeft.mouseout"/>
                  </use>
                  <path fill="none" stroke="white" stroke-width="1.5" d="M0,-3.0v7 M-2.5,-0.5L0,-3.0L2.5,-0.5"/>
                </g>
        </g>
        <svg viewBox="0 0 15 15" width="100%" height="30px" preserveAspectRatio="xMaxYMin meet">
         <g id="arrow_out" transform="scale(0.3 0.3)">
          <a xlink:href="classpenify__hook_1_1jira__client_1_1JiraClient_a70d2c5a6432aa6f238da0ff65d49a760_cgraph_org.svg" target="_base">
           <rect id="button" ry="5" rx="5" y="6" x="6" height="38" width="38"
                fill="#f2f5e9" fill-opacity="0.5" stroke="#606060" stroke-width="1.0"/>
           <path id="arrow"
             d="M 11.500037,31.436501 C 11.940474,20.09759 22.043105,11.32322 32.158766,21.979434 L 37.068811,17.246167 C 37.068811,17.246167 37.088388,32 37.088388,32 L 22.160133,31.978069 C 22.160133,31.978069 26.997745,27.140456 26.997745,27.140456 C 18.528582,18.264221 13.291696,25.230495 11.500037,31.436501 z"
             style="fill:#404040;"/>
          </a>
         </g>
        </svg>
</svg>
