<?xml version="1.0" encoding="UTF-8" standalone="no"?>
<!DOCTYPE svg PUBLIC "-//W3C//DTD SVG 1.1//EN"
 "http://www.w3.org/Graphics/SVG/1.1/DTD/svg11.dtd">
<!-- Generated by graphviz version 2.43.0 (0)
 -->
<!-- Title: penify_hook.base_analyzer.BaseAnalyzer Pages: 1 -->
<svg width="676pt" height="329pt"
 viewBox="0.00 0.00 676.00 329.00" xmlns="http://www.w3.org/2000/svg" xmlns:xlink="http://www.w3.org/1999/xlink">
<g id="graph0" class="graph" transform="scale(1 1) rotate(0) translate(4 325)">
<title>penify_hook.base_analyzer.BaseAnalyzer</title>
<!-- Node1 -->
<g id="Node000001" class="node">
<title>Node1</title>
<g id="a_Node000001"><a xlink:title=" ">
<polygon fill="#999999" stroke="transparent" points="410.5,-321 264.5,-321 264.5,-171 410.5,-171 410.5,-321"/>
<text text-anchor="start" x="269.5" y="-309" font-family="Helvetica,sans-Serif" font-size="10.00">penify_hook.base_analyzer.</text>
<text text-anchor="start" x="304" y="-298" font-family="Helvetica,sans-Serif" font-size="10.00">BaseAnalyzer</text>
<text text-anchor="start" x="274" y="-283" font-family="Helvetica,sans-Serif" font-size="10.00">+</text>
<text text-anchor="start" x="292.5" y="-283" font-family="Helvetica,sans-Serif" font-size="10.00">folder_path</text>
<text text-anchor="start" x="274" y="-268" font-family="Helvetica,sans-Serif" font-size="10.00">+</text>
<text text-anchor="start" x="292.5" y="-268" font-family="Helvetica,sans-Serif" font-size="10.00">repo_path</text>
<text text-anchor="start" x="274" y="-253" font-family="Helvetica,sans-Serif" font-size="10.00">+</text>
<text text-anchor="start" x="292.5" y="-253" font-family="Helvetica,sans-Serif" font-size="10.00">repo</text>
<text text-anchor="start" x="274" y="-238" font-family="Helvetica,sans-Serif" font-size="10.00">+</text>
<text text-anchor="start" x="292.5" y="-238" font-family="Helvetica,sans-Serif" font-size="10.00">repo_details</text>
<text text-anchor="start" x="274" y="-223" font-family="Helvetica,sans-Serif" font-size="10.00">+</text>
<text text-anchor="start" x="292.5" y="-223" font-family="Helvetica,sans-Serif" font-size="10.00">relative_file_path</text>
<text text-anchor="start" x="274" y="-208" font-family="Helvetica,sans-Serif" font-size="10.00">+</text>
<text text-anchor="start" x="292.5" y="-208" font-family="Helvetica,sans-Serif" font-size="10.00">api_client</text>
<text text-anchor="start" x="274" y="-193" font-family="Helvetica,sans-Serif" font-size="10.00">+</text>
<text text-anchor="start" x="292.5" y="-193" font-family="Helvetica,sans-Serif" font-size="10.00">supported_file_types</text>
<text text-anchor="start" x="274" y="-178" font-family="Helvetica,sans-Serif" font-size="10.00">+</text>
<text text-anchor="start" x="292.5" y="-178" font-family="Helvetica,sans-Serif" font-size="10.00">__init__()</text>
<polygon fill="#666666" stroke="#666666" points="264.5,-293 264.5,-293 410.5,-293 410.5,-293 264.5,-293"/>
<polygon fill="#666666" stroke="#666666" points="264.5,-188 264.5,-188 290.5,-188 290.5,-188 264.5,-188"/>
<polygon fill="#666666" stroke="#666666" points="290.5,-188 290.5,-188 410.5,-188 410.5,-188 290.5,-188"/>
<polygon fill="none" stroke="#666666" points="264.5,-171 264.5,-321 410.5,-321 410.5,-171 264.5,-171"/>
</a>
</g>
</g>
<!-- Node2 -->
<g id="Node000002" class="node">
<title>Node2</title>
<g id="a_Node000002"><a xlink:href="classpenify__hook_1_1commit__analyzer_1_1CommitDocGenHook.html" target="_top" xlink:title=" ">
<polygon fill="white" stroke="transparent" points="163,-135 0,-135 0,0 163,0 163,-135"/>
<text text-anchor="start" x="5.5" y="-122.5" font-family="Helvetica,sans-Serif" font-size="10.00">penify_hook.commit</text>
<text text-anchor="start" x="5.5" y="-111.5" font-family="Helvetica,sans-Serif" font-size="10.00">_analyzer.CommitDocGenHook</text>
<text text-anchor="start" x="8.5" y="-96.5" font-family="Helvetica,sans-Serif" font-size="10.00">+</text>
<text text-anchor="start" x="25.5" y="-96.5" font-family="Helvetica,sans-Serif" font-size="10.00">llm_client</text>
<text text-anchor="start" x="8.5" y="-81.5" font-family="Helvetica,sans-Serif" font-size="10.00">+</text>
<text text-anchor="start" x="25.5" y="-81.5" font-family="Helvetica,sans-Serif" font-size="10.00">jira_client</text>
<text text-anchor="start" x="8.5" y="-66.5" font-family="Helvetica,sans-Serif" font-size="10.00">+</text>
<text text-anchor="start" x="25.5" y="-66.5" font-family="Helvetica,sans-Serif" font-size="10.00">__init__()</text>
<text text-anchor="start" x="8.5" y="-51.5" font-family="Helvetica,sans-Serif" font-size="10.00">+</text>
<text text-anchor="start" x="25.5" y="-51.5" font-family="Helvetica,sans-Serif" font-size="10.00">get_summary()</text>
<text text-anchor="start" x="8.5" y="-36.5" font-family="Helvetica,sans-Serif" font-size="10.00">+</text>
<text text-anchor="start" x="25.5" y="-36.5" font-family="Helvetica,sans-Serif" font-size="10.00">run()</text>
<text text-anchor="start" x="8.5" y="-21.5" font-family="Helvetica,sans-Serif" font-size="10.00">+</text>
<text text-anchor="start" x="25.5" y="-21.5" font-family="Helvetica,sans-Serif" font-size="10.00">process_jira_integration()</text>
<text text-anchor="start" x="8.5" y="-6.5" font-family="Helvetica,sans-Serif" font-size="10.00">#</text>
<text text-anchor="start" x="25.5" y="-6.5" font-family="Helvetica,sans-Serif" font-size="10.00">_amend_commit()</text>
<polygon fill="#666666" stroke="#666666" points="0.5,-106.5 0.5,-106.5 163.5,-106.5 163.5,-106.5 0.5,-106.5"/>
<polygon fill="#666666" stroke="#666666" points="0.5,-76.5 0.5,-76.5 23.5,-76.5 23.5,-76.5 0.5,-76.5"/>
<polygon fill="#666666" stroke="#666666" points="23.5,-76.5 23.5,-76.5 163.5,-76.5 163.5,-76.5 23.5,-76.5"/>
<polygon fill="none" stroke="#666666" points="0,0 0,-135 163,-135 163,0 0,0"/>
</a>
</g>
</g>
<!-- Node1&#45;&gt;Node2 -->
<g id="edge1_Node000001_Node000002" class="edge">
<title>Node1&#45;&gt;Node2</title>
<g id="a_edge1_Node000001_Node000002"><a xlink:title=" ">
<path fill="none" stroke="#63b8ff" d="M255.59,-191.91C228.61,-174.11 198.59,-153.96 171.5,-135 168.79,-133.11 166.05,-131.17 163.29,-129.21"/>
<polygon fill="none" stroke="#63b8ff" points="253.96,-195.03 264.23,-197.61 257.81,-189.18 253.96,-195.03"/>
</a>
</g>
</g>
<!-- Node3 -->
<g id="Node000003" class="node">
<title>Node3</title>
<g id="a_Node000003"><a xlink:href="classpenify__hook_1_1file__analyzer_1_1FileAnalyzerGenHook.html" target="_top" xlink:title=" ">
<polygon fill="white" stroke="transparent" points="318,-120 181,-120 181,-15 318,-15 318,-120"/>
<text text-anchor="start" x="186.5" y="-107.5" font-family="Helvetica,sans-Serif" font-size="10.00">penify_hook.file_analyzer.</text>
<text text-anchor="start" x="197" y="-96.5" font-family="Helvetica,sans-Serif" font-size="10.00">FileAnalyzerGenHook</text>
<text text-anchor="start" x="192.5" y="-81.5" font-family="Helvetica,sans-Serif" font-size="10.00">+</text>
<text text-anchor="start" x="212.5" y="-81.5" font-family="Helvetica,sans-Serif" font-size="10.00">file_path</text>
<text text-anchor="start" x="192.5" y="-66.5" font-family="Helvetica,sans-Serif" font-size="10.00">+</text>
<text text-anchor="start" x="212.5" y="-66.5" font-family="Helvetica,sans-Serif" font-size="10.00">__init__()</text>
<text text-anchor="start" x="192.5" y="-51.5" font-family="Helvetica,sans-Serif" font-size="10.00">+</text>
<text text-anchor="start" x="212.5" y="-51.5" font-family="Helvetica,sans-Serif" font-size="10.00">process_file()</text>
<text text-anchor="start" x="192.5" y="-36.5" font-family="Helvetica,sans-Serif" font-size="10.00">+</text>
<text text-anchor="start" x="212.5" y="-36.5" font-family="Helvetica,sans-Serif" font-size="10.00">print_processing()</text>
<text text-anchor="start" x="192.5" y="-21.5" font-family="Helvetica,sans-Serif" font-size="10.00">+</text>
<text text-anchor="start" x="212.5" y="-21.5" font-family="Helvetica,sans-Serif" font-size="10.00">run()</text>
<polygon fill="#666666" stroke="#666666" points="181.5,-91.5 181.5,-91.5 318.5,-91.5 318.5,-91.5 181.5,-91.5"/>
<polygon fill="#666666" stroke="#666666" points="181.5,-76.5 181.5,-76.5 210.5,-76.5 210.5,-76.5 181.5,-76.5"/>
<polygon fill="#666666" stroke="#666666" points="210.5,-76.5 210.5,-76.5 318.5,-76.5 318.5,-76.5 210.5,-76.5"/>
<polygon fill="none" stroke="#666666" points="181,-15 181,-120 318,-120 318,-15 181,-15"/>
</a>
</g>
</g>
<!-- Node1&#45;&gt;Node3 -->
<g id="edge2_Node000001_Node000003" class="edge">
<title>Node1&#45;&gt;Node3</title>
<g id="a_edge2_Node000001_Node000003"><a xlink:title=" ">
<path fill="none" stroke="#63b8ff" d="M295.95,-161.66C288.89,-147.5 281.75,-133.18 275.26,-120.16"/>
<polygon fill="none" stroke="#63b8ff" points="292.97,-163.53 300.56,-170.92 299.23,-160.4 292.97,-163.53"/>
</a>
</g>
</g>
<!-- Node4 -->
<g id="Node000004" class="node">
<title>Node4</title>
<g id="a_Node000004"><a xlink:href="classpenify__hook_1_1folder__analyzer_1_1FolderAnalyzerGenHook.html" target="_top" xlink:title=" ">
<polygon fill="white" stroke="transparent" points="514.5,-112.5 336.5,-112.5 336.5,-22.5 514.5,-22.5 514.5,-112.5"/>
<text text-anchor="start" x="341.5" y="-100.5" font-family="Helvetica,sans-Serif" font-size="10.00">penify_hook.folder</text>
<text text-anchor="start" x="341.5" y="-89.5" font-family="Helvetica,sans-Serif" font-size="10.00">_analyzer.FolderAnalyzerGenHook</text>
<text text-anchor="start" x="355" y="-74.5" font-family="Helvetica,sans-Serif" font-size="10.00">+</text>
<text text-anchor="start" x="382.5" y="-74.5" font-family="Helvetica,sans-Serif" font-size="10.00">dir_path</text>
<text text-anchor="start" x="355" y="-59.5" font-family="Helvetica,sans-Serif" font-size="10.00">+</text>
<text text-anchor="start" x="382.5" y="-59.5" font-family="Helvetica,sans-Serif" font-size="10.00">__init__()</text>
<text text-anchor="start" x="355" y="-44.5" font-family="Helvetica,sans-Serif" font-size="10.00">+</text>
<text text-anchor="start" x="382.5" y="-44.5" font-family="Helvetica,sans-Serif" font-size="10.00">list_all_files_in_dir()</text>
<text text-anchor="start" x="355" y="-29.5" font-family="Helvetica,sans-Serif" font-size="10.00">+</text>
<text text-anchor="start" x="382.5" y="-29.5" font-family="Helvetica,sans-Serif" font-size="10.00">run()</text>
<polygon fill="#666666" stroke="#666666" points="336.5,-84.5 336.5,-84.5 514.5,-84.5 514.5,-84.5 336.5,-84.5"/>
<polygon fill="#666666" stroke="#666666" points="336.5,-69.5 336.5,-69.5 380.5,-69.5 380.5,-69.5 336.5,-69.5"/>
<polygon fill="#666666" stroke="#666666" points="380.5,-69.5 380.5,-69.5 514.5,-69.5 514.5,-69.5 380.5,-69.5"/>
<polygon fill="none" stroke="#666666" points="336.5,-22.5 336.5,-112.5 514.5,-112.5 514.5,-22.5 336.5,-22.5"/>
</a>
</g>
</g>
<!-- Node1&#45;&gt;Node4 -->
<g id="edge3_Node000001_Node000004" class="edge">
<title>Node1&#45;&gt;Node4</title>
<g id="a_edge3_Node000001_Node000004"><a xlink:title=" ">
<path fill="none" stroke="#63b8ff" d="M379.1,-161.57C387.52,-144.68 396.05,-127.56 403.47,-112.68"/>
<polygon fill="none" stroke="#63b8ff" points="375.77,-160.4 374.44,-170.92 382.03,-163.53 375.77,-160.4"/>
</a>
</g>
</g>
<!-- Node5 -->
<g id="Node000005" class="node">
<title>Node5</title>
<g id="a_Node000005"><a xlink:href="classpenify__hook_1_1git__analyzer_1_1GitDocGenHook.html" target="_top" xlink:title=" ">
<polygon fill="white" stroke="transparent" points="668,-133 533,-133 533,-2 668,-2 668,-133"/>
<text text-anchor="start" x="538.5" y="-120.5" font-family="Helvetica,sans-Serif" font-size="10.00">penify_hook.git_analyzer.</text>
<text text-anchor="start" x="561.5" y="-109.5" font-family="Helvetica,sans-Serif" font-size="10.00">GitDocGenHook</text>
<text text-anchor="start" x="599" y="-94.5" font-family="Helvetica,sans-Serif" font-size="10.00"> </text>
<text text-anchor="start" x="541" y="-79.5" font-family="Helvetica,sans-Serif" font-size="10.00">+</text>
<text text-anchor="start" x="557.5" y="-79.5" font-family="Helvetica,sans-Serif" font-size="10.00">__init__()</text>
<text text-anchor="start" x="541" y="-64.5" font-family="Helvetica,sans-Serif" font-size="10.00">+</text>
<text text-anchor="start" x="557.5" y="-64.5" font-family="Helvetica,sans-Serif" font-size="10.00">get_modified_files</text>
<text text-anchor="start" x="557.5" y="-53.5" font-family="Helvetica,sans-Serif" font-size="10.00">_in_last_commit()</text>
<text text-anchor="start" x="541" y="-38.5" font-family="Helvetica,sans-Serif" font-size="10.00">+</text>
<text text-anchor="start" x="557.5" y="-38.5" font-family="Helvetica,sans-Serif" font-size="10.00">get_modified_lines()</text>
<text text-anchor="start" x="541" y="-23.5" font-family="Helvetica,sans-Serif" font-size="10.00">+</text>
<text text-anchor="start" x="557.5" y="-23.5" font-family="Helvetica,sans-Serif" font-size="10.00">process_file()</text>
<text text-anchor="start" x="541" y="-8.5" font-family="Helvetica,sans-Serif" font-size="10.00">+</text>
<text text-anchor="start" x="557.5" y="-8.5" font-family="Helvetica,sans-Serif" font-size="10.00">run()</text>
<polygon fill="#666666" stroke="#666666" points="533.5,-104.5 533.5,-104.5 668.5,-104.5 668.5,-104.5 533.5,-104.5"/>
<polygon fill="#666666" stroke="#666666" points="533.5,-89.5 533.5,-89.5 668.5,-89.5 668.5,-89.5 533.5,-89.5"/>
<polygon fill="none" stroke="#666666" points="533,-2 533,-133 668,-133 668,-2 533,-2"/>
</a>
</g>
</g>
<!-- Node1&#45;&gt;Node5 -->
<g id="edge4_Node000001_Node000005" class="edge">
<title>Node1&#45;&gt;Node5</title>
<g id="a_edge4_Node000001_Node000005"><a xlink:title=" ">
<path fill="none" stroke="#63b8ff" d="M419.68,-200.61C452.78,-181.66 490.78,-158.52 523.5,-135 526.51,-132.84 529.55,-130.58 532.58,-128.26"/>
<polygon fill="none" stroke="#63b8ff" points="417.9,-197.6 410.94,-205.59 421.36,-203.68 417.9,-197.6"/>
</a>
</g>
</g>
</g>
</svg>
