<?xml version="1.0" encoding="UTF-8" standalone="no"?>
<!DOCTYPE svg PUBLIC "-//W3C//DTD SVG 1.1//EN"
 "http://www.w3.org/Graphics/SVG/1.1/DTD/svg11.dtd">
<!-- Generated by graphviz version 2.43.0 (0)
 -->
<!-- Title: penify_hook.jira_client.JiraClient.enhance_commit_message Pages: 1 -->
<svg width="691pt" height="220pt"
 viewBox="0.00 0.00 691.00 219.61" xmlns="http://www.w3.org/2000/svg" xmlns:xlink="http://www.w3.org/1999/xlink">
<g id="graph0" class="graph" transform="scale(1 1) rotate(0) translate(4 215.61)">
<title>penify_hook.jira_client.JiraClient.enhance_commit_message</title>
<!-- Node1 -->
<g id="Node000001" class="node">
<title>Node1</title>
<g id="a_Node000001"><a xlink:title=" ">
<polygon fill="#999999" stroke="#666666" points="148,-77.11 0,-77.11 0,-36.11 148,-36.11 148,-77.11"/>
<text text-anchor="start" x="8" y="-65.11" font-family="Helvetica,sans-Serif" font-size="10.00">penify_hook.jira_client.</text>
<text text-anchor="start" x="8" y="-54.11" font-family="Helvetica,sans-Serif" font-size="10.00">JiraClient.enhance_commit</text>
<text text-anchor="middle" x="74" y="-43.11" font-family="Helvetica,sans-Serif" font-size="10.00">_message</text>
</a>
</g>
</g>
<!-- Node2 -->
<g id="Node000002" class="node">
<title>Node2</title>
<g id="a_Node000002"><a xlink:href="classpenify__hook_1_1jira__client_1_1JiraClient.html#a49ea1149758f7f5212149d357b13cc23" target="_top" xlink:title=" ">
<polygon fill="white" stroke="#666666" points="324,-155.11 184,-155.11 184,-114.11 324,-114.11 324,-155.11"/>
<text text-anchor="start" x="192" y="-143.11" font-family="Helvetica,sans-Serif" font-size="10.00">penify_hook.jira_client.</text>
<text text-anchor="start" x="192" y="-132.11" font-family="Helvetica,sans-Serif" font-size="10.00">JiraClient.format_commit</text>
<text text-anchor="middle" x="254" y="-121.11" font-family="Helvetica,sans-Serif" font-size="10.00">_message_with_jira_info</text>
</a>
</g>
</g>
<!-- Node1&#45;&gt;Node2 -->
<g id="edge1_Node000001_Node000002" class="edge">
<title>Node1&#45;&gt;Node2</title>
<g id="a_edge1_Node000001_Node000002"><a xlink:title=" ">
<path fill="none" stroke="#63b8ff" d="M122.23,-77.31C145.15,-87.35 172.84,-99.48 196.83,-109.99"/>
<polygon fill="#63b8ff" stroke="#63b8ff" points="195.6,-113.28 206.16,-114.09 198.41,-106.87 195.6,-113.28"/>
</a>
</g>
</g>
<!-- Node5 -->
<g id="Node000005" class="node">
<title>Node5</title>
<g id="a_Node000005"><a xlink:href="classpenify__hook_1_1jira__client_1_1JiraClient.html#a00d0f9ae006313a21576362d26ac5ec8" target="_top" xlink:title=" ">
<polygon fill="white" stroke="#666666" points="683,-71.61 553,-71.61 553,-41.61 683,-41.61 683,-71.61"/>
<text text-anchor="start" x="561" y="-59.61" font-family="Helvetica,sans-Serif" font-size="10.00">penify_hook.jira_client.</text>
<text text-anchor="middle" x="618" y="-48.61" font-family="Helvetica,sans-Serif" font-size="10.00">JiraClient.is_connected</text>
</a>
</g>
</g>
<!-- Node1&#45;&gt;Node5 -->
<g id="edge11_Node000001_Node000005" class="edge">
<title>Node1&#45;&gt;Node5</title>
<g id="a_edge11_Node000001_Node000005"><a xlink:title=" ">
<path fill="none" stroke="#63b8ff" d="M141.09,-36.08C155.14,-32.38 169.96,-28.95 184,-26.61 330.06,-2.21 371.71,13.02 517,-15.61 538.48,-19.84 561.15,-28.73 579.46,-37.15"/>
<polygon fill="#63b8ff" stroke="#63b8ff" points="578.08,-40.37 588.61,-41.49 581.08,-34.04 578.08,-40.37"/>
</a>
</g>
</g>
<!-- Node6 -->
<g id="Node000006" class="node">
<title>Node6</title>
<g id="a_Node000006"><a xlink:href="classpenify__hook_1_1jira__client_1_1JiraClient.html#afb41ce6f13c30b1265d439ddf04bf2cd" target="_top" xlink:title=" ">
<polygon fill="white" stroke="#666666" points="319,-77.11 189,-77.11 189,-36.11 319,-36.11 319,-77.11"/>
<text text-anchor="start" x="197" y="-65.11" font-family="Helvetica,sans-Serif" font-size="10.00">penify_hook.jira_client.</text>
<text text-anchor="start" x="197" y="-54.11" font-family="Helvetica,sans-Serif" font-size="10.00">JiraClient.get_commit</text>
<text text-anchor="middle" x="254" y="-43.11" font-family="Helvetica,sans-Serif" font-size="10.00">_context_from_issues</text>
</a>
</g>
</g>
<!-- Node1&#45;&gt;Node6 -->
<g id="edge6_Node000001_Node000006" class="edge">
<title>Node1&#45;&gt;Node6</title>
<g id="a_edge6_Node000001_Node000006"><a xlink:title=" ">
<path fill="none" stroke="#63b8ff" d="M148.17,-56.61C158.31,-56.61 168.73,-56.61 178.89,-56.61"/>
<polygon fill="#63b8ff" stroke="#63b8ff" points="178.94,-60.11 188.94,-56.61 178.94,-53.11 178.94,-60.11"/>
</a>
</g>
</g>
<!-- Node3 -->
<g id="Node000003" class="node">
<title>Node3</title>
<g id="a_Node000003"><a xlink:href="classpenify__hook_1_1jira__client_1_1JiraClient.html#ad2823ad1d3baaedd38039913c3a97fd7" target="_top" xlink:title=" ">
<polygon fill="white" stroke="#666666" points="517,-211.61 360,-211.61 360,-181.61 517,-181.61 517,-211.61"/>
<text text-anchor="start" x="368" y="-199.61" font-family="Helvetica,sans-Serif" font-size="10.00">penify_hook.jira_client.</text>
<text text-anchor="middle" x="438.5" y="-188.61" font-family="Helvetica,sans-Serif" font-size="10.00">JiraClient.extract_issue_keys</text>
</a>
</g>
</g>
<!-- Node2&#45;&gt;Node3 -->
<g id="edge2_Node000002_Node000003" class="edge">
<title>Node2&#45;&gt;Node3</title>
<g id="a_edge2_Node000002_Node000003"><a xlink:title=" ">
<path fill="none" stroke="#63b8ff" d="M315.52,-155.17C337.56,-162.66 362.31,-171.07 383.73,-178.34"/>
<polygon fill="#63b8ff" stroke="#63b8ff" points="382.72,-181.7 393.32,-181.6 384.98,-175.07 382.72,-181.7"/>
</a>
</g>
</g>
<!-- Node4 -->
<g id="Node000004" class="node">
<title>Node4</title>
<g id="a_Node000004"><a xlink:href="classpenify__hook_1_1jira__client_1_1JiraClient.html#a65f6924819084b7c8d268956a784804a" target="_top" xlink:title=" ">
<polygon fill="white" stroke="#666666" points="513,-125.61 364,-125.61 364,-95.61 513,-95.61 513,-125.61"/>
<text text-anchor="start" x="372" y="-113.61" font-family="Helvetica,sans-Serif" font-size="10.00">penify_hook.jira_client.</text>
<text text-anchor="middle" x="438.5" y="-102.61" font-family="Helvetica,sans-Serif" font-size="10.00">JiraClient.get_issue_details</text>
</a>
</g>
</g>
<!-- Node2&#45;&gt;Node4 -->
<g id="edge3_Node000002_Node000004" class="edge">
<title>Node2&#45;&gt;Node4</title>
<g id="a_edge3_Node000002_Node000004"><a xlink:title=" ">
<path fill="none" stroke="#63b8ff" d="M324.26,-125.5C333.84,-124.24 343.76,-122.94 353.57,-121.65"/>
<polygon fill="#63b8ff" stroke="#63b8ff" points="354.27,-125.08 363.73,-120.31 353.36,-118.14 354.27,-125.08"/>
</a>
</g>
</g>
<!-- Node2&#45;&gt;Node5 -->
<g id="edge5_Node000002_Node000005" class="edge">
<title>Node2&#45;&gt;Node5</title>
<g id="a_edge5_Node000002_Node000005"><a xlink:title=" ">
<path fill="none" stroke="#63b8ff" d="M324.04,-146.6C378.08,-153.18 454.31,-156.17 517,-134.61 548.84,-123.66 578.33,-97.96 596.91,-79.03"/>
<polygon fill="#63b8ff" stroke="#63b8ff" points="599.58,-81.31 603.94,-71.66 594.51,-76.48 599.58,-81.31"/>
</a>
</g>
</g>
<!-- Node4&#45;&gt;Node5 -->
<g id="edge4_Node000004_Node000005" class="edge">
<title>Node4&#45;&gt;Node5</title>
<g id="a_edge4_Node000004_Node000005"><a xlink:title=" ">
<path fill="none" stroke="#63b8ff" d="M488.94,-95.57C510.3,-89.07 535.46,-81.42 557.8,-74.62"/>
<polygon fill="#63b8ff" stroke="#63b8ff" points="558.97,-77.92 567.51,-71.66 556.93,-71.23 558.97,-77.92"/>
</a>
</g>
</g>
<!-- Node6&#45;&gt;Node4 -->
<g id="edge9_Node000006_Node000004" class="edge">
<title>Node6&#45;&gt;Node4</title>
<g id="a_edge9_Node000006_Node000004"><a xlink:title=" ">
<path fill="none" stroke="#63b8ff" d="M319.09,-75.57C337.89,-81.14 358.39,-87.2 376.97,-92.7"/>
<polygon fill="#63b8ff" stroke="#63b8ff" points="376.19,-96.12 386.77,-95.6 378.18,-89.41 376.19,-96.12"/>
</a>
</g>
</g>
<!-- Node6&#45;&gt;Node5 -->
<g id="edge10_Node000006_Node000005" class="edge">
<title>Node6&#45;&gt;Node5</title>
<g id="a_edge10_Node000006_Node000005"><a xlink:title=" ">
<path fill="none" stroke="#63b8ff" d="M316.01,-36.09C330.28,-32.15 345.54,-28.63 360,-26.61 429.1,-16.93 447.96,-16.48 517,-26.61 533.33,-29.01 550.69,-33.49 566.29,-38.28"/>
<polygon fill="#63b8ff" stroke="#63b8ff" points="565.67,-41.75 576.26,-41.45 567.79,-35.08 565.67,-41.75"/>
</a>
</g>
</g>
<!-- Node7 -->
<g id="Node000007" class="node">
<title>Node7</title>
<g id="a_Node000007"><a xlink:href="classpenify__hook_1_1jira__client_1_1JiraClient.html#aa967169a4b7970c67c0947b9ac56f746" target="_top" xlink:title=" ">
<polygon fill="white" stroke="#666666" points="503.5,-77.11 373.5,-77.11 373.5,-36.11 503.5,-36.11 503.5,-77.11"/>
<text text-anchor="start" x="381.5" y="-65.11" font-family="Helvetica,sans-Serif" font-size="10.00">penify_hook.jira_client.</text>
<text text-anchor="start" x="381.5" y="-54.11" font-family="Helvetica,sans-Serif" font-size="10.00">JiraClient.get_detailed</text>
<text text-anchor="middle" x="438.5" y="-43.11" font-family="Helvetica,sans-Serif" font-size="10.00">_issue_context</text>
</a>
</g>
</g>
<!-- Node6&#45;&gt;Node7 -->
<g id="edge7_Node000006_Node000007" class="edge">
<title>Node6&#45;&gt;Node7</title>
<g id="a_edge7_Node000006_Node000007"><a xlink:title=" ">
<path fill="none" stroke="#63b8ff" d="M319.09,-56.61C333.36,-56.61 348.6,-56.61 363.24,-56.61"/>
<polygon fill="#63b8ff" stroke="#63b8ff" points="363.26,-60.11 373.26,-56.61 363.26,-53.11 363.26,-60.11"/>
</a>
</g>
</g>
<!-- Node7&#45;&gt;Node5 -->
<g id="edge8_Node000007_Node000005" class="edge">
<title>Node7&#45;&gt;Node5</title>
<g id="a_edge8_Node000007_Node000005"><a xlink:title=" ">
<path fill="none" stroke="#63b8ff" d="M503.58,-56.61C516.2,-56.61 529.53,-56.61 542.46,-56.61"/>
<polygon fill="#63b8ff" stroke="#63b8ff" points="542.71,-60.11 552.71,-56.61 542.71,-53.11 542.71,-60.11"/>
</a>
</g>
</g>
</g>
</svg>
