<?xml version="1.0" encoding="UTF-8" standalone="no"?>
<!DOCTYPE svg PUBLIC "-//W3C//DTD SVG 1.1//EN"
 "http://www.w3.org/Graphics/SVG/1.1/DTD/svg11.dtd">
<!-- Generated by graphviz version 2.43.0 (0)
 -->
<!-- Title: penify_hook.jira_client.JiraClient.format_commit_message_with_jira_info Pages: 1 -->
<svg width="507pt" height="108pt"
 viewBox="0.00 0.00 507.00 108.00" xmlns="http://www.w3.org/2000/svg" xmlns:xlink="http://www.w3.org/1999/xlink">
<g id="graph0" class="graph" transform="scale(1 1) rotate(0) translate(4 104)">
<title>penify_hook.jira_client.JiraClient.format_commit_message_with_jira_info</title>
<!-- Node1 -->
<g id="Node000001" class="node">
<title>Node1</title>
<g id="a_Node000001"><a xlink:title=" ">
<polygon fill="#999999" stroke="#666666" points="140,-57.5 0,-57.5 0,-16.5 140,-16.5 140,-57.5"/>
<text text-anchor="start" x="8" y="-45.5" font-family="Helvetica,sans-Serif" font-size="10.00">penify_hook.jira_client.</text>
<text text-anchor="start" x="8" y="-34.5" font-family="Helvetica,sans-Serif" font-size="10.00">JiraClient.format_commit</text>
<text text-anchor="middle" x="70" y="-23.5" font-family="Helvetica,sans-Serif" font-size="10.00">_message_with_jira_info</text>
</a>
</g>
</g>
<!-- Node2 -->
<g id="Node000002" class="node">
<title>Node2</title>
<g id="a_Node000002"><a xlink:href="classpenify__hook_1_1jira__client_1_1JiraClient.html#ad2823ad1d3baaedd38039913c3a97fd7" target="_top" xlink:title=" ">
<polygon fill="white" stroke="#666666" points="333,-100 176,-100 176,-70 333,-70 333,-100"/>
<text text-anchor="start" x="184" y="-88" font-family="Helvetica,sans-Serif" font-size="10.00">penify_hook.jira_client.</text>
<text text-anchor="middle" x="254.5" y="-77" font-family="Helvetica,sans-Serif" font-size="10.00">JiraClient.extract_issue_keys</text>
</a>
</g>
</g>
<!-- Node1&#45;&gt;Node2 -->
<g id="edge1_Node000001_Node000002" class="edge">
<title>Node1&#45;&gt;Node2</title>
<g id="a_edge1_Node000001_Node000002"><a xlink:title=" ">
<path fill="none" stroke="#63b8ff" d="M140.26,-55.22C155.48,-59.22 171.56,-63.45 186.69,-67.43"/>
<polygon fill="#63b8ff" stroke="#63b8ff" points="185.9,-70.84 196.46,-70 187.68,-64.07 185.9,-70.84"/>
</a>
</g>
</g>
<!-- Node3 -->
<g id="Node000003" class="node">
<title>Node3</title>
<g id="a_Node000003"><a xlink:href="classpenify__hook_1_1jira__client_1_1JiraClient.html#a65f6924819084b7c8d268956a784804a" target="_top" xlink:title=" ">
<polygon fill="white" stroke="#666666" points="329,-52 180,-52 180,-22 329,-22 329,-52"/>
<text text-anchor="start" x="188" y="-40" font-family="Helvetica,sans-Serif" font-size="10.00">penify_hook.jira_client.</text>
<text text-anchor="middle" x="254.5" y="-29" font-family="Helvetica,sans-Serif" font-size="10.00">JiraClient.get_issue_details</text>
</a>
</g>
</g>
<!-- Node1&#45;&gt;Node3 -->
<g id="edge2_Node000001_Node000003" class="edge">
<title>Node1&#45;&gt;Node3</title>
<g id="a_edge2_Node000001_Node000003"><a xlink:title=" ">
<path fill="none" stroke="#63b8ff" d="M140.26,-37C149.84,-37 159.76,-37 169.57,-37"/>
<polygon fill="#63b8ff" stroke="#63b8ff" points="169.73,-40.5 179.73,-37 169.73,-33.5 169.73,-40.5"/>
</a>
</g>
</g>
<!-- Node4 -->
<g id="Node000004" class="node">
<title>Node4</title>
<g id="a_Node000004"><a xlink:href="classpenify__hook_1_1jira__client_1_1JiraClient.html#a00d0f9ae006313a21576362d26ac5ec8" target="_top" xlink:title=" ">
<polygon fill="white" stroke="#666666" points="499,-30 369,-30 369,0 499,0 499,-30"/>
<text text-anchor="start" x="377" y="-18" font-family="Helvetica,sans-Serif" font-size="10.00">penify_hook.jira_client.</text>
<text text-anchor="middle" x="434" y="-7" font-family="Helvetica,sans-Serif" font-size="10.00">JiraClient.is_connected</text>
</a>
</g>
</g>
<!-- Node1&#45;&gt;Node4 -->
<g id="edge4_Node000001_Node000004" class="edge">
<title>Node1&#45;&gt;Node4</title>
<g id="a_edge4_Node000001_Node000004"><a xlink:title=" ">
<path fill="none" stroke="#63b8ff" d="M140.09,-18.9C151.99,-16.45 164.29,-14.32 176,-13 237.31,-6.08 307.37,-7.22 358.84,-9.73"/>
<polygon fill="#63b8ff" stroke="#63b8ff" points="358.71,-13.23 368.88,-10.25 359.07,-6.24 358.71,-13.23"/>
</a>
</g>
</g>
<!-- Node3&#45;&gt;Node4 -->
<g id="edge3_Node000003_Node000004" class="edge">
<title>Node3&#45;&gt;Node4</title>
<g id="a_edge3_Node000003_Node000004"><a xlink:title=" ">
<path fill="none" stroke="#63b8ff" d="M329.23,-27.86C338.99,-26.65 348.99,-25.41 358.76,-24.2"/>
<polygon fill="#63b8ff" stroke="#63b8ff" points="359.33,-27.66 368.83,-22.95 358.47,-20.71 359.33,-27.66"/>
</a>
</g>
</g>
</g>
</svg>
