<?xml version="1.0" encoding="UTF-8" standalone="no"?>
<!DOCTYPE svg PUBLIC "-//W3C//DTD SVG 1.1//EN"
 "http://www.w3.org/Graphics/SVG/1.1/DTD/svg11.dtd">
<!-- Generated by graphviz version 2.43.0 (0)
 -->
<!-- Title: penify_hook.git_analyzer.GitDocGenHook.run Pages: 1 -->
<svg width="779pt" height="432pt"
 viewBox="0.00 0.00 779.00 432.00" xmlns="http://www.w3.org/2000/svg" xmlns:xlink="http://www.w3.org/1999/xlink">
<g id="graph0" class="graph" transform="scale(1 1) rotate(0) translate(4 428)">
<title>penify_hook.git_analyzer.GitDocGenHook.run</title>
<polygon fill="white" stroke="transparent" points="-4,4 -4,-428 775,-428 775,4 -4,4"/>
<!-- Node1 -->
<g id="node1" class="node">
<title>Node1</title>
<g id="a_node1"><a xlink:title=" ">
<polygon fill="#bfbfbf" stroke="black" points="0,-220.5 0,-250.5 141,-250.5 141,-220.5 0,-220.5"/>
<text text-anchor="start" x="8" y="-238.5" font-family="Helvetica,sans-Serif" font-size="10.00">penify_hook.git_analyzer.</text>
<text text-anchor="middle" x="70.5" y="-227.5" font-family="Helvetica,sans-Serif" font-size="10.00">GitDocGenHook.run</text>
</a>
</g>
</g>
<!-- Node2 -->
<g id="node2" class="node">
<title>Node2</title>
<g id="a_node2"><a xlink:href="namespacepenify__hook_1_1ui__utils.html#a12b92532b1458af94f3649d411b5505c" target="_top" xlink:title=" ">
<polygon fill="white" stroke="black" points="194,-393.5 194,-423.5 342,-423.5 342,-393.5 194,-393.5"/>
<text text-anchor="start" x="202" y="-411.5" font-family="Helvetica,sans-Serif" font-size="10.00">penify_hook.ui_utils.create</text>
<text text-anchor="middle" x="268" y="-400.5" font-family="Helvetica,sans-Serif" font-size="10.00">_progress_bar</text>
</a>
</g>
</g>
<!-- Node1&#45;&gt;Node2 -->
<g id="edge1" class="edge">
<title>Node1&#45;&gt;Node2</title>
<path fill="none" stroke="midnightblue" d="M78.03,-250.69C91.77,-280.8 126.61,-348.19 177,-383.5 179.88,-385.52 182.91,-387.37 186.05,-389.07"/>
<polygon fill="midnightblue" stroke="midnightblue" points="184.64,-392.28 195.17,-393.49 187.7,-385.98 184.64,-392.28"/>
</g>
<!-- Node4 -->
<g id="node4" class="node">
<title>Node4</title>
<g id="a_node4"><a xlink:href="classpenify__hook_1_1git__analyzer_1_1GitDocGenHook.html#a17549766100e91eb94b5f1a1d34bf481" target="_top" xlink:title=" ">
<polygon fill="white" stroke="black" points="187.5,-333 187.5,-374 348.5,-374 348.5,-333 187.5,-333"/>
<text text-anchor="start" x="195.5" y="-362" font-family="Helvetica,sans-Serif" font-size="10.00">penify_hook.git_analyzer.</text>
<text text-anchor="start" x="195.5" y="-351" font-family="Helvetica,sans-Serif" font-size="10.00">GitDocGenHook.get_modified</text>
<text text-anchor="middle" x="268" y="-340" font-family="Helvetica,sans-Serif" font-size="10.00">_files_in_last_commit</text>
</a>
</g>
</g>
<!-- Node1&#45;&gt;Node4 -->
<g id="edge3" class="edge">
<title>Node1&#45;&gt;Node4</title>
<path fill="none" stroke="midnightblue" d="M85.88,-250.58C105.04,-269.9 140.75,-303.3 177,-323.5 180.29,-325.33 183.7,-327.08 187.2,-328.73"/>
<polygon fill="midnightblue" stroke="midnightblue" points="186.05,-332.05 196.61,-332.92 188.9,-325.66 186.05,-332.05"/>
</g>
<!-- Node5 -->
<g id="node5" class="node">
<title>Node5</title>
<g id="a_node5"><a xlink:href="namespacepenify__hook_1_1ui__utils.html#a811f0adf6e9bf71510c379b6fa155e44" target="_top" xlink:title=" ">
<polygon fill="white" stroke="black" points="186,-295 186,-314 350,-314 350,-295 186,-295"/>
<text text-anchor="middle" x="268" y="-302" font-family="Helvetica,sans-Serif" font-size="10.00">penify_hook.ui_utils.print_info</text>
</a>
</g>
</g>
<!-- Node1&#45;&gt;Node5 -->
<g id="edge4" class="edge">
<title>Node1&#45;&gt;Node5</title>
<path fill="none" stroke="midnightblue" d="M98.97,-250.71C119.84,-261.72 149.54,-276.24 177,-285.5 184.94,-288.18 193.41,-290.56 201.85,-292.65"/>
<polygon fill="midnightblue" stroke="midnightblue" points="201.18,-296.08 211.71,-294.97 202.78,-289.27 201.18,-296.08"/>
</g>
<!-- Node6 -->
<g id="node6" class="node">
<title>Node6</title>
<g id="a_node6"><a xlink:href="namespacepenify__hook_1_1ui__utils.html#adfcbbfe39029ab6d1dd33e7bf75ae115" target="_top" xlink:title=" ">
<polygon fill="white" stroke="black" points="198,-245.5 198,-275.5 338,-275.5 338,-245.5 198,-245.5"/>
<text text-anchor="start" x="206" y="-263.5" font-family="Helvetica,sans-Serif" font-size="10.00">penify_hook.ui_utils.print</text>
<text text-anchor="middle" x="268" y="-252.5" font-family="Helvetica,sans-Serif" font-size="10.00">_processing</text>
</a>
</g>
</g>
<!-- Node1&#45;&gt;Node6 -->
<g id="edge6" class="edge">
<title>Node1&#45;&gt;Node6</title>
<path fill="none" stroke="midnightblue" d="M141.25,-244.42C156.36,-246.35 172.45,-248.41 187.89,-250.38"/>
<polygon fill="midnightblue" stroke="midnightblue" points="187.57,-253.87 197.93,-251.67 188.46,-246.93 187.57,-253.87"/>
</g>
<!-- Node8 -->
<g id="node8" class="node">
<title>Node8</title>
<g id="a_node8"><a xlink:href="namespacepenify__hook_1_1ui__utils.html#aa6e684c00e26199440137a87ed9b195c" target="_top" xlink:title=" ">
<polygon fill="white" stroke="black" points="198,-196.5 198,-226.5 338,-226.5 338,-196.5 198,-196.5"/>
<text text-anchor="start" x="206" y="-214.5" font-family="Helvetica,sans-Serif" font-size="10.00">penify_hook.ui_utils.print</text>
<text text-anchor="middle" x="268" y="-203.5" font-family="Helvetica,sans-Serif" font-size="10.00">_status</text>
</a>
</g>
</g>
<!-- Node1&#45;&gt;Node8 -->
<g id="edge8" class="edge">
<title>Node1&#45;&gt;Node8</title>
<path fill="none" stroke="midnightblue" d="M141.25,-226.94C156.36,-225.08 172.45,-223.11 187.89,-221.21"/>
<polygon fill="midnightblue" stroke="midnightblue" points="188.43,-224.67 197.93,-219.98 187.58,-217.72 188.43,-224.67"/>
</g>
<!-- Node9 -->
<g id="node9" class="node">
<title>Node9</title>
<g id="a_node9"><a xlink:href="namespacepenify__hook_1_1ui__utils.html#a2b16aa6b68a9edea5f29f84f1c4be79a" target="_top" xlink:title=" ">
<polygon fill="white" stroke="black" points="198,-147.5 198,-177.5 338,-177.5 338,-147.5 198,-147.5"/>
<text text-anchor="start" x="206" y="-165.5" font-family="Helvetica,sans-Serif" font-size="10.00">penify_hook.ui_utils.print</text>
<text text-anchor="middle" x="268" y="-154.5" font-family="Helvetica,sans-Serif" font-size="10.00">_success</text>
</a>
</g>
</g>
<!-- Node1&#45;&gt;Node9 -->
<g id="edge9" class="edge">
<title>Node1&#45;&gt;Node9</title>
<path fill="none" stroke="midnightblue" d="M101.45,-220.36C122.29,-210.2 150.9,-197 177,-187.5 183.71,-185.06 190.76,-182.72 197.86,-180.52"/>
<polygon fill="midnightblue" stroke="midnightblue" points="198.96,-183.84 207.52,-177.61 196.94,-177.14 198.96,-183.84"/>
</g>
<!-- Node11 -->
<g id="node11" class="node">
<title>Node11</title>
<g id="a_node11"><a xlink:href="classpenify__hook_1_1git__analyzer_1_1GitDocGenHook.html#a05313caa22b173ce75638f0db08eeb85" target="_top" xlink:title=" ">
<polygon fill="white" stroke="black" points="190.5,-98.5 190.5,-128.5 345.5,-128.5 345.5,-98.5 190.5,-98.5"/>
<text text-anchor="start" x="198.5" y="-116.5" font-family="Helvetica,sans-Serif" font-size="10.00">penify_hook.git_analyzer.</text>
<text text-anchor="middle" x="268" y="-105.5" font-family="Helvetica,sans-Serif" font-size="10.00">GitDocGenHook.process_file</text>
</a>
</g>
</g>
<!-- Node1&#45;&gt;Node11 -->
<g id="edge11" class="edge">
<title>Node1&#45;&gt;Node11</title>
<path fill="none" stroke="midnightblue" d="M83.83,-220.32C102,-198.94 138.07,-160.13 177,-138.5 181.12,-136.21 185.47,-134.11 189.94,-132.2"/>
<polygon fill="midnightblue" stroke="midnightblue" points="191.23,-135.46 199.25,-128.53 188.67,-128.94 191.23,-135.46"/>
</g>
<!-- Node13 -->
<g id="node13" class="node">
<title>Node13</title>
<g id="a_node13"><a xlink:href="classpenify__hook_1_1file__analyzer_1_1FileAnalyzerGenHook.html#a2cc6c22ef588fccf3eed9bbc57fb6d6e" target="_top" xlink:title=" ">
<polygon fill="white" stroke="black" points="177,-49.5 177,-79.5 359,-79.5 359,-49.5 177,-49.5"/>
<text text-anchor="start" x="185" y="-67.5" font-family="Helvetica,sans-Serif" font-size="10.00">penify_hook.file_analyzer.</text>
<text text-anchor="middle" x="268" y="-56.5" font-family="Helvetica,sans-Serif" font-size="10.00">FileAnalyzerGenHook.process_file</text>
</a>
</g>
</g>
<!-- Node1&#45;&gt;Node13 -->
<g id="edge13" class="edge">
<title>Node1&#45;&gt;Node13</title>
<path fill="none" stroke="midnightblue" d="M78.3,-220.06C92.29,-190.13 127.2,-124.16 177,-89.5 179.88,-87.49 182.92,-85.65 186.07,-83.95"/>
<polygon fill="midnightblue" stroke="midnightblue" points="187.71,-87.05 195.19,-79.55 184.67,-80.74 187.71,-87.05"/>
</g>
<!-- Node3 -->
<g id="node3" class="node">
<title>Node3</title>
<g id="a_node3"><a xlink:href="namespacepenify__hook_1_1ui__utils.html#a92c3e466d1912058167be2eacf85b9f6" target="_top" xlink:title=" ">
<polygon fill="white" stroke="black" points="403,-347 403,-366 577,-366 577,-347 403,-347"/>
<text text-anchor="middle" x="490" y="-354" font-family="Helvetica,sans-Serif" font-size="10.00">penify_hook.ui_utils.format_info</text>
</a>
</g>
</g>
<!-- Node2&#45;&gt;Node3 -->
<g id="edge2" class="edge">
<title>Node2&#45;&gt;Node3</title>
<path fill="none" stroke="midnightblue" d="M332.63,-393.46C366.41,-385.47 407.33,-375.8 438.84,-368.36"/>
<polygon fill="midnightblue" stroke="midnightblue" points="439.79,-371.73 448.72,-366.02 438.18,-364.92 439.79,-371.73"/>
</g>
<!-- Node5&#45;&gt;Node3 -->
<g id="edge5" class="edge">
<title>Node5&#45;&gt;Node3</title>
<path fill="none" stroke="midnightblue" d="M315.79,-314C329.72,-316.93 345,-320.25 359,-323.5 387.01,-330.01 418.24,-337.92 443.08,-344.36"/>
<polygon fill="midnightblue" stroke="midnightblue" points="442.39,-347.8 452.95,-346.93 444.16,-341.02 442.39,-347.8"/>
</g>
<!-- Node7 -->
<g id="node7" class="node">
<title>Node7</title>
<g id="a_node7"><a xlink:href="namespacepenify__hook_1_1ui__utils.html#af3441fb3c2c3850b8b3b6455a9fdaba4" target="_top" xlink:title=" ">
<polygon fill="white" stroke="black" points="415,-245.5 415,-275.5 565,-275.5 565,-245.5 415,-245.5"/>
<text text-anchor="start" x="423" y="-263.5" font-family="Helvetica,sans-Serif" font-size="10.00">penify_hook.ui_utils.format</text>
<text text-anchor="middle" x="490" y="-252.5" font-family="Helvetica,sans-Serif" font-size="10.00">_file_path</text>
</a>
</g>
</g>
<!-- Node6&#45;&gt;Node7 -->
<g id="edge7" class="edge">
<title>Node6&#45;&gt;Node7</title>
<path fill="none" stroke="midnightblue" d="M338.01,-260.5C359.21,-260.5 382.78,-260.5 404.87,-260.5"/>
<polygon fill="midnightblue" stroke="midnightblue" points="404.9,-264 414.9,-260.5 404.9,-257 404.9,-264"/>
</g>
<!-- Node10 -->
<g id="node10" class="node">
<title>Node10</title>
<g id="a_node10"><a xlink:href="namespacepenify__hook_1_1ui__utils.html#a532cdb4de7c679ce8b29c3e9116c4776" target="_top" xlink:title=" ">
<polygon fill="white" stroke="black" points="415,-147.5 415,-177.5 565,-177.5 565,-147.5 415,-147.5"/>
<text text-anchor="start" x="423" y="-165.5" font-family="Helvetica,sans-Serif" font-size="10.00">penify_hook.ui_utils.format</text>
<text text-anchor="middle" x="490" y="-154.5" font-family="Helvetica,sans-Serif" font-size="10.00">_success</text>
</a>
</g>
</g>
<!-- Node9&#45;&gt;Node10 -->
<g id="edge10" class="edge">
<title>Node9&#45;&gt;Node10</title>
<path fill="none" stroke="midnightblue" d="M338.01,-162.5C359.21,-162.5 382.78,-162.5 404.87,-162.5"/>
<polygon fill="midnightblue" stroke="midnightblue" points="404.9,-166 414.9,-162.5 404.9,-159 404.9,-166"/>
</g>
<!-- Node12 -->
<g id="node12" class="node">
<title>Node12</title>
<g id="a_node12"><a xlink:href="classpenify__hook_1_1git__analyzer_1_1GitDocGenHook.html#a974d2f51315ed6a1965a7fd7e2ced0cd" target="_top" xlink:title=" ">
<polygon fill="white" stroke="black" points="395,-98.5 395,-128.5 585,-128.5 585,-98.5 395,-98.5"/>
<text text-anchor="start" x="403" y="-116.5" font-family="Helvetica,sans-Serif" font-size="10.00">penify_hook.git_analyzer.</text>
<text text-anchor="middle" x="490" y="-105.5" font-family="Helvetica,sans-Serif" font-size="10.00">GitDocGenHook.get_modified_lines</text>
</a>
</g>
</g>
<!-- Node11&#45;&gt;Node12 -->
<g id="edge12" class="edge">
<title>Node11&#45;&gt;Node12</title>
<path fill="none" stroke="midnightblue" d="M345.64,-113.5C358.29,-113.5 371.58,-113.5 384.77,-113.5"/>
<polygon fill="midnightblue" stroke="midnightblue" points="384.82,-117 394.82,-113.5 384.82,-110 384.82,-117"/>
</g>
<!-- Node14 -->
<g id="node14" class="node">
<title>Node14</title>
<g id="a_node14"><a xlink:href="namespacepenify__hook_1_1ui__utils.html#a1ffbb9671dbe233770268e2dd66a67fa" target="_top" xlink:title=" ">
<polygon fill="white" stroke="black" points="420,-49.5 420,-79.5 560,-79.5 560,-49.5 420,-49.5"/>
<text text-anchor="start" x="428" y="-67.5" font-family="Helvetica,sans-Serif" font-size="10.00">penify_hook.ui_utils.print</text>
<text text-anchor="middle" x="490" y="-56.5" font-family="Helvetica,sans-Serif" font-size="10.00">_warning</text>
</a>
</g>
</g>
<!-- Node13&#45;&gt;Node14 -->
<g id="edge14" class="edge">
<title>Node13&#45;&gt;Node14</title>
<path fill="none" stroke="midnightblue" d="M359.12,-64.5C375.92,-64.5 393.37,-64.5 409.81,-64.5"/>
<polygon fill="midnightblue" stroke="midnightblue" points="409.91,-68 419.91,-64.5 409.91,-61 409.91,-68"/>
</g>
<!-- Node16 -->
<g id="node16" class="node">
<title>Node16</title>
<g id="a_node16"><a xlink:href="namespacepenify__hook_1_1ui__utils.html#a5a7340d0fc60fb80f17514d60bf45f1d" target="_top" xlink:title=" ">
<polygon fill="white" stroke="black" points="414.5,-0.5 414.5,-30.5 565.5,-30.5 565.5,-0.5 414.5,-0.5"/>
<text text-anchor="start" x="422.5" y="-18.5" font-family="Helvetica,sans-Serif" font-size="10.00">penify_hook.ui_utils.update</text>
<text text-anchor="middle" x="490" y="-7.5" font-family="Helvetica,sans-Serif" font-size="10.00">_stage</text>
</a>
</g>
</g>
<!-- Node13&#45;&gt;Node16 -->
<g id="edge16" class="edge">
<title>Node13&#45;&gt;Node16</title>
<path fill="none" stroke="midnightblue" d="M336.5,-49.47C360.26,-44.17 387.14,-38.19 411.65,-32.73"/>
<polygon fill="midnightblue" stroke="midnightblue" points="412.63,-36.1 421.63,-30.51 411.1,-29.26 412.63,-36.1"/>
</g>
<!-- Node15 -->
<g id="node15" class="node">
<title>Node15</title>
<g id="a_node15"><a xlink:href="namespacepenify__hook_1_1ui__utils.html#a0a6fd2613c6fe053b6e4356cd9e5cda2" target="_top" xlink:title=" ">
<polygon fill="white" stroke="black" points="621,-49.5 621,-79.5 771,-79.5 771,-49.5 621,-49.5"/>
<text text-anchor="start" x="629" y="-67.5" font-family="Helvetica,sans-Serif" font-size="10.00">penify_hook.ui_utils.format</text>
<text text-anchor="middle" x="696" y="-56.5" font-family="Helvetica,sans-Serif" font-size="10.00">_warning</text>
</a>
</g>
</g>
<!-- Node14&#45;&gt;Node15 -->
<g id="edge15" class="edge">
<title>Node14&#45;&gt;Node15</title>
<path fill="none" stroke="midnightblue" d="M560.07,-64.5C576.24,-64.5 593.66,-64.5 610.43,-64.5"/>
<polygon fill="midnightblue" stroke="midnightblue" points="610.77,-68 620.77,-64.5 610.77,-61 610.77,-68"/>
</g>
</g>
</svg>
