<?xml version="1.0" encoding="UTF-8" standalone="no"?>
<!DOCTYPE svg PUBLIC "-//W3C//DTD SVG 1.1//EN"
 "http://www.w3.org/Graphics/SVG/1.1/DTD/svg11.dtd">
<!-- Generated by graphviz version 2.43.0 (0)
 -->
<!-- Title: Graphical Class Hierarchy Pages: 1 -->
<svg width="380pt" height="182pt"
 viewBox="0.00 0.00 380.00 182.00" xmlns="http://www.w3.org/2000/svg" xmlns:xlink="http://www.w3.org/1999/xlink">
<g id="graph0" class="graph" transform="scale(1 1) rotate(0) translate(4 178)">
<title>Graphical Class Hierarchy</title>
<!-- Node0 -->
<g id="Node000000" class="node">
<title>Node0</title>
<g id="a_Node000000"><a xlink:href="classpenify__hook_1_1base__analyzer_1_1BaseAnalyzer.html" target="_top" xlink:title=" ">
<polygon fill="white" stroke="#666666" points="152,-102 0,-102 0,-72 152,-72 152,-102"/>
<text text-anchor="start" x="8" y="-90" font-family="Helvetica,sans-Serif" font-size="10.00">penify_hook.base_analyzer.</text>
<text text-anchor="middle" x="76" y="-79" font-family="Helvetica,sans-Serif" font-size="10.00">BaseAnalyzer</text>
</a>
</g>
</g>
<!-- Node1 -->
<g id="Node000001" class="node">
<title>Node1</title>
<g id="a_Node000001"><a xlink:href="classpenify__hook_1_1commit__analyzer_1_1CommitDocGenHook.html" target="_top" xlink:title=" ">
<polygon fill="white" stroke="#666666" points="364.5,-174 195.5,-174 195.5,-144 364.5,-144 364.5,-174"/>
<text text-anchor="start" x="203.5" y="-162" font-family="Helvetica,sans-Serif" font-size="10.00">penify_hook.commit</text>
<text text-anchor="middle" x="280" y="-151" font-family="Helvetica,sans-Serif" font-size="10.00">_analyzer.CommitDocGenHook</text>
</a>
</g>
</g>
<!-- Node0&#45;&gt;Node1 -->
<g id="edge2_Node000000_Node000001" class="edge">
<title>Node0&#45;&gt;Node1</title>
<g id="a_edge2_Node000000_Node000001"><a xlink:title=" ">
<path fill="none" stroke="#63b8ff" d="M117.71,-106.35C138.45,-115.76 164.25,-126.79 188,-135 197.26,-138.2 207.19,-141.23 216.95,-143.97"/>
<polygon fill="#63b8ff" stroke="#63b8ff" points="119.11,-103.14 108.56,-102.16 116.19,-109.51 119.11,-103.14"/>
</a>
</g>
</g>
<!-- Node2 -->
<g id="Node000002" class="node">
<title>Node2</title>
<g id="a_Node000002"><a xlink:href="classpenify__hook_1_1file__analyzer_1_1FileAnalyzerGenHook.html" target="_top" xlink:title=" ">
<polygon fill="white" stroke="#666666" points="351.5,-126 208.5,-126 208.5,-96 351.5,-96 351.5,-126"/>
<text text-anchor="start" x="216.5" y="-114" font-family="Helvetica,sans-Serif" font-size="10.00">penify_hook.file_analyzer.</text>
<text text-anchor="middle" x="280" y="-103" font-family="Helvetica,sans-Serif" font-size="10.00">FileAnalyzerGenHook</text>
</a>
</g>
</g>
<!-- Node0&#45;&gt;Node2 -->
<g id="edge3_Node000000_Node000002" class="edge">
<title>Node0&#45;&gt;Node2</title>
<g id="a_edge3_Node000000_Node000002"><a xlink:title=" ">
<path fill="none" stroke="#63b8ff" d="M162.24,-97.13C177.62,-98.95 193.5,-100.84 208.4,-102.61"/>
<polygon fill="#63b8ff" stroke="#63b8ff" points="162.56,-93.64 152.22,-95.94 161.73,-100.59 162.56,-93.64"/>
</a>
</g>
</g>
<!-- Node3 -->
<g id="Node000003" class="node">
<title>Node3</title>
<g id="a_Node000003"><a xlink:href="classpenify__hook_1_1folder__analyzer_1_1FolderAnalyzerGenHook.html" target="_top" xlink:title=" ">
<polygon fill="white" stroke="#666666" points="372,-78 188,-78 188,-48 372,-48 372,-78"/>
<text text-anchor="start" x="196" y="-66" font-family="Helvetica,sans-Serif" font-size="10.00">penify_hook.folder</text>
<text text-anchor="middle" x="280" y="-55" font-family="Helvetica,sans-Serif" font-size="10.00">_analyzer.FolderAnalyzerGenHook</text>
</a>
</g>
</g>
<!-- Node0&#45;&gt;Node3 -->
<g id="edge4_Node000000_Node000003" class="edge">
<title>Node0&#45;&gt;Node3</title>
<g id="a_edge4_Node000000_Node000003"><a xlink:title=" ">
<path fill="none" stroke="#63b8ff" d="M162.34,-76.86C170.71,-75.87 179.23,-74.85 187.66,-73.85"/>
<polygon fill="#63b8ff" stroke="#63b8ff" points="161.73,-73.41 152.22,-78.06 162.56,-80.36 161.73,-73.41"/>
</a>
</g>
</g>
<!-- Node4 -->
<g id="Node000004" class="node">
<title>Node4</title>
<g id="a_Node000004"><a xlink:href="classpenify__hook_1_1git__analyzer_1_1GitDocGenHook.html" target="_top" xlink:title=" ">
<polygon fill="white" stroke="#666666" points="350.5,-30 209.5,-30 209.5,0 350.5,0 350.5,-30"/>
<text text-anchor="start" x="217.5" y="-18" font-family="Helvetica,sans-Serif" font-size="10.00">penify_hook.git_analyzer.</text>
<text text-anchor="middle" x="280" y="-7" font-family="Helvetica,sans-Serif" font-size="10.00">GitDocGenHook</text>
</a>
</g>
</g>
<!-- Node0&#45;&gt;Node4 -->
<g id="edge5_Node000000_Node000004" class="edge">
<title>Node0&#45;&gt;Node4</title>
<g id="a_edge5_Node000000_Node000004"><a xlink:title=" ">
<path fill="none" stroke="#63b8ff" d="M117.71,-67.65C138.45,-58.24 164.25,-47.21 188,-39 197.26,-35.8 207.19,-32.77 216.95,-30.03"/>
<polygon fill="#63b8ff" stroke="#63b8ff" points="116.19,-64.49 108.56,-71.84 119.11,-70.86 116.19,-64.49"/>
</a>
</g>
</g>
</g>
</svg>
