<?xml version="1.0" encoding="UTF-8" standalone="no"?>
<!DOCTYPE svg PUBLIC "-//W3C//DTD SVG 1.1//EN"
 "http://www.w3.org/Graphics/SVG/1.1/DTD/svg11.dtd">
<!-- Generated by graphviz version 2.43.0 (0)
 -->
<!-- Title: Graphical Class Hierarchy Pages: 1 -->
<svg width="380pt" height="186pt"
 viewBox="0.00 0.00 380.00 186.00" xmlns="http://www.w3.org/2000/svg" xmlns:xlink="http://www.w3.org/1999/xlink">
<g id="graph0" class="graph" transform="scale(1 1) rotate(0) translate(4 182)">
<title>Graphical Class Hierarchy</title>
<polygon fill="white" stroke="transparent" points="-4,4 -4,-182 376,-182 376,4 -4,4"/>
<!-- Node0 -->
<g id="node1" class="node">
<title>Node0</title>
<g id="a_node1"><a xlink:href="classpenify__hook_1_1base__analyzer_1_1BaseAnalyzer.html" target="_top" xlink:title=" ">
<polygon fill="white" stroke="black" points="0,-73.5 0,-103.5 152,-103.5 152,-73.5 0,-73.5"/>
<text text-anchor="start" x="8" y="-91.5" font-family="Helvetica,sans-Serif" font-size="10.00">penify_hook.base_analyzer.</text>
<text text-anchor="middle" x="76" y="-80.5" font-family="Helvetica,sans-Serif" font-size="10.00">BaseAnalyzer</text>
</a>
</g>
</g>
<!-- Node1 -->
<g id="node2" class="node">
<title>Node1</title>
<g id="a_node2"><a xlink:href="classpenify__hook_1_1commit__analyzer_1_1CommitDocGenHook.html" target="_top" xlink:title=" ">
<polygon fill="white" stroke="black" points="195.5,-147.5 195.5,-177.5 364.5,-177.5 364.5,-147.5 195.5,-147.5"/>
<text text-anchor="start" x="203.5" y="-165.5" font-family="Helvetica,sans-Serif" font-size="10.00">penify_hook.commit</text>
<text text-anchor="middle" x="280" y="-154.5" font-family="Helvetica,sans-Serif" font-size="10.00">_analyzer.CommitDocGenHook</text>
</a>
</g>
</g>
<!-- Node0&#45;&gt;Node1 -->
<g id="edge1" class="edge">
<title>Node0&#45;&gt;Node1</title>
<path fill="none" stroke="midnightblue" d="M116.28,-108.11C137.23,-118.08 163.64,-129.87 188,-138.5 197.09,-141.72 206.82,-144.73 216.41,-147.46"/>
<polygon fill="midnightblue" stroke="midnightblue" points="117.6,-104.86 107.07,-103.68 114.56,-111.17 117.6,-104.86"/>
</g>
<!-- Node2 -->
<g id="node3" class="node">
<title>Node2</title>
<g id="a_node3"><a xlink:href="classpenify__hook_1_1file__analyzer_1_1FileAnalyzerGenHook.html" target="_top" xlink:title=" ">
<polygon fill="white" stroke="black" points="208.5,-98.5 208.5,-128.5 351.5,-128.5 351.5,-98.5 208.5,-98.5"/>
<text text-anchor="start" x="216.5" y="-116.5" font-family="Helvetica,sans-Serif" font-size="10.00">penify_hook.file_analyzer.</text>
<text text-anchor="middle" x="280" y="-105.5" font-family="Helvetica,sans-Serif" font-size="10.00">FileAnalyzerGenHook</text>
</a>
</g>
</g>
<!-- Node0&#45;&gt;Node2 -->
<g id="edge2" class="edge">
<title>Node0&#45;&gt;Node2</title>
<path fill="none" stroke="midnightblue" d="M162.24,-99.05C177.62,-100.95 193.5,-102.92 208.4,-104.76"/>
<polygon fill="midnightblue" stroke="midnightblue" points="162.57,-95.56 152.22,-97.81 161.71,-102.51 162.57,-95.56"/>
</g>
<!-- Node3 -->
<g id="node4" class="node">
<title>Node3</title>
<g id="a_node4"><a xlink:href="classpenify__hook_1_1folder__analyzer_1_1FolderAnalyzerGenHook.html" target="_top" xlink:title=" ">
<polygon fill="white" stroke="black" points="188,-49.5 188,-79.5 372,-79.5 372,-49.5 188,-49.5"/>
<text text-anchor="start" x="196" y="-67.5" font-family="Helvetica,sans-Serif" font-size="10.00">penify_hook.folder</text>
<text text-anchor="middle" x="280" y="-56.5" font-family="Helvetica,sans-Serif" font-size="10.00">_analyzer.FolderAnalyzerGenHook</text>
</a>
</g>
</g>
<!-- Node0&#45;&gt;Node3 -->
<g id="edge3" class="edge">
<title>Node0&#45;&gt;Node3</title>
<path fill="none" stroke="midnightblue" d="M162.34,-78.36C170.71,-77.37 179.23,-76.35 187.66,-75.35"/>
<polygon fill="midnightblue" stroke="midnightblue" points="161.73,-74.91 152.22,-79.56 162.56,-81.86 161.73,-74.91"/>
</g>
<!-- Node4 -->
<g id="node5" class="node">
<title>Node4</title>
<g id="a_node5"><a xlink:href="classpenify__hook_1_1git__analyzer_1_1GitDocGenHook.html" target="_top" xlink:title=" ">
<polygon fill="white" stroke="black" points="209.5,-0.5 209.5,-30.5 350.5,-30.5 350.5,-0.5 209.5,-0.5"/>
<text text-anchor="start" x="217.5" y="-18.5" font-family="Helvetica,sans-Serif" font-size="10.00">penify_hook.git_analyzer.</text>
<text text-anchor="middle" x="280" y="-7.5" font-family="Helvetica,sans-Serif" font-size="10.00">GitDocGenHook</text>
</a>
</g>
</g>
<!-- Node0&#45;&gt;Node4 -->
<g id="edge4" class="edge">
<title>Node0&#45;&gt;Node4</title>
<path fill="none" stroke="midnightblue" d="M117.74,-69.25C138.5,-59.87 164.3,-48.83 188,-40.5 198.05,-36.97 208.86,-33.62 219.4,-30.58"/>
<polygon fill="midnightblue" stroke="midnightblue" points="116.23,-66.1 108.59,-73.43 119.14,-72.46 116.23,-66.1"/>
</g>
</g>
</svg>
