<?xml version="1.0" encoding="UTF-8" standalone="no"?>
<!DOCTYPE svg PUBLIC "-//W3C//DTD SVG 1.1//EN"
 "http://www.w3.org/Graphics/SVG/1.1/DTD/svg11.dtd">
<!-- Generated by graphviz version 2.43.0 (0)
 -->
<!-- Title: penify_hook.commands.config_commands.get_llm_config Pages: 1 -->
<svg width="585pt" height="256pt"
 viewBox="0.00 0.00 585.00 256.00" xmlns="http://www.w3.org/2000/svg" xmlns:xlink="http://www.w3.org/1999/xlink">
<g id="graph0" class="graph" transform="scale(1 1) rotate(0) translate(4 252)">
<title>penify_hook.commands.config_commands.get_llm_config</title>
<polygon fill="white" stroke="transparent" points="-4,4 -4,-252 581,-252 581,4 -4,4"/>
<!-- Node1 -->
<g id="node1" class="node">
<title>Node1</title>
<g id="a_node1"><a xlink:title=" ">
<polygon fill="#bfbfbf" stroke="black" points="412,-96 412,-126 577,-126 577,-96 412,-96"/>
<text text-anchor="start" x="420" y="-114" font-family="Helvetica,sans-Serif" font-size="10.00">penify_hook.commands.config</text>
<text text-anchor="middle" x="494.5" y="-103" font-family="Helvetica,sans-Serif" font-size="10.00">_commands.get_llm_config</text>
</a>
</g>
</g>
<!-- Node2 -->
<g id="node2" class="node">
<title>Node2</title>
<g id="a_node2"><a xlink:href="namespacepenify__hook_1_1commands_1_1commit__commands.html#af4f739f524c38b437e4e47673d683e23" target="_top" xlink:title=" ">
<polygon fill="white" stroke="black" points="203,-181 203,-211 376,-211 376,-181 203,-181"/>
<text text-anchor="start" x="211" y="-199" font-family="Helvetica,sans-Serif" font-size="10.00">penify_hook.commands.commit</text>
<text text-anchor="middle" x="289.5" y="-188" font-family="Helvetica,sans-Serif" font-size="10.00">_commands.handle_commit</text>
</a>
</g>
</g>
<!-- Node1&#45;&gt;Node2 -->
<g id="edge1" class="edge">
<title>Node1&#45;&gt;Node2</title>
<path fill="none" stroke="midnightblue" d="M458.55,-131.04C435.6,-143.64 404.62,-159.62 376,-171 366.95,-174.6 357.17,-177.94 347.58,-180.93"/>
<polygon fill="midnightblue" stroke="midnightblue" points="460.51,-133.95 467.56,-126.04 457.12,-127.83 460.51,-133.95"/>
</g>
<!-- Node5 -->
<g id="node5" class="node">
<title>Node5</title>
<g id="a_node5"><a xlink:href="classtests_1_1test__config__commands_1_1TestConfigCommands.html#abd12f028b89aa9cd1152c0b9ece5d3cd" target="_top" xlink:title=" ">
<polygon fill="white" stroke="black" points="210,-120.5 210,-161.5 369,-161.5 369,-120.5 210,-120.5"/>
<text text-anchor="start" x="218" y="-149.5" font-family="Helvetica,sans-Serif" font-size="10.00">tests.test_config_commands.</text>
<text text-anchor="start" x="218" y="-138.5" font-family="Helvetica,sans-Serif" font-size="10.00">TestConfigCommands.test</text>
<text text-anchor="middle" x="289.5" y="-127.5" font-family="Helvetica,sans-Serif" font-size="10.00">_get_llm_config_empty</text>
</a>
</g>
</g>
<!-- Node1&#45;&gt;Node5 -->
<g id="edge5" class="edge">
<title>Node1&#45;&gt;Node5</title>
<path fill="none" stroke="midnightblue" d="M401.82,-124.55C390.88,-126.17 379.79,-127.8 369.06,-129.39"/>
<polygon fill="midnightblue" stroke="midnightblue" points="402.43,-128 411.81,-123.07 401.41,-121.07 402.43,-128"/>
</g>
<!-- Node6 -->
<g id="node6" class="node">
<title>Node6</title>
<g id="a_node6"><a xlink:href="classtests_1_1test__config__commands_1_1TestConfigCommands.html#adf9f2233a3f4cc5725b9d4f05758b167" target="_top" xlink:title=" ">
<polygon fill="white" stroke="black" points="210,-60.5 210,-101.5 369,-101.5 369,-60.5 210,-60.5"/>
<text text-anchor="start" x="218" y="-89.5" font-family="Helvetica,sans-Serif" font-size="10.00">tests.test_config_commands.</text>
<text text-anchor="start" x="218" y="-78.5" font-family="Helvetica,sans-Serif" font-size="10.00">TestConfigCommands.test</text>
<text text-anchor="middle" x="289.5" y="-67.5" font-family="Helvetica,sans-Serif" font-size="10.00">_get_llm_config_exists</text>
</a>
</g>
</g>
<!-- Node1&#45;&gt;Node6 -->
<g id="edge6" class="edge">
<title>Node1&#45;&gt;Node6</title>
<path fill="none" stroke="midnightblue" d="M401.82,-97.45C390.88,-95.83 379.79,-94.2 369.06,-92.61"/>
<polygon fill="midnightblue" stroke="midnightblue" points="401.41,-100.93 411.81,-98.93 402.43,-94 401.41,-100.93"/>
</g>
<!-- Node7 -->
<g id="node7" class="node">
<title>Node7</title>
<g id="a_node7"><a xlink:href="classtests_1_1test__config__commands_1_1TestConfigCommands.html#a473984d31452b56acd6ce4011a1248bd" target="_top" xlink:title=" ">
<polygon fill="white" stroke="black" points="210,-0.5 210,-41.5 369,-41.5 369,-0.5 210,-0.5"/>
<text text-anchor="start" x="218" y="-29.5" font-family="Helvetica,sans-Serif" font-size="10.00">tests.test_config_commands.</text>
<text text-anchor="start" x="218" y="-18.5" font-family="Helvetica,sans-Serif" font-size="10.00">TestConfigCommands.test</text>
<text text-anchor="middle" x="289.5" y="-7.5" font-family="Helvetica,sans-Serif" font-size="10.00">_get_llm_config_invalid_json</text>
</a>
</g>
</g>
<!-- Node1&#45;&gt;Node7 -->
<g id="edge7" class="edge">
<title>Node1&#45;&gt;Node7</title>
<path fill="none" stroke="midnightblue" d="M457.44,-90.99C434.49,-78.66 403.94,-62.97 376,-51 368.48,-47.78 360.49,-44.63 352.53,-41.65"/>
<polygon fill="midnightblue" stroke="midnightblue" points="456,-94.19 466.46,-95.87 459.33,-88.03 456,-94.19"/>
</g>
<!-- Node3 -->
<g id="node3" class="node">
<title>Node3</title>
<g id="a_node3"><a xlink:href="namespacepenify__hook_1_1main.html#a16838b20df4bd14ee4b5e1dd2906738f" target="_top" xlink:title=" ">
<polygon fill="white" stroke="black" points="18,-210.5 18,-229.5 149,-229.5 149,-210.5 18,-210.5"/>
<text text-anchor="middle" x="83.5" y="-217.5" font-family="Helvetica,sans-Serif" font-size="10.00">penify_hook.main.main</text>
</a>
</g>
</g>
<!-- Node2&#45;&gt;Node3 -->
<g id="edge2" class="edge">
<title>Node2&#45;&gt;Node3</title>
<path fill="none" stroke="midnightblue" d="M192.69,-207.27C177.93,-209.01 162.99,-210.77 149.12,-212.4"/>
<polygon fill="midnightblue" stroke="midnightblue" points="193.35,-210.72 202.87,-206.07 192.53,-203.77 193.35,-210.72"/>
</g>
<!-- Node4 -->
<g id="node4" class="node">
<title>Node4</title>
<g id="a_node4"><a xlink:href="classtests_1_1test__commit__commands_1_1TestCommitCommands.html#ac13e368262340af98b30fd8ebdac6597" target="_top" xlink:title=" ">
<polygon fill="white" stroke="black" points="0,-150.5 0,-191.5 167,-191.5 167,-150.5 0,-150.5"/>
<text text-anchor="start" x="8" y="-179.5" font-family="Helvetica,sans-Serif" font-size="10.00">tests.test_commit_commands.</text>
<text text-anchor="start" x="8" y="-168.5" font-family="Helvetica,sans-Serif" font-size="10.00">TestCommitCommands.test</text>
<text text-anchor="middle" x="83.5" y="-157.5" font-family="Helvetica,sans-Serif" font-size="10.00">_handle_commit</text>
</a>
</g>
</g>
<!-- Node2&#45;&gt;Node4 -->
<g id="edge4" class="edge">
<title>Node2&#45;&gt;Node4</title>
<path fill="none" stroke="midnightblue" d="M192.88,-184.28C184.33,-183.23 175.72,-182.18 167.3,-181.15"/>
<polygon fill="midnightblue" stroke="midnightblue" points="192.52,-187.76 202.87,-185.51 193.37,-180.82 192.52,-187.76"/>
</g>
<!-- Node3&#45;&gt;Node3 -->
<g id="edge3" class="edge">
<title>Node3&#45;&gt;Node3</title>
<path fill="none" stroke="midnightblue" d="M122.11,-237.11C122.68,-243.13 109.82,-248 83.5,-248 46.89,-248 36.3,-238.57 51.75,-229.76"/>
<polygon fill="midnightblue" stroke="midnightblue" points="124.63,-234.69 115.25,-229.76 119.51,-239.46 124.63,-234.69"/>
</g>
</g>
</svg>
