<?xml version="1.0" encoding="UTF-8" standalone="no"?>
<!DOCTYPE svg PUBLIC "-//W3C//DTD SVG 1.1//EN"
 "http://www.w3.org/Graphics/SVG/1.1/DTD/svg11.dtd">
<!-- Generated by graphviz version 2.43.0 (0)
 -->
<!-- Title: penify_hook.commands.config_commands.save_jira_config Pages: 1 -->
<svg width="357pt" height="57pt"
 viewBox="0.00 0.00 357.00 57.00" xmlns="http://www.w3.org/2000/svg" xmlns:xlink="http://www.w3.org/1999/xlink">
<g id="graph0" class="graph" transform="scale(1 1) rotate(0) translate(4 53)">
<title>penify_hook.commands.config_commands.save_jira_config</title>
<polygon fill="white" stroke="transparent" points="-4,4 -4,-53 353,-53 353,4 -4,4"/>
<!-- Node1 -->
<g id="node1" class="node">
<title>Node1</title>
<g id="a_node1"><a xlink:title=" ">
<polygon fill="#bfbfbf" stroke="black" points="0,-0.5 0,-30.5 165,-30.5 165,-0.5 0,-0.5"/>
<text text-anchor="start" x="8" y="-18.5" font-family="Helvetica,sans-Serif" font-size="10.00">penify_hook.commands.config</text>
<text text-anchor="middle" x="82.5" y="-7.5" font-family="Helvetica,sans-Serif" font-size="10.00">_commands.save_jira_config</text>
</a>
</g>
</g>
<!-- Node2 -->
<g id="node2" class="node">
<title>Node2</title>
<g id="a_node2"><a xlink:href="namespacepenify__hook_1_1utils.html#a95c3f9c80860d6a2e2d061d2fb660a3f" target="_top" xlink:title=" ">
<polygon fill="white" stroke="black" points="201,-0.5 201,-30.5 349,-30.5 349,-0.5 201,-0.5"/>
<text text-anchor="start" x="209" y="-18.5" font-family="Helvetica,sans-Serif" font-size="10.00">penify_hook.utils.recursive</text>
<text text-anchor="middle" x="275" y="-7.5" font-family="Helvetica,sans-Serif" font-size="10.00">_search_git_folder</text>
</a>
</g>
</g>
<!-- Node1&#45;&gt;Node2 -->
<g id="edge1" class="edge">
<title>Node1&#45;&gt;Node2</title>
<path fill="none" stroke="midnightblue" d="M165.12,-15.5C173.59,-15.5 182.21,-15.5 190.7,-15.5"/>
<polygon fill="midnightblue" stroke="midnightblue" points="190.97,-19 200.97,-15.5 190.97,-12 190.97,-19"/>
</g>
<!-- Node2&#45;&gt;Node2 -->
<g id="edge2" class="edge">
<title>Node2&#45;&gt;Node2</title>
<path fill="none" stroke="midnightblue" d="M241.54,-30.66C233.47,-40.06 244.62,-49 275,-49 293.51,-49 304.88,-45.68 309.12,-40.96"/>
<polygon fill="midnightblue" stroke="midnightblue" points="312.59,-40.42 308.46,-30.66 305.6,-40.86 312.59,-40.42"/>
</g>
</g>
</svg>
