<?xml version="1.0" encoding="UTF-8" standalone="no"?>
<!DOCTYPE svg PUBLIC "-//W3C//DTD SVG 1.1//EN"
 "http://www.w3.org/Graphics/SVG/1.1/DTD/svg11.dtd">
<!-- Generated by graphviz version 2.43.0 (0)
 -->
<!-- Title: penify_hook.commands.commit_commands.commit_code Pages: 1 -->
<svg width="614pt" height="328pt"
 viewBox="0.00 0.00 614.00 328.00" xmlns="http://www.w3.org/2000/svg" xmlns:xlink="http://www.w3.org/1999/xlink">
<g id="graph0" class="graph" transform="scale(1 1) rotate(0) translate(4 324)">
<title>penify_hook.commands.commit_commands.commit_code</title>
<polygon fill="white" stroke="transparent" points="-4,4 -4,-324 610,-324 610,4 -4,4"/>
<!-- Node1 -->
<g id="node1" class="node">
<title>Node1</title>
<g id="a_node1"><a xlink:title=" ">
<polygon fill="#bfbfbf" stroke="black" points="433,-138 433,-168 606,-168 606,-138 433,-138"/>
<text text-anchor="start" x="441" y="-156" font-family="Helvetica,sans-Serif" font-size="10.00">penify_hook.commands.commit</text>
<text text-anchor="middle" x="519.5" y="-145" font-family="Helvetica,sans-Serif" font-size="10.00">_commands.commit_code</text>
</a>
</g>
</g>
<!-- Node2 -->
<g id="node2" class="node">
<title>Node2</title>
<g id="a_node2"><a xlink:href="namespacepenify__hook_1_1commands_1_1commit__commands.html#af4f739f524c38b437e4e47673d683e23" target="_top" xlink:title=" ">
<polygon fill="white" stroke="black" points="213.5,-253 213.5,-283 386.5,-283 386.5,-253 213.5,-253"/>
<text text-anchor="start" x="221.5" y="-271" font-family="Helvetica,sans-Serif" font-size="10.00">penify_hook.commands.commit</text>
<text text-anchor="middle" x="300" y="-260" font-family="Helvetica,sans-Serif" font-size="10.00">_commands.handle_commit</text>
</a>
</g>
</g>
<!-- Node1&#45;&gt;Node2 -->
<g id="edge1" class="edge">
<title>Node1&#45;&gt;Node2</title>
<path fill="none" stroke="midnightblue" d="M494.92,-174.82C471.66,-195.23 434.28,-225.17 397,-243 389,-246.83 380.33,-250.13 371.59,-252.95"/>
<polygon fill="midnightblue" stroke="midnightblue" points="497.39,-177.3 502.53,-168.03 492.74,-172.07 497.39,-177.3"/>
</g>
<!-- Node5 -->
<g id="node5" class="node">
<title>Node5</title>
<g id="a_node5"><a xlink:href="classtests_1_1test__commit__commands_1_1TestCommitCommands.html#a43c2ff3707124aa48e8eb581106b8691" target="_top" xlink:title=" ">
<polygon fill="white" stroke="black" points="216.5,-192.5 216.5,-233.5 383.5,-233.5 383.5,-192.5 216.5,-192.5"/>
<text text-anchor="start" x="224.5" y="-221.5" font-family="Helvetica,sans-Serif" font-size="10.00">tests.test_commit_commands.</text>
<text text-anchor="start" x="224.5" y="-210.5" font-family="Helvetica,sans-Serif" font-size="10.00">TestCommitCommands.test</text>
<text text-anchor="middle" x="300" y="-199.5" font-family="Helvetica,sans-Serif" font-size="10.00">_commit_code_error_handling</text>
</a>
</g>
</g>
<!-- Node1&#45;&gt;Node5 -->
<g id="edge5" class="edge">
<title>Node1&#45;&gt;Node5</title>
<path fill="none" stroke="midnightblue" d="M454.25,-170.73C429.48,-177.56 401,-185.42 375.35,-192.49"/>
<polygon fill="midnightblue" stroke="midnightblue" points="455.19,-174.1 463.9,-168.06 453.33,-167.35 455.19,-174.1"/>
</g>
<!-- Node6 -->
<g id="node6" class="node">
<title>Node6</title>
<g id="a_node6"><a xlink:href="classtests_1_1test__commit__commands_1_1TestCommitCommands.html#af9c09013055ec39ddde86b487aefcf8b" target="_top" xlink:title=" ">
<polygon fill="white" stroke="black" points="216.5,-132.5 216.5,-173.5 383.5,-173.5 383.5,-132.5 216.5,-132.5"/>
<text text-anchor="start" x="224.5" y="-161.5" font-family="Helvetica,sans-Serif" font-size="10.00">tests.test_commit_commands.</text>
<text text-anchor="start" x="224.5" y="-150.5" font-family="Helvetica,sans-Serif" font-size="10.00">TestCommitCommands.test</text>
<text text-anchor="middle" x="300" y="-139.5" font-family="Helvetica,sans-Serif" font-size="10.00">_commit_code_with_jira_client</text>
</a>
</g>
</g>
<!-- Node1&#45;&gt;Node6 -->
<g id="edge6" class="edge">
<title>Node1&#45;&gt;Node6</title>
<path fill="none" stroke="midnightblue" d="M422.54,-153C409.6,-153 396.41,-153 383.73,-153"/>
<polygon fill="midnightblue" stroke="midnightblue" points="422.85,-156.5 432.85,-153 422.85,-149.5 422.85,-156.5"/>
</g>
<!-- Node7 -->
<g id="node7" class="node">
<title>Node7</title>
<g id="a_node7"><a xlink:href="classtests_1_1test__commit__commands_1_1TestCommitCommands.html#acea0d934ee0f2b914b0b893736e8fe4e" target="_top" xlink:title=" ">
<polygon fill="white" stroke="black" points="203,-61 203,-113 397,-113 397,-61 203,-61"/>
<text text-anchor="start" x="211" y="-101" font-family="Helvetica,sans-Serif" font-size="10.00">tests.test_commit_commands.</text>
<text text-anchor="start" x="211" y="-90" font-family="Helvetica,sans-Serif" font-size="10.00">TestCommitCommands.test</text>
<text text-anchor="start" x="211" y="-79" font-family="Helvetica,sans-Serif" font-size="10.00">_commit_code_with_jira_connection</text>
<text text-anchor="middle" x="300" y="-68" font-family="Helvetica,sans-Serif" font-size="10.00">_failure</text>
</a>
</g>
</g>
<!-- Node1&#45;&gt;Node7 -->
<g id="edge7" class="edge">
<title>Node1&#45;&gt;Node7</title>
<path fill="none" stroke="midnightblue" d="M459.2,-135.01C436.85,-128.22 410.97,-120.37 386.68,-113"/>
<polygon fill="midnightblue" stroke="midnightblue" points="458.29,-138.39 468.87,-137.94 460.32,-131.69 458.29,-138.39"/>
</g>
<!-- Node8 -->
<g id="node8" class="node">
<title>Node8</title>
<g id="a_node8"><a xlink:href="classtests_1_1test__commit__commands_1_1TestCommitCommands.html#acc4b1e4189792a3f7c11d2a745f479c0" target="_top" xlink:title=" ">
<polygon fill="white" stroke="black" points="216.5,-0.5 216.5,-41.5 383.5,-41.5 383.5,-0.5 216.5,-0.5"/>
<text text-anchor="start" x="224.5" y="-29.5" font-family="Helvetica,sans-Serif" font-size="10.00">tests.test_commit_commands.</text>
<text text-anchor="start" x="224.5" y="-18.5" font-family="Helvetica,sans-Serif" font-size="10.00">TestCommitCommands.test</text>
<text text-anchor="middle" x="300" y="-7.5" font-family="Helvetica,sans-Serif" font-size="10.00">_commit_code_with_llm_client</text>
</a>
</g>
</g>
<!-- Node1&#45;&gt;Node8 -->
<g id="edge8" class="edge">
<title>Node1&#45;&gt;Node8</title>
<path fill="none" stroke="midnightblue" d="M497.1,-130.38C474.27,-107.45 436.07,-72.38 397,-51 390.64,-47.52 383.82,-44.38 376.86,-41.56"/>
<polygon fill="midnightblue" stroke="midnightblue" points="494.73,-132.97 504.23,-137.66 499.73,-128.07 494.73,-132.97"/>
</g>
<!-- Node3 -->
<g id="node3" class="node">
<title>Node3</title>
<g id="a_node3"><a xlink:href="namespacepenify__hook_1_1main.html#a16838b20df4bd14ee4b5e1dd2906738f" target="_top" xlink:title=" ">
<polygon fill="white" stroke="black" points="18,-282.5 18,-301.5 149,-301.5 149,-282.5 18,-282.5"/>
<text text-anchor="middle" x="83.5" y="-289.5" font-family="Helvetica,sans-Serif" font-size="10.00">penify_hook.main.main</text>
</a>
</g>
</g>
<!-- Node2&#45;&gt;Node3 -->
<g id="edge2" class="edge">
<title>Node2&#45;&gt;Node3</title>
<path fill="none" stroke="midnightblue" d="M203.22,-278.72C184.96,-280.76 166.25,-282.85 149.25,-284.76"/>
<polygon fill="midnightblue" stroke="midnightblue" points="203.75,-282.18 213.3,-277.59 202.97,-275.22 203.75,-282.18"/>
</g>
<!-- Node4 -->
<g id="node4" class="node">
<title>Node4</title>
<g id="a_node4"><a xlink:href="classtests_1_1test__commit__commands_1_1TestCommitCommands.html#ac13e368262340af98b30fd8ebdac6597" target="_top" xlink:title=" ">
<polygon fill="white" stroke="black" points="0,-222.5 0,-263.5 167,-263.5 167,-222.5 0,-222.5"/>
<text text-anchor="start" x="8" y="-251.5" font-family="Helvetica,sans-Serif" font-size="10.00">tests.test_commit_commands.</text>
<text text-anchor="start" x="8" y="-240.5" font-family="Helvetica,sans-Serif" font-size="10.00">TestCommitCommands.test</text>
<text text-anchor="middle" x="83.5" y="-229.5" font-family="Helvetica,sans-Serif" font-size="10.00">_handle_commit</text>
</a>
</g>
</g>
<!-- Node2&#45;&gt;Node4 -->
<g id="edge4" class="edge">
<title>Node2&#45;&gt;Node4</title>
<path fill="none" stroke="midnightblue" d="M203.27,-256.84C191.26,-255.44 179.06,-254.02 167.27,-252.65"/>
<polygon fill="midnightblue" stroke="midnightblue" points="202.96,-260.33 213.3,-258.01 203.77,-253.38 202.96,-260.33"/>
</g>
<!-- Node3&#45;&gt;Node3 -->
<g id="edge3" class="edge">
<title>Node3&#45;&gt;Node3</title>
<path fill="none" stroke="midnightblue" d="M123.9,-308.62C125.31,-314.86 111.85,-320 83.5,-320 44.9,-320 33.89,-310.46 50.48,-301.61"/>
<polygon fill="midnightblue" stroke="midnightblue" points="126.18,-305.96 116.52,-301.61 121.36,-311.04 126.18,-305.96"/>
</g>
</g>
</svg>
