<?xml version="1.0" encoding="UTF-8" standalone="no"?>
<!DOCTYPE svg PUBLIC "-//W3C//DTD SVG 1.1//EN"
 "http://www.w3.org/Graphics/SVG/1.1/DTD/svg11.dtd">
<!-- Generated by graphviz version 2.43.0 (0)
 -->
<!-- Title: penify_hook.utils.recursive_search_git_folder Pages: 1 -->
<!--zoomable 934 -->
<svg id="main" version="1.1" xmlns="http://www.w3.org/2000/svg" xmlns:xlink="http://www.w3.org/1999/xlink" xml:space="preserve" onload="init(evt)">
<style type="text/css"><![CDATA[
.edge:hover path { stroke: red; }
.edge:hover polygon { stroke: red; fill: red; }
]]></style>
<script type="text/javascript"><![CDATA[
var edges = document.getElementsByTagName('g');
if (edges && edges.length) {
  for (var i=0;i<edges.length;i++) {
    if (edges[i].id.substr(0,4)=='edge') {
      edges[i].setAttribute('class','edge');
    }
  }
}
]]></script>
        <defs>
                <circle id="rim" cx="0" cy="0" r="7"/>
                <circle id="rim2" cx="0" cy="0" r="3.5"/>
                <g id="zoomPlus">
                        <use xlink:href="#rim" fill="#404040">
                                <set attributeName="fill" to="#808080" begin="zoomplus.mouseover" end="zoomplus.mouseout"/>
                        </use>
                        <path d="M-4,0h8M0,-4v8" fill="none" stroke="white" stroke-width="1.5" pointer-events="none"/>
                </g>
                <g id="zoomMin">
                        <use xlink:href="#rim" fill="#404040">
                                <set attributeName="fill" to="#808080" begin="zoomminus.mouseover" end="zoomminus.mouseout"/>
                        </use>
                        <path d="M-4,0h8" fill="none" stroke="white" stroke-width="1.5" pointer-events="none"/>
                </g>
                <g id="dirArrow">
                        <path fill="none" stroke="white" stroke-width="1.5" d="M0,-3.0v7 M-2.5,-0.5L0,-3.0L2.5,-0.5"/>
                </g>
               <g id="resetDef">
                       <use xlink:href="#rim2" fill="#404040">
                               <set attributeName="fill" to="#808080" begin="reset.mouseover" end="reset.mouseout"/>
                       </use>
               </g>
        </defs>

<script type="text/javascript">
var viewWidth = 1200;
var viewHeight = 934;
var sectionId = 'dynsection-1';
</script>
<script xlink:href="svgpan.js"/>
<svg id="graph" class="graph">
<g id="viewport">
<title>penify_hook.utils.recursive_search_git_folder</title>
<polygon fill="white" stroke="transparent" points="-4,4 -4,-929.5 1196,-929.5 1196,4 -4,4"/>
<!-- Node1 -->
<g id="node1" class="node">
<title>Node1</title>
<g id="a_node1"><a xlink:title=" ">
<polygon fill="#bfbfbf" stroke="black" points="1044,-430 1044,-460 1192,-460 1192,-430 1044,-430"/>
<text text-anchor="start" x="1052" y="-448" font-family="Helvetica,sans-Serif" font-size="10.00">penify_hook.utils.recursive</text>
<text text-anchor="middle" x="1118" y="-437" font-family="Helvetica,sans-Serif" font-size="10.00">_search_git_folder</text>
</a>
</g>
</g>
<!-- Node1&#45;&gt;Node1 -->
<g id="edge39" class="edge">
<title>Node1&#45;&gt;Node1</title>
<path fill="none" stroke="midnightblue" d="M1152.83,-470.46C1148.5,-475.18 1136.9,-478.5 1118,-478.5 1086.99,-478.5 1075.61,-469.56 1083.84,-460.16"/>
<polygon fill="midnightblue" stroke="midnightblue" points="1156.3,-469.91 1152.16,-460.16 1149.31,-470.37 1156.3,-469.91"/>
</g>
<!-- Node2 -->
<g id="node2" class="node">
<title>Node2</title>
<g id="a_node2"><a xlink:href="namespacepenify__hook_1_1commands_1_1commit__commands.html#a62564c4e8ad59fc46d56cb0f9122a71a" target="_top" xlink:title=" ">
<polygon fill="white" stroke="black" points="835,-681 835,-711 1008,-711 1008,-681 835,-681"/>
<text text-anchor="start" x="843" y="-699" font-family="Helvetica,sans-Serif" font-size="10.00">penify_hook.commands.commit</text>
<text text-anchor="middle" x="921.5" y="-688" font-family="Helvetica,sans-Serif" font-size="10.00">_commands.commit_code</text>
</a>
</g>
</g>
<!-- Node1&#45;&gt;Node2 -->
<g id="edge1" class="edge">
<title>Node1&#45;&gt;Node2</title>
<path fill="none" stroke="midnightblue" d="M1098.84,-468.44C1059.42,-519.31 966.93,-638.66 934.22,-680.88"/>
<polygon fill="midnightblue" stroke="midnightblue" points="1101.77,-470.37 1105.13,-460.32 1096.23,-466.08 1101.77,-470.37"/>
</g>
<!-- Node10 -->
<g id="node10" class="node">
<title>Node10</title>
<g id="a_node10"><a xlink:href="namespacepenify__hook_1_1commands_1_1config__commands.html#a6559a82d0bf727703d550d1003d3ed20" target="_top" xlink:title=" ">
<polygon fill="white" stroke="black" points="839,-488 839,-518 1004,-518 1004,-488 839,-488"/>
<text text-anchor="start" x="847" y="-506" font-family="Helvetica,sans-Serif" font-size="10.00">penify_hook.commands.config</text>
<text text-anchor="middle" x="921.5" y="-495" font-family="Helvetica,sans-Serif" font-size="10.00">_commands.get_penify_config</text>
</a>
</g>
</g>
<!-- Node1&#45;&gt;Node10 -->
<g id="edge10" class="edge">
<title>Node1&#45;&gt;Node10</title>
<path fill="none" stroke="midnightblue" d="M1056.96,-462.9C1030.05,-470.93 998.65,-480.29 972.97,-487.95"/>
<polygon fill="midnightblue" stroke="midnightblue" points="1058.08,-466.22 1066.66,-460.01 1056.08,-459.52 1058.08,-466.22"/>
</g>
<!-- Node22 -->
<g id="node22" class="node">
<title>Node22</title>
<g id="a_node22"><a xlink:href="namespacepenify__hook_1_1commands_1_1config__commands.html#aabe277132ce0bc0aacef951cf1dee2ae" target="_top" xlink:title=" ">
<polygon fill="white" stroke="black" points="839,-397 839,-427 1004,-427 1004,-397 839,-397"/>
<text text-anchor="start" x="847" y="-415" font-family="Helvetica,sans-Serif" font-size="10.00">penify_hook.commands.config</text>
<text text-anchor="middle" x="921.5" y="-404" font-family="Helvetica,sans-Serif" font-size="10.00">_commands.load_env_files</text>
</a>
</g>
</g>
<!-- Node1&#45;&gt;Node22 -->
<g id="edge24" class="edge">
<title>Node1&#45;&gt;Node22</title>
<path fill="none" stroke="midnightblue" d="M1033.65,-430.86C1023.87,-429.2 1013.91,-427.51 1004.16,-425.86"/>
<polygon fill="midnightblue" stroke="midnightblue" points="1033.3,-434.35 1043.75,-432.57 1034.47,-427.45 1033.3,-434.35"/>
</g>
<!-- Node32 -->
<g id="node32" class="node">
<title>Node32</title>
<g id="a_node32"><a xlink:href="namespacepenify__hook_1_1commands_1_1auth__commands.html#aa3956ca1749d4218ea1dc6e5b6218b24" target="_top" xlink:title=" ">
<polygon fill="white" stroke="black" points="841,-829 841,-859 1002,-859 1002,-829 841,-829"/>
<text text-anchor="start" x="849" y="-847" font-family="Helvetica,sans-Serif" font-size="10.00">penify_hook.commands.auth</text>
<text text-anchor="middle" x="921.5" y="-836" font-family="Helvetica,sans-Serif" font-size="10.00">_commands.save_credentials</text>
</a>
</g>
</g>
<!-- Node1&#45;&gt;Node32 -->
<g id="edge40" class="edge">
<title>Node1&#45;&gt;Node32</title>
<path fill="none" stroke="midnightblue" d="M1109.24,-469.92C1093.43,-519.22 1054.99,-632 1008,-720 985.83,-761.52 952.56,-805.96 934.77,-828.68"/>
<polygon fill="midnightblue" stroke="midnightblue" points="1112.65,-470.72 1112.34,-460.13 1105.98,-468.61 1112.65,-470.72"/>
</g>
<!-- Node35 -->
<g id="node35" class="node">
<title>Node35</title>
<g id="a_node35"><a xlink:href="namespacepenify__hook_1_1commands_1_1config__commands.html#ab2486ac2bf16b4a671e49625bfa4f9b4" target="_top" xlink:title=" ">
<polygon fill="white" stroke="black" points="619.5,-235 619.5,-265 784.5,-265 784.5,-235 619.5,-235"/>
<text text-anchor="start" x="627.5" y="-253" font-family="Helvetica,sans-Serif" font-size="10.00">penify_hook.commands.config</text>
<text text-anchor="middle" x="702" y="-242" font-family="Helvetica,sans-Serif" font-size="10.00">_commands.save_jira_config</text>
</a>
</g>
</g>
<!-- Node1&#45;&gt;Node35 -->
<g id="edge44" class="edge">
<title>Node1&#45;&gt;Node35</title>
<path fill="none" stroke="midnightblue" d="M1081,-425.07C1059.91,-413.58 1032.65,-399.08 1008,-387 911.83,-339.88 795.86,-289.52 738.58,-265.06"/>
<polygon fill="midnightblue" stroke="midnightblue" points="1079.48,-428.22 1089.94,-429.95 1082.84,-422.08 1079.48,-428.22"/>
</g>
<!-- Node37 -->
<g id="node37" class="node">
<title>Node37</title>
<g id="a_node37"><a xlink:href="namespacepenify__hook_1_1commands_1_1config__commands.html#a4617bc5956e502c9555dc0dda0376df4" target="_top" xlink:title=" ">
<polygon fill="white" stroke="black" points="839,-91 839,-121 1004,-121 1004,-91 839,-91"/>
<text text-anchor="start" x="847" y="-109" font-family="Helvetica,sans-Serif" font-size="10.00">penify_hook.commands.config</text>
<text text-anchor="middle" x="921.5" y="-98" font-family="Helvetica,sans-Serif" font-size="10.00">_commands.save_llm_config</text>
</a>
</g>
</g>
<!-- Node1&#45;&gt;Node37 -->
<g id="edge48" class="edge">
<title>Node1&#45;&gt;Node37</title>
<path fill="none" stroke="midnightblue" d="M1103.36,-421.22C1065.87,-355.89 962.04,-174.92 931.23,-121.22"/>
<polygon fill="midnightblue" stroke="midnightblue" points="1100.38,-423.06 1108.39,-430 1106.45,-419.58 1100.38,-423.06"/>
</g>
<!-- Node3 -->
<g id="node3" class="node">
<title>Node3</title>
<g id="a_node3"><a xlink:href="namespacepenify__hook_1_1commands_1_1commit__commands.html#af4f739f524c38b437e4e47673d683e23" target="_top" xlink:title=" ">
<polygon fill="white" stroke="black" points="396,-547 396,-577 569,-577 569,-547 396,-547"/>
<text text-anchor="start" x="404" y="-565" font-family="Helvetica,sans-Serif" font-size="10.00">penify_hook.commands.commit</text>
<text text-anchor="middle" x="482.5" y="-554" font-family="Helvetica,sans-Serif" font-size="10.00">_commands.handle_commit</text>
</a>
</g>
</g>
<!-- Node2&#45;&gt;Node3 -->
<g id="edge2" class="edge">
<title>Node2&#45;&gt;Node3</title>
<path fill="none" stroke="midnightblue" d="M903.66,-672.71C882.62,-645.7 843.86,-602.38 799,-583 726.06,-551.49 634.73,-548.9 569.14,-552.6"/>
<polygon fill="midnightblue" stroke="midnightblue" points="901.02,-675.02 909.86,-680.86 906.59,-670.78 901.02,-675.02"/>
</g>
<!-- Node6 -->
<g id="node6" class="node">
<title>Node6</title>
<g id="a_node6"><a xlink:href="classtests_1_1test__commit__commands_1_1TestCommitCommands.html#a43c2ff3707124aa48e8eb581106b8691" target="_top" xlink:title=" ">
<polygon fill="white" stroke="black" points="618.5,-834.5 618.5,-875.5 785.5,-875.5 785.5,-834.5 618.5,-834.5"/>
<text text-anchor="start" x="626.5" y="-863.5" font-family="Helvetica,sans-Serif" font-size="10.00">tests.test_commit_commands.</text>
<text text-anchor="start" x="626.5" y="-852.5" font-family="Helvetica,sans-Serif" font-size="10.00">TestCommitCommands.test</text>
<text text-anchor="middle" x="702" y="-841.5" font-family="Helvetica,sans-Serif" font-size="10.00">_commit_code_error_handling</text>
</a>
</g>
</g>
<!-- Node2&#45;&gt;Node6 -->
<g id="edge6" class="edge">
<title>Node2&#45;&gt;Node6</title>
<path fill="none" stroke="midnightblue" d="M904.4,-719.39C883.37,-748.24 843.91,-796.9 799,-825 793.37,-828.52 787.3,-831.66 781.05,-834.44"/>
<polygon fill="midnightblue" stroke="midnightblue" points="907.35,-721.29 910.32,-711.12 901.65,-717.21 907.35,-721.29"/>
</g>
<!-- Node7 -->
<g id="node7" class="node">
<title>Node7</title>
<g id="a_node7"><a xlink:href="classtests_1_1test__commit__commands_1_1TestCommitCommands.html#af9c09013055ec39ddde86b487aefcf8b" target="_top" xlink:title=" ">
<polygon fill="white" stroke="black" points="618.5,-774.5 618.5,-815.5 785.5,-815.5 785.5,-774.5 618.5,-774.5"/>
<text text-anchor="start" x="626.5" y="-803.5" font-family="Helvetica,sans-Serif" font-size="10.00">tests.test_commit_commands.</text>
<text text-anchor="start" x="626.5" y="-792.5" font-family="Helvetica,sans-Serif" font-size="10.00">TestCommitCommands.test</text>
<text text-anchor="middle" x="702" y="-781.5" font-family="Helvetica,sans-Serif" font-size="10.00">_commit_code_with_jira_client</text>
</a>
</g>
</g>
<!-- Node2&#45;&gt;Node7 -->
<g id="edge7" class="edge">
<title>Node2&#45;&gt;Node7</title>
<path fill="none" stroke="midnightblue" d="M887.88,-716.59C863.92,-731.13 830.24,-750.37 799,-764 790.49,-767.71 781.39,-771.21 772.31,-774.44"/>
<polygon fill="midnightblue" stroke="midnightblue" points="889.86,-719.48 896.56,-711.27 886.21,-713.51 889.86,-719.48"/>
</g>
<!-- Node8 -->
<g id="node8" class="node">
<title>Node8</title>
<g id="a_node8"><a xlink:href="classtests_1_1test__commit__commands_1_1TestCommitCommands.html#acea0d934ee0f2b914b0b893736e8fe4e" target="_top" xlink:title=" ">
<polygon fill="white" stroke="black" points="605,-703 605,-755 799,-755 799,-703 605,-703"/>
<text text-anchor="start" x="613" y="-743" font-family="Helvetica,sans-Serif" font-size="10.00">tests.test_commit_commands.</text>
<text text-anchor="start" x="613" y="-732" font-family="Helvetica,sans-Serif" font-size="10.00">TestCommitCommands.test</text>
<text text-anchor="start" x="613" y="-721" font-family="Helvetica,sans-Serif" font-size="10.00">_commit_code_with_jira_connection</text>
<text text-anchor="middle" x="702" y="-710" font-family="Helvetica,sans-Serif" font-size="10.00">_failure</text>
</a>
</g>
</g>
<!-- Node2&#45;&gt;Node8 -->
<g id="edge8" class="edge">
<title>Node2&#45;&gt;Node8</title>
<path fill="none" stroke="midnightblue" d="M824.95,-710.5C816.45,-711.79 807.85,-713.09 799.36,-714.38"/>
<polygon fill="midnightblue" stroke="midnightblue" points="825.49,-713.96 834.85,-709 824.44,-707.03 825.49,-713.96"/>
</g>
<!-- Node9 -->
<g id="node9" class="node">
<title>Node9</title>
<g id="a_node9"><a xlink:href="classtests_1_1test__commit__commands_1_1TestCommitCommands.html#acc4b1e4189792a3f7c11d2a745f479c0" target="_top" xlink:title=" ">
<polygon fill="white" stroke="black" points="618.5,-642.5 618.5,-683.5 785.5,-683.5 785.5,-642.5 618.5,-642.5"/>
<text text-anchor="start" x="626.5" y="-671.5" font-family="Helvetica,sans-Serif" font-size="10.00">tests.test_commit_commands.</text>
<text text-anchor="start" x="626.5" y="-660.5" font-family="Helvetica,sans-Serif" font-size="10.00">TestCommitCommands.test</text>
<text text-anchor="middle" x="702" y="-649.5" font-family="Helvetica,sans-Serif" font-size="10.00">_commit_code_with_llm_client</text>
</a>
</g>
</g>
<!-- Node2&#45;&gt;Node9 -->
<g id="edge9" class="edge">
<title>Node2&#45;&gt;Node9</title>
<path fill="none" stroke="midnightblue" d="M824.92,-681.5C811.86,-679.52 798.54,-677.5 785.73,-675.55"/>
<polygon fill="midnightblue" stroke="midnightblue" points="824.44,-684.97 834.85,-683 825.49,-678.04 824.44,-684.97"/>
</g>
<!-- Node4 -->
<g id="node4" class="node">
<title>Node4</title>
<g id="a_node4"><a xlink:href="namespacepenify__hook_1_1main.html#a16838b20df4bd14ee4b5e1dd2906738f" target="_top" xlink:title=" ">
<polygon fill="white" stroke="black" points="0,-508.5 0,-527.5 131,-527.5 131,-508.5 0,-508.5"/>
<text text-anchor="middle" x="65.5" y="-515.5" font-family="Helvetica,sans-Serif" font-size="10.00">penify_hook.main.main</text>
</a>
</g>
</g>
<!-- Node3&#45;&gt;Node4 -->
<g id="edge3" class="edge">
<title>Node3&#45;&gt;Node4</title>
<path fill="none" stroke="midnightblue" d="M405.06,-542.57C401.91,-540.86 398.87,-539.01 396,-537 373.86,-521.5 384.11,-500.2 360,-488 267.46,-441.16 137.68,-487.19 87.47,-508.48"/>
<polygon fill="midnightblue" stroke="midnightblue" points="403.65,-545.78 414.18,-546.99 406.71,-539.48 403.65,-545.78"/>
</g>
<!-- Node5 -->
<g id="node5" class="node">
<title>Node5</title>
<g id="a_node5"><a xlink:href="classtests_1_1test__commit__commands_1_1TestCommitCommands.html#ac13e368262340af98b30fd8ebdac6597" target="_top" xlink:title=" ">
<polygon fill="white" stroke="black" points="180,-497.5 180,-538.5 347,-538.5 347,-497.5 180,-497.5"/>
<text text-anchor="start" x="188" y="-526.5" font-family="Helvetica,sans-Serif" font-size="10.00">tests.test_commit_commands.</text>
<text text-anchor="start" x="188" y="-515.5" font-family="Helvetica,sans-Serif" font-size="10.00">TestCommitCommands.test</text>
<text text-anchor="middle" x="263.5" y="-504.5" font-family="Helvetica,sans-Serif" font-size="10.00">_handle_commit</text>
</a>
</g>
</g>
<!-- Node3&#45;&gt;Node5 -->
<g id="edge5" class="edge">
<title>Node3&#45;&gt;Node5</title>
<path fill="none" stroke="midnightblue" d="M397.29,-544.93C380.83,-541.59 363.59,-538.09 347.17,-534.76"/>
<polygon fill="midnightblue" stroke="midnightblue" points="396.93,-548.42 407.43,-546.98 398.32,-541.56 396.93,-548.42"/>
</g>
<!-- Node4&#45;&gt;Node4 -->
<g id="edge4" class="edge">
<title>Node4&#45;&gt;Node4</title>
<path fill="none" stroke="midnightblue" d="M102.62,-535.5C102.62,-541.34 90.24,-546 65.5,-546 30.31,-546 20.14,-536.57 34.98,-527.76"/>
<polygon fill="midnightblue" stroke="midnightblue" points="105.17,-533.09 96.02,-527.76 99.84,-537.64 105.17,-533.09"/>
</g>
<!-- Node11 -->
<g id="node11" class="node">
<title>Node11</title>
<g id="a_node11"><a xlink:href="namespacepenify__hook_1_1commands_1_1config__commands.html#a5503d51c905e2f1b299b12d2a73bd812" target="_top" xlink:title=" ">
<polygon fill="white" stroke="black" points="619.5,-593 619.5,-623 784.5,-623 784.5,-593 619.5,-593"/>
<text text-anchor="start" x="627.5" y="-611" font-family="Helvetica,sans-Serif" font-size="10.00">penify_hook.commands.config</text>
<text text-anchor="middle" x="702" y="-600" font-family="Helvetica,sans-Serif" font-size="10.00">_commands.get_token</text>
</a>
</g>
</g>
<!-- Node10&#45;&gt;Node11 -->
<g id="edge11" class="edge">
<title>Node10&#45;&gt;Node11</title>
<path fill="none" stroke="midnightblue" d="M880.17,-522.47C837.94,-542.86 772.52,-574.44 734.1,-592.98"/>
<polygon fill="midnightblue" stroke="midnightblue" points="881.85,-525.54 889.34,-518.04 878.81,-519.24 881.85,-525.54"/>
</g>
<!-- Node20 -->
<g id="node20" class="node">
<title>Node20</title>
<g id="a_node20"><a xlink:href="classtests_1_1test__config__commands_1_1TestConfigCommands.html#a2e8162082bcdd5652bb37bdb14cf453a" target="_top" xlink:title=" ">
<polygon fill="white" stroke="black" points="617,-434.5 617,-475.5 787,-475.5 787,-434.5 617,-434.5"/>
<text text-anchor="start" x="625" y="-463.5" font-family="Helvetica,sans-Serif" font-size="10.00">tests.test_config_commands.</text>
<text text-anchor="start" x="625" y="-452.5" font-family="Helvetica,sans-Serif" font-size="10.00">TestConfigCommands.test</text>
<text text-anchor="middle" x="702" y="-441.5" font-family="Helvetica,sans-Serif" font-size="10.00">_get_penify_config_existing_dir</text>
</a>
</g>
</g>
<!-- Node10&#45;&gt;Node20 -->
<g id="edge22" class="edge">
<title>Node10&#45;&gt;Node20</title>
<path fill="none" stroke="midnightblue" d="M842.43,-485.77C824.46,-481.8 805.26,-477.57 787.04,-473.55"/>
<polygon fill="midnightblue" stroke="midnightblue" points="841.76,-489.21 852.28,-487.94 843.27,-482.37 841.76,-489.21"/>
</g>
<!-- Node21 -->
<g id="node21" class="node">
<title>Node21</title>
<g id="a_node21"><a xlink:href="classtests_1_1test__config__commands_1_1TestConfigCommands.html#a33d4760eee3b67e1cde3aed755ebb948" target="_top" xlink:title=" ">
<polygon fill="white" stroke="black" points="622.5,-494.5 622.5,-535.5 781.5,-535.5 781.5,-494.5 622.5,-494.5"/>
<text text-anchor="start" x="630.5" y="-523.5" font-family="Helvetica,sans-Serif" font-size="10.00">tests.test_config_commands.</text>
<text text-anchor="start" x="630.5" y="-512.5" font-family="Helvetica,sans-Serif" font-size="10.00">TestConfigCommands.test</text>
<text text-anchor="middle" x="702" y="-501.5" font-family="Helvetica,sans-Serif" font-size="10.00">_get_penify_config_new_dir</text>
</a>
</g>
</g>
<!-- Node10&#45;&gt;Node21 -->
<g id="edge23" class="edge">
<title>Node10&#45;&gt;Node21</title>
<path fill="none" stroke="midnightblue" d="M828.72,-508.06C813.12,-508.92 797.05,-509.81 781.82,-510.65"/>
<polygon fill="midnightblue" stroke="midnightblue" points="829.1,-511.55 838.89,-507.5 828.71,-504.56 829.1,-511.55"/>
</g>
<!-- Node11&#45;&gt;Node3 -->
<g id="edge12" class="edge">
<title>Node11&#45;&gt;Node3</title>
<path fill="none" stroke="midnightblue" d="M619.73,-590.81C598.3,-586.28 575.35,-581.43 554.51,-577.02"/>
<polygon fill="midnightblue" stroke="midnightblue" points="619.27,-594.29 629.78,-592.94 620.72,-587.44 619.27,-594.29"/>
</g>
<!-- Node12 -->
<g id="node12" class="node">
<title>Node12</title>
<g id="a_node12"><a xlink:href="namespacepenify__hook_1_1commands_1_1doc__commands.html#a2006ab13bff718ef783868a910c0b704" target="_top" xlink:title=" ">
<polygon fill="white" stroke="black" points="406,-596 406,-626 559,-626 559,-596 406,-596"/>
<text text-anchor="start" x="414" y="-614" font-family="Helvetica,sans-Serif" font-size="10.00">penify_hook.commands.doc</text>
<text text-anchor="middle" x="482.5" y="-603" font-family="Helvetica,sans-Serif" font-size="10.00">_commands.handle_docgen</text>
</a>
</g>
</g>
<!-- Node11&#45;&gt;Node12 -->
<g id="edge13" class="edge">
<title>Node11&#45;&gt;Node12</title>
<path fill="none" stroke="midnightblue" d="M609.1,-609.27C592.44,-609.5 575.23,-609.73 559.1,-609.96"/>
<polygon fill="midnightblue" stroke="midnightblue" points="609.44,-612.76 619.39,-609.13 609.34,-605.76 609.44,-612.76"/>
</g>
<!-- Node17 -->
<g id="node17" class="node">
<title>Node17</title>
<g id="a_node17"><a xlink:href="classtests_1_1test__config__commands_1_1TestConfigCommands.html#a6c0207be563c3de59a6d16277805114c" target="_top" xlink:title=" ">
<polygon fill="white" stroke="black" points="403,-645.5 403,-686.5 562,-686.5 562,-645.5 403,-645.5"/>
<text text-anchor="start" x="411" y="-674.5" font-family="Helvetica,sans-Serif" font-size="10.00">tests.test_config_commands.</text>
<text text-anchor="start" x="411" y="-663.5" font-family="Helvetica,sans-Serif" font-size="10.00">TestConfigCommands.test</text>
<text text-anchor="middle" x="482.5" y="-652.5" font-family="Helvetica,sans-Serif" font-size="10.00">_get_token_from_config</text>
</a>
</g>
</g>
<!-- Node11&#45;&gt;Node17 -->
<g id="edge19" class="edge">
<title>Node11&#45;&gt;Node17</title>
<path fill="none" stroke="midnightblue" d="M633.09,-625.59C623.65,-628.06 614.08,-630.58 605,-633 590,-636.99 573.98,-641.3 558.65,-645.46"/>
<polygon fill="midnightblue" stroke="midnightblue" points="634.06,-628.96 642.85,-623.04 632.29,-622.18 634.06,-628.96"/>
</g>
<!-- Node18 -->
<g id="node18" class="node">
<title>Node18</title>
<g id="a_node18"><a xlink:href="classtests_1_1test__config__commands_1_1TestConfigCommands.html#a3355f7d313bebaa71694387cf2bc5232" target="_top" xlink:title=" ">
<polygon fill="white" stroke="black" points="403,-765.5 403,-806.5 562,-806.5 562,-765.5 403,-765.5"/>
<text text-anchor="start" x="411" y="-794.5" font-family="Helvetica,sans-Serif" font-size="10.00">tests.test_config_commands.</text>
<text text-anchor="start" x="411" y="-783.5" font-family="Helvetica,sans-Serif" font-size="10.00">TestConfigCommands.test</text>
<text text-anchor="middle" x="482.5" y="-772.5" font-family="Helvetica,sans-Serif" font-size="10.00">_get_token_from_env</text>
</a>
</g>
</g>
<!-- Node11&#45;&gt;Node18 -->
<g id="edge20" class="edge">
<title>Node11&#45;&gt;Node18</title>
<path fill="none" stroke="midnightblue" d="M610.39,-628.34C608.51,-629.79 606.71,-631.34 605,-633 564.12,-672.67 608.2,-714.68 569,-756 565.64,-759.54 561.85,-762.66 557.76,-765.41"/>
<polygon fill="midnightblue" stroke="midnightblue" points="612.69,-631.02 619.11,-622.59 608.84,-625.18 612.69,-631.02"/>
</g>
<!-- Node19 -->
<g id="node19" class="node">
<title>Node19</title>
<g id="a_node19"><a xlink:href="classtests_1_1test__config__commands_1_1TestConfigCommands.html#a400ca5d9fcdc159714e8df54920f9436" target="_top" xlink:title=" ">
<polygon fill="white" stroke="black" points="403,-705.5 403,-746.5 562,-746.5 562,-705.5 403,-705.5"/>
<text text-anchor="start" x="411" y="-734.5" font-family="Helvetica,sans-Serif" font-size="10.00">tests.test_config_commands.</text>
<text text-anchor="start" x="411" y="-723.5" font-family="Helvetica,sans-Serif" font-size="10.00">TestConfigCommands.test</text>
<text text-anchor="middle" x="482.5" y="-712.5" font-family="Helvetica,sans-Serif" font-size="10.00">_get_token_not_found</text>
</a>
</g>
</g>
<!-- Node11&#45;&gt;Node19 -->
<g id="edge21" class="edge">
<title>Node11&#45;&gt;Node19</title>
<path fill="none" stroke="midnightblue" d="M612.71,-627.78C610.03,-629.39 607.45,-631.12 605,-633 579.39,-652.6 593.78,-675.36 569,-696 564.77,-699.52 560.1,-702.65 555.18,-705.41"/>
<polygon fill="midnightblue" stroke="midnightblue" points="614.36,-630.87 621.55,-623.08 611.07,-624.69 614.36,-630.87"/>
</g>
<!-- Node12&#45;&gt;Node4 -->
<g id="edge14" class="edge">
<title>Node12&#45;&gt;Node4</title>
<path fill="none" stroke="midnightblue" d="M399.02,-593.93C385.97,-591.26 372.62,-588.54 360,-586 274.29,-568.75 251.87,-568.97 167,-548 142.78,-542.02 115.7,-533.84 95.76,-527.54"/>
<polygon fill="midnightblue" stroke="midnightblue" points="398.42,-597.38 408.92,-595.96 399.83,-590.52 398.42,-597.38"/>
</g>
<!-- Node13 -->
<g id="node13" class="node">
<title>Node13</title>
<g id="a_node13"><a xlink:href="namespacetests_1_1test__doc__commands.html#ab158ffa48469b6c097a7a55fcb20c21a" target="_top" xlink:title=" ">
<polygon fill="white" stroke="black" points="180.5,-743 180.5,-773 346.5,-773 346.5,-743 180.5,-743"/>
<text text-anchor="start" x="188.5" y="-761" font-family="Helvetica,sans-Serif" font-size="10.00">tests.test_doc_commands.test</text>
<text text-anchor="middle" x="263.5" y="-750" font-family="Helvetica,sans-Serif" font-size="10.00">_handle_docgen_generate</text>
</a>
</g>
</g>
<!-- Node12&#45;&gt;Node13 -->
<g id="edge15" class="edge">
<title>Node12&#45;&gt;Node13</title>
<path fill="none" stroke="midnightblue" d="M401.37,-631.54C399.5,-632.93 397.7,-634.42 396,-636 362.35,-667.34 394.09,-702.14 360,-733 355.81,-736.8 351.11,-740.03 346.1,-742.78"/>
<polygon fill="midnightblue" stroke="midnightblue" points="403.48,-634.35 410.03,-626.02 399.72,-628.44 403.48,-634.35"/>
</g>
<!-- Node14 -->
<g id="node14" class="node">
<title>Node14</title>
<g id="a_node14"><a xlink:href="namespacetests_1_1test__doc__commands.html#ab74688baa8c9b5ba302c2877a9789d05" target="_top" xlink:title=" ">
<polygon fill="white" stroke="black" points="180.5,-694 180.5,-724 346.5,-724 346.5,-694 180.5,-694"/>
<text text-anchor="start" x="188.5" y="-712" font-family="Helvetica,sans-Serif" font-size="10.00">tests.test_doc_commands.test</text>
<text text-anchor="middle" x="263.5" y="-701" font-family="Helvetica,sans-Serif" font-size="10.00">_handle_docgen_install_hook</text>
</a>
</g>
</g>
<!-- Node12&#45;&gt;Node14 -->
<g id="edge16" class="edge">
<title>Node12&#45;&gt;Node14</title>
<path fill="none" stroke="midnightblue" d="M405.08,-630.47C401.93,-632.16 398.88,-634 396,-636 374.08,-651.19 382.13,-669.13 360,-684 354.31,-687.82 348.07,-691.06 341.58,-693.81"/>
<polygon fill="midnightblue" stroke="midnightblue" points="406.73,-633.56 414.22,-626.07 403.69,-627.25 406.73,-633.56"/>
</g>
<!-- Node15 -->
<g id="node15" class="node">
<title>Node15</title>
<g id="a_node15"><a xlink:href="namespacetests_1_1test__doc__commands.html#af9b01e5fc89255cac96747fa081c442c" target="_top" xlink:title=" ">
<polygon fill="white" stroke="black" points="180.5,-645 180.5,-675 346.5,-675 346.5,-645 180.5,-645"/>
<text text-anchor="start" x="188.5" y="-663" font-family="Helvetica,sans-Serif" font-size="10.00">tests.test_doc_commands.test</text>
<text text-anchor="middle" x="263.5" y="-652" font-family="Helvetica,sans-Serif" font-size="10.00">_handle_docgen_no_token</text>
</a>
</g>
</g>
<!-- Node12&#45;&gt;Node15 -->
<g id="edge17" class="edge">
<title>Node12&#45;&gt;Node15</title>
<path fill="none" stroke="midnightblue" d="M405.07,-628.26C380.89,-633.72 354.38,-639.71 330.96,-644.99"/>
<polygon fill="midnightblue" stroke="midnightblue" points="405.93,-631.65 414.92,-626.03 404.39,-624.82 405.93,-631.65"/>
</g>
<!-- Node16 -->
<g id="node16" class="node">
<title>Node16</title>
<g id="a_node16"><a xlink:href="namespacetests_1_1test__doc__commands.html#a1458af9ad0128c3ca1263b552fd5e482" target="_top" xlink:title=" ">
<polygon fill="white" stroke="black" points="177.5,-596 177.5,-626 349.5,-626 349.5,-596 177.5,-596"/>
<text text-anchor="start" x="185.5" y="-614" font-family="Helvetica,sans-Serif" font-size="10.00">tests.test_doc_commands.test</text>
<text text-anchor="middle" x="263.5" y="-603" font-family="Helvetica,sans-Serif" font-size="10.00">_handle_docgen_uninstall_hook</text>
</a>
</g>
</g>
<!-- Node12&#45;&gt;Node16 -->
<g id="edge18" class="edge">
<title>Node12&#45;&gt;Node16</title>
<path fill="none" stroke="midnightblue" d="M395.6,-611C380.54,-611 364.88,-611 349.84,-611"/>
<polygon fill="midnightblue" stroke="midnightblue" points="395.91,-614.5 405.91,-611 395.91,-607.5 395.91,-614.5"/>
</g>
<!-- Node22&#45;&gt;Node11 -->
<g id="edge37" class="edge">
<title>Node22&#45;&gt;Node11</title>
<path fill="none" stroke="midnightblue" d="M887.17,-432.8C870.11,-444.58 849.87,-460.46 835,-478 813.14,-503.78 821.83,-520.07 799,-545 780.55,-565.14 754.36,-581.77 733.99,-592.87"/>
<polygon fill="midnightblue" stroke="midnightblue" points="889.41,-435.51 895.75,-427.02 885.5,-429.7 889.41,-435.51"/>
</g>
<!-- Node22&#45;&gt;Node22 -->
<g id="edge38" class="edge">
<title>Node22&#45;&gt;Node22</title>
<path fill="none" stroke="midnightblue" d="M956.33,-437.46C952,-442.18 940.4,-445.5 921.5,-445.5 890.49,-445.5 879.11,-436.56 887.34,-427.16"/>
<polygon fill="midnightblue" stroke="midnightblue" points="959.8,-436.91 955.66,-427.16 952.81,-437.37 959.8,-436.91"/>
</g>
<!-- Node23 -->
<g id="node23" class="node">
<title>Node23</title>
<g id="a_node23"><a xlink:href="namespacepenify__hook_1_1commands_1_1config__commands.html#a15bf3685c4dcb5c15ba6a4055e484cf2" target="_top" xlink:title=" ">
<polygon fill="white" stroke="black" points="619.5,-325 619.5,-355 784.5,-355 784.5,-325 619.5,-325"/>
<text text-anchor="start" x="627.5" y="-343" font-family="Helvetica,sans-Serif" font-size="10.00">penify_hook.commands.config</text>
<text text-anchor="middle" x="702" y="-332" font-family="Helvetica,sans-Serif" font-size="10.00">_commands.get_jira_config</text>
</a>
</g>
</g>
<!-- Node22&#45;&gt;Node23 -->
<g id="edge25" class="edge">
<title>Node22&#45;&gt;Node23</title>
<path fill="none" stroke="midnightblue" d="M865.29,-393.72C829.2,-381.78 782.64,-366.36 748.65,-355.11"/>
<polygon fill="midnightblue" stroke="midnightblue" points="864.58,-397.17 875.17,-396.99 866.78,-390.53 864.58,-397.17"/>
</g>
<!-- Node28 -->
<g id="node28" class="node">
<title>Node28</title>
<g id="a_node28"><a xlink:href="namespacepenify__hook_1_1commands_1_1config__commands.html#a6492bc8e7df6e38bb06ad05e572d4cc0" target="_top" xlink:title=" ">
<polygon fill="white" stroke="black" points="619.5,-385 619.5,-415 784.5,-415 784.5,-385 619.5,-385"/>
<text text-anchor="start" x="627.5" y="-403" font-family="Helvetica,sans-Serif" font-size="10.00">penify_hook.commands.config</text>
<text text-anchor="middle" x="702" y="-392" font-family="Helvetica,sans-Serif" font-size="10.00">_commands.get_llm_config</text>
</a>
</g>
</g>
<!-- Node22&#45;&gt;Node28 -->
<g id="edge32" class="edge">
<title>Node22&#45;&gt;Node28</title>
<path fill="none" stroke="midnightblue" d="M828.83,-406.94C814.18,-406.13 799.1,-405.3 784.7,-404.51"/>
<polygon fill="midnightblue" stroke="midnightblue" points="828.71,-410.44 838.89,-407.5 829.1,-403.45 828.71,-410.44"/>
</g>
<!-- Node23&#45;&gt;Node3 -->
<g id="edge30" class="edge">
<title>Node23&#45;&gt;Node3</title>
<path fill="none" stroke="midnightblue" d="M623.58,-359.9C616.64,-364.02 610.26,-369 605,-375 556.37,-430.45 619.41,-483.16 569,-537 565.41,-540.84 561.26,-544.1 556.77,-546.87"/>
<polygon fill="midnightblue" stroke="midnightblue" points="625.42,-362.89 632.63,-355.13 622.15,-356.7 625.42,-362.89"/>
</g>
<!-- Node24 -->
<g id="node24" class="node">
<title>Node24</title>
<g id="a_node24"><a xlink:href="namespacepenify__hook_1_1commands_1_1config__commands.html#af115198ea5d6808ccb98733957f50b06" target="_top" xlink:title=" ">
<polygon fill="white" stroke="black" points="400,-257 400,-287 565,-287 565,-257 400,-257"/>
<text text-anchor="start" x="408" y="-275" font-family="Helvetica,sans-Serif" font-size="10.00">penify_hook.commands.config</text>
<text text-anchor="middle" x="482.5" y="-264" font-family="Helvetica,sans-Serif" font-size="10.00">_commands.config_jira_web</text>
</a>
</g>
</g>
<!-- Node23&#45;&gt;Node24 -->
<g id="edge26" class="edge">
<title>Node23&#45;&gt;Node24</title>
<path fill="none" stroke="midnightblue" d="M646.36,-321.79C622.64,-313.99 594.5,-304.88 569,-297 558.36,-293.71 546.94,-290.3 536.03,-287.09"/>
<polygon fill="midnightblue" stroke="midnightblue" points="645.31,-325.13 655.9,-324.93 647.5,-318.48 645.31,-325.13"/>
</g>
<!-- Node27 -->
<g id="node27" class="node">
<title>Node27</title>
<g id="a_node27"><a xlink:href="classtests_1_1test__config__commands_1_1TestConfigCommands.html#aee37b97432821d19758c6325d4c74bcf" target="_top" xlink:title=" ">
<polygon fill="white" stroke="black" points="403,-306.5 403,-347.5 562,-347.5 562,-306.5 403,-306.5"/>
<text text-anchor="start" x="411" y="-335.5" font-family="Helvetica,sans-Serif" font-size="10.00">tests.test_config_commands.</text>
<text text-anchor="start" x="411" y="-324.5" font-family="Helvetica,sans-Serif" font-size="10.00">TestConfigCommands.test</text>
<text text-anchor="middle" x="482.5" y="-313.5" font-family="Helvetica,sans-Serif" font-size="10.00">_get_jira_config_exists</text>
</a>
</g>
</g>
<!-- Node23&#45;&gt;Node27 -->
<g id="edge31" class="edge">
<title>Node23&#45;&gt;Node27</title>
<path fill="none" stroke="midnightblue" d="M609.22,-334.51C593.62,-333.58 577.55,-332.62 562.32,-331.71"/>
<polygon fill="midnightblue" stroke="midnightblue" points="609.2,-338.02 619.39,-335.12 609.62,-331.03 609.2,-338.02"/>
</g>
<!-- Node25 -->
<g id="node25" class="node">
<title>Node25</title>
<g id="a_node25"><a xlink:href="namespacepenify__hook_1_1config__command.html#a240e5331681eb574ac319d7458783bde" target="_top" xlink:title=" ">
<polygon fill="white" stroke="black" points="193,-213 193,-243 334,-243 334,-213 193,-213"/>
<text text-anchor="start" x="201" y="-231" font-family="Helvetica,sans-Serif" font-size="10.00">penify_hook.config</text>
<text text-anchor="middle" x="263.5" y="-220" font-family="Helvetica,sans-Serif" font-size="10.00">_command.handle_config</text>
</a>
</g>
</g>
<!-- Node24&#45;&gt;Node25 -->
<g id="edge27" class="edge">
<title>Node24&#45;&gt;Node25</title>
<path fill="none" stroke="midnightblue" d="M397.58,-254.98C376.64,-250.74 354.39,-246.23 334.22,-242.14"/>
<polygon fill="midnightblue" stroke="midnightblue" points="396.93,-258.42 407.43,-256.98 398.32,-251.56 396.93,-258.42"/>
</g>
<!-- Node26 -->
<g id="node26" class="node">
<title>Node26</title>
<g id="a_node26"><a xlink:href="classtests_1_1test__web__config_1_1TestWebConfig.html#a06e600222e426b003850509cb1d3190a" target="_top" xlink:title=" ">
<polygon fill="white" stroke="black" points="190.5,-262.5 190.5,-303.5 336.5,-303.5 336.5,-262.5 190.5,-262.5"/>
<text text-anchor="start" x="198.5" y="-291.5" font-family="Helvetica,sans-Serif" font-size="10.00">tests.test_web_config.Test</text>
<text text-anchor="start" x="198.5" y="-280.5" font-family="Helvetica,sans-Serif" font-size="10.00">WebConfig.test_config_jira</text>
<text text-anchor="middle" x="263.5" y="-269.5" font-family="Helvetica,sans-Serif" font-size="10.00">_web_server_setup</text>
</a>
</g>
</g>
<!-- Node24&#45;&gt;Node26 -->
<g id="edge29" class="edge">
<title>Node24&#45;&gt;Node26</title>
<path fill="none" stroke="midnightblue" d="M389.44,-276.67C371.76,-277.56 353.48,-278.49 336.54,-279.35"/>
<polygon fill="midnightblue" stroke="midnightblue" points="389.96,-280.14 399.77,-276.14 389.61,-273.15 389.96,-280.14"/>
</g>
<!-- Node25&#45;&gt;Node4 -->
<g id="edge28" class="edge">
<title>Node25&#45;&gt;Node4</title>
<path fill="none" stroke="midnightblue" d="M183.25,-242.03C177.37,-245.02 171.85,-248.64 167,-253 86.31,-325.53 70.06,-469.71 67.11,-508.31"/>
<polygon fill="midnightblue" stroke="midnightblue" points="185.03,-245.06 192.75,-237.81 182.19,-238.67 185.03,-245.06"/>
</g>
<!-- Node28&#45;&gt;Node3 -->
<g id="edge33" class="edge">
<title>Node28&#45;&gt;Node3</title>
<path fill="none" stroke="midnightblue" d="M610.45,-420.4C608.55,-421.84 606.73,-423.37 605,-425 567,-460.92 606.46,-500.52 569,-537 565.01,-540.88 560.45,-544.17 555.57,-546.95"/>
<polygon fill="midnightblue" stroke="midnightblue" points="612.74,-423.09 619.23,-414.72 608.93,-417.21 612.74,-423.09"/>
</g>
<!-- Node29 -->
<g id="node29" class="node">
<title>Node29</title>
<g id="a_node29"><a xlink:href="classtests_1_1test__config__commands_1_1TestConfigCommands.html#abd12f028b89aa9cd1152c0b9ece5d3cd" target="_top" xlink:title=" ">
<polygon fill="white" stroke="black" points="403,-366.5 403,-407.5 562,-407.5 562,-366.5 403,-366.5"/>
<text text-anchor="start" x="411" y="-395.5" font-family="Helvetica,sans-Serif" font-size="10.00">tests.test_config_commands.</text>
<text text-anchor="start" x="411" y="-384.5" font-family="Helvetica,sans-Serif" font-size="10.00">TestConfigCommands.test</text>
<text text-anchor="middle" x="482.5" y="-373.5" font-family="Helvetica,sans-Serif" font-size="10.00">_get_llm_config_empty</text>
</a>
</g>
</g>
<!-- Node28&#45;&gt;Node29 -->
<g id="edge34" class="edge">
<title>Node28&#45;&gt;Node29</title>
<path fill="none" stroke="midnightblue" d="M609.22,-394.51C593.62,-393.58 577.55,-392.62 562.32,-391.71"/>
<polygon fill="midnightblue" stroke="midnightblue" points="609.2,-398.02 619.39,-395.12 609.62,-391.03 609.2,-398.02"/>
</g>
<!-- Node30 -->
<g id="node30" class="node">
<title>Node30</title>
<g id="a_node30"><a xlink:href="classtests_1_1test__config__commands_1_1TestConfigCommands.html#adf9f2233a3f4cc5725b9d4f05758b167" target="_top" xlink:title=" ">
<polygon fill="white" stroke="black" points="403,-486.5 403,-527.5 562,-527.5 562,-486.5 403,-486.5"/>
<text text-anchor="start" x="411" y="-515.5" font-family="Helvetica,sans-Serif" font-size="10.00">tests.test_config_commands.</text>
<text text-anchor="start" x="411" y="-504.5" font-family="Helvetica,sans-Serif" font-size="10.00">TestConfigCommands.test</text>
<text text-anchor="middle" x="482.5" y="-493.5" font-family="Helvetica,sans-Serif" font-size="10.00">_get_llm_config_exists</text>
</a>
</g>
</g>
<!-- Node28&#45;&gt;Node30 -->
<g id="edge35" class="edge">
<title>Node28&#45;&gt;Node30</title>
<path fill="none" stroke="midnightblue" d="M613.63,-419.66C610.64,-421.3 607.75,-423.08 605,-425 581.96,-441.1 591.35,-459.96 569,-477 564.37,-480.53 559.29,-483.66 554,-486.45"/>
<polygon fill="midnightblue" stroke="midnightblue" points="615.43,-422.68 622.87,-415.14 612.35,-416.39 615.43,-422.68"/>
</g>
<!-- Node31 -->
<g id="node31" class="node">
<title>Node31</title>
<g id="a_node31"><a xlink:href="classtests_1_1test__config__commands_1_1TestConfigCommands.html#a473984d31452b56acd6ce4011a1248bd" target="_top" xlink:title=" ">
<polygon fill="white" stroke="black" points="403,-426.5 403,-467.5 562,-467.5 562,-426.5 403,-426.5"/>
<text text-anchor="start" x="411" y="-455.5" font-family="Helvetica,sans-Serif" font-size="10.00">tests.test_config_commands.</text>
<text text-anchor="start" x="411" y="-444.5" font-family="Helvetica,sans-Serif" font-size="10.00">TestConfigCommands.test</text>
<text text-anchor="middle" x="482.5" y="-433.5" font-family="Helvetica,sans-Serif" font-size="10.00">_get_llm_config_invalid_json</text>
</a>
</g>
</g>
<!-- Node28&#45;&gt;Node31 -->
<g id="edge36" class="edge">
<title>Node28&#45;&gt;Node31</title>
<path fill="none" stroke="midnightblue" d="M621.58,-417.16C602.18,-421.35 581.44,-425.84 562.08,-430.02"/>
<polygon fill="midnightblue" stroke="midnightblue" points="622.55,-420.53 631.58,-415 621.07,-413.69 622.55,-420.53"/>
</g>
<!-- Node33 -->
<g id="node33" class="node">
<title>Node33</title>
<g id="a_node33"><a xlink:href="namespacepenify__hook_1_1commands_1_1auth__commands.html#a78f375c58bb6f69f98675e6a9ac84655" target="_top" xlink:title=" ">
<polygon fill="white" stroke="black" points="623,-895 623,-925 781,-925 781,-895 623,-895"/>
<text text-anchor="start" x="631" y="-913" font-family="Helvetica,sans-Serif" font-size="10.00">penify_hook.commands.auth</text>
<text text-anchor="middle" x="702" y="-902" font-family="Helvetica,sans-Serif" font-size="10.00">_commands.login</text>
</a>
</g>
</g>
<!-- Node32&#45;&gt;Node33 -->
<g id="edge41" class="edge">
<title>Node32&#45;&gt;Node33</title>
<path fill="none" stroke="midnightblue" d="M868.71,-862.38C847.25,-869.76 822.03,-878.12 799,-885 787.53,-888.42 775.21,-891.83 763.35,-894.98"/>
<polygon fill="midnightblue" stroke="midnightblue" points="869.98,-865.64 878.28,-859.06 867.69,-859.03 869.98,-865.64"/>
</g>
<!-- Node34 -->
<g id="node34" class="node">
<title>Node34</title>
<g id="a_node34"><a xlink:href="namespacepenify__hook_1_1login__command.html#ae4bf932fbafeff834b0a0c5a37f74ccd" target="_top" xlink:title=" ">
<polygon fill="white" stroke="black" points="167,-824 167,-854 360,-854 360,-824 167,-824"/>
<text text-anchor="start" x="175" y="-842" font-family="Helvetica,sans-Serif" font-size="10.00">penify_hook.login_command.handle</text>
<text text-anchor="middle" x="263.5" y="-831" font-family="Helvetica,sans-Serif" font-size="10.00">_login</text>
</a>
</g>
</g>
<!-- Node33&#45;&gt;Node34 -->
<g id="edge42" class="edge">
<title>Node33&#45;&gt;Node34</title>
<path fill="none" stroke="midnightblue" d="M612.69,-895.64C538.38,-883.55 432.47,-866.32 357,-854.05"/>
<polygon fill="midnightblue" stroke="midnightblue" points="612.53,-899.16 622.96,-897.31 613.65,-892.25 612.53,-899.16"/>
</g>
<!-- Node34&#45;&gt;Node4 -->
<g id="edge43" class="edge">
<title>Node34&#45;&gt;Node4</title>
<path fill="none" stroke="midnightblue" d="M215.44,-819.01C198.31,-809.82 179.99,-797.47 167,-782 97.8,-699.54 73.38,-564.4 67.83,-527.54"/>
<polygon fill="midnightblue" stroke="midnightblue" points="214.29,-822.36 224.79,-823.79 217.48,-816.12 214.29,-822.36"/>
</g>
<!-- Node35&#45;&gt;Node24 -->
<g id="edge45" class="edge">
<title>Node35&#45;&gt;Node24</title>
<path fill="none" stroke="midnightblue" d="M609.33,-259.27C594.68,-260.75 579.6,-262.28 565.2,-263.74"/>
<polygon fill="midnightblue" stroke="midnightblue" points="609.8,-262.74 619.39,-258.25 609.09,-255.78 609.8,-262.74"/>
</g>
<!-- Node35&#45;&gt;Node25 -->
<g id="edge46" class="edge">
<title>Node35&#45;&gt;Node25</title>
<path fill="none" stroke="midnightblue" d="M609.34,-245.38C527.27,-241.24 408.72,-235.27 334.18,-231.51"/>
<polygon fill="midnightblue" stroke="midnightblue" points="609.25,-248.88 619.41,-245.89 609.6,-241.89 609.25,-248.88"/>
</g>
<!-- Node36 -->
<g id="node36" class="node">
<title>Node36</title>
<g id="a_node36"><a xlink:href="classtests_1_1test__config__commands_1_1TestConfigCommands.html#af8d62310da2d768e21770f8f01ff5375" target="_top" xlink:title=" ">
<polygon fill="white" stroke="black" points="403,-158.5 403,-199.5 562,-199.5 562,-158.5 403,-158.5"/>
<text text-anchor="start" x="411" y="-187.5" font-family="Helvetica,sans-Serif" font-size="10.00">tests.test_config_commands.</text>
<text text-anchor="start" x="411" y="-176.5" font-family="Helvetica,sans-Serif" font-size="10.00">TestConfigCommands.test</text>
<text text-anchor="middle" x="482.5" y="-165.5" font-family="Helvetica,sans-Serif" font-size="10.00">_save_jira_config_success</text>
</a>
</g>
</g>
<!-- Node35&#45;&gt;Node36 -->
<g id="edge47" class="edge">
<title>Node35&#45;&gt;Node36</title>
<path fill="none" stroke="midnightblue" d="M645.34,-231.83C615.15,-221.98 577.73,-209.76 546.47,-199.56"/>
<polygon fill="midnightblue" stroke="midnightblue" points="644.28,-235.17 654.87,-234.94 646.45,-228.51 644.28,-235.17"/>
</g>
<!-- Node37&#45;&gt;Node25 -->
<g id="edge49" class="edge">
<title>Node37&#45;&gt;Node25</title>
<path fill="none" stroke="midnightblue" d="M828.63,-111.25C689.18,-119.56 435.98,-136.13 396,-149 352.14,-163.12 307.51,-194.23 283.17,-212.92"/>
<polygon fill="midnightblue" stroke="midnightblue" points="829.11,-114.73 838.88,-110.64 828.69,-107.74 829.11,-114.73"/>
</g>
<!-- Node38 -->
<g id="node38" class="node">
<title>Node38</title>
<g id="a_node38"><a xlink:href="classtests_1_1test__config__commands_1_1TestConfigCommands.html#a73a264dfb21e16003e095b79f6eab2ac" target="_top" xlink:title=" ">
<polygon fill="white" stroke="black" points="622.5,-60.5 622.5,-101.5 781.5,-101.5 781.5,-60.5 622.5,-60.5"/>
<text text-anchor="start" x="630.5" y="-89.5" font-family="Helvetica,sans-Serif" font-size="10.00">tests.test_config_commands.</text>
<text text-anchor="start" x="630.5" y="-78.5" font-family="Helvetica,sans-Serif" font-size="10.00">TestConfigCommands.test</text>
<text text-anchor="middle" x="702" y="-67.5" font-family="Helvetica,sans-Serif" font-size="10.00">_save_llm_config_failure</text>
</a>
</g>
</g>
<!-- Node37&#45;&gt;Node38 -->
<g id="edge50" class="edge">
<title>Node37&#45;&gt;Node38</title>
<path fill="none" stroke="midnightblue" d="M828.72,-95.45C813.12,-93.66 797.05,-91.81 781.82,-90.06"/>
<polygon fill="midnightblue" stroke="midnightblue" points="828.56,-98.95 838.89,-96.62 829.36,-92 828.56,-98.95"/>
</g>
<!-- Node39 -->
<g id="node39" class="node">
<title>Node39</title>
<g id="a_node39"><a xlink:href="classtests_1_1test__config__commands_1_1TestConfigCommands.html#acd8df8219441b9e9871b903a681400d9" target="_top" xlink:title=" ">
<polygon fill="white" stroke="black" points="622.5,-0.5 622.5,-41.5 781.5,-41.5 781.5,-0.5 622.5,-0.5"/>
<text text-anchor="start" x="630.5" y="-29.5" font-family="Helvetica,sans-Serif" font-size="10.00">tests.test_config_commands.</text>
<text text-anchor="start" x="630.5" y="-18.5" font-family="Helvetica,sans-Serif" font-size="10.00">TestConfigCommands.test</text>
<text text-anchor="middle" x="702" y="-7.5" font-family="Helvetica,sans-Serif" font-size="10.00">_save_llm_config_success</text>
</a>
</g>
</g>
<!-- Node37&#45;&gt;Node39 -->
<g id="edge51" class="edge">
<title>Node37&#45;&gt;Node39</title>
<path fill="none" stroke="midnightblue" d="M880.7,-86.5C857.22,-75.37 826.77,-61.58 799,-51 790.43,-47.74 781.34,-44.55 772.3,-41.55"/>
<polygon fill="midnightblue" stroke="midnightblue" points="879.45,-89.78 889.98,-90.93 882.46,-83.46 879.45,-89.78"/>
</g>
</g>
</svg>
        <g id="navigator" transform="translate(0 0)" fill="#404254">
                <rect fill="#f2f5e9" fill-opacity="0.5" stroke="#606060" stroke-width=".5" x="0" y="0" width="60" height="60"/>
                <use id="zoomplus" xlink:href="#zoomPlus" x="17" y="9" onmousedown="handleZoom(evt,'in')"/>
                <use id="zoomminus" xlink:href="#zoomMin" x="42" y="9" onmousedown="handleZoom(evt,'out')"/>
                <use id="reset" xlink:href="#resetDef" x="30" y="36" onmousedown="handleReset()"/>
                <g id="arrowUp" xlink:href="#dirArrow" transform="translate(30 24)" onmousedown="handlePan(0,-1)">
                  <use xlink:href="#rim" fill="#404040">
                        <set attributeName="fill" to="#808080" begin="arrowUp.mouseover" end="arrowUp.mouseout"/>
                  </use>
                  <path fill="none" stroke="white" stroke-width="1.5" d="M0,-3.0v7 M-2.5,-0.5L0,-3.0L2.5,-0.5"/>
                </g>
                <g id="arrowRight" xlink:href="#dirArrow" transform="rotate(90) translate(36 -43)" onmousedown="handlePan(1,0)">
                  <use xlink:href="#rim" fill="#404040">
                        <set attributeName="fill" to="#808080" begin="arrowRight.mouseover" end="arrowRight.mouseout"/>
                  </use>
                  <path fill="none" stroke="white" stroke-width="1.5" d="M0,-3.0v7 M-2.5,-0.5L0,-3.0L2.5,-0.5"/>
                </g>
                <g id="arrowDown" xlink:href="#dirArrow" transform="rotate(180) translate(-30 -48)" onmousedown="handlePan(0,1)">
                  <use xlink:href="#rim" fill="#404040">
                        <set attributeName="fill" to="#808080" begin="arrowDown.mouseover" end="arrowDown.mouseout"/>
                  </use>
                  <path fill="none" stroke="white" stroke-width="1.5" d="M0,-3.0v7 M-2.5,-0.5L0,-3.0L2.5,-0.5"/>
                </g>
                <g id="arrowLeft" xlink:href="#dirArrow" transform="rotate(270) translate(-36 17)" onmousedown="handlePan(-1,0)">
                  <use xlink:href="#rim" fill="#404040">
                        <set attributeName="fill" to="#808080" begin="arrowLeft.mouseover" end="arrowLeft.mouseout"/>
                  </use>
                  <path fill="none" stroke="white" stroke-width="1.5" d="M0,-3.0v7 M-2.5,-0.5L0,-3.0L2.5,-0.5"/>
                </g>
        </g>
        <svg viewBox="0 0 15 15" width="100%" height="30px" preserveAspectRatio="xMaxYMin meet">
         <g id="arrow_out" transform="scale(0.3 0.3)">
          <a xlink:href="namespacepenify__hook_1_1utils_a95c3f9c80860d6a2e2d061d2fb660a3f_icgraph_org.svg" target="_base">
           <rect id="button" ry="5" rx="5" y="6" x="6" height="38" width="38"
                fill="#f2f5e9" fill-opacity="0.5" stroke="#606060" stroke-width="1.0"/>
           <path id="arrow"
             d="M 11.500037,31.436501 C 11.940474,20.09759 22.043105,11.32322 32.158766,21.979434 L 37.068811,17.246167 C 37.068811,17.246167 37.088388,32 37.088388,32 L 22.160133,31.978069 C 22.160133,31.978069 26.997745,27.140456 26.997745,27.140456 C 18.528582,18.264221 13.291696,25.230495 11.500037,31.436501 z"
             style="fill:#404040;"/>
          </a>
         </g>
        </svg>
</svg>
