<?xml version="1.0" encoding="UTF-8" standalone="no"?>
<!DOCTYPE svg PUBLIC "-//W3C//DTD SVG 1.1//EN"
 "http://www.w3.org/Graphics/SVG/1.1/DTD/svg11.dtd">
<!-- Generated by graphviz version 2.43.0 (0)
 -->
<!-- Title: penify_hook.commands.commit_commands.handle_commit Pages: 1 -->
<!--zoomable 343 -->
<svg id="main" version="1.1" xmlns="http://www.w3.org/2000/svg" xmlns:xlink="http://www.w3.org/1999/xlink" xml:space="preserve" onload="init(evt)">
<style type="text/css"><![CDATA[
.edge:hover path { stroke: red; }
.edge:hover polygon { stroke: red; fill: red; }
]]></style>
<script type="text/javascript"><![CDATA[
var edges = document.getElementsByTagName('g');
if (edges && edges.length) {
  for (var i=0;i<edges.length;i++) {
    if (edges[i].id.substr(0,4)=='edge') {
      edges[i].setAttribute('class','edge');
    }
  }
}
]]></script>
        <defs>
                <circle id="rim" cx="0" cy="0" r="7"/>
                <circle id="rim2" cx="0" cy="0" r="3.5"/>
                <g id="zoomPlus">
                        <use xlink:href="#rim" fill="#404040">
                                <set attributeName="fill" to="#808080" begin="zoomplus.mouseover" end="zoomplus.mouseout"/>
                        </use>
                        <path d="M-4,0h8M0,-4v8" fill="none" stroke="white" stroke-width="1.5" pointer-events="none"/>
                </g>
                <g id="zoomMin">
                        <use xlink:href="#rim" fill="#404040">
                                <set attributeName="fill" to="#808080" begin="zoomminus.mouseover" end="zoomminus.mouseout"/>
                        </use>
                        <path d="M-4,0h8" fill="none" stroke="white" stroke-width="1.5" pointer-events="none"/>
                </g>
                <g id="dirArrow">
                        <path fill="none" stroke="white" stroke-width="1.5" d="M0,-3.0v7 M-2.5,-0.5L0,-3.0L2.5,-0.5"/>
                </g>
               <g id="resetDef">
                       <use xlink:href="#rim2" fill="#404040">
                               <set attributeName="fill" to="#808080" begin="reset.mouseover" end="reset.mouseout"/>
                       </use>
               </g>
        </defs>

<script type="text/javascript">
var viewWidth = 801;
var viewHeight = 343;
var sectionId = 'dynsection-2';
</script>
<script xlink:href="svgpan.js"/>
<svg id="graph" class="graph">
<g id="viewport">
<title>penify_hook.commands.commit_commands.handle_commit</title>
<polygon fill="white" stroke="transparent" points="-4,4 -4,-338.5 797,-338.5 797,4 -4,4"/>
<!-- Node1 -->
<g id="node1" class="node">
<title>Node1</title>
<g id="a_node1"><a xlink:title=" ">
<polygon fill="#bfbfbf" stroke="black" points="0,-122.5 0,-152.5 173,-152.5 173,-122.5 0,-122.5"/>
<text text-anchor="start" x="8" y="-140.5" font-family="Helvetica,sans-Serif" font-size="10.00">penify_hook.commands.commit</text>
<text text-anchor="middle" x="86.5" y="-129.5" font-family="Helvetica,sans-Serif" font-size="10.00">_commands.handle_commit</text>
</a>
</g>
</g>
<!-- Node2 -->
<g id="node2" class="node">
<title>Node2</title>
<g id="a_node2"><a xlink:href="namespacepenify__hook_1_1commands_1_1commit__commands.html#a62564c4e8ad59fc46d56cb0f9122a71a" target="_top" xlink:title=" ">
<polygon fill="white" stroke="black" points="209,-216.5 209,-246.5 382,-246.5 382,-216.5 209,-216.5"/>
<text text-anchor="start" x="217" y="-234.5" font-family="Helvetica,sans-Serif" font-size="10.00">penify_hook.commands.commit</text>
<text text-anchor="middle" x="295.5" y="-223.5" font-family="Helvetica,sans-Serif" font-size="10.00">_commands.commit_code</text>
</a>
</g>
</g>
<!-- Node1&#45;&gt;Node2 -->
<g id="edge1" class="edge">
<title>Node1&#45;&gt;Node2</title>
<path fill="none" stroke="midnightblue" d="M120.76,-152.6C156.37,-168.77 212.98,-194.48 251.85,-212.13"/>
<polygon fill="midnightblue" stroke="midnightblue" points="250.77,-215.49 261.32,-216.43 253.67,-209.11 250.77,-215.49"/>
</g>
<!-- Node5 -->
<g id="node5" class="node">
<title>Node5</title>
<g id="a_node5"><a xlink:href="namespacepenify__hook_1_1ui__utils.html#a811f0adf6e9bf71510c379b6fa155e44" target="_top" xlink:title=" ">
<polygon fill="white" stroke="black" points="418.5,-315 418.5,-334 582.5,-334 582.5,-315 418.5,-315"/>
<text text-anchor="middle" x="500.5" y="-322" font-family="Helvetica,sans-Serif" font-size="10.00">penify_hook.ui_utils.print_info</text>
</a>
</g>
</g>
<!-- Node1&#45;&gt;Node5 -->
<g id="edge23" class="edge">
<title>Node1&#45;&gt;Node5</title>
<path fill="none" stroke="midnightblue" d="M98.72,-152.82C118.2,-178.25 160.82,-229 209,-255.5 270.62,-289.39 348.5,-306.73 408.11,-315.56"/>
<polygon fill="midnightblue" stroke="midnightblue" points="407.87,-319.06 418.27,-317 408.86,-312.13 407.87,-319.06"/>
</g>
<!-- Node10 -->
<g id="node10" class="node">
<title>Node10</title>
<g id="a_node10"><a xlink:href="namespacepenify__hook_1_1commands_1_1config__commands.html#a15bf3685c4dcb5c15ba6a4055e484cf2" target="_top" xlink:title=" ">
<polygon fill="white" stroke="black" points="213,-24.5 213,-54.5 378,-54.5 378,-24.5 213,-24.5"/>
<text text-anchor="start" x="221" y="-42.5" font-family="Helvetica,sans-Serif" font-size="10.00">penify_hook.commands.config</text>
<text text-anchor="middle" x="295.5" y="-31.5" font-family="Helvetica,sans-Serif" font-size="10.00">_commands.get_jira_config</text>
</a>
</g>
</g>
<!-- Node1&#45;&gt;Node10 -->
<g id="edge10" class="edge">
<title>Node1&#45;&gt;Node10</title>
<path fill="none" stroke="midnightblue" d="M108.48,-122.26C131.96,-105.8 171.63,-79.76 209,-63.5 213.65,-61.48 218.52,-59.58 223.47,-57.8"/>
<polygon fill="midnightblue" stroke="midnightblue" points="224.72,-61.07 233.07,-54.54 222.47,-54.44 224.72,-61.07"/>
</g>
<!-- Node13 -->
<g id="node13" class="node">
<title>Node13</title>
<g id="a_node13"><a xlink:href="namespacepenify__hook_1_1commands_1_1config__commands.html#a6492bc8e7df6e38bb06ad05e572d4cc0" target="_top" xlink:title=" ">
<polygon fill="white" stroke="black" points="213,-73.5 213,-103.5 378,-103.5 378,-73.5 213,-73.5"/>
<text text-anchor="start" x="221" y="-91.5" font-family="Helvetica,sans-Serif" font-size="10.00">penify_hook.commands.config</text>
<text text-anchor="middle" x="295.5" y="-80.5" font-family="Helvetica,sans-Serif" font-size="10.00">_commands.get_llm_config</text>
</a>
</g>
</g>
<!-- Node1&#45;&gt;Node13 -->
<g id="edge15" class="edge">
<title>Node1&#45;&gt;Node13</title>
<path fill="none" stroke="midnightblue" d="M151.01,-122.47C173.17,-117.22 198.21,-111.29 221.1,-105.87"/>
<polygon fill="midnightblue" stroke="midnightblue" points="222.18,-109.22 231.11,-103.51 220.57,-102.4 222.18,-109.22"/>
</g>
<!-- Node14 -->
<g id="node14" class="node">
<title>Node14</title>
<g id="a_node14"><a xlink:href="namespacepenify__hook_1_1commands_1_1config__commands.html#a5503d51c905e2f1b299b12d2a73bd812" target="_top" xlink:title=" ">
<polygon fill="white" stroke="black" points="213,-122.5 213,-152.5 378,-152.5 378,-122.5 213,-122.5"/>
<text text-anchor="start" x="221" y="-140.5" font-family="Helvetica,sans-Serif" font-size="10.00">penify_hook.commands.config</text>
<text text-anchor="middle" x="295.5" y="-129.5" font-family="Helvetica,sans-Serif" font-size="10.00">_commands.get_token</text>
</a>
</g>
</g>
<!-- Node1&#45;&gt;Node14 -->
<g id="edge18" class="edge">
<title>Node1&#45;&gt;Node14</title>
<path fill="none" stroke="midnightblue" d="M173.19,-137.5C182.93,-137.5 192.89,-137.5 202.7,-137.5"/>
<polygon fill="midnightblue" stroke="midnightblue" points="202.87,-141 212.87,-137.5 202.87,-134 202.87,-141"/>
</g>
<!-- Node3 -->
<g id="node3" class="node">
<title>Node3</title>
<g id="a_node3"><a xlink:href="namespacepenify__hook_1_1ui__utils.html#a6f0acd7dd91abfe67d0807803bc3b65f" target="_top" xlink:title=" ">
<polygon fill="white" stroke="black" points="430.5,-265.5 430.5,-295.5 570.5,-295.5 570.5,-265.5 430.5,-265.5"/>
<text text-anchor="start" x="438.5" y="-283.5" font-family="Helvetica,sans-Serif" font-size="10.00">penify_hook.ui_utils.print</text>
<text text-anchor="middle" x="500.5" y="-272.5" font-family="Helvetica,sans-Serif" font-size="10.00">_error</text>
</a>
</g>
</g>
<!-- Node2&#45;&gt;Node3 -->
<g id="edge2" class="edge">
<title>Node2&#45;&gt;Node3</title>
<path fill="none" stroke="midnightblue" d="M358.79,-246.53C380.51,-251.78 405.07,-257.71 427.52,-263.13"/>
<polygon fill="midnightblue" stroke="midnightblue" points="426.79,-266.55 437.33,-265.49 428.43,-259.75 426.79,-266.55"/>
</g>
<!-- Node2&#45;&gt;Node5 -->
<g id="edge4" class="edge">
<title>Node2&#45;&gt;Node5</title>
<path fill="none" stroke="midnightblue" d="M320.36,-246.59C352.75,-267 407.8,-301.33 418,-305.5 424.23,-308.05 430.88,-310.3 437.59,-312.27"/>
<polygon fill="midnightblue" stroke="midnightblue" points="436.85,-315.7 447.42,-314.97 438.71,-308.95 436.85,-315.7"/>
</g>
<!-- Node7 -->
<g id="node7" class="node">
<title>Node7</title>
<g id="a_node7"><a xlink:href="namespacepenify__hook_1_1ui__utils.html#a1ffbb9671dbe233770268e2dd66a67fa" target="_top" xlink:title=" ">
<polygon fill="white" stroke="black" points="430.5,-216.5 430.5,-246.5 570.5,-246.5 570.5,-216.5 430.5,-216.5"/>
<text text-anchor="start" x="438.5" y="-234.5" font-family="Helvetica,sans-Serif" font-size="10.00">penify_hook.ui_utils.print</text>
<text text-anchor="middle" x="500.5" y="-223.5" font-family="Helvetica,sans-Serif" font-size="10.00">_warning</text>
</a>
</g>
</g>
<!-- Node2&#45;&gt;Node7 -->
<g id="edge6" class="edge">
<title>Node2&#45;&gt;Node7</title>
<path fill="none" stroke="midnightblue" d="M382,-231.5C394.62,-231.5 407.57,-231.5 420.05,-231.5"/>
<polygon fill="midnightblue" stroke="midnightblue" points="420.41,-235 430.41,-231.5 420.41,-228 420.41,-235"/>
</g>
<!-- Node9 -->
<g id="node9" class="node">
<title>Node9</title>
<g id="a_node9"><a xlink:href="namespacepenify__hook_1_1utils.html#a95c3f9c80860d6a2e2d061d2fb660a3f" target="_top" xlink:title=" ">
<polygon fill="white" stroke="black" points="632,-128.5 632,-158.5 780,-158.5 780,-128.5 632,-128.5"/>
<text text-anchor="start" x="640" y="-146.5" font-family="Helvetica,sans-Serif" font-size="10.00">penify_hook.utils.recursive</text>
<text text-anchor="middle" x="706" y="-135.5" font-family="Helvetica,sans-Serif" font-size="10.00">_search_git_folder</text>
</a>
</g>
</g>
<!-- Node2&#45;&gt;Node9 -->
<g id="edge8" class="edge">
<title>Node2&#45;&gt;Node9</title>
<path fill="none" stroke="midnightblue" d="M366.26,-216.47C438.12,-200.99 549.96,-176.9 625.27,-160.68"/>
<polygon fill="midnightblue" stroke="midnightblue" points="626.15,-164.07 635.19,-158.54 624.67,-157.22 626.15,-164.07"/>
</g>
<!-- Node4 -->
<g id="node4" class="node">
<title>Node4</title>
<g id="a_node4"><a xlink:href="namespacepenify__hook_1_1ui__utils.html#a4dd934568897433fa73f9cc182ac4a3e" target="_top" xlink:title=" ">
<polygon fill="white" stroke="black" points="631,-265.5 631,-295.5 781,-295.5 781,-265.5 631,-265.5"/>
<text text-anchor="start" x="639" y="-283.5" font-family="Helvetica,sans-Serif" font-size="10.00">penify_hook.ui_utils.format</text>
<text text-anchor="middle" x="706" y="-272.5" font-family="Helvetica,sans-Serif" font-size="10.00">_error</text>
</a>
</g>
</g>
<!-- Node3&#45;&gt;Node4 -->
<g id="edge3" class="edge">
<title>Node3&#45;&gt;Node4</title>
<path fill="none" stroke="midnightblue" d="M570.68,-280.5C586.71,-280.5 603.95,-280.5 620.55,-280.5"/>
<polygon fill="midnightblue" stroke="midnightblue" points="620.79,-284 630.79,-280.5 620.79,-277 620.79,-284"/>
</g>
<!-- Node6 -->
<g id="node6" class="node">
<title>Node6</title>
<g id="a_node6"><a xlink:href="namespacepenify__hook_1_1ui__utils.html#a92c3e466d1912058167be2eacf85b9f6" target="_top" xlink:title=" ">
<polygon fill="white" stroke="black" points="619,-315 619,-334 793,-334 793,-315 619,-315"/>
<text text-anchor="middle" x="706" y="-322" font-family="Helvetica,sans-Serif" font-size="10.00">penify_hook.ui_utils.format_info</text>
</a>
</g>
</g>
<!-- Node5&#45;&gt;Node6 -->
<g id="edge5" class="edge">
<title>Node5&#45;&gt;Node6</title>
<path fill="none" stroke="midnightblue" d="M582.51,-324.5C591.12,-324.5 599.93,-324.5 608.68,-324.5"/>
<polygon fill="midnightblue" stroke="midnightblue" points="608.92,-328 618.92,-324.5 608.92,-321 608.92,-328"/>
</g>
<!-- Node8 -->
<g id="node8" class="node">
<title>Node8</title>
<g id="a_node8"><a xlink:href="namespacepenify__hook_1_1ui__utils.html#a0a6fd2613c6fe053b6e4356cd9e5cda2" target="_top" xlink:title=" ">
<polygon fill="white" stroke="black" points="631,-216.5 631,-246.5 781,-246.5 781,-216.5 631,-216.5"/>
<text text-anchor="start" x="639" y="-234.5" font-family="Helvetica,sans-Serif" font-size="10.00">penify_hook.ui_utils.format</text>
<text text-anchor="middle" x="706" y="-223.5" font-family="Helvetica,sans-Serif" font-size="10.00">_warning</text>
</a>
</g>
</g>
<!-- Node7&#45;&gt;Node8 -->
<g id="edge7" class="edge">
<title>Node7&#45;&gt;Node8</title>
<path fill="none" stroke="midnightblue" d="M570.68,-231.5C586.71,-231.5 603.95,-231.5 620.55,-231.5"/>
<polygon fill="midnightblue" stroke="midnightblue" points="620.79,-235 630.79,-231.5 620.79,-228 620.79,-235"/>
</g>
<!-- Node9&#45;&gt;Node9 -->
<g id="edge9" class="edge">
<title>Node9&#45;&gt;Node9</title>
<path fill="none" stroke="midnightblue" d="M670.45,-158.66C661.88,-168.06 673.73,-177 706,-177 725.67,-177 737.75,-173.68 742.25,-168.96"/>
<polygon fill="midnightblue" stroke="midnightblue" points="745.72,-168.4 741.55,-158.66 738.73,-168.87 745.72,-168.4"/>
</g>
<!-- Node11 -->
<g id="node11" class="node">
<title>Node11</title>
<g id="a_node11"><a xlink:href="namespacepenify__hook_1_1commands_1_1config__commands.html#a3caf2b062dd33b1f1d7ddc7224f0ff87" target="_top" xlink:title=" ">
<polygon fill="white" stroke="black" points="418,-68 418,-109 583,-109 583,-68 418,-68"/>
<text text-anchor="start" x="426" y="-97" font-family="Helvetica,sans-Serif" font-size="10.00">penify_hook.commands.config</text>
<text text-anchor="start" x="426" y="-86" font-family="Helvetica,sans-Serif" font-size="10.00">_commands.get_env_var_or</text>
<text text-anchor="middle" x="500.5" y="-75" font-family="Helvetica,sans-Serif" font-size="10.00">_default</text>
</a>
</g>
</g>
<!-- Node10&#45;&gt;Node11 -->
<g id="edge11" class="edge">
<title>Node10&#45;&gt;Node11</title>
<path fill="none" stroke="midnightblue" d="M358.79,-54.53C374.37,-58.3 391.42,-62.41 408.1,-66.44"/>
<polygon fill="midnightblue" stroke="midnightblue" points="407.32,-69.85 417.86,-68.79 408.96,-63.05 407.32,-69.85"/>
</g>
<!-- Node12 -->
<g id="node12" class="node">
<title>Node12</title>
<g id="a_node12"><a xlink:href="namespacepenify__hook_1_1commands_1_1config__commands.html#aabe277132ce0bc0aacef951cf1dee2ae" target="_top" xlink:title=" ">
<polygon fill="white" stroke="black" points="418,-0.5 418,-30.5 583,-30.5 583,-0.5 418,-0.5"/>
<text text-anchor="start" x="426" y="-18.5" font-family="Helvetica,sans-Serif" font-size="10.00">penify_hook.commands.config</text>
<text text-anchor="middle" x="500.5" y="-7.5" font-family="Helvetica,sans-Serif" font-size="10.00">_commands.load_env_files</text>
</a>
</g>
</g>
<!-- Node10&#45;&gt;Node12 -->
<g id="edge12" class="edge">
<title>Node10&#45;&gt;Node12</title>
<path fill="none" stroke="midnightblue" d="M378.19,-29.84C387.92,-28.69 397.9,-27.51 407.76,-26.35"/>
<polygon fill="midnightblue" stroke="midnightblue" points="408.46,-29.79 417.98,-25.14 407.64,-22.84 408.46,-29.79"/>
</g>
<!-- Node12&#45;&gt;Node9 -->
<g id="edge14" class="edge">
<title>Node12&#45;&gt;Node9</title>
<path fill="none" stroke="midnightblue" d="M532.18,-30.56C547.67,-38.44 566.6,-48.51 583,-58.5 616.13,-78.68 652.41,-104.46 676.72,-122.31"/>
<polygon fill="midnightblue" stroke="midnightblue" points="674.67,-125.15 684.79,-128.27 678.83,-119.51 674.67,-125.15"/>
</g>
<!-- Node12&#45;&gt;Node12 -->
<g id="edge13" class="edge">
<title>Node12&#45;&gt;Node12</title>
<path fill="none" stroke="midnightblue" d="M464.95,-30.66C456.38,-40.06 468.23,-49 500.5,-49 520.17,-49 532.25,-45.68 536.75,-40.96"/>
<polygon fill="midnightblue" stroke="midnightblue" points="540.22,-40.4 536.05,-30.66 533.23,-40.87 540.22,-40.4"/>
</g>
<!-- Node13&#45;&gt;Node11 -->
<g id="edge16" class="edge">
<title>Node13&#45;&gt;Node11</title>
<path fill="none" stroke="midnightblue" d="M378.19,-88.5C387.92,-88.5 397.9,-88.5 407.76,-88.5"/>
<polygon fill="midnightblue" stroke="midnightblue" points="407.98,-92 417.98,-88.5 407.98,-85 407.98,-92"/>
</g>
<!-- Node13&#45;&gt;Node12 -->
<g id="edge17" class="edge">
<title>Node13&#45;&gt;Node12</title>
<path fill="none" stroke="midnightblue" d="M351.04,-73.47C361.39,-70.36 372.07,-66.97 382,-63.5 406.83,-54.83 434.04,-43.81 456.02,-34.52"/>
<polygon fill="midnightblue" stroke="midnightblue" points="457.58,-37.66 465.41,-30.52 454.84,-31.22 457.58,-37.66"/>
</g>
<!-- Node14&#45;&gt;Node11 -->
<g id="edge19" class="edge">
<title>Node14&#45;&gt;Node11</title>
<path fill="none" stroke="midnightblue" d="M358.79,-122.47C374.37,-118.7 391.42,-114.59 408.1,-110.56"/>
<polygon fill="midnightblue" stroke="midnightblue" points="408.96,-113.95 417.86,-108.21 407.32,-107.15 408.96,-113.95"/>
</g>
<!-- Node14&#45;&gt;Node12 -->
<g id="edge22" class="edge">
<title>Node14&#45;&gt;Node12</title>
<path fill="none" stroke="midnightblue" d="M364.88,-122.36C370.95,-119.6 376.77,-116.35 382,-112.5 405.25,-95.42 396.59,-77.82 418,-58.5 428.13,-49.36 440.55,-41.54 452.61,-35.17"/>
<polygon fill="midnightblue" stroke="midnightblue" points="454.37,-38.21 461.73,-30.59 451.22,-31.96 454.37,-38.21"/>
</g>
<!-- Node15 -->
<g id="node15" class="node">
<title>Node15</title>
<g id="a_node15"><a xlink:href="namespacepenify__hook_1_1commands_1_1config__commands.html#a6559a82d0bf727703d550d1003d3ed20" target="_top" xlink:title=" ">
<polygon fill="white" stroke="black" points="418,-128.5 418,-158.5 583,-158.5 583,-128.5 418,-128.5"/>
<text text-anchor="start" x="426" y="-146.5" font-family="Helvetica,sans-Serif" font-size="10.00">penify_hook.commands.config</text>
<text text-anchor="middle" x="500.5" y="-135.5" font-family="Helvetica,sans-Serif" font-size="10.00">_commands.get_penify_config</text>
</a>
</g>
</g>
<!-- Node14&#45;&gt;Node15 -->
<g id="edge20" class="edge">
<title>Node14&#45;&gt;Node15</title>
<path fill="none" stroke="midnightblue" d="M378.19,-139.91C387.92,-140.2 397.9,-140.5 407.76,-140.79"/>
<polygon fill="midnightblue" stroke="midnightblue" points="407.88,-144.29 417.98,-141.09 408.08,-137.3 407.88,-144.29"/>
</g>
<!-- Node15&#45;&gt;Node9 -->
<g id="edge21" class="edge">
<title>Node15&#45;&gt;Node9</title>
<path fill="none" stroke="midnightblue" d="M583.1,-143.5C595.84,-143.5 609.02,-143.5 621.79,-143.5"/>
<polygon fill="midnightblue" stroke="midnightblue" points="621.93,-147 631.93,-143.5 621.93,-140 621.93,-147"/>
</g>
</g>
</svg>
        <g id="navigator" transform="translate(0 0)" fill="#404254">
                <rect fill="#f2f5e9" fill-opacity="0.5" stroke="#606060" stroke-width=".5" x="0" y="0" width="60" height="60"/>
                <use id="zoomplus" xlink:href="#zoomPlus" x="17" y="9" onmousedown="handleZoom(evt,'in')"/>
                <use id="zoomminus" xlink:href="#zoomMin" x="42" y="9" onmousedown="handleZoom(evt,'out')"/>
                <use id="reset" xlink:href="#resetDef" x="30" y="36" onmousedown="handleReset()"/>
                <g id="arrowUp" xlink:href="#dirArrow" transform="translate(30 24)" onmousedown="handlePan(0,-1)">
                  <use xlink:href="#rim" fill="#404040">
                        <set attributeName="fill" to="#808080" begin="arrowUp.mouseover" end="arrowUp.mouseout"/>
                  </use>
                  <path fill="none" stroke="white" stroke-width="1.5" d="M0,-3.0v7 M-2.5,-0.5L0,-3.0L2.5,-0.5"/>
                </g>
                <g id="arrowRight" xlink:href="#dirArrow" transform="rotate(90) translate(36 -43)" onmousedown="handlePan(1,0)">
                  <use xlink:href="#rim" fill="#404040">
                        <set attributeName="fill" to="#808080" begin="arrowRight.mouseover" end="arrowRight.mouseout"/>
                  </use>
                  <path fill="none" stroke="white" stroke-width="1.5" d="M0,-3.0v7 M-2.5,-0.5L0,-3.0L2.5,-0.5"/>
                </g>
                <g id="arrowDown" xlink:href="#dirArrow" transform="rotate(180) translate(-30 -48)" onmousedown="handlePan(0,1)">
                  <use xlink:href="#rim" fill="#404040">
                        <set attributeName="fill" to="#808080" begin="arrowDown.mouseover" end="arrowDown.mouseout"/>
                  </use>
                  <path fill="none" stroke="white" stroke-width="1.5" d="M0,-3.0v7 M-2.5,-0.5L0,-3.0L2.5,-0.5"/>
                </g>
                <g id="arrowLeft" xlink:href="#dirArrow" transform="rotate(270) translate(-36 17)" onmousedown="handlePan(-1,0)">
                  <use xlink:href="#rim" fill="#404040">
                        <set attributeName="fill" to="#808080" begin="arrowLeft.mouseover" end="arrowLeft.mouseout"/>
                  </use>
                  <path fill="none" stroke="white" stroke-width="1.5" d="M0,-3.0v7 M-2.5,-0.5L0,-3.0L2.5,-0.5"/>
                </g>
        </g>
        <svg viewBox="0 0 15 15" width="100%" height="30px" preserveAspectRatio="xMaxYMin meet">
         <g id="arrow_out" transform="scale(0.3 0.3)">
          <a xlink:href="namespacepenify__hook_1_1commands_1_1commit__commands_af4f739f524c38b437e4e47673d683e23_cgraph_org.svg" target="_base">
           <rect id="button" ry="5" rx="5" y="6" x="6" height="38" width="38"
                fill="#f2f5e9" fill-opacity="0.5" stroke="#606060" stroke-width="1.0"/>
           <path id="arrow"
             d="M 11.500037,31.436501 C 11.940474,20.09759 22.043105,11.32322 32.158766,21.979434 L 37.068811,17.246167 C 37.068811,17.246167 37.088388,32 37.088388,32 L 22.160133,31.978069 C 22.160133,31.978069 26.997745,27.140456 26.997745,27.140456 C 18.528582,18.264221 13.291696,25.230495 11.500037,31.436501 z"
             style="fill:#404040;"/>
          </a>
         </g>
        </svg>
</svg>
