<?xml version="1.0" encoding="UTF-8" standalone="no"?>
<!DOCTYPE svg PUBLIC "-//W3C//DTD SVG 1.1//EN"
 "http://www.w3.org/Graphics/SVG/1.1/DTD/svg11.dtd">
<!-- Generated by graphviz version 2.43.0 (0)
 -->
<!-- Title: penify_hook.commands.config_commands.get_token Pages: 1 -->
<svg width="590pt" height="363pt"
 viewBox="0.00 0.00 590.00 363.00" xmlns="http://www.w3.org/2000/svg" xmlns:xlink="http://www.w3.org/1999/xlink">
<g id="graph0" class="graph" transform="scale(1 1) rotate(0) translate(4 359)">
<title>penify_hook.commands.config_commands.get_token</title>
<polygon fill="white" stroke="transparent" points="-4,4 -4,-359 586,-359 586,4 -4,4"/>
<!-- Node1 -->
<g id="node1" class="node">
<title>Node1</title>
<g id="a_node1"><a xlink:title=" ">
<polygon fill="#bfbfbf" stroke="black" points="417,-126 417,-156 582,-156 582,-126 417,-126"/>
<text text-anchor="start" x="425" y="-144" font-family="Helvetica,sans-Serif" font-size="10.00">penify_hook.commands.config</text>
<text text-anchor="middle" x="499.5" y="-133" font-family="Helvetica,sans-Serif" font-size="10.00">_commands.get_token</text>
</a>
</g>
</g>
<!-- Node2 -->
<g id="node2" class="node">
<title>Node2</title>
<g id="a_node2"><a xlink:href="namespacepenify__hook_1_1commands_1_1commit__commands.html#af4f739f524c38b437e4e47673d683e23" target="_top" xlink:title=" ">
<polygon fill="white" stroke="black" points="208,-252 208,-282 381,-282 381,-252 208,-252"/>
<text text-anchor="start" x="216" y="-270" font-family="Helvetica,sans-Serif" font-size="10.00">penify_hook.commands.commit</text>
<text text-anchor="middle" x="294.5" y="-259" font-family="Helvetica,sans-Serif" font-size="10.00">_commands.handle_commit</text>
</a>
</g>
</g>
<!-- Node1&#45;&gt;Node2 -->
<g id="edge1" class="edge">
<title>Node1&#45;&gt;Node2</title>
<path fill="none" stroke="midnightblue" d="M469.27,-162.15C445.83,-178.81 411.86,-202.26 381,-221 362.85,-232.02 341.85,-243.34 325.21,-251.99"/>
<polygon fill="midnightblue" stroke="midnightblue" points="471.6,-164.79 477.71,-156.13 467.54,-159.09 471.6,-164.79"/>
</g>
<!-- Node5 -->
<g id="node5" class="node">
<title>Node5</title>
<g id="a_node5"><a xlink:href="namespacepenify__hook_1_1commands_1_1doc__commands.html#a2006ab13bff718ef783868a910c0b704" target="_top" xlink:title=" ">
<polygon fill="white" stroke="black" points="218,-181 218,-211 371,-211 371,-181 218,-181"/>
<text text-anchor="start" x="226" y="-199" font-family="Helvetica,sans-Serif" font-size="10.00">penify_hook.commands.doc</text>
<text text-anchor="middle" x="294.5" y="-188" font-family="Helvetica,sans-Serif" font-size="10.00">_commands.handle_docgen</text>
</a>
</g>
</g>
<!-- Node1&#45;&gt;Node5 -->
<g id="edge5" class="edge">
<title>Node1&#45;&gt;Node5</title>
<path fill="none" stroke="midnightblue" d="M433.07,-158.73C406.57,-165.91 376.29,-174.11 350.9,-180.99"/>
<polygon fill="midnightblue" stroke="midnightblue" points="434.29,-162.02 443.03,-156.03 432.46,-155.27 434.29,-162.02"/>
</g>
<!-- Node10 -->
<g id="node10" class="node">
<title>Node10</title>
<g id="a_node10"><a xlink:href="classtests_1_1test__config__commands_1_1TestConfigCommands.html#a6c0207be563c3de59a6d16277805114c" target="_top" xlink:title=" ">
<polygon fill="white" stroke="black" points="215,-120.5 215,-161.5 374,-161.5 374,-120.5 215,-120.5"/>
<text text-anchor="start" x="223" y="-149.5" font-family="Helvetica,sans-Serif" font-size="10.00">tests.test_config_commands.</text>
<text text-anchor="start" x="223" y="-138.5" font-family="Helvetica,sans-Serif" font-size="10.00">TestConfigCommands.test</text>
<text text-anchor="middle" x="294.5" y="-127.5" font-family="Helvetica,sans-Serif" font-size="10.00">_get_token_from_config</text>
</a>
</g>
</g>
<!-- Node1&#45;&gt;Node10 -->
<g id="edge11" class="edge">
<title>Node1&#45;&gt;Node10</title>
<path fill="none" stroke="midnightblue" d="M406.49,-141C395.66,-141 384.68,-141 374.06,-141"/>
<polygon fill="midnightblue" stroke="midnightblue" points="406.81,-144.5 416.81,-141 406.81,-137.5 406.81,-144.5"/>
</g>
<!-- Node11 -->
<g id="node11" class="node">
<title>Node11</title>
<g id="a_node11"><a xlink:href="classtests_1_1test__config__commands_1_1TestConfigCommands.html#a3355f7d313bebaa71694387cf2bc5232" target="_top" xlink:title=" ">
<polygon fill="white" stroke="black" points="215,-60.5 215,-101.5 374,-101.5 374,-60.5 215,-60.5"/>
<text text-anchor="start" x="223" y="-89.5" font-family="Helvetica,sans-Serif" font-size="10.00">tests.test_config_commands.</text>
<text text-anchor="start" x="223" y="-78.5" font-family="Helvetica,sans-Serif" font-size="10.00">TestConfigCommands.test</text>
<text text-anchor="middle" x="294.5" y="-67.5" font-family="Helvetica,sans-Serif" font-size="10.00">_get_token_from_env</text>
</a>
</g>
</g>
<!-- Node1&#45;&gt;Node11 -->
<g id="edge12" class="edge">
<title>Node1&#45;&gt;Node11</title>
<path fill="none" stroke="midnightblue" d="M437.92,-123.09C414.95,-116.3 388.62,-108.52 364.9,-101.51"/>
<polygon fill="midnightblue" stroke="midnightblue" points="436.95,-126.46 447.54,-125.94 438.94,-119.75 436.95,-126.46"/>
</g>
<!-- Node12 -->
<g id="node12" class="node">
<title>Node12</title>
<g id="a_node12"><a xlink:href="classtests_1_1test__config__commands_1_1TestConfigCommands.html#a400ca5d9fcdc159714e8df54920f9436" target="_top" xlink:title=" ">
<polygon fill="white" stroke="black" points="215,-0.5 215,-41.5 374,-41.5 374,-0.5 215,-0.5"/>
<text text-anchor="start" x="223" y="-29.5" font-family="Helvetica,sans-Serif" font-size="10.00">tests.test_config_commands.</text>
<text text-anchor="start" x="223" y="-18.5" font-family="Helvetica,sans-Serif" font-size="10.00">TestConfigCommands.test</text>
<text text-anchor="middle" x="294.5" y="-7.5" font-family="Helvetica,sans-Serif" font-size="10.00">_get_token_not_found</text>
</a>
</g>
</g>
<!-- Node1&#45;&gt;Node12 -->
<g id="edge13" class="edge">
<title>Node1&#45;&gt;Node12</title>
<path fill="none" stroke="midnightblue" d="M474.41,-118.86C451.71,-98.93 416.03,-69.94 381,-51 374.77,-47.63 368.09,-44.52 361.31,-41.68"/>
<polygon fill="midnightblue" stroke="midnightblue" points="472.37,-121.72 482.16,-125.76 477.02,-116.5 472.37,-121.72"/>
</g>
<!-- Node3 -->
<g id="node3" class="node">
<title>Node3</title>
<g id="a_node3"><a xlink:href="namespacepenify__hook_1_1main.html#a16838b20df4bd14ee4b5e1dd2906738f" target="_top" xlink:title=" ">
<polygon fill="white" stroke="black" points="20.5,-257.5 20.5,-276.5 151.5,-276.5 151.5,-257.5 20.5,-257.5"/>
<text text-anchor="middle" x="86" y="-264.5" font-family="Helvetica,sans-Serif" font-size="10.00">penify_hook.main.main</text>
</a>
</g>
</g>
<!-- Node2&#45;&gt;Node3 -->
<g id="edge2" class="edge">
<title>Node2&#45;&gt;Node3</title>
<path fill="none" stroke="midnightblue" d="M197.56,-267C182.04,-267 166.29,-267 151.73,-267"/>
<polygon fill="midnightblue" stroke="midnightblue" points="197.72,-270.5 207.72,-267 197.72,-263.5 197.72,-270.5"/>
</g>
<!-- Node4 -->
<g id="node4" class="node">
<title>Node4</title>
<g id="a_node4"><a xlink:href="classtests_1_1test__commit__commands_1_1TestCommitCommands.html#ac13e368262340af98b30fd8ebdac6597" target="_top" xlink:title=" ">
<polygon fill="white" stroke="black" points="2.5,-313.5 2.5,-354.5 169.5,-354.5 169.5,-313.5 2.5,-313.5"/>
<text text-anchor="start" x="10.5" y="-342.5" font-family="Helvetica,sans-Serif" font-size="10.00">tests.test_commit_commands.</text>
<text text-anchor="start" x="10.5" y="-331.5" font-family="Helvetica,sans-Serif" font-size="10.00">TestCommitCommands.test</text>
<text text-anchor="middle" x="86" y="-320.5" font-family="Helvetica,sans-Serif" font-size="10.00">_handle_commit</text>
</a>
</g>
</g>
<!-- Node2&#45;&gt;Node4 -->
<g id="edge4" class="edge">
<title>Node2&#45;&gt;Node4</title>
<path fill="none" stroke="midnightblue" d="M237.51,-285.17C210.6,-293.9 178.23,-304.4 150.41,-313.43"/>
<polygon fill="midnightblue" stroke="midnightblue" points="238.73,-288.45 247.16,-282.04 236.57,-281.79 238.73,-288.45"/>
</g>
<!-- Node3&#45;&gt;Node3 -->
<g id="edge3" class="edge">
<title>Node3&#45;&gt;Node3</title>
<path fill="none" stroke="midnightblue" d="M124.97,-284.01C125.71,-290.07 112.72,-295 86,-295 48.83,-295 38.23,-285.46 54.2,-276.61"/>
<polygon fill="midnightblue" stroke="midnightblue" points="127.27,-281.36 117.8,-276.61 122.24,-286.23 127.27,-281.36"/>
</g>
<!-- Node5&#45;&gt;Node3 -->
<g id="edge6" class="edge">
<title>Node5&#45;&gt;Node3</title>
<path fill="none" stroke="midnightblue" d="M253.41,-215.38C230.06,-226.09 199.83,-239.02 172,-248 160.78,-251.62 148.5,-254.8 136.86,-257.47"/>
<polygon fill="midnightblue" stroke="midnightblue" points="255.04,-218.47 262.64,-211.09 252.09,-212.13 255.04,-218.47"/>
</g>
<!-- Node6 -->
<g id="node6" class="node">
<title>Node6</title>
<g id="a_node6"><a xlink:href="namespacetests_1_1test__doc__commands.html#ab158ffa48469b6c097a7a55fcb20c21a" target="_top" xlink:title=" ">
<polygon fill="white" stroke="black" points="3,-208 3,-238 169,-238 169,-208 3,-208"/>
<text text-anchor="start" x="11" y="-226" font-family="Helvetica,sans-Serif" font-size="10.00">tests.test_doc_commands.test</text>
<text text-anchor="middle" x="86" y="-215" font-family="Helvetica,sans-Serif" font-size="10.00">_handle_docgen_generate</text>
</a>
</g>
</g>
<!-- Node5&#45;&gt;Node6 -->
<g id="edge7" class="edge">
<title>Node5&#45;&gt;Node6</title>
<path fill="none" stroke="midnightblue" d="M207.69,-207.22C195,-208.88 181.94,-210.59 169.32,-212.24"/>
<polygon fill="midnightblue" stroke="midnightblue" points="208.32,-210.67 217.78,-205.9 207.41,-203.73 208.32,-210.67"/>
</g>
<!-- Node7 -->
<g id="node7" class="node">
<title>Node7</title>
<g id="a_node7"><a xlink:href="namespacetests_1_1test__doc__commands.html#ab74688baa8c9b5ba302c2877a9789d05" target="_top" xlink:title=" ">
<polygon fill="white" stroke="black" points="3,-159 3,-189 169,-189 169,-159 3,-159"/>
<text text-anchor="start" x="11" y="-177" font-family="Helvetica,sans-Serif" font-size="10.00">tests.test_doc_commands.test</text>
<text text-anchor="middle" x="86" y="-166" font-family="Helvetica,sans-Serif" font-size="10.00">_handle_docgen_install_hook</text>
</a>
</g>
</g>
<!-- Node5&#45;&gt;Node7 -->
<g id="edge8" class="edge">
<title>Node5&#45;&gt;Node7</title>
<path fill="none" stroke="midnightblue" d="M207.69,-186.86C195,-185.51 181.94,-184.11 169.32,-182.77"/>
<polygon fill="midnightblue" stroke="midnightblue" points="207.47,-190.35 217.78,-187.93 208.21,-183.39 207.47,-190.35"/>
</g>
<!-- Node8 -->
<g id="node8" class="node">
<title>Node8</title>
<g id="a_node8"><a xlink:href="namespacetests_1_1test__doc__commands.html#af9b01e5fc89255cac96747fa081c442c" target="_top" xlink:title=" ">
<polygon fill="white" stroke="black" points="3,-110 3,-140 169,-140 169,-110 3,-110"/>
<text text-anchor="start" x="11" y="-128" font-family="Helvetica,sans-Serif" font-size="10.00">tests.test_doc_commands.test</text>
<text text-anchor="middle" x="86" y="-117" font-family="Helvetica,sans-Serif" font-size="10.00">_handle_docgen_no_token</text>
</a>
</g>
</g>
<!-- Node5&#45;&gt;Node8 -->
<g id="edge9" class="edge">
<title>Node5&#45;&gt;Node8</title>
<path fill="none" stroke="midnightblue" d="M225.04,-177.61C219.21,-175.56 213.46,-173.35 208,-171 190.98,-163.68 189.01,-157.33 172,-150 163.52,-146.35 154.35,-143.03 145.28,-140.1"/>
<polygon fill="midnightblue" stroke="midnightblue" points="224.28,-181.05 234.88,-180.92 226.52,-174.42 224.28,-181.05"/>
</g>
<!-- Node9 -->
<g id="node9" class="node">
<title>Node9</title>
<g id="a_node9"><a xlink:href="namespacetests_1_1test__doc__commands.html#a1458af9ad0128c3ca1263b552fd5e482" target="_top" xlink:title=" ">
<polygon fill="white" stroke="black" points="0,-61 0,-91 172,-91 172,-61 0,-61"/>
<text text-anchor="start" x="8" y="-79" font-family="Helvetica,sans-Serif" font-size="10.00">tests.test_doc_commands.test</text>
<text text-anchor="middle" x="86" y="-68" font-family="Helvetica,sans-Serif" font-size="10.00">_handle_docgen_uninstall_hook</text>
</a>
</g>
</g>
<!-- Node5&#45;&gt;Node9 -->
<g id="edge10" class="edge">
<title>Node5&#45;&gt;Node9</title>
<path fill="none" stroke="midnightblue" d="M214.39,-175.72C212.17,-174.26 210.03,-172.69 208,-171 180.78,-148.4 199.32,-122.48 172,-100 167.86,-96.59 163.25,-93.66 158.4,-91.15"/>
<polygon fill="midnightblue" stroke="midnightblue" points="212.94,-178.92 223.35,-180.87 216.42,-172.85 212.94,-178.92"/>
</g>
</g>
</svg>
