<?xml version="1.0" encoding="UTF-8" standalone="no"?>
<!DOCTYPE svg PUBLIC "-//W3C//DTD SVG 1.1//EN"
 "http://www.w3.org/Graphics/SVG/1.1/DTD/svg11.dtd">
<!-- Generated by graphviz version 2.43.0 (0)
 -->
<!-- Title: penify_hook.commands.config_commands.get_token Pages: 1 -->
<!--zoomable 167 -->
<svg id="main" version="1.1" xmlns="http://www.w3.org/2000/svg" xmlns:xlink="http://www.w3.org/1999/xlink" xml:space="preserve" onload="init(evt)">
<style type="text/css"><![CDATA[
.edge:hover path { stroke: red; }
.edge:hover polygon { stroke: red; fill: red; }
]]></style>
<script type="text/javascript"><![CDATA[
var edges = document.getElementsByTagName('g');
if (edges && edges.length) {
  for (var i=0;i<edges.length;i++) {
    if (edges[i].id.substr(0,4)=='edge') {
      edges[i].setAttribute('class','edge');
    }
  }
}
]]></script>
        <defs>
                <circle id="rim" cx="0" cy="0" r="7"/>
                <circle id="rim2" cx="0" cy="0" r="3.5"/>
                <g id="zoomPlus">
                        <use xlink:href="#rim" fill="#404040">
                                <set attributeName="fill" to="#808080" begin="zoomplus.mouseover" end="zoomplus.mouseout"/>
                        </use>
                        <path d="M-4,0h8M0,-4v8" fill="none" stroke="white" stroke-width="1.5" pointer-events="none"/>
                </g>
                <g id="zoomMin">
                        <use xlink:href="#rim" fill="#404040">
                                <set attributeName="fill" to="#808080" begin="zoomminus.mouseover" end="zoomminus.mouseout"/>
                        </use>
                        <path d="M-4,0h8" fill="none" stroke="white" stroke-width="1.5" pointer-events="none"/>
                </g>
                <g id="dirArrow">
                        <path fill="none" stroke="white" stroke-width="1.5" d="M0,-3.0v7 M-2.5,-0.5L0,-3.0L2.5,-0.5"/>
                </g>
               <g id="resetDef">
                       <use xlink:href="#rim2" fill="#404040">
                               <set attributeName="fill" to="#808080" begin="reset.mouseover" end="reset.mouseout"/>
                       </use>
               </g>
        </defs>

<script type="text/javascript">
var viewWidth = 558;
var viewHeight = 167;
var sectionId = 'dynsection-10';
</script>
<script xlink:href="svgpan.js"/>
<svg id="graph" class="graph">
<g id="viewport">
<title>penify_hook.commands.config_commands.get_token</title>
<polygon fill="white" stroke="transparent" points="-4,4 -4,-162.5 554,-162.5 554,4 -4,4"/>
<!-- Node1 -->
<g id="node1" class="node">
<title>Node1</title>
<g id="a_node1"><a xlink:title=" ">
<polygon fill="#bfbfbf" stroke="black" points="0,-67.5 0,-97.5 165,-97.5 165,-67.5 0,-67.5"/>
<text text-anchor="start" x="8" y="-85.5" font-family="Helvetica,sans-Serif" font-size="10.00">penify_hook.commands.config</text>
<text text-anchor="middle" x="82.5" y="-74.5" font-family="Helvetica,sans-Serif" font-size="10.00">_commands.get_token</text>
</a>
</g>
</g>
<!-- Node2 -->
<g id="node2" class="node">
<title>Node2</title>
<g id="a_node2"><a xlink:href="namespacepenify__hook_1_1commands_1_1config__commands.html#a3caf2b062dd33b1f1d7ddc7224f0ff87" target="_top" xlink:title=" ">
<polygon fill="white" stroke="black" points="201,-117 201,-158 366,-158 366,-117 201,-117"/>
<text text-anchor="start" x="209" y="-146" font-family="Helvetica,sans-Serif" font-size="10.00">penify_hook.commands.config</text>
<text text-anchor="start" x="209" y="-135" font-family="Helvetica,sans-Serif" font-size="10.00">_commands.get_env_var_or</text>
<text text-anchor="middle" x="283.5" y="-124" font-family="Helvetica,sans-Serif" font-size="10.00">_default</text>
</a>
</g>
</g>
<!-- Node1&#45;&gt;Node2 -->
<g id="edge1" class="edge">
<title>Node1&#45;&gt;Node2</title>
<path fill="none" stroke="midnightblue" d="M137.88,-97.53C156.55,-102.69 177.92,-108.6 198.4,-114.26"/>
<polygon fill="midnightblue" stroke="midnightblue" points="197.47,-117.63 208.05,-116.92 199.34,-110.88 197.47,-117.63"/>
</g>
<!-- Node3 -->
<g id="node3" class="node">
<title>Node3</title>
<g id="a_node3"><a xlink:href="namespacepenify__hook_1_1commands_1_1config__commands.html#a6559a82d0bf727703d550d1003d3ed20" target="_top" xlink:title=" ">
<polygon fill="white" stroke="black" points="201,-67.5 201,-97.5 366,-97.5 366,-67.5 201,-67.5"/>
<text text-anchor="start" x="209" y="-85.5" font-family="Helvetica,sans-Serif" font-size="10.00">penify_hook.commands.config</text>
<text text-anchor="middle" x="283.5" y="-74.5" font-family="Helvetica,sans-Serif" font-size="10.00">_commands.get_penify_config</text>
</a>
</g>
</g>
<!-- Node1&#45;&gt;Node3 -->
<g id="edge2" class="edge">
<title>Node1&#45;&gt;Node3</title>
<path fill="none" stroke="midnightblue" d="M165.02,-82.5C173.5,-82.5 182.17,-82.5 190.76,-82.5"/>
<polygon fill="midnightblue" stroke="midnightblue" points="190.79,-86 200.79,-82.5 190.79,-79 190.79,-86"/>
</g>
<!-- Node5 -->
<g id="node5" class="node">
<title>Node5</title>
<g id="a_node5"><a xlink:href="namespacepenify__hook_1_1commands_1_1config__commands.html#aabe277132ce0bc0aacef951cf1dee2ae" target="_top" xlink:title=" ">
<polygon fill="white" stroke="black" points="201,-0.5 201,-30.5 366,-30.5 366,-0.5 201,-0.5"/>
<text text-anchor="start" x="209" y="-18.5" font-family="Helvetica,sans-Serif" font-size="10.00">penify_hook.commands.config</text>
<text text-anchor="middle" x="283.5" y="-7.5" font-family="Helvetica,sans-Serif" font-size="10.00">_commands.load_env_files</text>
</a>
</g>
</g>
<!-- Node1&#45;&gt;Node5 -->
<g id="edge5" class="edge">
<title>Node1&#45;&gt;Node5</title>
<path fill="none" stroke="midnightblue" d="M128.16,-67.46C157.76,-57.5 196.77,-44.36 228.17,-33.79"/>
<polygon fill="midnightblue" stroke="midnightblue" points="229.29,-37.11 237.65,-30.6 227.05,-30.48 229.29,-37.11"/>
</g>
<!-- Node4 -->
<g id="node4" class="node">
<title>Node4</title>
<g id="a_node4"><a xlink:href="namespacepenify__hook_1_1utils.html#a95c3f9c80860d6a2e2d061d2fb660a3f" target="_top" xlink:title=" ">
<polygon fill="white" stroke="black" points="402,-33.5 402,-63.5 550,-63.5 550,-33.5 402,-33.5"/>
<text text-anchor="start" x="410" y="-51.5" font-family="Helvetica,sans-Serif" font-size="10.00">penify_hook.utils.recursive</text>
<text text-anchor="middle" x="476" y="-40.5" font-family="Helvetica,sans-Serif" font-size="10.00">_search_git_folder</text>
</a>
</g>
</g>
<!-- Node3&#45;&gt;Node4 -->
<g id="edge3" class="edge">
<title>Node3&#45;&gt;Node4</title>
<path fill="none" stroke="midnightblue" d="M366.12,-67.93C374.68,-66.4 383.4,-64.85 391.98,-63.32"/>
<polygon fill="midnightblue" stroke="midnightblue" points="392.74,-66.74 401.97,-61.53 391.51,-59.85 392.74,-66.74"/>
</g>
<!-- Node4&#45;&gt;Node4 -->
<g id="edge4" class="edge">
<title>Node4&#45;&gt;Node4</title>
<path fill="none" stroke="midnightblue" d="M442.54,-63.66C434.47,-73.06 445.62,-82 476,-82 494.51,-82 505.88,-78.68 510.12,-73.96"/>
<polygon fill="midnightblue" stroke="midnightblue" points="513.59,-73.42 509.46,-63.66 506.6,-73.86 513.59,-73.42"/>
</g>
<!-- Node5&#45;&gt;Node4 -->
<g id="edge7" class="edge">
<title>Node5&#45;&gt;Node4</title>
<path fill="none" stroke="midnightblue" d="M366.12,-29.64C374.68,-31.12 383.4,-32.63 391.98,-34.12"/>
<polygon fill="midnightblue" stroke="midnightblue" points="391.52,-37.59 401.97,-35.85 392.72,-30.69 391.52,-37.59"/>
</g>
<!-- Node5&#45;&gt;Node5 -->
<g id="edge6" class="edge">
<title>Node5&#45;&gt;Node5</title>
<path fill="none" stroke="midnightblue" d="M250.04,-30.66C241.97,-40.06 253.12,-49 283.5,-49 302.01,-49 313.38,-45.68 317.62,-40.96"/>
<polygon fill="midnightblue" stroke="midnightblue" points="321.09,-40.42 316.96,-30.66 314.1,-40.86 321.09,-40.42"/>
</g>
</g>
</svg>
        <g id="navigator" transform="translate(0 0)" fill="#404254">
                <rect fill="#f2f5e9" fill-opacity="0.5" stroke="#606060" stroke-width=".5" x="0" y="0" width="60" height="60"/>
                <use id="zoomplus" xlink:href="#zoomPlus" x="17" y="9" onmousedown="handleZoom(evt,'in')"/>
                <use id="zoomminus" xlink:href="#zoomMin" x="42" y="9" onmousedown="handleZoom(evt,'out')"/>
                <use id="reset" xlink:href="#resetDef" x="30" y="36" onmousedown="handleReset()"/>
                <g id="arrowUp" xlink:href="#dirArrow" transform="translate(30 24)" onmousedown="handlePan(0,-1)">
                  <use xlink:href="#rim" fill="#404040">
                        <set attributeName="fill" to="#808080" begin="arrowUp.mouseover" end="arrowUp.mouseout"/>
                  </use>
                  <path fill="none" stroke="white" stroke-width="1.5" d="M0,-3.0v7 M-2.5,-0.5L0,-3.0L2.5,-0.5"/>
                </g>
                <g id="arrowRight" xlink:href="#dirArrow" transform="rotate(90) translate(36 -43)" onmousedown="handlePan(1,0)">
                  <use xlink:href="#rim" fill="#404040">
                        <set attributeName="fill" to="#808080" begin="arrowRight.mouseover" end="arrowRight.mouseout"/>
                  </use>
                  <path fill="none" stroke="white" stroke-width="1.5" d="M0,-3.0v7 M-2.5,-0.5L0,-3.0L2.5,-0.5"/>
                </g>
                <g id="arrowDown" xlink:href="#dirArrow" transform="rotate(180) translate(-30 -48)" onmousedown="handlePan(0,1)">
                  <use xlink:href="#rim" fill="#404040">
                        <set attributeName="fill" to="#808080" begin="arrowDown.mouseover" end="arrowDown.mouseout"/>
                  </use>
                  <path fill="none" stroke="white" stroke-width="1.5" d="M0,-3.0v7 M-2.5,-0.5L0,-3.0L2.5,-0.5"/>
                </g>
                <g id="arrowLeft" xlink:href="#dirArrow" transform="rotate(270) translate(-36 17)" onmousedown="handlePan(-1,0)">
                  <use xlink:href="#rim" fill="#404040">
                        <set attributeName="fill" to="#808080" begin="arrowLeft.mouseover" end="arrowLeft.mouseout"/>
                  </use>
                  <path fill="none" stroke="white" stroke-width="1.5" d="M0,-3.0v7 M-2.5,-0.5L0,-3.0L2.5,-0.5"/>
                </g>
        </g>
        <svg viewBox="0 0 15 15" width="100%" height="30px" preserveAspectRatio="xMaxYMin meet">
         <g id="arrow_out" transform="scale(0.3 0.3)">
          <a xlink:href="namespacepenify__hook_1_1commands_1_1config__commands_a5503d51c905e2f1b299b12d2a73bd812_cgraph_org.svg" target="_base">
           <rect id="button" ry="5" rx="5" y="6" x="6" height="38" width="38"
                fill="#f2f5e9" fill-opacity="0.5" stroke="#606060" stroke-width="1.0"/>
           <path id="arrow"
             d="M 11.500037,31.436501 C 11.940474,20.09759 22.043105,11.32322 32.158766,21.979434 L 37.068811,17.246167 C 37.068811,17.246167 37.088388,32 37.088388,32 L 22.160133,31.978069 C 22.160133,31.978069 26.997745,27.140456 26.997745,27.140456 C 18.528582,18.264221 13.291696,25.230495 11.500037,31.436501 z"
             style="fill:#404040;"/>
          </a>
         </g>
        </svg>
</svg>
