<?xml version="1.0" encoding="UTF-8" standalone="no"?>
<!DOCTYPE svg PUBLIC "-//W3C//DTD SVG 1.1//EN"
 "http://www.w3.org/Graphics/SVG/1.1/DTD/svg11.dtd">
<!-- Generated by graphviz version 2.43.0 (0)
 -->
<!-- Title: penify_hook.commands.commit_commands.commit_code Pages: 1 -->
<svg width="591pt" height="194pt"
 viewBox="0.00 0.00 591.00 194.00" xmlns="http://www.w3.org/2000/svg" xmlns:xlink="http://www.w3.org/1999/xlink">
<g id="graph0" class="graph" transform="scale(1 1) rotate(0) translate(4 190)">
<title>penify_hook.commands.commit_commands.commit_code</title>
<polygon fill="white" stroke="transparent" points="-4,4 -4,-190 587,-190 587,4 -4,4"/>
<!-- Node1 -->
<g id="node1" class="node">
<title>Node1</title>
<g id="a_node1"><a xlink:title=" ">
<polygon fill="#bfbfbf" stroke="black" points="0,-89.5 0,-119.5 173,-119.5 173,-89.5 0,-89.5"/>
<text text-anchor="start" x="8" y="-107.5" font-family="Helvetica,sans-Serif" font-size="10.00">penify_hook.commands.commit</text>
<text text-anchor="middle" x="86.5" y="-96.5" font-family="Helvetica,sans-Serif" font-size="10.00">_commands.commit_code</text>
</a>
</g>
</g>
<!-- Node2 -->
<g id="node2" class="node">
<title>Node2</title>
<g id="a_node2"><a xlink:href="namespacepenify__hook_1_1ui__utils.html#a6f0acd7dd91abfe67d0807803bc3b65f" target="_top" xlink:title=" ">
<polygon fill="white" stroke="black" points="221,-155.5 221,-185.5 361,-185.5 361,-155.5 221,-155.5"/>
<text text-anchor="start" x="229" y="-173.5" font-family="Helvetica,sans-Serif" font-size="10.00">penify_hook.ui_utils.print</text>
<text text-anchor="middle" x="291" y="-162.5" font-family="Helvetica,sans-Serif" font-size="10.00">_error</text>
</a>
</g>
</g>
<!-- Node1&#45;&gt;Node2 -->
<g id="edge1" class="edge">
<title>Node1&#45;&gt;Node2</title>
<path fill="none" stroke="midnightblue" d="M131.27,-119.58C154.35,-127.45 183.15,-137.15 209,-145.5 215.93,-147.74 223.21,-150.05 230.45,-152.31"/>
<polygon fill="midnightblue" stroke="midnightblue" points="229.66,-155.73 240.24,-155.37 231.74,-149.05 229.66,-155.73"/>
</g>
<!-- Node4 -->
<g id="node4" class="node">
<title>Node4</title>
<g id="a_node4"><a xlink:href="namespacepenify__hook_1_1ui__utils.html#a811f0adf6e9bf71510c379b6fa155e44" target="_top" xlink:title=" ">
<polygon fill="white" stroke="black" points="209,-117 209,-136 373,-136 373,-117 209,-117"/>
<text text-anchor="middle" x="291" y="-124" font-family="Helvetica,sans-Serif" font-size="10.00">penify_hook.ui_utils.print_info</text>
</a>
</g>
</g>
<!-- Node1&#45;&gt;Node4 -->
<g id="edge3" class="edge">
<title>Node1&#45;&gt;Node4</title>
<path fill="none" stroke="midnightblue" d="M173.08,-113.8C181.62,-114.73 190.31,-115.67 198.89,-116.6"/>
<polygon fill="midnightblue" stroke="midnightblue" points="198.6,-120.09 208.91,-117.69 199.35,-113.13 198.6,-120.09"/>
</g>
<!-- Node6 -->
<g id="node6" class="node">
<title>Node6</title>
<g id="a_node6"><a xlink:href="namespacepenify__hook_1_1ui__utils.html#a1ffbb9671dbe233770268e2dd66a67fa" target="_top" xlink:title=" ">
<polygon fill="white" stroke="black" points="221,-67.5 221,-97.5 361,-97.5 361,-67.5 221,-67.5"/>
<text text-anchor="start" x="229" y="-85.5" font-family="Helvetica,sans-Serif" font-size="10.00">penify_hook.ui_utils.print</text>
<text text-anchor="middle" x="291" y="-74.5" font-family="Helvetica,sans-Serif" font-size="10.00">_warning</text>
</a>
</g>
</g>
<!-- Node1&#45;&gt;Node6 -->
<g id="edge5" class="edge">
<title>Node1&#45;&gt;Node6</title>
<path fill="none" stroke="midnightblue" d="M173.08,-95.2C185.57,-93.85 198.37,-92.45 210.72,-91.11"/>
<polygon fill="midnightblue" stroke="midnightblue" points="211.4,-94.56 220.97,-90 210.65,-87.6 211.4,-94.56"/>
</g>
<!-- Node8 -->
<g id="node8" class="node">
<title>Node8</title>
<g id="a_node8"><a xlink:href="namespacepenify__hook_1_1utils.html#a95c3f9c80860d6a2e2d061d2fb660a3f" target="_top" xlink:title=" ">
<polygon fill="white" stroke="black" points="217,-0.5 217,-30.5 365,-30.5 365,-0.5 217,-0.5"/>
<text text-anchor="start" x="225" y="-18.5" font-family="Helvetica,sans-Serif" font-size="10.00">penify_hook.utils.recursive</text>
<text text-anchor="middle" x="291" y="-7.5" font-family="Helvetica,sans-Serif" font-size="10.00">_search_git_folder</text>
</a>
</g>
</g>
<!-- Node1&#45;&gt;Node8 -->
<g id="edge7" class="edge">
<title>Node1&#45;&gt;Node8</title>
<path fill="none" stroke="midnightblue" d="M121.85,-89.4C156.14,-74.33 208.95,-51.12 246.22,-34.74"/>
<polygon fill="midnightblue" stroke="midnightblue" points="248.07,-37.75 255.82,-30.52 245.26,-31.34 248.07,-37.75"/>
</g>
<!-- Node3 -->
<g id="node3" class="node">
<title>Node3</title>
<g id="a_node3"><a xlink:href="namespacepenify__hook_1_1ui__utils.html#a4dd934568897433fa73f9cc182ac4a3e" target="_top" xlink:title=" ">
<polygon fill="white" stroke="black" points="421,-155.5 421,-185.5 571,-185.5 571,-155.5 421,-155.5"/>
<text text-anchor="start" x="429" y="-173.5" font-family="Helvetica,sans-Serif" font-size="10.00">penify_hook.ui_utils.format</text>
<text text-anchor="middle" x="496" y="-162.5" font-family="Helvetica,sans-Serif" font-size="10.00">_error</text>
</a>
</g>
</g>
<!-- Node2&#45;&gt;Node3 -->
<g id="edge2" class="edge">
<title>Node2&#45;&gt;Node3</title>
<path fill="none" stroke="midnightblue" d="M361.01,-170.5C377,-170.5 394.2,-170.5 410.76,-170.5"/>
<polygon fill="midnightblue" stroke="midnightblue" points="410.97,-174 420.97,-170.5 410.97,-167 410.97,-174"/>
</g>
<!-- Node5 -->
<g id="node5" class="node">
<title>Node5</title>
<g id="a_node5"><a xlink:href="namespacepenify__hook_1_1ui__utils.html#a92c3e466d1912058167be2eacf85b9f6" target="_top" xlink:title=" ">
<polygon fill="white" stroke="black" points="409,-117 409,-136 583,-136 583,-117 409,-117"/>
<text text-anchor="middle" x="496" y="-124" font-family="Helvetica,sans-Serif" font-size="10.00">penify_hook.ui_utils.format_info</text>
</a>
</g>
</g>
<!-- Node4&#45;&gt;Node5 -->
<g id="edge4" class="edge">
<title>Node4&#45;&gt;Node5</title>
<path fill="none" stroke="midnightblue" d="M373.11,-126.5C381.52,-126.5 390.13,-126.5 398.69,-126.5"/>
<polygon fill="midnightblue" stroke="midnightblue" points="398.7,-130 408.7,-126.5 398.7,-123 398.7,-130"/>
</g>
<!-- Node7 -->
<g id="node7" class="node">
<title>Node7</title>
<g id="a_node7"><a xlink:href="namespacepenify__hook_1_1ui__utils.html#a0a6fd2613c6fe053b6e4356cd9e5cda2" target="_top" xlink:title=" ">
<polygon fill="white" stroke="black" points="421,-67.5 421,-97.5 571,-97.5 571,-67.5 421,-67.5"/>
<text text-anchor="start" x="429" y="-85.5" font-family="Helvetica,sans-Serif" font-size="10.00">penify_hook.ui_utils.format</text>
<text text-anchor="middle" x="496" y="-74.5" font-family="Helvetica,sans-Serif" font-size="10.00">_warning</text>
</a>
</g>
</g>
<!-- Node6&#45;&gt;Node7 -->
<g id="edge6" class="edge">
<title>Node6&#45;&gt;Node7</title>
<path fill="none" stroke="midnightblue" d="M361.01,-82.5C377,-82.5 394.2,-82.5 410.76,-82.5"/>
<polygon fill="midnightblue" stroke="midnightblue" points="410.97,-86 420.97,-82.5 410.97,-79 410.97,-86"/>
</g>
<!-- Node8&#45;&gt;Node8 -->
<g id="edge8" class="edge">
<title>Node8&#45;&gt;Node8</title>
<path fill="none" stroke="midnightblue" d="M255.45,-30.66C246.88,-40.06 258.73,-49 291,-49 310.67,-49 322.75,-45.68 327.25,-40.96"/>
<polygon fill="midnightblue" stroke="midnightblue" points="330.72,-40.4 326.55,-30.66 323.73,-40.87 330.72,-40.4"/>
</g>
</g>
</svg>
