<?xml version="1.0" encoding="UTF-8" standalone="no"?>
<!DOCTYPE svg PUBLIC "-//W3C//DTD SVG 1.1//EN"
 "http://www.w3.org/Graphics/SVG/1.1/DTD/svg11.dtd">
<!-- Generated by graphviz version 2.43.0 (0)
 -->
<!-- Title: penify_hook.main.main Pages: 1 -->
<svg width="1197pt" height="642pt"
 viewBox="0.00 0.00 1197.00 641.50" xmlns="http://www.w3.org/2000/svg" xmlns:xlink="http://www.w3.org/1999/xlink">
<g id="graph0" class="graph" transform="scale(1 1) rotate(0) translate(4 637.5)">
<title>penify_hook.main.main</title>
<polygon fill="white" stroke="transparent" points="-4,4 -4,-637.5 1193,-637.5 1193,4 -4,4"/>
<!-- Node1 -->
<g id="node1" class="node">
<title>Node1</title>
<g id="a_node1"><a xlink:title=" ">
<polygon fill="#bfbfbf" stroke="black" points="0,-214 0,-233 131,-233 131,-214 0,-214"/>
<text text-anchor="middle" x="65.5" y="-221" font-family="Helvetica,sans-Serif" font-size="10.00">penify_hook.main.main</text>
</a>
</g>
</g>
<!-- Node1&#45;&gt;Node1 -->
<g id="edge43" class="edge">
<title>Node1&#45;&gt;Node1</title>
<path fill="none" stroke="midnightblue" d="M34.98,-233.26C20.14,-242.07 30.31,-251.5 65.5,-251.5 90.24,-251.5 102.62,-246.84 102.62,-241"/>
<polygon fill="midnightblue" stroke="midnightblue" points="105.17,-238.59 96.02,-233.26 99.84,-243.14 105.17,-238.59"/>
</g>
<!-- Node2 -->
<g id="node2" class="node">
<title>Node2</title>
<g id="a_node2"><a xlink:href="namespacepenify__hook_1_1commands_1_1commit__commands.html#af4f739f524c38b437e4e47673d683e23" target="_top" xlink:title=" ">
<polygon fill="white" stroke="black" points="396,-433.5 396,-463.5 569,-463.5 569,-433.5 396,-433.5"/>
<text text-anchor="start" x="404" y="-451.5" font-family="Helvetica,sans-Serif" font-size="10.00">penify_hook.commands.commit</text>
<text text-anchor="middle" x="482.5" y="-440.5" font-family="Helvetica,sans-Serif" font-size="10.00">_commands.handle_commit</text>
</a>
</g>
</g>
<!-- Node1&#45;&gt;Node2 -->
<g id="edge1" class="edge">
<title>Node1&#45;&gt;Node2</title>
<path fill="none" stroke="midnightblue" d="M74.45,-233.06C90.35,-251.68 127.9,-293.18 167,-318.5 248.02,-370.96 353.7,-409.4 419.59,-430.36"/>
<polygon fill="midnightblue" stroke="midnightblue" points="418.82,-433.79 429.41,-433.45 420.92,-427.11 418.82,-433.79"/>
</g>
<!-- Node6 -->
<g id="node6" class="node">
<title>Node6</title>
<g id="a_node6"><a xlink:href="namespacepenify__hook_1_1ui__utils.html#a811f0adf6e9bf71510c379b6fa155e44" target="_top" xlink:title=" ">
<polygon fill="white" stroke="black" points="814.5,-614 814.5,-633 978.5,-633 978.5,-614 814.5,-614"/>
<text text-anchor="middle" x="896.5" y="-621" font-family="Helvetica,sans-Serif" font-size="10.00">penify_hook.ui_utils.print_info</text>
</a>
</g>
</g>
<!-- Node1&#45;&gt;Node6 -->
<g id="edge44" class="edge">
<title>Node1&#45;&gt;Node6</title>
<path fill="none" stroke="midnightblue" d="M70.53,-233.08C81.99,-259.35 117.23,-333.54 167,-377.5 329.38,-520.94 396.9,-531.19 605,-591.5 669.94,-610.32 745.98,-618.22 803.97,-621.46"/>
<polygon fill="midnightblue" stroke="midnightblue" points="804.05,-624.97 814.21,-622 804.41,-617.98 804.05,-624.97"/>
</g>
<!-- Node17 -->
<g id="node17" class="node">
<title>Node17</title>
<g id="a_node17"><a xlink:href="namespacepenify__hook_1_1config__command.html#a240e5331681eb574ac319d7458783bde" target="_top" xlink:title=" ">
<polygon fill="white" stroke="black" points="193,-257.5 193,-287.5 334,-287.5 334,-257.5 193,-257.5"/>
<text text-anchor="start" x="201" y="-275.5" font-family="Helvetica,sans-Serif" font-size="10.00">penify_hook.config</text>
<text text-anchor="middle" x="263.5" y="-264.5" font-family="Helvetica,sans-Serif" font-size="10.00">_command.handle_config</text>
</a>
</g>
</g>
<!-- Node1&#45;&gt;Node17 -->
<g id="edge25" class="edge">
<title>Node1&#45;&gt;Node17</title>
<path fill="none" stroke="midnightblue" d="M104.76,-233.06C129.68,-239.29 162.94,-247.61 192.49,-255"/>
<polygon fill="midnightblue" stroke="midnightblue" points="191.8,-258.43 202.35,-257.46 193.5,-251.64 191.8,-258.43"/>
</g>
<!-- Node22 -->
<g id="node22" class="node">
<title>Node22</title>
<g id="a_node22"><a xlink:href="namespacepenify__hook_1_1commands_1_1doc__commands.html#a2006ab13bff718ef783868a910c0b704" target="_top" xlink:title=" ">
<polygon fill="white" stroke="black" points="406,-262.5 406,-292.5 559,-292.5 559,-262.5 406,-262.5"/>
<text text-anchor="start" x="414" y="-280.5" font-family="Helvetica,sans-Serif" font-size="10.00">penify_hook.commands.doc</text>
<text text-anchor="middle" x="482.5" y="-269.5" font-family="Helvetica,sans-Serif" font-size="10.00">_commands.handle_docgen</text>
</a>
</g>
</g>
<!-- Node1&#45;&gt;Node22 -->
<g id="edge34" class="edge">
<title>Node1&#45;&gt;Node22</title>
<path fill="none" stroke="midnightblue" d="M75.3,-233.16C91.47,-250.11 127.89,-284.65 167,-297.5 251,-325.09 354.28,-309.88 419.02,-294.91"/>
<polygon fill="midnightblue" stroke="midnightblue" points="420.15,-298.23 429.07,-292.51 418.53,-291.42 420.15,-298.23"/>
</g>
<!-- Node26 -->
<g id="node26" class="node">
<title>Node26</title>
<g id="a_node26"><a xlink:href="namespacepenify__hook_1_1login__command.html#ae4bf932fbafeff834b0a0c5a37f74ccd" target="_top" xlink:title=" ">
<polygon fill="white" stroke="black" points="167,-208.5 167,-238.5 360,-238.5 360,-208.5 167,-208.5"/>
<text text-anchor="start" x="175" y="-226.5" font-family="Helvetica,sans-Serif" font-size="10.00">penify_hook.login_command.handle</text>
<text text-anchor="middle" x="263.5" y="-215.5" font-family="Helvetica,sans-Serif" font-size="10.00">_login</text>
</a>
</g>
</g>
<!-- Node1&#45;&gt;Node26 -->
<g id="edge39" class="edge">
<title>Node1&#45;&gt;Node26</title>
<path fill="none" stroke="midnightblue" d="M131.22,-223.5C139.4,-223.5 147.92,-223.5 156.53,-223.5"/>
<polygon fill="midnightblue" stroke="midnightblue" points="156.66,-227 166.66,-223.5 156.66,-220 156.66,-227"/>
</g>
<!-- Node29 -->
<g id="node29" class="node">
<title>Node29</title>
<g id="a_node29"><a xlink:href="namespacepenify__hook_1_1commands_1_1commit__commands.html#a8627583116eb78e31a4d3cdc16d2f15c" target="_top" xlink:title=" ">
<polygon fill="white" stroke="black" points="171,-159.5 171,-189.5 356,-189.5 356,-159.5 171,-159.5"/>
<text text-anchor="start" x="179" y="-177.5" font-family="Helvetica,sans-Serif" font-size="10.00">penify_hook.commands.commit</text>
<text text-anchor="middle" x="263.5" y="-166.5" font-family="Helvetica,sans-Serif" font-size="10.00">_commands.setup_commit_parser</text>
</a>
</g>
</g>
<!-- Node1&#45;&gt;Node29 -->
<g id="edge45" class="edge">
<title>Node1&#45;&gt;Node29</title>
<path fill="none" stroke="midnightblue" d="M104.76,-213.94C129.68,-207.71 162.94,-199.39 192.49,-192"/>
<polygon fill="midnightblue" stroke="midnightblue" points="193.5,-195.36 202.35,-189.54 191.8,-188.57 193.5,-195.36"/>
</g>
<!-- Node30 -->
<g id="node30" class="node">
<title>Node30</title>
<g id="a_node30"><a xlink:href="namespacepenify__hook_1_1config__command.html#a4f3eb92164a69df1446d745f8a09285e" target="_top" xlink:title=" ">
<polygon fill="white" stroke="black" points="196,-99 196,-140 331,-140 331,-99 196,-99"/>
<text text-anchor="start" x="204" y="-128" font-family="Helvetica,sans-Serif" font-size="10.00">penify_hook.config</text>
<text text-anchor="start" x="204" y="-117" font-family="Helvetica,sans-Serif" font-size="10.00">_command.setup_config</text>
<text text-anchor="middle" x="263.5" y="-106" font-family="Helvetica,sans-Serif" font-size="10.00">_parser</text>
</a>
</g>
</g>
<!-- Node1&#45;&gt;Node30 -->
<g id="edge46" class="edge">
<title>Node1&#45;&gt;Node30</title>
<path fill="none" stroke="midnightblue" d="M77.2,-213.95C94.8,-198.67 131.45,-168.61 167,-150.5 173.11,-147.39 179.59,-144.51 186.19,-141.85"/>
<polygon fill="midnightblue" stroke="midnightblue" points="187.82,-144.97 195.91,-138.12 185.32,-138.43 187.82,-144.97"/>
</g>
<!-- Node31 -->
<g id="node31" class="node">
<title>Node31</title>
<g id="a_node31"><a xlink:href="namespacepenify__hook_1_1commands_1_1doc__commands.html#acc7f4ead1b11951d885fa5c151c2cbe0" target="_top" xlink:title=" ">
<polygon fill="white" stroke="black" points="172.5,-49.5 172.5,-79.5 354.5,-79.5 354.5,-49.5 172.5,-49.5"/>
<text text-anchor="start" x="180.5" y="-67.5" font-family="Helvetica,sans-Serif" font-size="10.00">penify_hook.commands.doc</text>
<text text-anchor="middle" x="263.5" y="-56.5" font-family="Helvetica,sans-Serif" font-size="10.00">_commands.setup_docgen_parser</text>
</a>
</g>
</g>
<!-- Node1&#45;&gt;Node31 -->
<g id="edge47" class="edge">
<title>Node1&#45;&gt;Node31</title>
<path fill="none" stroke="midnightblue" d="M70.81,-213.99C82.5,-189.32 117.28,-122.91 167,-89.5 169.93,-87.53 173.02,-85.71 176.2,-84.04"/>
<polygon fill="midnightblue" stroke="midnightblue" points="177.87,-87.12 185.42,-79.69 174.88,-80.79 177.87,-87.12"/>
</g>
<!-- Node32 -->
<g id="node32" class="node">
<title>Node32</title>
<g id="a_node32"><a xlink:href="namespacepenify__hook_1_1login__command.html#aae63db4c484797bead34b7d874020c6a" target="_top" xlink:title=" ">
<polygon fill="white" stroke="black" points="170,-0.5 170,-30.5 357,-30.5 357,-0.5 170,-0.5"/>
<text text-anchor="start" x="178" y="-18.5" font-family="Helvetica,sans-Serif" font-size="10.00">penify_hook.login_command.setup</text>
<text text-anchor="middle" x="263.5" y="-7.5" font-family="Helvetica,sans-Serif" font-size="10.00">_login_parser</text>
</a>
</g>
</g>
<!-- Node1&#45;&gt;Node32 -->
<g id="edge48" class="edge">
<title>Node1&#45;&gt;Node32</title>
<path fill="none" stroke="midnightblue" d="M68.86,-213.69C76.83,-182.82 105.68,-86.95 167,-39.5 168.81,-38.1 170.7,-36.78 172.64,-35.53"/>
<polygon fill="midnightblue" stroke="midnightblue" points="174.51,-38.5 181.51,-30.55 171.08,-32.4 174.51,-38.5"/>
</g>
<!-- Node3 -->
<g id="node3" class="node">
<title>Node3</title>
<g id="a_node3"><a xlink:href="namespacepenify__hook_1_1commands_1_1commit__commands.html#a62564c4e8ad59fc46d56cb0f9122a71a" target="_top" xlink:title=" ">
<polygon fill="white" stroke="black" points="605,-515.5 605,-545.5 778,-545.5 778,-515.5 605,-515.5"/>
<text text-anchor="start" x="613" y="-533.5" font-family="Helvetica,sans-Serif" font-size="10.00">penify_hook.commands.commit</text>
<text text-anchor="middle" x="691.5" y="-522.5" font-family="Helvetica,sans-Serif" font-size="10.00">_commands.commit_code</text>
</a>
</g>
</g>
<!-- Node2&#45;&gt;Node3 -->
<g id="edge2" class="edge">
<title>Node2&#45;&gt;Node3</title>
<path fill="none" stroke="midnightblue" d="M519.26,-463.57C543.4,-473.66 576.02,-487.12 605,-498.5 616.29,-502.94 628.48,-507.58 640.02,-511.91"/>
<polygon fill="midnightblue" stroke="midnightblue" points="638.92,-515.24 649.52,-515.47 641.38,-508.69 638.92,-515.24"/>
</g>
<!-- Node2&#45;&gt;Node6 -->
<g id="edge24" class="edge">
<title>Node2&#45;&gt;Node6</title>
<path fill="none" stroke="midnightblue" d="M496.02,-463.51C516.38,-486.89 559.04,-531.79 605,-555.5 643.8,-575.51 757.46,-598.65 830.57,-612.13"/>
<polygon fill="midnightblue" stroke="midnightblue" points="830.14,-615.6 840.61,-613.96 831.4,-608.72 830.14,-615.6"/>
</g>
<!-- Node11 -->
<g id="node11" class="node">
<title>Node11</title>
<g id="a_node11"><a xlink:href="namespacepenify__hook_1_1commands_1_1config__commands.html#a15bf3685c4dcb5c15ba6a4055e484cf2" target="_top" xlink:title=" ">
<polygon fill="white" stroke="black" points="609,-409.5 609,-439.5 774,-439.5 774,-409.5 609,-409.5"/>
<text text-anchor="start" x="617" y="-427.5" font-family="Helvetica,sans-Serif" font-size="10.00">penify_hook.commands.config</text>
<text text-anchor="middle" x="691.5" y="-416.5" font-family="Helvetica,sans-Serif" font-size="10.00">_commands.get_jira_config</text>
</a>
</g>
</g>
<!-- Node2&#45;&gt;Node11 -->
<g id="edge11" class="edge">
<title>Node2&#45;&gt;Node11</title>
<path fill="none" stroke="midnightblue" d="M569.19,-438.57C578.93,-437.44 588.89,-436.28 598.7,-435.14"/>
<polygon fill="midnightblue" stroke="midnightblue" points="599.34,-438.59 608.87,-433.96 598.53,-431.64 599.34,-438.59"/>
</g>
<!-- Node14 -->
<g id="node14" class="node">
<title>Node14</title>
<g id="a_node14"><a xlink:href="namespacepenify__hook_1_1commands_1_1config__commands.html#a6492bc8e7df6e38bb06ad05e572d4cc0" target="_top" xlink:title=" ">
<polygon fill="white" stroke="black" points="609,-458.5 609,-488.5 774,-488.5 774,-458.5 609,-458.5"/>
<text text-anchor="start" x="617" y="-476.5" font-family="Helvetica,sans-Serif" font-size="10.00">penify_hook.commands.config</text>
<text text-anchor="middle" x="691.5" y="-465.5" font-family="Helvetica,sans-Serif" font-size="10.00">_commands.get_llm_config</text>
</a>
</g>
</g>
<!-- Node2&#45;&gt;Node14 -->
<g id="edge16" class="edge">
<title>Node2&#45;&gt;Node14</title>
<path fill="none" stroke="midnightblue" d="M569.19,-458.85C578.93,-460.03 588.89,-461.23 598.7,-462.41"/>
<polygon fill="midnightblue" stroke="midnightblue" points="598.52,-465.92 608.87,-463.64 599.36,-458.97 598.52,-465.92"/>
</g>
<!-- Node15 -->
<g id="node15" class="node">
<title>Node15</title>
<g id="a_node15"><a xlink:href="namespacepenify__hook_1_1commands_1_1config__commands.html#a5503d51c905e2f1b299b12d2a73bd812" target="_top" xlink:title=" ">
<polygon fill="white" stroke="black" points="609,-360.5 609,-390.5 774,-390.5 774,-360.5 609,-360.5"/>
<text text-anchor="start" x="617" y="-378.5" font-family="Helvetica,sans-Serif" font-size="10.00">penify_hook.commands.config</text>
<text text-anchor="middle" x="691.5" y="-367.5" font-family="Helvetica,sans-Serif" font-size="10.00">_commands.get_token</text>
</a>
</g>
</g>
<!-- Node2&#45;&gt;Node15 -->
<g id="edge19" class="edge">
<title>Node2&#45;&gt;Node15</title>
<path fill="none" stroke="midnightblue" d="M519.06,-433.45C543.12,-423.52 575.72,-410.54 605,-400.5 611.84,-398.15 619.03,-395.83 626.22,-393.6"/>
<polygon fill="midnightblue" stroke="midnightblue" points="627.44,-396.89 635.99,-390.63 625.4,-390.19 627.44,-396.89"/>
</g>
<!-- Node4 -->
<g id="node4" class="node">
<title>Node4</title>
<g id="a_node4"><a xlink:href="namespacepenify__hook_1_1ui__utils.html#a6f0acd7dd91abfe67d0807803bc3b65f" target="_top" xlink:title=" ">
<polygon fill="white" stroke="black" points="826.5,-564.5 826.5,-594.5 966.5,-594.5 966.5,-564.5 826.5,-564.5"/>
<text text-anchor="start" x="834.5" y="-582.5" font-family="Helvetica,sans-Serif" font-size="10.00">penify_hook.ui_utils.print</text>
<text text-anchor="middle" x="896.5" y="-571.5" font-family="Helvetica,sans-Serif" font-size="10.00">_error</text>
</a>
</g>
</g>
<!-- Node3&#45;&gt;Node4 -->
<g id="edge3" class="edge">
<title>Node3&#45;&gt;Node4</title>
<path fill="none" stroke="midnightblue" d="M754.79,-545.53C776.51,-550.78 801.07,-556.71 823.52,-562.13"/>
<polygon fill="midnightblue" stroke="midnightblue" points="822.79,-565.55 833.33,-564.49 824.43,-558.75 822.79,-565.55"/>
</g>
<!-- Node3&#45;&gt;Node6 -->
<g id="edge5" class="edge">
<title>Node3&#45;&gt;Node6</title>
<path fill="none" stroke="midnightblue" d="M743.37,-545.52C755.3,-550.26 767.56,-556.22 778,-563.5 797.89,-577.38 793.2,-592.04 814,-604.5 817.65,-606.68 821.52,-608.62 825.53,-610.33"/>
<polygon fill="midnightblue" stroke="midnightblue" points="824.48,-613.67 835.07,-613.93 826.95,-607.12 824.48,-613.67"/>
</g>
<!-- Node8 -->
<g id="node8" class="node">
<title>Node8</title>
<g id="a_node8"><a xlink:href="namespacepenify__hook_1_1ui__utils.html#a1ffbb9671dbe233770268e2dd66a67fa" target="_top" xlink:title=" ">
<polygon fill="white" stroke="black" points="826.5,-515.5 826.5,-545.5 966.5,-545.5 966.5,-515.5 826.5,-515.5"/>
<text text-anchor="start" x="834.5" y="-533.5" font-family="Helvetica,sans-Serif" font-size="10.00">penify_hook.ui_utils.print</text>
<text text-anchor="middle" x="896.5" y="-522.5" font-family="Helvetica,sans-Serif" font-size="10.00">_warning</text>
</a>
</g>
</g>
<!-- Node3&#45;&gt;Node8 -->
<g id="edge7" class="edge">
<title>Node3&#45;&gt;Node8</title>
<path fill="none" stroke="midnightblue" d="M778,-530.5C790.62,-530.5 803.57,-530.5 816.05,-530.5"/>
<polygon fill="midnightblue" stroke="midnightblue" points="816.41,-534 826.41,-530.5 816.41,-527 816.41,-534"/>
</g>
<!-- Node10 -->
<g id="node10" class="node">
<title>Node10</title>
<g id="a_node10"><a xlink:href="namespacepenify__hook_1_1utils.html#a95c3f9c80860d6a2e2d061d2fb660a3f" target="_top" xlink:title=" ">
<polygon fill="white" stroke="black" points="1028,-277.5 1028,-307.5 1176,-307.5 1176,-277.5 1028,-277.5"/>
<text text-anchor="start" x="1036" y="-295.5" font-family="Helvetica,sans-Serif" font-size="10.00">penify_hook.utils.recursive</text>
<text text-anchor="middle" x="1102" y="-284.5" font-family="Helvetica,sans-Serif" font-size="10.00">_search_git_folder</text>
</a>
</g>
</g>
<!-- Node3&#45;&gt;Node10 -->
<g id="edge9" class="edge">
<title>Node3&#45;&gt;Node10</title>
<path fill="none" stroke="midnightblue" d="M767.27,-515.47C849.14,-498.79 970.1,-473.45 979,-467.5 1035.81,-429.52 1074.11,-355.38 1091.06,-316.93"/>
<polygon fill="midnightblue" stroke="midnightblue" points="1094.37,-318.1 1095.1,-307.53 1087.94,-315.34 1094.37,-318.1"/>
</g>
<!-- Node5 -->
<g id="node5" class="node">
<title>Node5</title>
<g id="a_node5"><a xlink:href="namespacepenify__hook_1_1ui__utils.html#a4dd934568897433fa73f9cc182ac4a3e" target="_top" xlink:title=" ">
<polygon fill="white" stroke="black" points="1027,-564.5 1027,-594.5 1177,-594.5 1177,-564.5 1027,-564.5"/>
<text text-anchor="start" x="1035" y="-582.5" font-family="Helvetica,sans-Serif" font-size="10.00">penify_hook.ui_utils.format</text>
<text text-anchor="middle" x="1102" y="-571.5" font-family="Helvetica,sans-Serif" font-size="10.00">_error</text>
</a>
</g>
</g>
<!-- Node4&#45;&gt;Node5 -->
<g id="edge4" class="edge">
<title>Node4&#45;&gt;Node5</title>
<path fill="none" stroke="midnightblue" d="M966.68,-579.5C982.71,-579.5 999.95,-579.5 1016.55,-579.5"/>
<polygon fill="midnightblue" stroke="midnightblue" points="1016.79,-583 1026.79,-579.5 1016.79,-576 1016.79,-583"/>
</g>
<!-- Node7 -->
<g id="node7" class="node">
<title>Node7</title>
<g id="a_node7"><a xlink:href="namespacepenify__hook_1_1ui__utils.html#a92c3e466d1912058167be2eacf85b9f6" target="_top" xlink:title=" ">
<polygon fill="white" stroke="black" points="1015,-614 1015,-633 1189,-633 1189,-614 1015,-614"/>
<text text-anchor="middle" x="1102" y="-621" font-family="Helvetica,sans-Serif" font-size="10.00">penify_hook.ui_utils.format_info</text>
</a>
</g>
</g>
<!-- Node6&#45;&gt;Node7 -->
<g id="edge6" class="edge">
<title>Node6&#45;&gt;Node7</title>
<path fill="none" stroke="midnightblue" d="M978.51,-623.5C987.12,-623.5 995.93,-623.5 1004.68,-623.5"/>
<polygon fill="midnightblue" stroke="midnightblue" points="1004.92,-627 1014.92,-623.5 1004.92,-620 1004.92,-627"/>
</g>
<!-- Node9 -->
<g id="node9" class="node">
<title>Node9</title>
<g id="a_node9"><a xlink:href="namespacepenify__hook_1_1ui__utils.html#a0a6fd2613c6fe053b6e4356cd9e5cda2" target="_top" xlink:title=" ">
<polygon fill="white" stroke="black" points="1027,-515.5 1027,-545.5 1177,-545.5 1177,-515.5 1027,-515.5"/>
<text text-anchor="start" x="1035" y="-533.5" font-family="Helvetica,sans-Serif" font-size="10.00">penify_hook.ui_utils.format</text>
<text text-anchor="middle" x="1102" y="-522.5" font-family="Helvetica,sans-Serif" font-size="10.00">_warning</text>
</a>
</g>
</g>
<!-- Node8&#45;&gt;Node9 -->
<g id="edge8" class="edge">
<title>Node8&#45;&gt;Node9</title>
<path fill="none" stroke="midnightblue" d="M966.68,-530.5C982.71,-530.5 999.95,-530.5 1016.55,-530.5"/>
<polygon fill="midnightblue" stroke="midnightblue" points="1016.79,-534 1026.79,-530.5 1016.79,-527 1016.79,-534"/>
</g>
<!-- Node10&#45;&gt;Node10 -->
<g id="edge10" class="edge">
<title>Node10&#45;&gt;Node10</title>
<path fill="none" stroke="midnightblue" d="M1066.45,-307.66C1057.88,-317.06 1069.73,-326 1102,-326 1121.67,-326 1133.75,-322.68 1138.25,-317.96"/>
<polygon fill="midnightblue" stroke="midnightblue" points="1141.72,-317.4 1137.55,-307.66 1134.73,-317.87 1141.72,-317.4"/>
</g>
<!-- Node12 -->
<g id="node12" class="node">
<title>Node12</title>
<g id="a_node12"><a xlink:href="namespacepenify__hook_1_1commands_1_1config__commands.html#a3caf2b062dd33b1f1d7ddc7224f0ff87" target="_top" xlink:title=" ">
<polygon fill="white" stroke="black" points="814,-349 814,-390 979,-390 979,-349 814,-349"/>
<text text-anchor="start" x="822" y="-378" font-family="Helvetica,sans-Serif" font-size="10.00">penify_hook.commands.config</text>
<text text-anchor="start" x="822" y="-367" font-family="Helvetica,sans-Serif" font-size="10.00">_commands.get_env_var_or</text>
<text text-anchor="middle" x="896.5" y="-356" font-family="Helvetica,sans-Serif" font-size="10.00">_default</text>
</a>
</g>
</g>
<!-- Node11&#45;&gt;Node12 -->
<g id="edge12" class="edge">
<title>Node11&#45;&gt;Node12</title>
<path fill="none" stroke="midnightblue" d="M747.97,-409.47C767.02,-404.31 788.82,-398.4 809.71,-392.74"/>
<polygon fill="midnightblue" stroke="midnightblue" points="810.81,-396.07 819.55,-390.08 808.98,-389.31 810.81,-396.07"/>
</g>
<!-- Node13 -->
<g id="node13" class="node">
<title>Node13</title>
<g id="a_node13"><a xlink:href="namespacepenify__hook_1_1commands_1_1config__commands.html#aabe277132ce0bc0aacef951cf1dee2ae" target="_top" xlink:title=" ">
<polygon fill="white" stroke="black" points="814,-409.5 814,-439.5 979,-439.5 979,-409.5 814,-409.5"/>
<text text-anchor="start" x="822" y="-427.5" font-family="Helvetica,sans-Serif" font-size="10.00">penify_hook.commands.config</text>
<text text-anchor="middle" x="896.5" y="-416.5" font-family="Helvetica,sans-Serif" font-size="10.00">_commands.load_env_files</text>
</a>
</g>
</g>
<!-- Node11&#45;&gt;Node13 -->
<g id="edge13" class="edge">
<title>Node11&#45;&gt;Node13</title>
<path fill="none" stroke="midnightblue" d="M774.19,-424.5C783.92,-424.5 793.9,-424.5 803.76,-424.5"/>
<polygon fill="midnightblue" stroke="midnightblue" points="803.98,-428 813.98,-424.5 803.98,-421 803.98,-428"/>
</g>
<!-- Node13&#45;&gt;Node10 -->
<g id="edge15" class="edge">
<title>Node13&#45;&gt;Node10</title>
<path fill="none" stroke="midnightblue" d="M957.04,-409.48C964.64,-406.63 972.15,-403.32 979,-399.5 1019.45,-376.94 1058.27,-339.22 1080.86,-315.12"/>
<polygon fill="midnightblue" stroke="midnightblue" points="1083.67,-317.24 1087.88,-307.51 1078.53,-312.49 1083.67,-317.24"/>
</g>
<!-- Node13&#45;&gt;Node13 -->
<g id="edge14" class="edge">
<title>Node13&#45;&gt;Node13</title>
<path fill="none" stroke="midnightblue" d="M860.95,-439.66C852.38,-449.06 864.23,-458 896.5,-458 916.17,-458 928.25,-454.68 932.75,-449.96"/>
<polygon fill="midnightblue" stroke="midnightblue" points="936.22,-449.4 932.05,-439.66 929.23,-449.87 936.22,-449.4"/>
</g>
<!-- Node14&#45;&gt;Node12 -->
<g id="edge17" class="edge">
<title>Node14&#45;&gt;Node12</title>
<path fill="none" stroke="midnightblue" d="M761.99,-458.38C767.63,-455.86 773.06,-452.92 778,-449.5 800.22,-434.12 792.49,-416.86 814,-400.5 816.45,-398.64 819.03,-396.87 821.69,-395.2"/>
<polygon fill="midnightblue" stroke="midnightblue" points="823.52,-398.19 830.47,-390.2 820.05,-392.11 823.52,-398.19"/>
</g>
<!-- Node14&#45;&gt;Node13 -->
<g id="edge18" class="edge">
<title>Node14&#45;&gt;Node13</title>
<path fill="none" stroke="midnightblue" d="M754.79,-458.47C776.51,-453.22 801.07,-447.29 823.52,-441.87"/>
<polygon fill="midnightblue" stroke="midnightblue" points="824.43,-445.25 833.33,-439.51 822.79,-438.45 824.43,-445.25"/>
</g>
<!-- Node15&#45;&gt;Node12 -->
<g id="edge20" class="edge">
<title>Node15&#45;&gt;Node12</title>
<path fill="none" stroke="midnightblue" d="M774.19,-373.09C783.92,-372.8 793.9,-372.5 803.76,-372.21"/>
<polygon fill="midnightblue" stroke="midnightblue" points="804.08,-375.7 813.98,-371.91 803.88,-368.71 804.08,-375.7"/>
</g>
<!-- Node15&#45;&gt;Node13 -->
<g id="edge23" class="edge">
<title>Node15&#45;&gt;Node13</title>
<path fill="none" stroke="midnightblue" d="M754.79,-390.53C776.51,-395.78 801.07,-401.71 823.52,-407.13"/>
<polygon fill="midnightblue" stroke="midnightblue" points="822.79,-410.55 833.33,-409.49 824.43,-403.75 822.79,-410.55"/>
</g>
<!-- Node16 -->
<g id="node16" class="node">
<title>Node16</title>
<g id="a_node16"><a xlink:href="namespacepenify__hook_1_1commands_1_1config__commands.html#a6559a82d0bf727703d550d1003d3ed20" target="_top" xlink:title=" ">
<polygon fill="white" stroke="black" points="814,-299.5 814,-329.5 979,-329.5 979,-299.5 814,-299.5"/>
<text text-anchor="start" x="822" y="-317.5" font-family="Helvetica,sans-Serif" font-size="10.00">penify_hook.commands.config</text>
<text text-anchor="middle" x="896.5" y="-306.5" font-family="Helvetica,sans-Serif" font-size="10.00">_commands.get_penify_config</text>
</a>
</g>
</g>
<!-- Node15&#45;&gt;Node16 -->
<g id="edge21" class="edge">
<title>Node15&#45;&gt;Node16</title>
<path fill="none" stroke="midnightblue" d="M747.81,-360.4C757.88,-357.53 768.27,-354.48 778,-351.5 794.12,-346.55 797.94,-344.64 814,-339.5 821.15,-337.21 828.68,-334.85 836.14,-332.53"/>
<polygon fill="midnightblue" stroke="midnightblue" points="837.36,-335.81 845.88,-329.51 835.29,-329.13 837.36,-335.81"/>
</g>
<!-- Node16&#45;&gt;Node10 -->
<g id="edge22" class="edge">
<title>Node16&#45;&gt;Node10</title>
<path fill="none" stroke="midnightblue" d="M979.1,-305.68C991.84,-304.3 1005.02,-302.88 1017.79,-301.5"/>
<polygon fill="midnightblue" stroke="midnightblue" points="1018.37,-304.95 1027.93,-300.4 1017.61,-297.99 1018.37,-304.95"/>
</g>
<!-- Node18 -->
<g id="node18" class="node">
<title>Node18</title>
<g id="a_node18"><a xlink:href="namespacepenify__hook_1_1commands_1_1config__commands.html#af115198ea5d6808ccb98733957f50b06" target="_top" xlink:title=" ">
<polygon fill="white" stroke="black" points="400,-350.5 400,-380.5 565,-380.5 565,-350.5 400,-350.5"/>
<text text-anchor="start" x="408" y="-368.5" font-family="Helvetica,sans-Serif" font-size="10.00">penify_hook.commands.config</text>
<text text-anchor="middle" x="482.5" y="-357.5" font-family="Helvetica,sans-Serif" font-size="10.00">_commands.config_jira_web</text>
</a>
</g>
</g>
<!-- Node17&#45;&gt;Node18 -->
<g id="edge26" class="edge">
<title>Node17&#45;&gt;Node18</title>
<path fill="none" stroke="midnightblue" d="M293.59,-287.57C319.97,-300.96 360.09,-320.65 396,-335.5 405.58,-339.46 415.9,-343.38 425.94,-347"/>
<polygon fill="midnightblue" stroke="midnightblue" points="424.85,-350.33 435.45,-350.38 427.2,-343.73 424.85,-350.33"/>
</g>
<!-- Node19 -->
<g id="node19" class="node">
<title>Node19</title>
<g id="a_node19"><a xlink:href="namespacepenify__hook_1_1commands_1_1config__commands.html#ab2486ac2bf16b4a671e49625bfa4f9b4" target="_top" xlink:title=" ">
<polygon fill="white" stroke="black" points="609,-311.5 609,-341.5 774,-341.5 774,-311.5 609,-311.5"/>
<text text-anchor="start" x="617" y="-329.5" font-family="Helvetica,sans-Serif" font-size="10.00">penify_hook.commands.config</text>
<text text-anchor="middle" x="691.5" y="-318.5" font-family="Helvetica,sans-Serif" font-size="10.00">_commands.save_jira_config</text>
</a>
</g>
</g>
<!-- Node17&#45;&gt;Node19 -->
<g id="edge31" class="edge">
<title>Node17&#45;&gt;Node19</title>
<path fill="none" stroke="midnightblue" d="M322.09,-287.52C344.96,-292.98 371.58,-298.74 396,-302.5 463.44,-312.89 540.3,-318.96 598.59,-322.4"/>
<polygon fill="midnightblue" stroke="midnightblue" points="598.7,-325.91 608.88,-322.99 599.1,-318.92 598.7,-325.91"/>
</g>
<!-- Node20 -->
<g id="node20" class="node">
<title>Node20</title>
<g id="a_node20"><a xlink:href="namespacepenify__hook_1_1commands_1_1config__commands.html#a185dfc34a655ed80e6c95939b6f3c35c" target="_top" xlink:title=" ">
<polygon fill="white" stroke="black" points="400,-164.5 400,-194.5 565,-194.5 565,-164.5 400,-164.5"/>
<text text-anchor="start" x="408" y="-182.5" font-family="Helvetica,sans-Serif" font-size="10.00">penify_hook.commands.config</text>
<text text-anchor="middle" x="482.5" y="-171.5" font-family="Helvetica,sans-Serif" font-size="10.00">_commands.config_llm_web</text>
</a>
</g>
</g>
<!-- Node17&#45;&gt;Node20 -->
<g id="edge30" class="edge">
<title>Node17&#45;&gt;Node20</title>
<path fill="none" stroke="midnightblue" d="M334.49,-260.49C343.45,-257.38 352.21,-253.45 360,-248.5 381.33,-234.96 374.93,-218.45 396,-204.5 399.08,-202.46 402.34,-200.58 405.7,-198.85"/>
<polygon fill="midnightblue" stroke="midnightblue" points="407.22,-202.01 414.82,-194.62 404.28,-195.66 407.22,-202.01"/>
</g>
<!-- Node21 -->
<g id="node21" class="node">
<title>Node21</title>
<g id="a_node21"><a xlink:href="namespacepenify__hook_1_1commands_1_1config__commands.html#a4617bc5956e502c9555dc0dda0376df4" target="_top" xlink:title=" ">
<polygon fill="white" stroke="black" points="400,-213.5 400,-243.5 565,-243.5 565,-213.5 400,-213.5"/>
<text text-anchor="start" x="408" y="-231.5" font-family="Helvetica,sans-Serif" font-size="10.00">penify_hook.commands.config</text>
<text text-anchor="middle" x="482.5" y="-220.5" font-family="Helvetica,sans-Serif" font-size="10.00">_commands.save_llm_config</text>
</a>
</g>
</g>
<!-- Node17&#45;&gt;Node21 -->
<g id="edge32" class="edge">
<title>Node17&#45;&gt;Node21</title>
<path fill="none" stroke="midnightblue" d="M334.06,-258.4C354.28,-254.3 376.59,-249.77 397.6,-245.51"/>
<polygon fill="midnightblue" stroke="midnightblue" points="398.37,-248.93 407.47,-243.51 396.97,-242.07 398.37,-248.93"/>
</g>
<!-- Node18&#45;&gt;Node11 -->
<g id="edge27" class="edge">
<title>Node18&#45;&gt;Node11</title>
<path fill="none" stroke="midnightblue" d="M535.51,-380.57C557.01,-386.77 582.2,-394.02 605,-400.5 612.03,-402.5 619.4,-404.58 626.73,-406.65"/>
<polygon fill="midnightblue" stroke="midnightblue" points="626.09,-410.11 636.67,-409.45 627.99,-403.37 626.09,-410.11"/>
</g>
<!-- Node18&#45;&gt;Node19 -->
<g id="edge28" class="edge">
<title>Node18&#45;&gt;Node19</title>
<path fill="none" stroke="midnightblue" d="M563.24,-350.48C575.55,-348.16 588.33,-345.75 600.84,-343.39"/>
<polygon fill="midnightblue" stroke="midnightblue" points="601.63,-346.81 610.81,-341.51 600.33,-339.93 601.63,-346.81"/>
</g>
<!-- Node19&#45;&gt;Node10 -->
<g id="edge29" class="edge">
<title>Node19&#45;&gt;Node10</title>
<path fill="none" stroke="midnightblue" d="M747.81,-311.4C757.88,-308.53 768.27,-305.48 778,-302.5 794.12,-297.55 797.35,-293.2 814,-290.5 886.39,-278.75 905.67,-289.9 979,-290.5 991.45,-290.6 1004.62,-290.76 1017.51,-290.95"/>
<polygon fill="midnightblue" stroke="midnightblue" points="1017.73,-294.45 1027.78,-291.1 1017.83,-287.45 1017.73,-294.45"/>
</g>
<!-- Node21&#45;&gt;Node10 -->
<g id="edge33" class="edge">
<title>Node21&#45;&gt;Node10</title>
<path fill="none" stroke="midnightblue" d="M552.99,-213.38C558.63,-210.86 564.06,-207.92 569,-204.5 591.22,-189.12 580.89,-167.7 605,-155.5 673.6,-120.78 702.65,-140.18 778,-155.5 888.82,-178.03 1008.79,-239.94 1066.35,-272.26"/>
<polygon fill="midnightblue" stroke="midnightblue" points="1064.94,-275.49 1075.37,-277.37 1068.39,-269.4 1064.94,-275.49"/>
</g>
<!-- Node22&#45;&gt;Node15 -->
<g id="edge36" class="edge">
<title>Node22&#45;&gt;Node15</title>
<path fill="none" stroke="midnightblue" d="M504.48,-292.74C527.96,-309.2 567.63,-335.24 605,-351.5 609.65,-353.52 614.52,-355.42 619.47,-357.2"/>
<polygon fill="midnightblue" stroke="midnightblue" points="618.47,-360.56 629.07,-360.46 620.72,-353.93 618.47,-360.56"/>
</g>
<!-- Node23 -->
<g id="node23" class="node">
<title>Node23</title>
<g id="a_node23"><a xlink:href="namespacepenify__hook_1_1commands_1_1doc__commands.html#a4daac68bc563432bf25c85dc78081a25" target="_top" xlink:title=" ">
<polygon fill="white" stroke="black" points="615,-262.5 615,-292.5 768,-292.5 768,-262.5 615,-262.5"/>
<text text-anchor="start" x="623" y="-280.5" font-family="Helvetica,sans-Serif" font-size="10.00">penify_hook.commands.doc</text>
<text text-anchor="middle" x="691.5" y="-269.5" font-family="Helvetica,sans-Serif" font-size="10.00">_commands.generate_doc</text>
</a>
</g>
</g>
<!-- Node22&#45;&gt;Node23 -->
<g id="edge35" class="edge">
<title>Node22&#45;&gt;Node23</title>
<path fill="none" stroke="midnightblue" d="M559.11,-277.5C573.84,-277.5 589.39,-277.5 604.43,-277.5"/>
<polygon fill="midnightblue" stroke="midnightblue" points="604.75,-281 614.75,-277.5 604.75,-274 604.75,-281"/>
</g>
<!-- Node24 -->
<g id="node24" class="node">
<title>Node24</title>
<g id="a_node24"><a xlink:href="namespacepenify__hook_1_1commands_1_1hook__commands.html#adff8f5d3bf1c3795974a391ee95b72b2" target="_top" xlink:title=" ">
<polygon fill="white" stroke="black" points="611.5,-213.5 611.5,-243.5 771.5,-243.5 771.5,-213.5 611.5,-213.5"/>
<text text-anchor="start" x="619.5" y="-231.5" font-family="Helvetica,sans-Serif" font-size="10.00">penify_hook.commands.hook</text>
<text text-anchor="middle" x="691.5" y="-220.5" font-family="Helvetica,sans-Serif" font-size="10.00">_commands.install_git_hook</text>
</a>
</g>
</g>
<!-- Node22&#45;&gt;Node24 -->
<g id="edge37" class="edge">
<title>Node22&#45;&gt;Node24</title>
<path fill="none" stroke="midnightblue" d="M547.01,-262.47C569.17,-257.22 594.21,-251.29 617.1,-245.87"/>
<polygon fill="midnightblue" stroke="midnightblue" points="618.18,-249.22 627.11,-243.51 616.57,-242.4 618.18,-249.22"/>
</g>
<!-- Node25 -->
<g id="node25" class="node">
<title>Node25</title>
<g id="a_node25"><a xlink:href="namespacepenify__hook_1_1commands_1_1hook__commands.html#a81543eb5fa835fd1237f24e8bce6201d" target="_top" xlink:title=" ">
<polygon fill="white" stroke="black" points="607.5,-164.5 607.5,-194.5 775.5,-194.5 775.5,-164.5 607.5,-164.5"/>
<text text-anchor="start" x="615.5" y="-182.5" font-family="Helvetica,sans-Serif" font-size="10.00">penify_hook.commands.hook</text>
<text text-anchor="middle" x="691.5" y="-171.5" font-family="Helvetica,sans-Serif" font-size="10.00">_commands.uninstall_git_hook</text>
</a>
</g>
</g>
<!-- Node22&#45;&gt;Node25 -->
<g id="edge38" class="edge">
<title>Node22&#45;&gt;Node25</title>
<path fill="none" stroke="midnightblue" d="M552.99,-262.38C558.63,-259.86 564.06,-256.92 569,-253.5 591.22,-238.12 582.86,-220 605,-204.5 607.87,-202.49 610.91,-200.64 614.06,-198.93"/>
<polygon fill="midnightblue" stroke="midnightblue" points="615.71,-202.02 623.18,-194.51 612.65,-195.72 615.71,-202.02"/>
</g>
<!-- Node27 -->
<g id="node27" class="node">
<title>Node27</title>
<g id="a_node27"><a xlink:href="namespacepenify__hook_1_1commands_1_1auth__commands.html#a78f375c58bb6f69f98675e6a9ac84655" target="_top" xlink:title=" ">
<polygon fill="white" stroke="black" points="403.5,-97.5 403.5,-127.5 561.5,-127.5 561.5,-97.5 403.5,-97.5"/>
<text text-anchor="start" x="411.5" y="-115.5" font-family="Helvetica,sans-Serif" font-size="10.00">penify_hook.commands.auth</text>
<text text-anchor="middle" x="482.5" y="-104.5" font-family="Helvetica,sans-Serif" font-size="10.00">_commands.login</text>
</a>
</g>
</g>
<!-- Node26&#45;&gt;Node27 -->
<g id="edge40" class="edge">
<title>Node26&#45;&gt;Node27</title>
<path fill="none" stroke="midnightblue" d="M342.87,-208.3C348.87,-205.8 354.66,-202.89 360,-199.5 381.33,-185.96 376.28,-171.3 396,-155.5 407.37,-146.39 420.99,-138.47 433.98,-132"/>
<polygon fill="midnightblue" stroke="midnightblue" points="435.77,-135.02 443.28,-127.55 432.75,-128.71 435.77,-135.02"/>
</g>
<!-- Node28 -->
<g id="node28" class="node">
<title>Node28</title>
<g id="a_node28"><a xlink:href="namespacepenify__hook_1_1commands_1_1auth__commands.html#aa3956ca1749d4218ea1dc6e5b6218b24" target="_top" xlink:title=" ">
<polygon fill="white" stroke="black" points="816,-76.5 816,-106.5 977,-106.5 977,-76.5 816,-76.5"/>
<text text-anchor="start" x="824" y="-94.5" font-family="Helvetica,sans-Serif" font-size="10.00">penify_hook.commands.auth</text>
<text text-anchor="middle" x="896.5" y="-83.5" font-family="Helvetica,sans-Serif" font-size="10.00">_commands.save_credentials</text>
</a>
</g>
</g>
<!-- Node27&#45;&gt;Node28 -->
<g id="edge41" class="edge">
<title>Node27&#45;&gt;Node28</title>
<path fill="none" stroke="midnightblue" d="M561.96,-108.5C631.54,-104.95 733.1,-99.78 805.86,-96.07"/>
<polygon fill="midnightblue" stroke="midnightblue" points="806.12,-99.56 815.92,-95.56 805.76,-92.57 806.12,-99.56"/>
</g>
<!-- Node28&#45;&gt;Node10 -->
<g id="edge42" class="edge">
<title>Node28&#45;&gt;Node10</title>
<path fill="none" stroke="midnightblue" d="M952.47,-106.57C961.84,-110.54 971.09,-115.46 979,-121.5 1031.96,-161.92 1071.46,-231.73 1089.74,-268.4"/>
<polygon fill="midnightblue" stroke="midnightblue" points="1086.6,-269.94 1094.13,-277.39 1092.89,-266.87 1086.6,-269.94"/>
</g>
</g>
</svg>
