<?xml version="1.0" encoding="UTF-8" standalone="no"?>
<!DOCTYPE svg PUBLIC "-//W3C//DTD SVG 1.1//EN"
 "http://www.w3.org/Graphics/SVG/1.1/DTD/svg11.dtd">
<!-- Generated by graphviz version 2.43.0 (0)
 -->
<!-- Title: penify_hook.commands.config_commands.get_jira_config Pages: 1 -->
<!--zoomable 204 -->
<svg id="main" version="1.1" xmlns="http://www.w3.org/2000/svg" xmlns:xlink="http://www.w3.org/1999/xlink" xml:space="preserve" onload="init(evt)">
<style type="text/css"><![CDATA[
.edge:hover path { stroke: red; }
.edge:hover polygon { stroke: red; fill: red; }
]]></style>
<script type="text/javascript"><![CDATA[
var edges = document.getElementsByTagName('g');
if (edges && edges.length) {
  for (var i=0;i<edges.length;i++) {
    if (edges[i].id.substr(0,4)=='edge') {
      edges[i].setAttribute('class','edge');
    }
  }
}
]]></script>
        <defs>
                <circle id="rim" cx="0" cy="0" r="7"/>
                <circle id="rim2" cx="0" cy="0" r="3.5"/>
                <g id="zoomPlus">
                        <use xlink:href="#rim" fill="#404040">
                                <set attributeName="fill" to="#808080" begin="zoomplus.mouseover" end="zoomplus.mouseout"/>
                        </use>
                        <path d="M-4,0h8M0,-4v8" fill="none" stroke="white" stroke-width="1.5" pointer-events="none"/>
                </g>
                <g id="zoomMin">
                        <use xlink:href="#rim" fill="#404040">
                                <set attributeName="fill" to="#808080" begin="zoomminus.mouseover" end="zoomminus.mouseout"/>
                        </use>
                        <path d="M-4,0h8" fill="none" stroke="white" stroke-width="1.5" pointer-events="none"/>
                </g>
                <g id="dirArrow">
                        <path fill="none" stroke="white" stroke-width="1.5" d="M0,-3.0v7 M-2.5,-0.5L0,-3.0L2.5,-0.5"/>
                </g>
               <g id="resetDef">
                       <use xlink:href="#rim2" fill="#404040">
                               <set attributeName="fill" to="#808080" begin="reset.mouseover" end="reset.mouseout"/>
                       </use>
               </g>
        </defs>

<script type="text/javascript">
var viewWidth = 752;
var viewHeight = 204;
var sectionId = 'dynsection-5';
</script>
<script xlink:href="svgpan.js"/>
<svg id="graph" class="graph">
<g id="viewport">
<title>penify_hook.commands.config_commands.get_jira_config</title>
<polygon fill="white" stroke="transparent" points="-4,4 -4,-199.5 748,-199.5 748,4 -4,4"/>
<!-- Node1 -->
<g id="node1" class="node">
<title>Node1</title>
<g id="a_node1"><a xlink:title=" ">
<polygon fill="#bfbfbf" stroke="black" points="579,-61 579,-91 744,-91 744,-61 579,-61"/>
<text text-anchor="start" x="587" y="-79" font-family="Helvetica,sans-Serif" font-size="10.00">penify_hook.commands.config</text>
<text text-anchor="middle" x="661.5" y="-68" font-family="Helvetica,sans-Serif" font-size="10.00">_commands.get_jira_config</text>
</a>
</g>
</g>
<!-- Node2 -->
<g id="node2" class="node">
<title>Node2</title>
<g id="a_node2"><a xlink:href="namespacepenify__hook_1_1commands_1_1config__commands.html#af115198ea5d6808ccb98733957f50b06" target="_top" xlink:title=" ">
<polygon fill="white" stroke="black" points="374,-110 374,-140 539,-140 539,-110 374,-110"/>
<text text-anchor="start" x="382" y="-128" font-family="Helvetica,sans-Serif" font-size="10.00">penify_hook.commands.config</text>
<text text-anchor="middle" x="456.5" y="-117" font-family="Helvetica,sans-Serif" font-size="10.00">_commands.config_jira_web</text>
</a>
</g>
</g>
<!-- Node1&#45;&gt;Node2 -->
<g id="edge1" class="edge">
<title>Node1&#45;&gt;Node2</title>
<path fill="none" stroke="midnightblue" d="M588.4,-93.4C565.94,-98.82 541.38,-104.75 519.67,-109.99"/>
<polygon fill="midnightblue" stroke="midnightblue" points="589.31,-96.78 598.21,-91.03 587.67,-89.98 589.31,-96.78"/>
</g>
<!-- Node6 -->
<g id="node6" class="node">
<title>Node6</title>
<g id="a_node6"><a xlink:href="namespacepenify__hook_1_1commands_1_1commit__commands.html#af4f739f524c38b437e4e47673d683e23" target="_top" xlink:title=" ">
<polygon fill="white" stroke="black" points="370,-61 370,-91 543,-91 543,-61 370,-61"/>
<text text-anchor="start" x="378" y="-79" font-family="Helvetica,sans-Serif" font-size="10.00">penify_hook.commands.commit</text>
<text text-anchor="middle" x="456.5" y="-68" font-family="Helvetica,sans-Serif" font-size="10.00">_commands.handle_commit</text>
</a>
</g>
</g>
<!-- Node1&#45;&gt;Node6 -->
<g id="edge6" class="edge">
<title>Node1&#45;&gt;Node6</title>
<path fill="none" stroke="midnightblue" d="M568.79,-76C560.21,-76 551.53,-76 543,-76"/>
<polygon fill="midnightblue" stroke="midnightblue" points="568.81,-79.5 578.81,-76 568.81,-72.5 568.81,-79.5"/>
</g>
<!-- Node8 -->
<g id="node8" class="node">
<title>Node8</title>
<g id="a_node8"><a xlink:href="classtests_1_1test__config__commands_1_1TestConfigCommands.html#aee37b97432821d19758c6325d4c74bcf" target="_top" xlink:title=" ">
<polygon fill="white" stroke="black" points="377,-0.5 377,-41.5 536,-41.5 536,-0.5 377,-0.5"/>
<text text-anchor="start" x="385" y="-29.5" font-family="Helvetica,sans-Serif" font-size="10.00">tests.test_config_commands.</text>
<text text-anchor="start" x="385" y="-18.5" font-family="Helvetica,sans-Serif" font-size="10.00">TestConfigCommands.test</text>
<text text-anchor="middle" x="456.5" y="-7.5" font-family="Helvetica,sans-Serif" font-size="10.00">_get_jira_config_exists</text>
</a>
</g>
</g>
<!-- Node1&#45;&gt;Node8 -->
<g id="edge9" class="edge">
<title>Node1&#45;&gt;Node8</title>
<path fill="none" stroke="midnightblue" d="M595.25,-58.32C575.56,-52.99 553.77,-47.08 533.45,-41.58"/>
<polygon fill="midnightblue" stroke="midnightblue" points="594.46,-61.73 605.03,-60.97 596.29,-54.98 594.46,-61.73"/>
</g>
<!-- Node3 -->
<g id="node3" class="node">
<title>Node3</title>
<g id="a_node3"><a xlink:href="namespacepenify__hook_1_1config__command.html#a240e5331681eb574ac319d7458783bde" target="_top" xlink:title=" ">
<polygon fill="white" stroke="black" points="180,-165 180,-195 321,-195 321,-165 180,-165"/>
<text text-anchor="start" x="188" y="-183" font-family="Helvetica,sans-Serif" font-size="10.00">penify_hook.config</text>
<text text-anchor="middle" x="250.5" y="-172" font-family="Helvetica,sans-Serif" font-size="10.00">_command.handle_config</text>
</a>
</g>
</g>
<!-- Node2&#45;&gt;Node3 -->
<g id="edge2" class="edge">
<title>Node2&#45;&gt;Node3</title>
<path fill="none" stroke="midnightblue" d="M389.75,-142.73C363.12,-149.91 332.69,-158.11 307.18,-164.99"/>
<polygon fill="midnightblue" stroke="midnightblue" points="391.01,-146.01 399.76,-140.03 389.19,-139.25 391.01,-146.01"/>
</g>
<!-- Node5 -->
<g id="node5" class="node">
<title>Node5</title>
<g id="a_node5"><a xlink:href="classtests_1_1test__web__config_1_1TestWebConfig.html#a06e600222e426b003850509cb1d3190a" target="_top" xlink:title=" ">
<polygon fill="white" stroke="black" points="177.5,-104.5 177.5,-145.5 323.5,-145.5 323.5,-104.5 177.5,-104.5"/>
<text text-anchor="start" x="185.5" y="-133.5" font-family="Helvetica,sans-Serif" font-size="10.00">tests.test_web_config.Test</text>
<text text-anchor="start" x="185.5" y="-122.5" font-family="Helvetica,sans-Serif" font-size="10.00">WebConfig.test_config_jira</text>
<text text-anchor="middle" x="250.5" y="-111.5" font-family="Helvetica,sans-Serif" font-size="10.00">_web_server_setup</text>
</a>
</g>
</g>
<!-- Node2&#45;&gt;Node5 -->
<g id="edge5" class="edge">
<title>Node2&#45;&gt;Node5</title>
<path fill="none" stroke="midnightblue" d="M363.77,-125C350.32,-125 336.63,-125 323.65,-125"/>
<polygon fill="midnightblue" stroke="midnightblue" points="363.99,-128.5 373.99,-125 363.99,-121.5 363.99,-128.5"/>
</g>
<!-- Node4 -->
<g id="node4" class="node">
<title>Node4</title>
<g id="a_node4"><a xlink:href="namespacepenify__hook_1_1main.html#a16838b20df4bd14ee4b5e1dd2906738f" target="_top" xlink:title=" ">
<polygon fill="white" stroke="black" points="0,-118.5 0,-137.5 131,-137.5 131,-118.5 0,-118.5"/>
<text text-anchor="middle" x="65.5" y="-125.5" font-family="Helvetica,sans-Serif" font-size="10.00">penify_hook.main.main</text>
</a>
</g>
</g>
<!-- Node3&#45;&gt;Node4 -->
<g id="edge3" class="edge">
<title>Node3&#45;&gt;Node4</title>
<path fill="none" stroke="midnightblue" d="M186.87,-162.2C157.74,-153.93 124.25,-144.41 100.01,-137.52"/>
<polygon fill="midnightblue" stroke="midnightblue" points="185.99,-165.59 196.57,-164.96 187.91,-158.86 185.99,-165.59"/>
</g>
<!-- Node4&#45;&gt;Node4 -->
<g id="edge4" class="edge">
<title>Node4&#45;&gt;Node4</title>
<path fill="none" stroke="midnightblue" d="M99.98,-145.89C99.48,-151.54 87.98,-156 65.5,-156 32.8,-156 23.34,-146.57 37.14,-137.76"/>
<polygon fill="midnightblue" stroke="midnightblue" points="102.67,-143.64 93.86,-137.76 97.08,-147.85 102.67,-143.64"/>
</g>
<!-- Node6&#45;&gt;Node4 -->
<g id="edge7" class="edge">
<title>Node6&#45;&gt;Node4</title>
<path fill="none" stroke="midnightblue" d="M359.88,-76.29C303.33,-77.95 230.57,-82.67 167,-95 139.96,-100.24 110.1,-110.67 90.01,-118.41"/>
<polygon fill="midnightblue" stroke="midnightblue" points="359.98,-79.79 369.88,-76.02 359.8,-72.79 359.98,-79.79"/>
</g>
<!-- Node7 -->
<g id="node7" class="node">
<title>Node7</title>
<g id="a_node7"><a xlink:href="classtests_1_1test__commit__commands_1_1TestCommitCommands.html#ac13e368262340af98b30fd8ebdac6597" target="_top" xlink:title=" ">
<polygon fill="white" stroke="black" points="167,-6.5 167,-47.5 334,-47.5 334,-6.5 167,-6.5"/>
<text text-anchor="start" x="175" y="-35.5" font-family="Helvetica,sans-Serif" font-size="10.00">tests.test_commit_commands.</text>
<text text-anchor="start" x="175" y="-24.5" font-family="Helvetica,sans-Serif" font-size="10.00">TestCommitCommands.test</text>
<text text-anchor="middle" x="250.5" y="-13.5" font-family="Helvetica,sans-Serif" font-size="10.00">_handle_commit</text>
</a>
</g>
</g>
<!-- Node6&#45;&gt;Node7 -->
<g id="edge8" class="edge">
<title>Node6&#45;&gt;Node7</title>
<path fill="none" stroke="midnightblue" d="M382.75,-58.53C367.05,-54.75 350.33,-50.74 334.28,-46.88"/>
<polygon fill="midnightblue" stroke="midnightblue" points="382.37,-62.03 392.91,-60.97 384,-55.23 382.37,-62.03"/>
</g>
</g>
</svg>
        <g id="navigator" transform="translate(0 0)" fill="#404254">
                <rect fill="#f2f5e9" fill-opacity="0.5" stroke="#606060" stroke-width=".5" x="0" y="0" width="60" height="60"/>
                <use id="zoomplus" xlink:href="#zoomPlus" x="17" y="9" onmousedown="handleZoom(evt,'in')"/>
                <use id="zoomminus" xlink:href="#zoomMin" x="42" y="9" onmousedown="handleZoom(evt,'out')"/>
                <use id="reset" xlink:href="#resetDef" x="30" y="36" onmousedown="handleReset()"/>
                <g id="arrowUp" xlink:href="#dirArrow" transform="translate(30 24)" onmousedown="handlePan(0,-1)">
                  <use xlink:href="#rim" fill="#404040">
                        <set attributeName="fill" to="#808080" begin="arrowUp.mouseover" end="arrowUp.mouseout"/>
                  </use>
                  <path fill="none" stroke="white" stroke-width="1.5" d="M0,-3.0v7 M-2.5,-0.5L0,-3.0L2.5,-0.5"/>
                </g>
                <g id="arrowRight" xlink:href="#dirArrow" transform="rotate(90) translate(36 -43)" onmousedown="handlePan(1,0)">
                  <use xlink:href="#rim" fill="#404040">
                        <set attributeName="fill" to="#808080" begin="arrowRight.mouseover" end="arrowRight.mouseout"/>
                  </use>
                  <path fill="none" stroke="white" stroke-width="1.5" d="M0,-3.0v7 M-2.5,-0.5L0,-3.0L2.5,-0.5"/>
                </g>
                <g id="arrowDown" xlink:href="#dirArrow" transform="rotate(180) translate(-30 -48)" onmousedown="handlePan(0,1)">
                  <use xlink:href="#rim" fill="#404040">
                        <set attributeName="fill" to="#808080" begin="arrowDown.mouseover" end="arrowDown.mouseout"/>
                  </use>
                  <path fill="none" stroke="white" stroke-width="1.5" d="M0,-3.0v7 M-2.5,-0.5L0,-3.0L2.5,-0.5"/>
                </g>
                <g id="arrowLeft" xlink:href="#dirArrow" transform="rotate(270) translate(-36 17)" onmousedown="handlePan(-1,0)">
                  <use xlink:href="#rim" fill="#404040">
                        <set attributeName="fill" to="#808080" begin="arrowLeft.mouseover" end="arrowLeft.mouseout"/>
                  </use>
                  <path fill="none" stroke="white" stroke-width="1.5" d="M0,-3.0v7 M-2.5,-0.5L0,-3.0L2.5,-0.5"/>
                </g>
        </g>
        <svg viewBox="0 0 15 15" width="100%" height="30px" preserveAspectRatio="xMaxYMin meet">
         <g id="arrow_out" transform="scale(0.3 0.3)">
          <a xlink:href="namespacepenify__hook_1_1commands_1_1config__commands_a15bf3685c4dcb5c15ba6a4055e484cf2_icgraph_org.svg" target="_base">
           <rect id="button" ry="5" rx="5" y="6" x="6" height="38" width="38"
                fill="#f2f5e9" fill-opacity="0.5" stroke="#606060" stroke-width="1.0"/>
           <path id="arrow"
             d="M 11.500037,31.436501 C 11.940474,20.09759 22.043105,11.32322 32.158766,21.979434 L 37.068811,17.246167 C 37.068811,17.246167 37.088388,32 37.088388,32 L 22.160133,31.978069 C 22.160133,31.978069 26.997745,27.140456 26.997745,27.140456 C 18.528582,18.264221 13.291696,25.230495 11.500037,31.436501 z"
             style="fill:#404040;"/>
          </a>
         </g>
        </svg>
</svg>
