<?xml version="1.0" encoding="UTF-8" standalone="no"?>
<!DOCTYPE svg PUBLIC "-//W3C//DTD SVG 1.1//EN"
 "http://www.w3.org/Graphics/SVG/1.1/DTD/svg11.dtd">
<!-- Generated by graphviz version 2.43.0 (0)
 -->
<!-- Title: penify_hook.ui_utils.print_info Pages: 1 -->
<svg width="850pt" height="603pt"
 viewBox="0.00 0.00 850.00 602.50" xmlns="http://www.w3.org/2000/svg" xmlns:xlink="http://www.w3.org/1999/xlink">
<g id="graph0" class="graph" transform="scale(1 1) rotate(0) translate(4 598.5)">
<title>penify_hook.ui_utils.print_info</title>
<polygon fill="white" stroke="transparent" points="-4,4 -4,-598.5 846,-598.5 846,4 -4,4"/>
<!-- Node1 -->
<g id="node1" class="node">
<title>Node1</title>
<g id="a_node1"><a xlink:title=" ">
<polygon fill="#bfbfbf" stroke="black" points="678,-189 678,-208 842,-208 842,-189 678,-189"/>
<text text-anchor="middle" x="760" y="-196" font-family="Helvetica,sans-Serif" font-size="10.00">penify_hook.ui_utils.print_info</text>
</a>
</g>
</g>
<!-- Node2 -->
<g id="node2" class="node">
<title>Node2</title>
<g id="a_node2"><a xlink:href="namespacepenify__hook_1_1commands_1_1commit__commands.html#a62564c4e8ad59fc46d56cb0f9122a71a" target="_top" xlink:title=" ">
<polygon fill="white" stroke="black" points="451,-410.5 451,-440.5 624,-440.5 624,-410.5 451,-410.5"/>
<text text-anchor="start" x="459" y="-428.5" font-family="Helvetica,sans-Serif" font-size="10.00">penify_hook.commands.commit</text>
<text text-anchor="middle" x="537.5" y="-417.5" font-family="Helvetica,sans-Serif" font-size="10.00">_commands.commit_code</text>
</a>
</g>
</g>
<!-- Node1&#45;&gt;Node2 -->
<g id="edge1" class="edge">
<title>Node1&#45;&gt;Node2</title>
<path fill="none" stroke="midnightblue" d="M742.34,-215.66C700.68,-258.54 592.54,-369.86 553.14,-410.43"/>
<polygon fill="midnightblue" stroke="midnightblue" points="745.07,-217.87 749.53,-208.25 740.05,-212.99 745.07,-217.87"/>
</g>
<!-- Node3 -->
<g id="node3" class="node">
<title>Node3</title>
<g id="a_node3"><a xlink:href="namespacepenify__hook_1_1commands_1_1commit__commands.html#af4f739f524c38b437e4e47673d683e23" target="_top" xlink:title=" ">
<polygon fill="white" stroke="black" points="213.5,-558.5 213.5,-588.5 386.5,-588.5 386.5,-558.5 213.5,-558.5"/>
<text text-anchor="start" x="221.5" y="-576.5" font-family="Helvetica,sans-Serif" font-size="10.00">penify_hook.commands.commit</text>
<text text-anchor="middle" x="300" y="-565.5" font-family="Helvetica,sans-Serif" font-size="10.00">_commands.handle_commit</text>
</a>
</g>
</g>
<!-- Node1&#45;&gt;Node3 -->
<g id="edge13" class="edge">
<title>Node1&#45;&gt;Node3</title>
<path fill="none" stroke="midnightblue" d="M755.07,-218.24C744.79,-264.96 712.85,-383.39 642,-450.5 571.64,-517.15 462.53,-548.12 386.75,-562.22"/>
<polygon fill="midnightblue" stroke="midnightblue" points="758.54,-218.72 757.18,-208.22 751.69,-217.28 758.54,-218.72"/>
</g>
<!-- Node4 -->
<g id="node4" class="node">
<title>Node4</title>
<g id="a_node4"><a xlink:href="namespacepenify__hook_1_1main.html#a16838b20df4bd14ee4b5e1dd2906738f" target="_top" xlink:title=" ">
<polygon fill="white" stroke="black" points="18,-383 18,-402 149,-402 149,-383 18,-383"/>
<text text-anchor="middle" x="83.5" y="-390" font-family="Helvetica,sans-Serif" font-size="10.00">penify_hook.main.main</text>
</a>
</g>
</g>
<!-- Node1&#45;&gt;Node4 -->
<g id="edge14" class="edge">
<title>Node1&#45;&gt;Node4</title>
<path fill="none" stroke="midnightblue" d="M736.02,-213.71C713.2,-227.96 676.71,-248.52 642,-258.5 453.79,-312.64 384.61,-223.2 203,-296.5 154.39,-316.12 110.08,-362.82 92.51,-382.97"/>
<polygon fill="midnightblue" stroke="midnightblue" points="738.08,-216.55 744.63,-208.22 734.31,-210.64 738.08,-216.55"/>
</g>
<!-- Node10 -->
<g id="node10" class="node">
<title>Node10</title>
<g id="a_node10"><a xlink:href="classpenify__hook_1_1jira__client_1_1JiraClient.html#a093d6456fe053ef7a7862d5d6851910c" target="_top" xlink:title=" ">
<polygon fill="white" stroke="black" points="472.5,-208 472.5,-249 602.5,-249 602.5,-208 472.5,-208"/>
<text text-anchor="start" x="480.5" y="-237" font-family="Helvetica,sans-Serif" font-size="10.00">penify_hook.jira_client.</text>
<text text-anchor="start" x="480.5" y="-226" font-family="Helvetica,sans-Serif" font-size="10.00">JiraClient.extract_issue</text>
<text text-anchor="middle" x="537.5" y="-215" font-family="Helvetica,sans-Serif" font-size="10.00">_keys_from_branch</text>
</a>
</g>
</g>
<!-- Node1&#45;&gt;Node10 -->
<g id="edge10" class="edge">
<title>Node1&#45;&gt;Node10</title>
<path fill="none" stroke="midnightblue" d="M678.74,-209.42C653.75,-212.82 626.53,-216.52 602.77,-219.76"/>
<polygon fill="midnightblue" stroke="midnightblue" points="679.49,-212.85 688.93,-208.03 678.55,-205.91 679.49,-212.85"/>
</g>
<!-- Node11 -->
<g id="node11" class="node">
<title>Node11</title>
<g id="a_node11"><a xlink:href="classpenify__hook_1_1commit__analyzer_1_1CommitDocGenHook.html#a8496194276441fa2eb2fa014eaab9a37" target="_top" xlink:title=" ">
<polygon fill="white" stroke="black" points="443.5,-148 443.5,-189 631.5,-189 631.5,-148 443.5,-148"/>
<text text-anchor="start" x="451.5" y="-177" font-family="Helvetica,sans-Serif" font-size="10.00">penify_hook.commit</text>
<text text-anchor="start" x="451.5" y="-166" font-family="Helvetica,sans-Serif" font-size="10.00">_analyzer.CommitDocGenHook.get</text>
<text text-anchor="middle" x="537.5" y="-155" font-family="Helvetica,sans-Serif" font-size="10.00">_summary</text>
</a>
</g>
</g>
<!-- Node1&#45;&gt;Node11 -->
<g id="edge11" class="edge">
<title>Node1&#45;&gt;Node11</title>
<path fill="none" stroke="midnightblue" d="M678.99,-187.61C663.66,-185.53 647.49,-183.33 631.78,-181.19"/>
<polygon fill="midnightblue" stroke="midnightblue" points="678.55,-191.09 688.93,-188.97 679.49,-184.15 678.55,-191.09"/>
</g>
<!-- Node12 -->
<g id="node12" class="node">
<title>Node12</title>
<g id="a_node12"><a xlink:href="classpenify__hook_1_1commit__analyzer_1_1CommitDocGenHook.html#a6370a03f7ed9175ef6f81e931a105ea9" target="_top" xlink:title=" ">
<polygon fill="white" stroke="black" points="206,-104.5 206,-134.5 394,-134.5 394,-104.5 206,-104.5"/>
<text text-anchor="start" x="214" y="-122.5" font-family="Helvetica,sans-Serif" font-size="10.00">penify_hook.commit</text>
<text text-anchor="middle" x="300" y="-111.5" font-family="Helvetica,sans-Serif" font-size="10.00">_analyzer.CommitDocGenHook.run</text>
</a>
</g>
</g>
<!-- Node1&#45;&gt;Node12 -->
<g id="edge18" class="edge">
<title>Node1&#45;&gt;Node12</title>
<path fill="none" stroke="midnightblue" d="M736.46,-183.3C713.72,-168.86 677.05,-148 642,-138.5 560.31,-116.35 463.69,-113 394.2,-114.36"/>
<polygon fill="midnightblue" stroke="midnightblue" points="734.73,-186.35 745.03,-188.85 738.54,-180.48 734.73,-186.35"/>
</g>
<!-- Node13 -->
<g id="node13" class="node">
<title>Node13</title>
<g id="a_node13"><a xlink:href="classpenify__hook_1_1commit__analyzer_1_1CommitDocGenHook.html#adda13cc121d96342476ccf72b63a007f" target="_top" xlink:title=" ">
<polygon fill="white" stroke="black" points="433,-50 433,-91 642,-91 642,-50 433,-50"/>
<text text-anchor="start" x="441" y="-79" font-family="Helvetica,sans-Serif" font-size="10.00">penify_hook.commit</text>
<text text-anchor="start" x="441" y="-68" font-family="Helvetica,sans-Serif" font-size="10.00">_analyzer.CommitDocGenHook.process</text>
<text text-anchor="middle" x="537.5" y="-57" font-family="Helvetica,sans-Serif" font-size="10.00">_jira_integration</text>
</a>
</g>
</g>
<!-- Node1&#45;&gt;Node13 -->
<g id="edge15" class="edge">
<title>Node1&#45;&gt;Node13</title>
<path fill="none" stroke="midnightblue" d="M741.81,-181.62C720.14,-161.15 680.99,-126.74 642,-105.5 632.01,-100.06 621.01,-95.24 610.03,-91.06"/>
<polygon fill="midnightblue" stroke="midnightblue" points="739.58,-184.33 749.22,-188.73 744.43,-179.28 739.58,-184.33"/>
</g>
<!-- Node14 -->
<g id="node14" class="node">
<title>Node14</title>
<g id="a_node14"><a xlink:href="classpenify__hook_1_1git__analyzer_1_1GitDocGenHook.html#a3beba14e92d717391a74bb70b1fab0ae" target="_top" xlink:title=" ">
<polygon fill="white" stroke="black" points="467,-0.5 467,-30.5 608,-30.5 608,-0.5 467,-0.5"/>
<text text-anchor="start" x="475" y="-18.5" font-family="Helvetica,sans-Serif" font-size="10.00">penify_hook.git_analyzer.</text>
<text text-anchor="middle" x="537.5" y="-7.5" font-family="Helvetica,sans-Serif" font-size="10.00">GitDocGenHook.run</text>
</a>
</g>
</g>
<!-- Node1&#45;&gt;Node14 -->
<g id="edge17" class="edge">
<title>Node1&#45;&gt;Node14</title>
<path fill="none" stroke="midnightblue" d="M750.54,-179.72C734.45,-146.23 696.15,-76.38 642,-40.5 631.83,-33.76 620.02,-28.83 608.1,-25.24"/>
<polygon fill="midnightblue" stroke="midnightblue" points="747.41,-181.29 754.81,-188.86 753.75,-178.32 747.41,-181.29"/>
</g>
<!-- Node2&#45;&gt;Node3 -->
<g id="edge2" class="edge">
<title>Node2&#45;&gt;Node3</title>
<path fill="none" stroke="midnightblue" d="M495.38,-445.61C475.04,-456.9 451.04,-472.37 433,-490.5 411.6,-512.01 421.43,-530.5 397,-548.5 391.73,-552.38 385.91,-555.66 379.82,-558.43"/>
<polygon fill="midnightblue" stroke="midnightblue" points="497.3,-448.55 504.44,-440.72 493.98,-442.39 497.3,-448.55"/>
</g>
<!-- Node6 -->
<g id="node6" class="node">
<title>Node6</title>
<g id="a_node6"><a xlink:href="classtests_1_1test__commit__commands_1_1TestCommitCommands.html#a43c2ff3707124aa48e8eb581106b8691" target="_top" xlink:title=" ">
<polygon fill="white" stroke="black" points="216.5,-498 216.5,-539 383.5,-539 383.5,-498 216.5,-498"/>
<text text-anchor="start" x="224.5" y="-527" font-family="Helvetica,sans-Serif" font-size="10.00">tests.test_commit_commands.</text>
<text text-anchor="start" x="224.5" y="-516" font-family="Helvetica,sans-Serif" font-size="10.00">TestCommitCommands.test</text>
<text text-anchor="middle" x="300" y="-505" font-family="Helvetica,sans-Serif" font-size="10.00">_commit_code_error_handling</text>
</a>
</g>
</g>
<!-- Node2&#45;&gt;Node6 -->
<g id="edge6" class="edge">
<title>Node2&#45;&gt;Node6</title>
<path fill="none" stroke="midnightblue" d="M496.61,-445.07C469,-458.23 431.22,-475.48 397,-488.5 388.43,-491.76 379.34,-494.94 370.3,-497.95"/>
<polygon fill="midnightblue" stroke="midnightblue" points="498.42,-448.08 505.93,-440.6 495.4,-441.77 498.42,-448.08"/>
</g>
<!-- Node7 -->
<g id="node7" class="node">
<title>Node7</title>
<g id="a_node7"><a xlink:href="classtests_1_1test__commit__commands_1_1TestCommitCommands.html#af9c09013055ec39ddde86b487aefcf8b" target="_top" xlink:title=" ">
<polygon fill="white" stroke="black" points="216.5,-438 216.5,-479 383.5,-479 383.5,-438 216.5,-438"/>
<text text-anchor="start" x="224.5" y="-467" font-family="Helvetica,sans-Serif" font-size="10.00">tests.test_commit_commands.</text>
<text text-anchor="start" x="224.5" y="-456" font-family="Helvetica,sans-Serif" font-size="10.00">TestCommitCommands.test</text>
<text text-anchor="middle" x="300" y="-445" font-family="Helvetica,sans-Serif" font-size="10.00">_commit_code_with_jira_client</text>
</a>
</g>
</g>
<!-- Node2&#45;&gt;Node7 -->
<g id="edge7" class="edge">
<title>Node2&#45;&gt;Node7</title>
<path fill="none" stroke="midnightblue" d="M440.74,-438.92C421.89,-441.56 402.25,-444.31 383.87,-446.89"/>
<polygon fill="midnightblue" stroke="midnightblue" points="441.4,-442.36 450.81,-437.51 440.42,-435.43 441.4,-442.36"/>
</g>
<!-- Node8 -->
<g id="node8" class="node">
<title>Node8</title>
<g id="a_node8"><a xlink:href="classtests_1_1test__commit__commands_1_1TestCommitCommands.html#acea0d934ee0f2b914b0b893736e8fe4e" target="_top" xlink:title=" ">
<polygon fill="white" stroke="black" points="203,-366.5 203,-418.5 397,-418.5 397,-366.5 203,-366.5"/>
<text text-anchor="start" x="211" y="-406.5" font-family="Helvetica,sans-Serif" font-size="10.00">tests.test_commit_commands.</text>
<text text-anchor="start" x="211" y="-395.5" font-family="Helvetica,sans-Serif" font-size="10.00">TestCommitCommands.test</text>
<text text-anchor="start" x="211" y="-384.5" font-family="Helvetica,sans-Serif" font-size="10.00">_commit_code_with_jira_connection</text>
<text text-anchor="middle" x="300" y="-373.5" font-family="Helvetica,sans-Serif" font-size="10.00">_failure</text>
</a>
</g>
</g>
<!-- Node2&#45;&gt;Node8 -->
<g id="edge8" class="edge">
<title>Node2&#45;&gt;Node8</title>
<path fill="none" stroke="midnightblue" d="M440.54,-412.05C426.3,-410.06 411.63,-408 397.39,-406.01"/>
<polygon fill="midnightblue" stroke="midnightblue" points="440.42,-415.57 450.81,-413.49 441.4,-408.64 440.42,-415.57"/>
</g>
<!-- Node9 -->
<g id="node9" class="node">
<title>Node9</title>
<g id="a_node9"><a xlink:href="classtests_1_1test__commit__commands_1_1TestCommitCommands.html#acc4b1e4189792a3f7c11d2a745f479c0" target="_top" xlink:title=" ">
<polygon fill="white" stroke="black" points="216.5,-306 216.5,-347 383.5,-347 383.5,-306 216.5,-306"/>
<text text-anchor="start" x="224.5" y="-335" font-family="Helvetica,sans-Serif" font-size="10.00">tests.test_commit_commands.</text>
<text text-anchor="start" x="224.5" y="-324" font-family="Helvetica,sans-Serif" font-size="10.00">TestCommitCommands.test</text>
<text text-anchor="middle" x="300" y="-313" font-family="Helvetica,sans-Serif" font-size="10.00">_commit_code_with_llm_client</text>
</a>
</g>
</g>
<!-- Node2&#45;&gt;Node9 -->
<g id="edge9" class="edge">
<title>Node2&#45;&gt;Node9</title>
<path fill="none" stroke="midnightblue" d="M499.5,-405.68C471.75,-391.26 432.59,-371.84 397,-357.5 387.98,-353.87 378.36,-350.35 368.83,-347.08"/>
<polygon fill="midnightblue" stroke="midnightblue" points="497.96,-408.83 508.45,-410.37 501.21,-402.63 497.96,-408.83"/>
</g>
<!-- Node3&#45;&gt;Node4 -->
<g id="edge3" class="edge">
<title>Node3&#45;&gt;Node4</title>
<path fill="none" stroke="midnightblue" d="M212.26,-553.96C209.06,-552.29 205.96,-550.47 203,-548.5 143.85,-509.07 102.3,-430.05 89.04,-402.36"/>
<polygon fill="midnightblue" stroke="midnightblue" points="211,-557.23 221.54,-558.3 213.97,-550.89 211,-557.23"/>
</g>
<!-- Node5 -->
<g id="node5" class="node">
<title>Node5</title>
<g id="a_node5"><a xlink:href="classtests_1_1test__commit__commands_1_1TestCommitCommands.html#ac13e368262340af98b30fd8ebdac6597" target="_top" xlink:title=" ">
<polygon fill="white" stroke="black" points="0,-553 0,-594 167,-594 167,-553 0,-553"/>
<text text-anchor="start" x="8" y="-582" font-family="Helvetica,sans-Serif" font-size="10.00">tests.test_commit_commands.</text>
<text text-anchor="start" x="8" y="-571" font-family="Helvetica,sans-Serif" font-size="10.00">TestCommitCommands.test</text>
<text text-anchor="middle" x="83.5" y="-560" font-family="Helvetica,sans-Serif" font-size="10.00">_handle_commit</text>
</a>
</g>
</g>
<!-- Node3&#45;&gt;Node5 -->
<g id="edge5" class="edge">
<title>Node3&#45;&gt;Node5</title>
<path fill="none" stroke="midnightblue" d="M203.27,-573.5C191.26,-573.5 179.06,-573.5 167.27,-573.5"/>
<polygon fill="midnightblue" stroke="midnightblue" points="203.3,-577 213.3,-573.5 203.3,-570 203.3,-577"/>
</g>
<!-- Node4&#45;&gt;Node4 -->
<g id="edge4" class="edge">
<title>Node4&#45;&gt;Node4</title>
<path fill="none" stroke="midnightblue" d="M123.9,-409.12C125.31,-415.36 111.85,-420.5 83.5,-420.5 44.9,-420.5 33.89,-410.96 50.48,-402.11"/>
<polygon fill="midnightblue" stroke="midnightblue" points="126.18,-406.46 116.52,-402.11 121.36,-411.54 126.18,-406.46"/>
</g>
<!-- Node11&#45;&gt;Node12 -->
<g id="edge12" class="edge">
<title>Node11&#45;&gt;Node12</title>
<path fill="none" stroke="midnightblue" d="M433.54,-147.08C413.28,-142.86 392.43,-138.52 373.43,-134.57"/>
<polygon fill="midnightblue" stroke="midnightblue" points="432.92,-150.52 443.42,-149.13 434.35,-143.67 432.92,-150.52"/>
</g>
<!-- Node13&#45;&gt;Node12 -->
<g id="edge16" class="edge">
<title>Node13&#45;&gt;Node12</title>
<path fill="none" stroke="midnightblue" d="M427.71,-93.14C409.19,-96.99 390.37,-100.9 373.11,-104.5"/>
<polygon fill="midnightblue" stroke="midnightblue" points="428.57,-96.53 437.65,-91.07 427.15,-89.68 428.57,-96.53"/>
</g>
</g>
</svg>
