<?xml version="1.0" encoding="UTF-8" standalone="no"?>
<!DOCTYPE svg PUBLIC "-//W3C//DTD SVG 1.1//EN"
 "http://www.w3.org/Graphics/SVG/1.1/DTD/svg11.dtd">
<!-- Generated by graphviz version 2.43.0 (0)
 -->
<!-- Title: penify_hook.ui_utils.format_warning Pages: 1 -->
<svg width="1012pt" height="476pt"
 viewBox="0.00 0.00 1012.00 475.50" xmlns="http://www.w3.org/2000/svg" xmlns:xlink="http://www.w3.org/1999/xlink">
<g id="graph0" class="graph" transform="scale(1 1) rotate(0) translate(4 471.5)">
<title>penify_hook.ui_utils.format_warning</title>
<polygon fill="white" stroke="transparent" points="-4,4 -4,-471.5 1008,-471.5 1008,4 -4,4"/>
<!-- Node1 -->
<g id="node1" class="node">
<title>Node1</title>
<g id="a_node1"><a xlink:title=" ">
<polygon fill="#bfbfbf" stroke="black" points="854,-77.5 854,-107.5 1004,-107.5 1004,-77.5 854,-77.5"/>
<text text-anchor="start" x="862" y="-95.5" font-family="Helvetica,sans-Serif" font-size="10.00">penify_hook.ui_utils.format</text>
<text text-anchor="middle" x="929" y="-84.5" font-family="Helvetica,sans-Serif" font-size="10.00">_warning</text>
</a>
</g>
</g>
<!-- Node2 -->
<g id="node2" class="node">
<title>Node2</title>
<g id="a_node2"><a xlink:href="namespacepenify__hook_1_1ui__utils.html#a1ffbb9671dbe233770268e2dd66a67fa" target="_top" xlink:title=" ">
<polygon fill="white" stroke="black" points="678,-77.5 678,-107.5 818,-107.5 818,-77.5 678,-77.5"/>
<text text-anchor="start" x="686" y="-95.5" font-family="Helvetica,sans-Serif" font-size="10.00">penify_hook.ui_utils.print</text>
<text text-anchor="middle" x="748" y="-84.5" font-family="Helvetica,sans-Serif" font-size="10.00">_warning</text>
</a>
</g>
</g>
<!-- Node1&#45;&gt;Node2 -->
<g id="edge1" class="edge">
<title>Node1&#45;&gt;Node2</title>
<path fill="none" stroke="midnightblue" d="M843.85,-92.5C835.25,-92.5 826.58,-92.5 818.16,-92.5"/>
<polygon fill="midnightblue" stroke="midnightblue" points="843.9,-96 853.9,-92.5 843.9,-89 843.9,-96"/>
</g>
<!-- Node3 -->
<g id="node3" class="node">
<title>Node3</title>
<g id="a_node3"><a xlink:href="namespacepenify__hook_1_1commands_1_1commit__commands.html#a62564c4e8ad59fc46d56cb0f9122a71a" target="_top" xlink:title=" ">
<polygon fill="white" stroke="black" points="451,-252.5 451,-282.5 624,-282.5 624,-252.5 451,-252.5"/>
<text text-anchor="start" x="459" y="-270.5" font-family="Helvetica,sans-Serif" font-size="10.00">penify_hook.commands.commit</text>
<text text-anchor="middle" x="537.5" y="-259.5" font-family="Helvetica,sans-Serif" font-size="10.00">_commands.commit_code</text>
</a>
</g>
</g>
<!-- Node2&#45;&gt;Node3 -->
<g id="edge2" class="edge">
<title>Node2&#45;&gt;Node3</title>
<path fill="none" stroke="midnightblue" d="M721.11,-114.23C678.2,-150.24 593.42,-221.4 556.45,-252.44"/>
<polygon fill="midnightblue" stroke="midnightblue" points="723.45,-116.83 728.86,-107.72 718.95,-111.47 723.45,-116.83"/>
</g>
<!-- Node11 -->
<g id="node11" class="node">
<title>Node11</title>
<g id="a_node11"><a xlink:href="classpenify__hook_1_1file__analyzer_1_1FileAnalyzerGenHook.html#a2cc6c22ef588fccf3eed9bbc57fb6d6e" target="_top" xlink:title=" ">
<polygon fill="white" stroke="black" points="446.5,-77.5 446.5,-107.5 628.5,-107.5 628.5,-77.5 446.5,-77.5"/>
<text text-anchor="start" x="454.5" y="-95.5" font-family="Helvetica,sans-Serif" font-size="10.00">penify_hook.file_analyzer.</text>
<text text-anchor="middle" x="537.5" y="-84.5" font-family="Helvetica,sans-Serif" font-size="10.00">FileAnalyzerGenHook.process_file</text>
</a>
</g>
</g>
<!-- Node2&#45;&gt;Node11 -->
<g id="edge11" class="edge">
<title>Node2&#45;&gt;Node11</title>
<path fill="none" stroke="midnightblue" d="M667.74,-92.5C654.95,-92.5 641.64,-92.5 628.62,-92.5"/>
<polygon fill="midnightblue" stroke="midnightblue" points="667.86,-96 677.86,-92.5 667.86,-89 667.86,-96"/>
</g>
<!-- Node14 -->
<g id="node14" class="node">
<title>Node14</title>
<g id="a_node14"><a xlink:href="classpenify__hook_1_1commit__analyzer_1_1CommitDocGenHook.html#adda13cc121d96342476ccf72b63a007f" target="_top" xlink:title=" ">
<polygon fill="white" stroke="black" points="433,-6 433,-47 642,-47 642,-6 433,-6"/>
<text text-anchor="start" x="441" y="-35" font-family="Helvetica,sans-Serif" font-size="10.00">penify_hook.commit</text>
<text text-anchor="start" x="441" y="-24" font-family="Helvetica,sans-Serif" font-size="10.00">_analyzer.CommitDocGenHook.process</text>
<text text-anchor="middle" x="537.5" y="-13" font-family="Helvetica,sans-Serif" font-size="10.00">_jira_integration</text>
</a>
</g>
</g>
<!-- Node2&#45;&gt;Node14 -->
<g id="edge14" class="edge">
<title>Node2&#45;&gt;Node14</title>
<path fill="none" stroke="midnightblue" d="M689.85,-74.41C663.16,-65.96 631.26,-55.86 603.65,-47.12"/>
<polygon fill="midnightblue" stroke="midnightblue" points="688.84,-77.76 699.43,-77.44 690.95,-71.09 688.84,-77.76"/>
</g>
<!-- Node4 -->
<g id="node4" class="node">
<title>Node4</title>
<g id="a_node4"><a xlink:href="namespacepenify__hook_1_1commands_1_1commit__commands.html#af4f739f524c38b437e4e47673d683e23" target="_top" xlink:title=" ">
<polygon fill="white" stroke="black" points="213.5,-400.5 213.5,-430.5 386.5,-430.5 386.5,-400.5 213.5,-400.5"/>
<text text-anchor="start" x="221.5" y="-418.5" font-family="Helvetica,sans-Serif" font-size="10.00">penify_hook.commands.commit</text>
<text text-anchor="middle" x="300" y="-407.5" font-family="Helvetica,sans-Serif" font-size="10.00">_commands.handle_commit</text>
</a>
</g>
</g>
<!-- Node3&#45;&gt;Node4 -->
<g id="edge3" class="edge">
<title>Node3&#45;&gt;Node4</title>
<path fill="none" stroke="midnightblue" d="M516.75,-290.55C491.67,-318.35 445.78,-364.56 397,-390.5 389.7,-394.38 381.76,-397.69 373.68,-400.49"/>
<polygon fill="midnightblue" stroke="midnightblue" points="519.52,-292.69 523.55,-282.89 514.29,-288.05 519.52,-292.69"/>
</g>
<!-- Node7 -->
<g id="node7" class="node">
<title>Node7</title>
<g id="a_node7"><a xlink:href="classtests_1_1test__commit__commands_1_1TestCommitCommands.html#a43c2ff3707124aa48e8eb581106b8691" target="_top" xlink:title=" ">
<polygon fill="white" stroke="black" points="216.5,-340 216.5,-381 383.5,-381 383.5,-340 216.5,-340"/>
<text text-anchor="start" x="224.5" y="-369" font-family="Helvetica,sans-Serif" font-size="10.00">tests.test_commit_commands.</text>
<text text-anchor="start" x="224.5" y="-358" font-family="Helvetica,sans-Serif" font-size="10.00">TestCommitCommands.test</text>
<text text-anchor="middle" x="300" y="-347" font-family="Helvetica,sans-Serif" font-size="10.00">_commit_code_error_handling</text>
</a>
</g>
</g>
<!-- Node3&#45;&gt;Node7 -->
<g id="edge7" class="edge">
<title>Node3&#45;&gt;Node7</title>
<path fill="none" stroke="midnightblue" d="M496.61,-287.07C469,-300.23 431.22,-317.48 397,-330.5 388.43,-333.76 379.34,-336.94 370.3,-339.95"/>
<polygon fill="midnightblue" stroke="midnightblue" points="498.42,-290.08 505.93,-282.6 495.4,-283.77 498.42,-290.08"/>
</g>
<!-- Node8 -->
<g id="node8" class="node">
<title>Node8</title>
<g id="a_node8"><a xlink:href="classtests_1_1test__commit__commands_1_1TestCommitCommands.html#af9c09013055ec39ddde86b487aefcf8b" target="_top" xlink:title=" ">
<polygon fill="white" stroke="black" points="216.5,-280 216.5,-321 383.5,-321 383.5,-280 216.5,-280"/>
<text text-anchor="start" x="224.5" y="-309" font-family="Helvetica,sans-Serif" font-size="10.00">tests.test_commit_commands.</text>
<text text-anchor="start" x="224.5" y="-298" font-family="Helvetica,sans-Serif" font-size="10.00">TestCommitCommands.test</text>
<text text-anchor="middle" x="300" y="-287" font-family="Helvetica,sans-Serif" font-size="10.00">_commit_code_with_jira_client</text>
</a>
</g>
</g>
<!-- Node3&#45;&gt;Node8 -->
<g id="edge8" class="edge">
<title>Node3&#45;&gt;Node8</title>
<path fill="none" stroke="midnightblue" d="M440.74,-280.92C421.89,-283.56 402.25,-286.31 383.87,-288.89"/>
<polygon fill="midnightblue" stroke="midnightblue" points="441.4,-284.36 450.81,-279.51 440.42,-277.43 441.4,-284.36"/>
</g>
<!-- Node9 -->
<g id="node9" class="node">
<title>Node9</title>
<g id="a_node9"><a xlink:href="classtests_1_1test__commit__commands_1_1TestCommitCommands.html#acea0d934ee0f2b914b0b893736e8fe4e" target="_top" xlink:title=" ">
<polygon fill="white" stroke="black" points="203,-208.5 203,-260.5 397,-260.5 397,-208.5 203,-208.5"/>
<text text-anchor="start" x="211" y="-248.5" font-family="Helvetica,sans-Serif" font-size="10.00">tests.test_commit_commands.</text>
<text text-anchor="start" x="211" y="-237.5" font-family="Helvetica,sans-Serif" font-size="10.00">TestCommitCommands.test</text>
<text text-anchor="start" x="211" y="-226.5" font-family="Helvetica,sans-Serif" font-size="10.00">_commit_code_with_jira_connection</text>
<text text-anchor="middle" x="300" y="-215.5" font-family="Helvetica,sans-Serif" font-size="10.00">_failure</text>
</a>
</g>
</g>
<!-- Node3&#45;&gt;Node9 -->
<g id="edge9" class="edge">
<title>Node3&#45;&gt;Node9</title>
<path fill="none" stroke="midnightblue" d="M440.54,-254.05C426.3,-252.06 411.63,-250 397.39,-248.01"/>
<polygon fill="midnightblue" stroke="midnightblue" points="440.42,-257.57 450.81,-255.49 441.4,-250.64 440.42,-257.57"/>
</g>
<!-- Node10 -->
<g id="node10" class="node">
<title>Node10</title>
<g id="a_node10"><a xlink:href="classtests_1_1test__commit__commands_1_1TestCommitCommands.html#acc4b1e4189792a3f7c11d2a745f479c0" target="_top" xlink:title=" ">
<polygon fill="white" stroke="black" points="216.5,-148 216.5,-189 383.5,-189 383.5,-148 216.5,-148"/>
<text text-anchor="start" x="224.5" y="-177" font-family="Helvetica,sans-Serif" font-size="10.00">tests.test_commit_commands.</text>
<text text-anchor="start" x="224.5" y="-166" font-family="Helvetica,sans-Serif" font-size="10.00">TestCommitCommands.test</text>
<text text-anchor="middle" x="300" y="-155" font-family="Helvetica,sans-Serif" font-size="10.00">_commit_code_with_llm_client</text>
</a>
</g>
</g>
<!-- Node3&#45;&gt;Node10 -->
<g id="edge10" class="edge">
<title>Node3&#45;&gt;Node10</title>
<path fill="none" stroke="midnightblue" d="M500.35,-247.67C472.6,-232.93 433.05,-212.95 397,-198.5 388.73,-195.19 379.95,-192 371.19,-189.03"/>
<polygon fill="midnightblue" stroke="midnightblue" points="498.82,-250.82 509.29,-252.45 502.13,-244.65 498.82,-250.82"/>
</g>
<!-- Node5 -->
<g id="node5" class="node">
<title>Node5</title>
<g id="a_node5"><a xlink:href="namespacepenify__hook_1_1main.html#a16838b20df4bd14ee4b5e1dd2906738f" target="_top" xlink:title=" ">
<polygon fill="white" stroke="black" points="18,-430 18,-449 149,-449 149,-430 18,-430"/>
<text text-anchor="middle" x="83.5" y="-437" font-family="Helvetica,sans-Serif" font-size="10.00">penify_hook.main.main</text>
</a>
</g>
</g>
<!-- Node4&#45;&gt;Node5 -->
<g id="edge4" class="edge">
<title>Node4&#45;&gt;Node5</title>
<path fill="none" stroke="midnightblue" d="M203.22,-426.22C184.96,-428.26 166.25,-430.35 149.25,-432.26"/>
<polygon fill="midnightblue" stroke="midnightblue" points="203.75,-429.68 213.3,-425.09 202.97,-422.72 203.75,-429.68"/>
</g>
<!-- Node6 -->
<g id="node6" class="node">
<title>Node6</title>
<g id="a_node6"><a xlink:href="classtests_1_1test__commit__commands_1_1TestCommitCommands.html#ac13e368262340af98b30fd8ebdac6597" target="_top" xlink:title=" ">
<polygon fill="white" stroke="black" points="0,-370 0,-411 167,-411 167,-370 0,-370"/>
<text text-anchor="start" x="8" y="-399" font-family="Helvetica,sans-Serif" font-size="10.00">tests.test_commit_commands.</text>
<text text-anchor="start" x="8" y="-388" font-family="Helvetica,sans-Serif" font-size="10.00">TestCommitCommands.test</text>
<text text-anchor="middle" x="83.5" y="-377" font-family="Helvetica,sans-Serif" font-size="10.00">_handle_commit</text>
</a>
</g>
</g>
<!-- Node4&#45;&gt;Node6 -->
<g id="edge6" class="edge">
<title>Node4&#45;&gt;Node6</title>
<path fill="none" stroke="midnightblue" d="M203.27,-404.34C191.26,-402.94 179.06,-401.52 167.27,-400.15"/>
<polygon fill="midnightblue" stroke="midnightblue" points="202.96,-407.83 213.3,-405.51 203.77,-400.88 202.96,-407.83"/>
</g>
<!-- Node5&#45;&gt;Node5 -->
<g id="edge5" class="edge">
<title>Node5&#45;&gt;Node5</title>
<path fill="none" stroke="midnightblue" d="M123.9,-456.12C125.31,-462.36 111.85,-467.5 83.5,-467.5 44.9,-467.5 33.89,-457.96 50.48,-449.11"/>
<polygon fill="midnightblue" stroke="midnightblue" points="126.18,-453.46 116.52,-449.11 121.36,-458.54 126.18,-453.46"/>
</g>
<!-- Node12 -->
<g id="node12" class="node">
<title>Node12</title>
<g id="a_node12"><a xlink:href="classpenify__hook_1_1file__analyzer_1_1FileAnalyzerGenHook.html#a4f4dffbc432fac3e259d957dd1e187f1" target="_top" xlink:title=" ">
<polygon fill="white" stroke="black" points="228.5,-98.5 228.5,-128.5 371.5,-128.5 371.5,-98.5 228.5,-98.5"/>
<text text-anchor="start" x="236.5" y="-116.5" font-family="Helvetica,sans-Serif" font-size="10.00">penify_hook.file_analyzer.</text>
<text text-anchor="middle" x="300" y="-105.5" font-family="Helvetica,sans-Serif" font-size="10.00">FileAnalyzerGenHook.run</text>
</a>
</g>
</g>
<!-- Node11&#45;&gt;Node12 -->
<g id="edge12" class="edge">
<title>Node11&#45;&gt;Node12</title>
<path fill="none" stroke="midnightblue" d="M436.5,-101.42C414.66,-103.36 391.99,-105.39 371.59,-107.21"/>
<polygon fill="midnightblue" stroke="midnightblue" points="436.81,-104.9 446.46,-100.53 436.19,-97.93 436.81,-104.9"/>
</g>
<!-- Node13 -->
<g id="node13" class="node">
<title>Node13</title>
<g id="a_node13"><a xlink:href="classpenify__hook_1_1git__analyzer_1_1GitDocGenHook.html#a3beba14e92d717391a74bb70b1fab0ae" target="_top" xlink:title=" ">
<polygon fill="white" stroke="black" points="229.5,-49.5 229.5,-79.5 370.5,-79.5 370.5,-49.5 229.5,-49.5"/>
<text text-anchor="start" x="237.5" y="-67.5" font-family="Helvetica,sans-Serif" font-size="10.00">penify_hook.git_analyzer.</text>
<text text-anchor="middle" x="300" y="-56.5" font-family="Helvetica,sans-Serif" font-size="10.00">GitDocGenHook.run</text>
</a>
</g>
</g>
<!-- Node11&#45;&gt;Node13 -->
<g id="edge13" class="edge">
<title>Node11&#45;&gt;Node13</title>
<path fill="none" stroke="midnightblue" d="M436.39,-80.6C414.33,-77.97 391.41,-75.25 370.85,-72.8"/>
<polygon fill="midnightblue" stroke="midnightblue" points="436.12,-84.09 446.46,-81.79 436.94,-77.14 436.12,-84.09"/>
</g>
<!-- Node15 -->
<g id="node15" class="node">
<title>Node15</title>
<g id="a_node15"><a xlink:href="classpenify__hook_1_1commit__analyzer_1_1CommitDocGenHook.html#a6370a03f7ed9175ef6f81e931a105ea9" target="_top" xlink:title=" ">
<polygon fill="white" stroke="black" points="206,-0.5 206,-30.5 394,-30.5 394,-0.5 206,-0.5"/>
<text text-anchor="start" x="214" y="-18.5" font-family="Helvetica,sans-Serif" font-size="10.00">penify_hook.commit</text>
<text text-anchor="middle" x="300" y="-7.5" font-family="Helvetica,sans-Serif" font-size="10.00">_analyzer.CommitDocGenHook.run</text>
</a>
</g>
</g>
<!-- Node14&#45;&gt;Node15 -->
<g id="edge15" class="edge">
<title>Node14&#45;&gt;Node15</title>
<path fill="none" stroke="midnightblue" d="M422.6,-21.18C413.12,-20.74 403.6,-20.29 394.3,-19.86"/>
<polygon fill="midnightblue" stroke="midnightblue" points="422.71,-24.69 432.86,-21.66 423.04,-17.7 422.71,-24.69"/>
</g>
</g>
</svg>
