<?xml version="1.0" encoding="UTF-8" standalone="no"?>
<!DOCTYPE svg PUBLIC "-//W3C//DTD SVG 1.1//EN"
 "http://www.w3.org/Graphics/SVG/1.1/DTD/svg11.dtd">
<!-- Generated by graphviz version 2.43.0 (0)
 -->
<!-- Title: penify_hook.commands.config_commands.config_jira_web Pages: 1 -->
<svg width="522pt" height="112pt"
 viewBox="0.00 0.00 522.00 112.00" xmlns="http://www.w3.org/2000/svg" xmlns:xlink="http://www.w3.org/1999/xlink">
<g id="graph0" class="graph" transform="scale(1 1) rotate(0) translate(4 108)">
<title>penify_hook.commands.config_commands.config_jira_web</title>
<polygon fill="white" stroke="transparent" points="-4,4 -4,-108 518,-108 518,4 -4,4"/>
<!-- Node1 -->
<g id="node1" class="node">
<title>Node1</title>
<g id="a_node1"><a xlink:title=" ">
<polygon fill="#bfbfbf" stroke="black" points="349,-33 349,-63 514,-63 514,-33 349,-33"/>
<text text-anchor="start" x="357" y="-51" font-family="Helvetica,sans-Serif" font-size="10.00">penify_hook.commands.config</text>
<text text-anchor="middle" x="431.5" y="-40" font-family="Helvetica,sans-Serif" font-size="10.00">_commands.config_jira_web</text>
</a>
</g>
</g>
<!-- Node2 -->
<g id="node2" class="node">
<title>Node2</title>
<g id="a_node2"><a xlink:href="namespacepenify__hook_1_1config__command.html#a240e5331681eb574ac319d7458783bde" target="_top" xlink:title=" ">
<polygon fill="white" stroke="black" points="169.5,-61 169.5,-91 310.5,-91 310.5,-61 169.5,-61"/>
<text text-anchor="start" x="177.5" y="-79" font-family="Helvetica,sans-Serif" font-size="10.00">penify_hook.config</text>
<text text-anchor="middle" x="240" y="-68" font-family="Helvetica,sans-Serif" font-size="10.00">_command.handle_config</text>
</a>
</g>
</g>
<!-- Node1&#45;&gt;Node2 -->
<g id="edge1" class="edge">
<title>Node1&#45;&gt;Node2</title>
<path fill="none" stroke="midnightblue" d="M338.57,-61.58C329.15,-62.97 319.7,-64.37 310.58,-65.72"/>
<polygon fill="midnightblue" stroke="midnightblue" points="339.38,-65 348.76,-60.08 338.36,-58.08 339.38,-65"/>
</g>
<!-- Node4 -->
<g id="node4" class="node">
<title>Node4</title>
<g id="a_node4"><a xlink:href="classtests_1_1test__web__config_1_1TestWebConfig.html#a06e600222e426b003850509cb1d3190a" target="_top" xlink:title=" ">
<polygon fill="white" stroke="black" points="167,-0.5 167,-41.5 313,-41.5 313,-0.5 167,-0.5"/>
<text text-anchor="start" x="175" y="-29.5" font-family="Helvetica,sans-Serif" font-size="10.00">tests.test_web_config.Test</text>
<text text-anchor="start" x="175" y="-18.5" font-family="Helvetica,sans-Serif" font-size="10.00">WebConfig.test_config_jira</text>
<text text-anchor="middle" x="240" y="-7.5" font-family="Helvetica,sans-Serif" font-size="10.00">_web_server_setup</text>
</a>
</g>
</g>
<!-- Node1&#45;&gt;Node4 -->
<g id="edge4" class="edge">
<title>Node1&#45;&gt;Node4</title>
<path fill="none" stroke="midnightblue" d="M338.74,-34.93C330.17,-33.71 321.58,-32.48 313.23,-31.29"/>
<polygon fill="midnightblue" stroke="midnightblue" points="338.37,-38.41 348.76,-36.35 339.35,-31.48 338.37,-38.41"/>
</g>
<!-- Node3 -->
<g id="node3" class="node">
<title>Node3</title>
<g id="a_node3"><a xlink:href="namespacepenify__hook_1_1main.html#a16838b20df4bd14ee4b5e1dd2906738f" target="_top" xlink:title=" ">
<polygon fill="white" stroke="black" points="0,-66.5 0,-85.5 131,-85.5 131,-66.5 0,-66.5"/>
<text text-anchor="middle" x="65.5" y="-73.5" font-family="Helvetica,sans-Serif" font-size="10.00">penify_hook.main.main</text>
</a>
</g>
</g>
<!-- Node2&#45;&gt;Node3 -->
<g id="edge2" class="edge">
<title>Node2&#45;&gt;Node3</title>
<path fill="none" stroke="midnightblue" d="M159.19,-76C149.79,-76 140.28,-76 131.12,-76"/>
<polygon fill="midnightblue" stroke="midnightblue" points="159.33,-79.5 169.33,-76 159.33,-72.5 159.33,-79.5"/>
</g>
<!-- Node3&#45;&gt;Node3 -->
<g id="edge3" class="edge">
<title>Node3&#45;&gt;Node3</title>
<path fill="none" stroke="midnightblue" d="M98.06,-94.27C97.13,-99.74 86.28,-104 65.5,-104 34.57,-104 25.63,-94.57 38.68,-85.76"/>
<polygon fill="midnightblue" stroke="midnightblue" points="100.81,-92.09 92.32,-85.76 95.01,-96.01 100.81,-92.09"/>
</g>
</g>
</svg>
