<?xml version="1.0" encoding="UTF-8" standalone="no"?>
<!DOCTYPE svg PUBLIC "-//W3C//DTD SVG 1.1//EN"
 "http://www.w3.org/Graphics/SVG/1.1/DTD/svg11.dtd">
<!-- Generated by graphviz version 2.43.0 (0)
 -->
<!-- Title: penify_hook.ui_utils.update_stage Pages: 1 -->
<svg width="556pt" height="88pt"
 viewBox="0.00 0.00 556.00 88.00" xmlns="http://www.w3.org/2000/svg" xmlns:xlink="http://www.w3.org/1999/xlink">
<g id="graph0" class="graph" transform="scale(1 1) rotate(0) translate(4 84)">
<title>penify_hook.ui_utils.update_stage</title>
<polygon fill="white" stroke="transparent" points="-4,4 -4,-84 552,-84 552,4 -4,4"/>
<!-- Node1 -->
<g id="node1" class="node">
<title>Node1</title>
<g id="a_node1"><a xlink:title=" ">
<polygon fill="#bfbfbf" stroke="black" points="397,-27.5 397,-57.5 548,-57.5 548,-27.5 397,-27.5"/>
<text text-anchor="start" x="405" y="-45.5" font-family="Helvetica,sans-Serif" font-size="10.00">penify_hook.ui_utils.update</text>
<text text-anchor="middle" x="472.5" y="-34.5" font-family="Helvetica,sans-Serif" font-size="10.00">_stage</text>
</a>
</g>
</g>
<!-- Node2 -->
<g id="node2" class="node">
<title>Node2</title>
<g id="a_node2"><a xlink:href="classpenify__hook_1_1file__analyzer_1_1FileAnalyzerGenHook.html#a2cc6c22ef588fccf3eed9bbc57fb6d6e" target="_top" xlink:title=" ">
<polygon fill="white" stroke="black" points="179,-5.5 179,-35.5 361,-35.5 361,-5.5 179,-5.5"/>
<text text-anchor="start" x="187" y="-23.5" font-family="Helvetica,sans-Serif" font-size="10.00">penify_hook.file_analyzer.</text>
<text text-anchor="middle" x="270" y="-12.5" font-family="Helvetica,sans-Serif" font-size="10.00">FileAnalyzerGenHook.process_file</text>
</a>
</g>
</g>
<!-- Node1&#45;&gt;Node2 -->
<g id="edge1" class="edge">
<title>Node1&#45;&gt;Node2</title>
<path fill="none" stroke="midnightblue" d="M386.69,-33.19C378.3,-32.27 369.76,-31.34 361.32,-30.41"/>
<polygon fill="midnightblue" stroke="midnightblue" points="386.52,-36.7 396.84,-34.31 387.28,-29.74 386.52,-36.7"/>
</g>
<!-- Node3 -->
<g id="node3" class="node">
<title>Node3</title>
<g id="a_node3"><a xlink:href="classpenify__hook_1_1file__analyzer_1_1FileAnalyzerGenHook.html#a4f4dffbc432fac3e259d957dd1e187f1" target="_top" xlink:title=" ">
<polygon fill="white" stroke="black" points="0,-49.5 0,-79.5 143,-79.5 143,-49.5 0,-49.5"/>
<text text-anchor="start" x="8" y="-67.5" font-family="Helvetica,sans-Serif" font-size="10.00">penify_hook.file_analyzer.</text>
<text text-anchor="middle" x="71.5" y="-56.5" font-family="Helvetica,sans-Serif" font-size="10.00">FileAnalyzerGenHook.run</text>
</a>
</g>
</g>
<!-- Node1&#45;&gt;Node3 -->
<g id="edge4" class="edge">
<title>Node1&#45;&gt;Node3</title>
<path fill="none" stroke="midnightblue" d="M386.9,-47.16C314.39,-51.16 211.15,-56.85 143.03,-60.61"/>
<polygon fill="midnightblue" stroke="midnightblue" points="387.13,-50.66 396.92,-46.61 386.74,-43.67 387.13,-50.66"/>
</g>
<!-- Node2&#45;&gt;Node3 -->
<g id="edge2" class="edge">
<title>Node2&#45;&gt;Node3</title>
<path fill="none" stroke="midnightblue" d="M191.88,-37.77C174.61,-41.64 156.43,-45.71 139.61,-49.47"/>
<polygon fill="midnightblue" stroke="midnightblue" points="192.93,-41.12 201.93,-35.52 191.4,-34.29 192.93,-41.12"/>
</g>
<!-- Node4 -->
<g id="node4" class="node">
<title>Node4</title>
<g id="a_node4"><a xlink:href="classpenify__hook_1_1git__analyzer_1_1GitDocGenHook.html#a3beba14e92d717391a74bb70b1fab0ae" target="_top" xlink:title=" ">
<polygon fill="white" stroke="black" points="1,-0.5 1,-30.5 142,-30.5 142,-0.5 1,-0.5"/>
<text text-anchor="start" x="9" y="-18.5" font-family="Helvetica,sans-Serif" font-size="10.00">penify_hook.git_analyzer.</text>
<text text-anchor="middle" x="71.5" y="-7.5" font-family="Helvetica,sans-Serif" font-size="10.00">GitDocGenHook.run</text>
</a>
</g>
</g>
<!-- Node2&#45;&gt;Node4 -->
<g id="edge3" class="edge">
<title>Node2&#45;&gt;Node4</title>
<path fill="none" stroke="midnightblue" d="M168.68,-17.95C159.71,-17.72 150.77,-17.49 142.15,-17.27"/>
<polygon fill="midnightblue" stroke="midnightblue" points="168.72,-21.45 178.8,-18.2 168.89,-14.45 168.72,-21.45"/>
</g>
</g>
</svg>
