<?xml version="1.0" encoding="UTF-8" standalone="no"?>
<!DOCTYPE svg PUBLIC "-//W3C//DTD SVG 1.1//EN"
 "http://www.w3.org/Graphics/SVG/1.1/DTD/svg11.dtd">
<!-- Generated by graphviz version 2.43.0 (0)
 -->
<!-- Title: penify_hook.commands.doc_commands.generate_doc Pages: 1 -->
<!--zoomable 450 -->
<svg id="main" version="1.1" xmlns="http://www.w3.org/2000/svg" xmlns:xlink="http://www.w3.org/1999/xlink" xml:space="preserve" onload="init(evt)">
<style type="text/css"><![CDATA[
.edge:hover path { stroke: red; }
.edge:hover polygon { stroke: red; fill: red; }
]]></style>
<script type="text/javascript"><![CDATA[
var edges = document.getElementsByTagName('g');
if (edges && edges.length) {
  for (var i=0;i<edges.length;i++) {
    if (edges[i].id.substr(0,4)=='edge') {
      edges[i].setAttribute('class','edge');
    }
  }
}
]]></script>
        <defs>
                <circle id="rim" cx="0" cy="0" r="7"/>
                <circle id="rim2" cx="0" cy="0" r="3.5"/>
                <g id="zoomPlus">
                        <use xlink:href="#rim" fill="#404040">
                                <set attributeName="fill" to="#808080" begin="zoomplus.mouseover" end="zoomplus.mouseout"/>
                        </use>
                        <path d="M-4,0h8M0,-4v8" fill="none" stroke="white" stroke-width="1.5" pointer-events="none"/>
                </g>
                <g id="zoomMin">
                        <use xlink:href="#rim" fill="#404040">
                                <set attributeName="fill" to="#808080" begin="zoomminus.mouseover" end="zoomminus.mouseout"/>
                        </use>
                        <path d="M-4,0h8" fill="none" stroke="white" stroke-width="1.5" pointer-events="none"/>
                </g>
                <g id="dirArrow">
                        <path fill="none" stroke="white" stroke-width="1.5" d="M0,-3.0v7 M-2.5,-0.5L0,-3.0L2.5,-0.5"/>
                </g>
               <g id="resetDef">
                       <use xlink:href="#rim2" fill="#404040">
                               <set attributeName="fill" to="#808080" begin="reset.mouseover" end="reset.mouseout"/>
                       </use>
               </g>
        </defs>

<script type="text/javascript">
var viewWidth = 593;
var viewHeight = 450;
var sectionId = 'dynsection-0';
</script>
<script xlink:href="svgpan.js"/>
<svg id="graph" class="graph">
<g id="viewport">
<title>penify_hook.commands.doc_commands.generate_doc</title>
<polygon fill="white" stroke="transparent" points="-4,4 -4,-446 589,-446 589,4 -4,4"/>
<!-- Node1 -->
<g id="node1" class="node">
<title>Node1</title>
<g id="a_node1"><a xlink:title=" ">
<polygon fill="#bfbfbf" stroke="black" points="432,-159 432,-189 585,-189 585,-159 432,-159"/>
<text text-anchor="start" x="440" y="-177" font-family="Helvetica,sans-Serif" font-size="10.00">penify_hook.commands.doc</text>
<text text-anchor="middle" x="508.5" y="-166" font-family="Helvetica,sans-Serif" font-size="10.00">_commands.generate_doc</text>
</a>
</g>
</g>
<!-- Node2 -->
<g id="node2" class="node">
<title>Node2</title>
<g id="a_node2"><a xlink:href="namespacepenify__hook_1_1commands_1_1doc__commands.html#a2006ab13bff718ef783868a910c0b704" target="_top" xlink:title=" ">
<polygon fill="white" stroke="black" points="225.5,-306 225.5,-336 378.5,-336 378.5,-306 225.5,-306"/>
<text text-anchor="start" x="233.5" y="-324" font-family="Helvetica,sans-Serif" font-size="10.00">penify_hook.commands.doc</text>
<text text-anchor="middle" x="302" y="-313" font-family="Helvetica,sans-Serif" font-size="10.00">_commands.handle_docgen</text>
</a>
</g>
</g>
<!-- Node1&#45;&gt;Node2 -->
<g id="edge1" class="edge">
<title>Node1&#45;&gt;Node2</title>
<path fill="none" stroke="midnightblue" d="M492.59,-197.47C473.57,-225.44 438.07,-271.58 396,-297 390.29,-300.45 384.1,-303.41 377.71,-305.94"/>
<polygon fill="midnightblue" stroke="midnightblue" points="495.54,-199.34 498.17,-189.08 489.72,-195.47 495.54,-199.34"/>
</g>
<!-- Node8 -->
<g id="node8" class="node">
<title>Node8</title>
<g id="a_node8"><a xlink:href="namespacetests_1_1test__doc__commands.html#aec76cc25c23476794234cdadbcaef0c0" target="_top" xlink:title=" ">
<polygon fill="white" stroke="black" points="219,-257 219,-287 385,-287 385,-257 219,-257"/>
<text text-anchor="start" x="227" y="-275" font-family="Helvetica,sans-Serif" font-size="10.00">tests.test_doc_commands.test</text>
<text text-anchor="middle" x="302" y="-264" font-family="Helvetica,sans-Serif" font-size="10.00">_generate_doc_error_handling</text>
</a>
</g>
</g>
<!-- Node1&#45;&gt;Node8 -->
<g id="edge8" class="edge">
<title>Node1&#45;&gt;Node8</title>
<path fill="none" stroke="midnightblue" d="M480.36,-195.31C458.61,-211.49 426.76,-233.22 396,-247 387.61,-250.76 378.53,-254.06 369.45,-256.92"/>
<polygon fill="midnightblue" stroke="midnightblue" points="482.59,-198.02 488.46,-189.2 478.37,-192.43 482.59,-198.02"/>
</g>
<!-- Node9 -->
<g id="node9" class="node">
<title>Node9</title>
<g id="a_node9"><a xlink:href="namespacetests_1_1test__doc__commands.html#a0e74c920f258f442914771164fe26b45" target="_top" xlink:title=" ">
<polygon fill="white" stroke="black" points="219,-208 219,-238 385,-238 385,-208 219,-208"/>
<text text-anchor="start" x="227" y="-226" font-family="Helvetica,sans-Serif" font-size="10.00">tests.test_doc_commands.test</text>
<text text-anchor="middle" x="302" y="-215" font-family="Helvetica,sans-Serif" font-size="10.00">_generate_doc_file_location</text>
</a>
</g>
</g>
<!-- Node1&#45;&gt;Node9 -->
<g id="edge9" class="edge">
<title>Node1&#45;&gt;Node9</title>
<path fill="none" stroke="midnightblue" d="M434.87,-191.4C412.24,-196.82 387.5,-202.75 365.63,-207.99"/>
<polygon fill="midnightblue" stroke="midnightblue" points="435.84,-194.77 444.75,-189.03 434.21,-187.96 435.84,-194.77"/>
</g>
<!-- Node10 -->
<g id="node10" class="node">
<title>Node10</title>
<g id="a_node10"><a xlink:href="namespacetests_1_1test__doc__commands.html#a4bb75610e40d94d42bc169b25403c186" target="_top" xlink:title=" ">
<polygon fill="white" stroke="black" points="219,-159 219,-189 385,-189 385,-159 219,-159"/>
<text text-anchor="start" x="227" y="-177" font-family="Helvetica,sans-Serif" font-size="10.00">tests.test_doc_commands.test</text>
<text text-anchor="middle" x="302" y="-166" font-family="Helvetica,sans-Serif" font-size="10.00">_generate_doc_folder_location</text>
</a>
</g>
</g>
<!-- Node1&#45;&gt;Node10 -->
<g id="edge10" class="edge">
<title>Node1&#45;&gt;Node10</title>
<path fill="none" stroke="midnightblue" d="M421.82,-174C409.67,-174 397.21,-174 385.13,-174"/>
<polygon fill="midnightblue" stroke="midnightblue" points="421.93,-177.5 431.93,-174 421.93,-170.5 421.93,-177.5"/>
</g>
<!-- Node11 -->
<g id="node11" class="node">
<title>Node11</title>
<g id="a_node11"><a xlink:href="namespacetests_1_1test__doc__commands.html#a806110833eb0aad547156faf014b31d8" target="_top" xlink:title=" ">
<polygon fill="white" stroke="black" points="219,-110 219,-140 385,-140 385,-110 219,-110"/>
<text text-anchor="start" x="227" y="-128" font-family="Helvetica,sans-Serif" font-size="10.00">tests.test_doc_commands.test</text>
<text text-anchor="middle" x="302" y="-117" font-family="Helvetica,sans-Serif" font-size="10.00">_generate_doc_no_location</text>
</a>
</g>
</g>
<!-- Node1&#45;&gt;Node11 -->
<g id="edge11" class="edge">
<title>Node1&#45;&gt;Node11</title>
<path fill="none" stroke="midnightblue" d="M434.87,-156.6C412.24,-151.18 387.5,-145.25 365.63,-140.01"/>
<polygon fill="midnightblue" stroke="midnightblue" points="434.21,-160.04 444.75,-158.97 435.84,-153.23 434.21,-160.04"/>
</g>
<!-- Node12 -->
<g id="node12" class="node">
<title>Node12</title>
<g id="a_node12"><a xlink:href="namespacetests_1_1test__doc__commands.html#a335e7fd4912192c7276cf31bbebc6eb0" target="_top" xlink:title=" ">
<polygon fill="white" stroke="black" points="208,-61 208,-91 396,-91 396,-61 208,-61"/>
<text text-anchor="start" x="216" y="-79" font-family="Helvetica,sans-Serif" font-size="10.00">tests.test_doc_commands.test</text>
<text text-anchor="middle" x="302" y="-68" font-family="Helvetica,sans-Serif" font-size="10.00">_generate_doc_with_file_exception</text>
</a>
</g>
</g>
<!-- Node1&#45;&gt;Node12 -->
<g id="edge12" class="edge">
<title>Node1&#45;&gt;Node12</title>
<path fill="none" stroke="midnightblue" d="M480.84,-152.59C459.13,-136.1 427.1,-113.86 396,-100 388.38,-96.61 380.2,-93.62 371.95,-91.02"/>
<polygon fill="midnightblue" stroke="midnightblue" points="478.85,-155.48 488.91,-158.81 483.13,-149.93 478.85,-155.48"/>
</g>
<!-- Node13 -->
<g id="node13" class="node">
<title>Node13</title>
<g id="a_node13"><a xlink:href="namespacetests_1_1test__doc__commands.html#a64165ddfdb3071a88422f080f0e529a3" target="_top" xlink:title=" ">
<polygon fill="white" stroke="black" points="219,-0.5 219,-41.5 385,-41.5 385,-0.5 219,-0.5"/>
<text text-anchor="start" x="227" y="-29.5" font-family="Helvetica,sans-Serif" font-size="10.00">tests.test_doc_commands.test</text>
<text text-anchor="start" x="227" y="-18.5" font-family="Helvetica,sans-Serif" font-size="10.00">_generate_doc_with_folder</text>
<text text-anchor="middle" x="302" y="-7.5" font-family="Helvetica,sans-Serif" font-size="10.00">_exception</text>
</a>
</g>
</g>
<!-- Node1&#45;&gt;Node13 -->
<g id="edge13" class="edge">
<title>Node1&#45;&gt;Node13</title>
<path fill="none" stroke="midnightblue" d="M492.02,-150.5C472.68,-122.9 437.08,-77.52 396,-51 390.58,-47.5 384.73,-44.38 378.68,-41.61"/>
<polygon fill="midnightblue" stroke="midnightblue" points="489.17,-152.53 497.71,-158.8 494.94,-148.57 489.17,-152.53"/>
</g>
<!-- Node3 -->
<g id="node3" class="node">
<title>Node3</title>
<g id="a_node3"><a xlink:href="namespacepenify__hook_1_1main.html#a16838b20df4bd14ee4b5e1dd2906738f" target="_top" xlink:title=" ">
<polygon fill="white" stroke="black" points="20.5,-404.5 20.5,-423.5 151.5,-423.5 151.5,-404.5 20.5,-404.5"/>
<text text-anchor="middle" x="86" y="-411.5" font-family="Helvetica,sans-Serif" font-size="10.00">penify_hook.main.main</text>
</a>
</g>
</g>
<!-- Node2&#45;&gt;Node3 -->
<g id="edge2" class="edge">
<title>Node2&#45;&gt;Node3</title>
<path fill="none" stroke="midnightblue" d="M270.77,-341.85C245.42,-358.45 207.74,-381.12 172,-395 162.27,-398.78 151.62,-401.9 141.23,-404.44"/>
<polygon fill="midnightblue" stroke="midnightblue" points="272.8,-344.7 279.19,-336.26 268.93,-338.87 272.8,-344.7"/>
</g>
<!-- Node4 -->
<g id="node4" class="node">
<title>Node4</title>
<g id="a_node4"><a xlink:href="namespacetests_1_1test__doc__commands.html#ab158ffa48469b6c097a7a55fcb20c21a" target="_top" xlink:title=" ">
<polygon fill="white" stroke="black" points="3,-355 3,-385 169,-385 169,-355 3,-355"/>
<text text-anchor="start" x="11" y="-373" font-family="Helvetica,sans-Serif" font-size="10.00">tests.test_doc_commands.test</text>
<text text-anchor="middle" x="86" y="-362" font-family="Helvetica,sans-Serif" font-size="10.00">_handle_docgen_generate</text>
</a>
</g>
</g>
<!-- Node2&#45;&gt;Node4 -->
<g id="edge4" class="edge">
<title>Node2&#45;&gt;Node4</title>
<path fill="none" stroke="midnightblue" d="M225.31,-338.33C201.55,-343.77 175.53,-349.73 152.54,-354.99"/>
<polygon fill="midnightblue" stroke="midnightblue" points="226.37,-341.68 235.34,-336.03 224.81,-334.85 226.37,-341.68"/>
</g>
<!-- Node5 -->
<g id="node5" class="node">
<title>Node5</title>
<g id="a_node5"><a xlink:href="namespacetests_1_1test__doc__commands.html#ab74688baa8c9b5ba302c2877a9789d05" target="_top" xlink:title=" ">
<polygon fill="white" stroke="black" points="3,-306 3,-336 169,-336 169,-306 3,-306"/>
<text text-anchor="start" x="11" y="-324" font-family="Helvetica,sans-Serif" font-size="10.00">tests.test_doc_commands.test</text>
<text text-anchor="middle" x="86" y="-313" font-family="Helvetica,sans-Serif" font-size="10.00">_handle_docgen_install_hook</text>
</a>
</g>
</g>
<!-- Node2&#45;&gt;Node5 -->
<g id="edge5" class="edge">
<title>Node2&#45;&gt;Node5</title>
<path fill="none" stroke="midnightblue" d="M214.91,-321C199.83,-321 184.17,-321 169.19,-321"/>
<polygon fill="midnightblue" stroke="midnightblue" points="215.25,-324.5 225.25,-321 215.25,-317.5 215.25,-324.5"/>
</g>
<!-- Node6 -->
<g id="node6" class="node">
<title>Node6</title>
<g id="a_node6"><a xlink:href="namespacetests_1_1test__doc__commands.html#af9b01e5fc89255cac96747fa081c442c" target="_top" xlink:title=" ">
<polygon fill="white" stroke="black" points="3,-257 3,-287 169,-287 169,-257 3,-257"/>
<text text-anchor="start" x="11" y="-275" font-family="Helvetica,sans-Serif" font-size="10.00">tests.test_doc_commands.test</text>
<text text-anchor="middle" x="86" y="-264" font-family="Helvetica,sans-Serif" font-size="10.00">_handle_docgen_no_token</text>
</a>
</g>
</g>
<!-- Node2&#45;&gt;Node6 -->
<g id="edge6" class="edge">
<title>Node2&#45;&gt;Node6</title>
<path fill="none" stroke="midnightblue" d="M225.31,-303.67C201.55,-298.23 175.53,-292.27 152.54,-287.01"/>
<polygon fill="midnightblue" stroke="midnightblue" points="224.81,-307.15 235.34,-305.97 226.37,-300.32 224.81,-307.15"/>
</g>
<!-- Node7 -->
<g id="node7" class="node">
<title>Node7</title>
<g id="a_node7"><a xlink:href="namespacetests_1_1test__doc__commands.html#a1458af9ad0128c3ca1263b552fd5e482" target="_top" xlink:title=" ">
<polygon fill="white" stroke="black" points="0,-208 0,-238 172,-238 172,-208 0,-208"/>
<text text-anchor="start" x="8" y="-226" font-family="Helvetica,sans-Serif" font-size="10.00">tests.test_doc_commands.test</text>
<text text-anchor="middle" x="86" y="-215" font-family="Helvetica,sans-Serif" font-size="10.00">_handle_docgen_uninstall_hook</text>
</a>
</g>
</g>
<!-- Node2&#45;&gt;Node7 -->
<g id="edge7" class="edge">
<title>Node2&#45;&gt;Node7</title>
<path fill="none" stroke="midnightblue" d="M216.14,-301.95C213.32,-300.42 210.6,-298.78 208,-297 185.39,-281.55 194.43,-262.71 172,-247 167.1,-243.57 161.72,-240.63 156.12,-238.1"/>
<polygon fill="midnightblue" stroke="midnightblue" points="214.86,-305.22 225.39,-306.41 217.9,-298.91 214.86,-305.22"/>
</g>
<!-- Node3&#45;&gt;Node3 -->
<g id="edge3" class="edge">
<title>Node3&#45;&gt;Node3</title>
<path fill="none" stroke="midnightblue" d="M126.4,-430.62C127.81,-436.86 114.35,-442 86,-442 47.4,-442 36.39,-432.46 52.98,-423.61"/>
<polygon fill="midnightblue" stroke="midnightblue" points="128.68,-427.96 119.02,-423.61 123.86,-433.04 128.68,-427.96"/>
</g>
</g>
</svg>
        <g id="navigator" transform="translate(0 0)" fill="#404254">
                <rect fill="#f2f5e9" fill-opacity="0.5" stroke="#606060" stroke-width=".5" x="0" y="0" width="60" height="60"/>
                <use id="zoomplus" xlink:href="#zoomPlus" x="17" y="9" onmousedown="handleZoom(evt,'in')"/>
                <use id="zoomminus" xlink:href="#zoomMin" x="42" y="9" onmousedown="handleZoom(evt,'out')"/>
                <use id="reset" xlink:href="#resetDef" x="30" y="36" onmousedown="handleReset()"/>
                <g id="arrowUp" xlink:href="#dirArrow" transform="translate(30 24)" onmousedown="handlePan(0,-1)">
                  <use xlink:href="#rim" fill="#404040">
                        <set attributeName="fill" to="#808080" begin="arrowUp.mouseover" end="arrowUp.mouseout"/>
                  </use>
                  <path fill="none" stroke="white" stroke-width="1.5" d="M0,-3.0v7 M-2.5,-0.5L0,-3.0L2.5,-0.5"/>
                </g>
                <g id="arrowRight" xlink:href="#dirArrow" transform="rotate(90) translate(36 -43)" onmousedown="handlePan(1,0)">
                  <use xlink:href="#rim" fill="#404040">
                        <set attributeName="fill" to="#808080" begin="arrowRight.mouseover" end="arrowRight.mouseout"/>
                  </use>
                  <path fill="none" stroke="white" stroke-width="1.5" d="M0,-3.0v7 M-2.5,-0.5L0,-3.0L2.5,-0.5"/>
                </g>
                <g id="arrowDown" xlink:href="#dirArrow" transform="rotate(180) translate(-30 -48)" onmousedown="handlePan(0,1)">
                  <use xlink:href="#rim" fill="#404040">
                        <set attributeName="fill" to="#808080" begin="arrowDown.mouseover" end="arrowDown.mouseout"/>
                  </use>
                  <path fill="none" stroke="white" stroke-width="1.5" d="M0,-3.0v7 M-2.5,-0.5L0,-3.0L2.5,-0.5"/>
                </g>
                <g id="arrowLeft" xlink:href="#dirArrow" transform="rotate(270) translate(-36 17)" onmousedown="handlePan(-1,0)">
                  <use xlink:href="#rim" fill="#404040">
                        <set attributeName="fill" to="#808080" begin="arrowLeft.mouseover" end="arrowLeft.mouseout"/>
                  </use>
                  <path fill="none" stroke="white" stroke-width="1.5" d="M0,-3.0v7 M-2.5,-0.5L0,-3.0L2.5,-0.5"/>
                </g>
        </g>
        <svg viewBox="0 0 15 15" width="100%" height="30px" preserveAspectRatio="xMaxYMin meet">
         <g id="arrow_out" transform="scale(0.3 0.3)">
          <a xlink:href="namespacepenify__hook_1_1commands_1_1doc__commands_a4daac68bc563432bf25c85dc78081a25_icgraph_org.svg" target="_base">
           <rect id="button" ry="5" rx="5" y="6" x="6" height="38" width="38"
                fill="#f2f5e9" fill-opacity="0.5" stroke="#606060" stroke-width="1.0"/>
           <path id="arrow"
             d="M 11.500037,31.436501 C 11.940474,20.09759 22.043105,11.32322 32.158766,21.979434 L 37.068811,17.246167 C 37.068811,17.246167 37.088388,32 37.088388,32 L 22.160133,31.978069 C 22.160133,31.978069 26.997745,27.140456 26.997745,27.140456 C 18.528582,18.264221 13.291696,25.230495 11.500037,31.436501 z"
             style="fill:#404040;"/>
          </a>
         </g>
        </svg>
</svg>
