<?xml version="1.0" encoding="UTF-8" standalone="no"?>
<!DOCTYPE svg PUBLIC "-//W3C//DTD SVG 1.1//EN"
 "http://www.w3.org/Graphics/SVG/1.1/DTD/svg11.dtd">
<!-- Generated by graphviz version 2.43.0 (0)
 -->
<!-- Title: penify_hook.commands.config_commands.get_penify_config Pages: 1 -->
<!--zoomable 363 -->
<svg id="main" version="1.1" xmlns="http://www.w3.org/2000/svg" xmlns:xlink="http://www.w3.org/1999/xlink" xml:space="preserve" onload="init(evt)">
<style type="text/css"><![CDATA[
.edge:hover path { stroke: red; }
.edge:hover polygon { stroke: red; fill: red; }
]]></style>
<script type="text/javascript"><![CDATA[
var edges = document.getElementsByTagName('g');
if (edges && edges.length) {
  for (var i=0;i<edges.length;i++) {
    if (edges[i].id.substr(0,4)=='edge') {
      edges[i].setAttribute('class','edge');
    }
  }
}
]]></script>
        <defs>
                <circle id="rim" cx="0" cy="0" r="7"/>
                <circle id="rim2" cx="0" cy="0" r="3.5"/>
                <g id="zoomPlus">
                        <use xlink:href="#rim" fill="#404040">
                                <set attributeName="fill" to="#808080" begin="zoomplus.mouseover" end="zoomplus.mouseout"/>
                        </use>
                        <path d="M-4,0h8M0,-4v8" fill="none" stroke="white" stroke-width="1.5" pointer-events="none"/>
                </g>
                <g id="zoomMin">
                        <use xlink:href="#rim" fill="#404040">
                                <set attributeName="fill" to="#808080" begin="zoomminus.mouseover" end="zoomminus.mouseout"/>
                        </use>
                        <path d="M-4,0h8" fill="none" stroke="white" stroke-width="1.5" pointer-events="none"/>
                </g>
                <g id="dirArrow">
                        <path fill="none" stroke="white" stroke-width="1.5" d="M0,-3.0v7 M-2.5,-0.5L0,-3.0L2.5,-0.5"/>
                </g>
               <g id="resetDef">
                       <use xlink:href="#rim2" fill="#404040">
                               <set attributeName="fill" to="#808080" begin="reset.mouseover" end="reset.mouseout"/>
                       </use>
               </g>
        </defs>

<script type="text/javascript">
var viewWidth = 796;
var viewHeight = 363;
var sectionId = 'dynsection-9';
</script>
<script xlink:href="svgpan.js"/>
<svg id="graph" class="graph">
<g id="viewport">
<title>penify_hook.commands.config_commands.get_penify_config</title>
<polygon fill="white" stroke="transparent" points="-4,4 -4,-359 792,-359 792,4 -4,4"/>
<!-- Node1 -->
<g id="node1" class="node">
<title>Node1</title>
<g id="a_node1"><a xlink:title=" ">
<polygon fill="#bfbfbf" stroke="black" points="623,-71 623,-101 788,-101 788,-71 623,-71"/>
<text text-anchor="start" x="631" y="-89" font-family="Helvetica,sans-Serif" font-size="10.00">penify_hook.commands.config</text>
<text text-anchor="middle" x="705.5" y="-78" font-family="Helvetica,sans-Serif" font-size="10.00">_commands.get_penify_config</text>
</a>
</g>
</g>
<!-- Node2 -->
<g id="node2" class="node">
<title>Node2</title>
<g id="a_node2"><a xlink:href="namespacepenify__hook_1_1commands_1_1config__commands.html#a5503d51c905e2f1b299b12d2a73bd812" target="_top" xlink:title=" ">
<polygon fill="white" stroke="black" points="419.5,-126 419.5,-156 584.5,-156 584.5,-126 419.5,-126"/>
<text text-anchor="start" x="427.5" y="-144" font-family="Helvetica,sans-Serif" font-size="10.00">penify_hook.commands.config</text>
<text text-anchor="middle" x="502" y="-133" font-family="Helvetica,sans-Serif" font-size="10.00">_commands.get_token</text>
</a>
</g>
</g>
<!-- Node1&#45;&gt;Node2 -->
<g id="edge1" class="edge">
<title>Node1&#45;&gt;Node2</title>
<path fill="none" stroke="midnightblue" d="M639.56,-103.73C613.25,-110.91 583.2,-119.11 557.99,-125.99"/>
<polygon fill="midnightblue" stroke="midnightblue" points="640.71,-107.04 649.44,-101.03 638.87,-100.29 640.71,-107.04"/>
</g>
<!-- Node14 -->
<g id="node14" class="node">
<title>Node14</title>
<g id="a_node14"><a xlink:href="classtests_1_1test__config__commands_1_1TestConfigCommands.html#a2e8162082bcdd5652bb37bdb14cf453a" target="_top" xlink:title=" ">
<polygon fill="white" stroke="black" points="417,-65.5 417,-106.5 587,-106.5 587,-65.5 417,-65.5"/>
<text text-anchor="start" x="425" y="-94.5" font-family="Helvetica,sans-Serif" font-size="10.00">tests.test_config_commands.</text>
<text text-anchor="start" x="425" y="-83.5" font-family="Helvetica,sans-Serif" font-size="10.00">TestConfigCommands.test</text>
<text text-anchor="middle" x="502" y="-72.5" font-family="Helvetica,sans-Serif" font-size="10.00">_get_penify_config_existing_dir</text>
</a>
</g>
</g>
<!-- Node1&#45;&gt;Node14 -->
<g id="edge15" class="edge">
<title>Node1&#45;&gt;Node14</title>
<path fill="none" stroke="midnightblue" d="M612.82,-86C604.25,-86 595.58,-86 587.08,-86"/>
<polygon fill="midnightblue" stroke="midnightblue" points="612.83,-89.5 622.83,-86 612.83,-82.5 612.83,-89.5"/>
</g>
<!-- Node15 -->
<g id="node15" class="node">
<title>Node15</title>
<g id="a_node15"><a xlink:href="classtests_1_1test__config__commands_1_1TestConfigCommands.html#a33d4760eee3b67e1cde3aed755ebb948" target="_top" xlink:title=" ">
<polygon fill="white" stroke="black" points="422.5,-5.5 422.5,-46.5 581.5,-46.5 581.5,-5.5 422.5,-5.5"/>
<text text-anchor="start" x="430.5" y="-34.5" font-family="Helvetica,sans-Serif" font-size="10.00">tests.test_config_commands.</text>
<text text-anchor="start" x="430.5" y="-23.5" font-family="Helvetica,sans-Serif" font-size="10.00">TestConfigCommands.test</text>
<text text-anchor="middle" x="502" y="-12.5" font-family="Helvetica,sans-Serif" font-size="10.00">_get_penify_config_new_dir</text>
</a>
</g>
</g>
<!-- Node1&#45;&gt;Node15 -->
<g id="edge16" class="edge">
<title>Node1&#45;&gt;Node15</title>
<path fill="none" stroke="midnightblue" d="M644.06,-68C621.33,-61.23 595.32,-53.49 571.88,-46.51"/>
<polygon fill="midnightblue" stroke="midnightblue" points="643.33,-71.44 653.91,-70.94 645.33,-64.73 643.33,-71.44"/>
</g>
<!-- Node3 -->
<g id="node3" class="node">
<title>Node3</title>
<g id="a_node3"><a xlink:href="namespacepenify__hook_1_1commands_1_1commit__commands.html#af4f739f524c38b437e4e47673d683e23" target="_top" xlink:title=" ">
<polygon fill="white" stroke="black" points="208,-252 208,-282 381,-282 381,-252 208,-252"/>
<text text-anchor="start" x="216" y="-270" font-family="Helvetica,sans-Serif" font-size="10.00">penify_hook.commands.commit</text>
<text text-anchor="middle" x="294.5" y="-259" font-family="Helvetica,sans-Serif" font-size="10.00">_commands.handle_commit</text>
</a>
</g>
</g>
<!-- Node2&#45;&gt;Node3 -->
<g id="edge2" class="edge">
<title>Node2&#45;&gt;Node3</title>
<path fill="none" stroke="midnightblue" d="M471.4,-161.87C447.42,-178.5 412.54,-202.06 381,-221 362.79,-231.93 341.8,-243.25 325.17,-251.92"/>
<polygon fill="midnightblue" stroke="midnightblue" points="473.51,-164.66 479.72,-156.08 469.51,-158.92 473.51,-164.66"/>
</g>
<!-- Node6 -->
<g id="node6" class="node">
<title>Node6</title>
<g id="a_node6"><a xlink:href="namespacepenify__hook_1_1commands_1_1doc__commands.html#a2006ab13bff718ef783868a910c0b704" target="_top" xlink:title=" ">
<polygon fill="white" stroke="black" points="218,-181 218,-211 371,-211 371,-181 218,-181"/>
<text text-anchor="start" x="226" y="-199" font-family="Helvetica,sans-Serif" font-size="10.00">penify_hook.commands.doc</text>
<text text-anchor="middle" x="294.5" y="-188" font-family="Helvetica,sans-Serif" font-size="10.00">_commands.handle_docgen</text>
</a>
</g>
</g>
<!-- Node2&#45;&gt;Node6 -->
<g id="edge6" class="edge">
<title>Node2&#45;&gt;Node6</title>
<path fill="none" stroke="midnightblue" d="M435.12,-158.63C408.21,-165.83 377.4,-174.08 351.59,-180.99"/>
<polygon fill="midnightblue" stroke="midnightblue" points="436.09,-162 444.85,-156.03 434.28,-155.23 436.09,-162"/>
</g>
<!-- Node11 -->
<g id="node11" class="node">
<title>Node11</title>
<g id="a_node11"><a xlink:href="classtests_1_1test__config__commands_1_1TestConfigCommands.html#a6c0207be563c3de59a6d16277805114c" target="_top" xlink:title=" ">
<polygon fill="white" stroke="black" points="215,-120.5 215,-161.5 374,-161.5 374,-120.5 215,-120.5"/>
<text text-anchor="start" x="223" y="-149.5" font-family="Helvetica,sans-Serif" font-size="10.00">tests.test_config_commands.</text>
<text text-anchor="start" x="223" y="-138.5" font-family="Helvetica,sans-Serif" font-size="10.00">TestConfigCommands.test</text>
<text text-anchor="middle" x="294.5" y="-127.5" font-family="Helvetica,sans-Serif" font-size="10.00">_get_token_from_config</text>
</a>
</g>
</g>
<!-- Node2&#45;&gt;Node11 -->
<g id="edge12" class="edge">
<title>Node2&#45;&gt;Node11</title>
<path fill="none" stroke="midnightblue" d="M409.28,-141C397.58,-141 385.7,-141 374.23,-141"/>
<polygon fill="midnightblue" stroke="midnightblue" points="409.49,-144.5 419.49,-141 409.49,-137.5 409.49,-144.5"/>
</g>
<!-- Node12 -->
<g id="node12" class="node">
<title>Node12</title>
<g id="a_node12"><a xlink:href="classtests_1_1test__config__commands_1_1TestConfigCommands.html#a3355f7d313bebaa71694387cf2bc5232" target="_top" xlink:title=" ">
<polygon fill="white" stroke="black" points="215,-60.5 215,-101.5 374,-101.5 374,-60.5 215,-60.5"/>
<text text-anchor="start" x="223" y="-89.5" font-family="Helvetica,sans-Serif" font-size="10.00">tests.test_config_commands.</text>
<text text-anchor="start" x="223" y="-78.5" font-family="Helvetica,sans-Serif" font-size="10.00">TestConfigCommands.test</text>
<text text-anchor="middle" x="294.5" y="-67.5" font-family="Helvetica,sans-Serif" font-size="10.00">_get_token_from_env</text>
</a>
</g>
</g>
<!-- Node2&#45;&gt;Node12 -->
<g id="edge13" class="edge">
<title>Node2&#45;&gt;Node12</title>
<path fill="none" stroke="midnightblue" d="M439.67,-123.09C416.42,-116.3 389.76,-108.52 365.75,-101.51"/>
<polygon fill="midnightblue" stroke="midnightblue" points="438.83,-126.49 449.41,-125.94 440.79,-119.77 438.83,-126.49"/>
</g>
<!-- Node13 -->
<g id="node13" class="node">
<title>Node13</title>
<g id="a_node13"><a xlink:href="classtests_1_1test__config__commands_1_1TestConfigCommands.html#a400ca5d9fcdc159714e8df54920f9436" target="_top" xlink:title=" ">
<polygon fill="white" stroke="black" points="215,-0.5 215,-41.5 374,-41.5 374,-0.5 215,-0.5"/>
<text text-anchor="start" x="223" y="-29.5" font-family="Helvetica,sans-Serif" font-size="10.00">tests.test_config_commands.</text>
<text text-anchor="start" x="223" y="-18.5" font-family="Helvetica,sans-Serif" font-size="10.00">TestConfigCommands.test</text>
<text text-anchor="middle" x="294.5" y="-7.5" font-family="Helvetica,sans-Serif" font-size="10.00">_get_token_not_found</text>
</a>
</g>
</g>
<!-- Node2&#45;&gt;Node13 -->
<g id="edge14" class="edge">
<title>Node2&#45;&gt;Node13</title>
<path fill="none" stroke="midnightblue" d="M424.2,-121.1C421.69,-119.53 419.28,-117.83 417,-116 391.26,-95.31 406.23,-72.31 381,-51 376.79,-47.45 372.14,-44.31 367.24,-41.53"/>
<polygon fill="midnightblue" stroke="midnightblue" points="422.61,-124.23 433.06,-125.99 425.99,-118.1 422.61,-124.23"/>
</g>
<!-- Node4 -->
<g id="node4" class="node">
<title>Node4</title>
<g id="a_node4"><a xlink:href="namespacepenify__hook_1_1main.html#a16838b20df4bd14ee4b5e1dd2906738f" target="_top" xlink:title=" ">
<polygon fill="white" stroke="black" points="20.5,-257.5 20.5,-276.5 151.5,-276.5 151.5,-257.5 20.5,-257.5"/>
<text text-anchor="middle" x="86" y="-264.5" font-family="Helvetica,sans-Serif" font-size="10.00">penify_hook.main.main</text>
</a>
</g>
</g>
<!-- Node3&#45;&gt;Node4 -->
<g id="edge3" class="edge">
<title>Node3&#45;&gt;Node4</title>
<path fill="none" stroke="midnightblue" d="M197.56,-267C182.04,-267 166.29,-267 151.73,-267"/>
<polygon fill="midnightblue" stroke="midnightblue" points="197.72,-270.5 207.72,-267 197.72,-263.5 197.72,-270.5"/>
</g>
<!-- Node5 -->
<g id="node5" class="node">
<title>Node5</title>
<g id="a_node5"><a xlink:href="classtests_1_1test__commit__commands_1_1TestCommitCommands.html#ac13e368262340af98b30fd8ebdac6597" target="_top" xlink:title=" ">
<polygon fill="white" stroke="black" points="2.5,-313.5 2.5,-354.5 169.5,-354.5 169.5,-313.5 2.5,-313.5"/>
<text text-anchor="start" x="10.5" y="-342.5" font-family="Helvetica,sans-Serif" font-size="10.00">tests.test_commit_commands.</text>
<text text-anchor="start" x="10.5" y="-331.5" font-family="Helvetica,sans-Serif" font-size="10.00">TestCommitCommands.test</text>
<text text-anchor="middle" x="86" y="-320.5" font-family="Helvetica,sans-Serif" font-size="10.00">_handle_commit</text>
</a>
</g>
</g>
<!-- Node3&#45;&gt;Node5 -->
<g id="edge5" class="edge">
<title>Node3&#45;&gt;Node5</title>
<path fill="none" stroke="midnightblue" d="M237.51,-285.17C210.6,-293.9 178.23,-304.4 150.41,-313.43"/>
<polygon fill="midnightblue" stroke="midnightblue" points="238.73,-288.45 247.16,-282.04 236.57,-281.79 238.73,-288.45"/>
</g>
<!-- Node4&#45;&gt;Node4 -->
<g id="edge4" class="edge">
<title>Node4&#45;&gt;Node4</title>
<path fill="none" stroke="midnightblue" d="M124.97,-284.01C125.71,-290.07 112.72,-295 86,-295 48.83,-295 38.23,-285.46 54.2,-276.61"/>
<polygon fill="midnightblue" stroke="midnightblue" points="127.27,-281.36 117.8,-276.61 122.24,-286.23 127.27,-281.36"/>
</g>
<!-- Node6&#45;&gt;Node4 -->
<g id="edge7" class="edge">
<title>Node6&#45;&gt;Node4</title>
<path fill="none" stroke="midnightblue" d="M253.41,-215.38C230.06,-226.09 199.83,-239.02 172,-248 160.78,-251.62 148.5,-254.8 136.86,-257.47"/>
<polygon fill="midnightblue" stroke="midnightblue" points="255.04,-218.47 262.64,-211.09 252.09,-212.13 255.04,-218.47"/>
</g>
<!-- Node7 -->
<g id="node7" class="node">
<title>Node7</title>
<g id="a_node7"><a xlink:href="namespacetests_1_1test__doc__commands.html#ab158ffa48469b6c097a7a55fcb20c21a" target="_top" xlink:title=" ">
<polygon fill="white" stroke="black" points="3,-208 3,-238 169,-238 169,-208 3,-208"/>
<text text-anchor="start" x="11" y="-226" font-family="Helvetica,sans-Serif" font-size="10.00">tests.test_doc_commands.test</text>
<text text-anchor="middle" x="86" y="-215" font-family="Helvetica,sans-Serif" font-size="10.00">_handle_docgen_generate</text>
</a>
</g>
</g>
<!-- Node6&#45;&gt;Node7 -->
<g id="edge8" class="edge">
<title>Node6&#45;&gt;Node7</title>
<path fill="none" stroke="midnightblue" d="M207.69,-207.22C195,-208.88 181.94,-210.59 169.32,-212.24"/>
<polygon fill="midnightblue" stroke="midnightblue" points="208.32,-210.67 217.78,-205.9 207.41,-203.73 208.32,-210.67"/>
</g>
<!-- Node8 -->
<g id="node8" class="node">
<title>Node8</title>
<g id="a_node8"><a xlink:href="namespacetests_1_1test__doc__commands.html#ab74688baa8c9b5ba302c2877a9789d05" target="_top" xlink:title=" ">
<polygon fill="white" stroke="black" points="3,-159 3,-189 169,-189 169,-159 3,-159"/>
<text text-anchor="start" x="11" y="-177" font-family="Helvetica,sans-Serif" font-size="10.00">tests.test_doc_commands.test</text>
<text text-anchor="middle" x="86" y="-166" font-family="Helvetica,sans-Serif" font-size="10.00">_handle_docgen_install_hook</text>
</a>
</g>
</g>
<!-- Node6&#45;&gt;Node8 -->
<g id="edge9" class="edge">
<title>Node6&#45;&gt;Node8</title>
<path fill="none" stroke="midnightblue" d="M207.69,-186.86C195,-185.51 181.94,-184.11 169.32,-182.77"/>
<polygon fill="midnightblue" stroke="midnightblue" points="207.47,-190.35 217.78,-187.93 208.21,-183.39 207.47,-190.35"/>
</g>
<!-- Node9 -->
<g id="node9" class="node">
<title>Node9</title>
<g id="a_node9"><a xlink:href="namespacetests_1_1test__doc__commands.html#af9b01e5fc89255cac96747fa081c442c" target="_top" xlink:title=" ">
<polygon fill="white" stroke="black" points="3,-110 3,-140 169,-140 169,-110 3,-110"/>
<text text-anchor="start" x="11" y="-128" font-family="Helvetica,sans-Serif" font-size="10.00">tests.test_doc_commands.test</text>
<text text-anchor="middle" x="86" y="-117" font-family="Helvetica,sans-Serif" font-size="10.00">_handle_docgen_no_token</text>
</a>
</g>
</g>
<!-- Node6&#45;&gt;Node9 -->
<g id="edge10" class="edge">
<title>Node6&#45;&gt;Node9</title>
<path fill="none" stroke="midnightblue" d="M225.04,-177.61C219.21,-175.56 213.46,-173.35 208,-171 190.98,-163.68 189.01,-157.33 172,-150 163.52,-146.35 154.35,-143.03 145.28,-140.1"/>
<polygon fill="midnightblue" stroke="midnightblue" points="224.28,-181.05 234.88,-180.92 226.52,-174.42 224.28,-181.05"/>
</g>
<!-- Node10 -->
<g id="node10" class="node">
<title>Node10</title>
<g id="a_node10"><a xlink:href="namespacetests_1_1test__doc__commands.html#a1458af9ad0128c3ca1263b552fd5e482" target="_top" xlink:title=" ">
<polygon fill="white" stroke="black" points="0,-61 0,-91 172,-91 172,-61 0,-61"/>
<text text-anchor="start" x="8" y="-79" font-family="Helvetica,sans-Serif" font-size="10.00">tests.test_doc_commands.test</text>
<text text-anchor="middle" x="86" y="-68" font-family="Helvetica,sans-Serif" font-size="10.00">_handle_docgen_uninstall_hook</text>
</a>
</g>
</g>
<!-- Node6&#45;&gt;Node10 -->
<g id="edge11" class="edge">
<title>Node6&#45;&gt;Node10</title>
<path fill="none" stroke="midnightblue" d="M214.39,-175.72C212.17,-174.26 210.03,-172.69 208,-171 180.78,-148.4 199.32,-122.48 172,-100 167.86,-96.59 163.25,-93.66 158.4,-91.15"/>
<polygon fill="midnightblue" stroke="midnightblue" points="212.94,-178.92 223.35,-180.87 216.42,-172.85 212.94,-178.92"/>
</g>
</g>
</svg>
        <g id="navigator" transform="translate(0 0)" fill="#404254">
                <rect fill="#f2f5e9" fill-opacity="0.5" stroke="#606060" stroke-width=".5" x="0" y="0" width="60" height="60"/>
                <use id="zoomplus" xlink:href="#zoomPlus" x="17" y="9" onmousedown="handleZoom(evt,'in')"/>
                <use id="zoomminus" xlink:href="#zoomMin" x="42" y="9" onmousedown="handleZoom(evt,'out')"/>
                <use id="reset" xlink:href="#resetDef" x="30" y="36" onmousedown="handleReset()"/>
                <g id="arrowUp" xlink:href="#dirArrow" transform="translate(30 24)" onmousedown="handlePan(0,-1)">
                  <use xlink:href="#rim" fill="#404040">
                        <set attributeName="fill" to="#808080" begin="arrowUp.mouseover" end="arrowUp.mouseout"/>
                  </use>
                  <path fill="none" stroke="white" stroke-width="1.5" d="M0,-3.0v7 M-2.5,-0.5L0,-3.0L2.5,-0.5"/>
                </g>
                <g id="arrowRight" xlink:href="#dirArrow" transform="rotate(90) translate(36 -43)" onmousedown="handlePan(1,0)">
                  <use xlink:href="#rim" fill="#404040">
                        <set attributeName="fill" to="#808080" begin="arrowRight.mouseover" end="arrowRight.mouseout"/>
                  </use>
                  <path fill="none" stroke="white" stroke-width="1.5" d="M0,-3.0v7 M-2.5,-0.5L0,-3.0L2.5,-0.5"/>
                </g>
                <g id="arrowDown" xlink:href="#dirArrow" transform="rotate(180) translate(-30 -48)" onmousedown="handlePan(0,1)">
                  <use xlink:href="#rim" fill="#404040">
                        <set attributeName="fill" to="#808080" begin="arrowDown.mouseover" end="arrowDown.mouseout"/>
                  </use>
                  <path fill="none" stroke="white" stroke-width="1.5" d="M0,-3.0v7 M-2.5,-0.5L0,-3.0L2.5,-0.5"/>
                </g>
                <g id="arrowLeft" xlink:href="#dirArrow" transform="rotate(270) translate(-36 17)" onmousedown="handlePan(-1,0)">
                  <use xlink:href="#rim" fill="#404040">
                        <set attributeName="fill" to="#808080" begin="arrowLeft.mouseover" end="arrowLeft.mouseout"/>
                  </use>
                  <path fill="none" stroke="white" stroke-width="1.5" d="M0,-3.0v7 M-2.5,-0.5L0,-3.0L2.5,-0.5"/>
                </g>
        </g>
        <svg viewBox="0 0 15 15" width="100%" height="30px" preserveAspectRatio="xMaxYMin meet">
         <g id="arrow_out" transform="scale(0.3 0.3)">
          <a xlink:href="namespacepenify__hook_1_1commands_1_1config__commands_a6559a82d0bf727703d550d1003d3ed20_icgraph_org.svg" target="_base">
           <rect id="button" ry="5" rx="5" y="6" x="6" height="38" width="38"
                fill="#f2f5e9" fill-opacity="0.5" stroke="#606060" stroke-width="1.0"/>
           <path id="arrow"
             d="M 11.500037,31.436501 C 11.940474,20.09759 22.043105,11.32322 32.158766,21.979434 L 37.068811,17.246167 C 37.068811,17.246167 37.088388,32 37.088388,32 L 22.160133,31.978069 C 22.160133,31.978069 26.997745,27.140456 26.997745,27.140456 C 18.528582,18.264221 13.291696,25.230495 11.500037,31.436501 z"
             style="fill:#404040;"/>
          </a>
         </g>
        </svg>
</svg>
