<?xml version="1.0" encoding="UTF-8" standalone="no"?>
<!DOCTYPE svg PUBLIC "-//W3C//DTD SVG 1.1//EN"
 "http://www.w3.org/Graphics/SVG/1.1/DTD/svg11.dtd">
<!-- Generated by graphviz version 2.43.0 (0)
 -->
<!-- Title: penify_hook.config_command.handle_config Pages: 1 -->
<svg width="936pt" height="208pt"
 viewBox="0.00 0.00 936.00 207.50" xmlns="http://www.w3.org/2000/svg" xmlns:xlink="http://www.w3.org/1999/xlink">
<g id="graph0" class="graph" transform="scale(1 1) rotate(0) translate(4 203.5)">
<title>penify_hook.config_command.handle_config</title>
<polygon fill="white" stroke="transparent" points="-4,4 -4,-203.5 932,-203.5 932,4 -4,4"/>
<!-- Node1 -->
<g id="node1" class="node">
<title>Node1</title>
<g id="a_node1"><a xlink:title=" ">
<polygon fill="#bfbfbf" stroke="black" points="0,-47.5 0,-77.5 141,-77.5 141,-47.5 0,-47.5"/>
<text text-anchor="start" x="8" y="-65.5" font-family="Helvetica,sans-Serif" font-size="10.00">penify_hook.config</text>
<text text-anchor="middle" x="70.5" y="-54.5" font-family="Helvetica,sans-Serif" font-size="10.00">_command.handle_config</text>
</a>
</g>
</g>
<!-- Node2 -->
<g id="node2" class="node">
<title>Node2</title>
<g id="a_node2"><a xlink:href="namespacepenify__hook_1_1commands_1_1config__commands.html#af115198ea5d6808ccb98733957f50b06" target="_top" xlink:title=" ">
<polygon fill="white" stroke="black" points="177,-113.5 177,-143.5 342,-143.5 342,-113.5 177,-113.5"/>
<text text-anchor="start" x="185" y="-131.5" font-family="Helvetica,sans-Serif" font-size="10.00">penify_hook.commands.config</text>
<text text-anchor="middle" x="259.5" y="-120.5" font-family="Helvetica,sans-Serif" font-size="10.00">_commands.config_jira_web</text>
</a>
</g>
</g>
<!-- Node1&#45;&gt;Node2 -->
<g id="edge1" class="edge">
<title>Node1&#45;&gt;Node2</title>
<path fill="none" stroke="midnightblue" d="M114.4,-77.64C141.72,-87.28 177.29,-99.84 206.25,-110.06"/>
<polygon fill="midnightblue" stroke="midnightblue" points="205.2,-113.4 215.8,-113.43 207.53,-106.8 205.2,-113.4"/>
</g>
<!-- Node7 -->
<g id="node7" class="node">
<title>Node7</title>
<g id="a_node7"><a xlink:href="namespacepenify__hook_1_1commands_1_1config__commands.html#ab2486ac2bf16b4a671e49625bfa4f9b4" target="_top" xlink:title=" ">
<polygon fill="white" stroke="black" points="378,-66.5 378,-96.5 543,-96.5 543,-66.5 378,-66.5"/>
<text text-anchor="start" x="386" y="-84.5" font-family="Helvetica,sans-Serif" font-size="10.00">penify_hook.commands.config</text>
<text text-anchor="middle" x="460.5" y="-73.5" font-family="Helvetica,sans-Serif" font-size="10.00">_commands.save_jira_config</text>
</a>
</g>
</g>
<!-- Node1&#45;&gt;Node7 -->
<g id="edge11" class="edge">
<title>Node1&#45;&gt;Node7</title>
<path fill="none" stroke="midnightblue" d="M141.31,-65.92C204.64,-69.02 298.41,-73.61 367.76,-77.01"/>
<polygon fill="midnightblue" stroke="midnightblue" points="367.65,-80.51 377.81,-77.5 368,-73.51 367.65,-80.51"/>
</g>
<!-- Node8 -->
<g id="node8" class="node">
<title>Node8</title>
<g id="a_node8"><a xlink:href="namespacepenify__hook_1_1commands_1_1config__commands.html#a185dfc34a655ed80e6c95939b6f3c35c" target="_top" xlink:title=" ">
<polygon fill="white" stroke="black" points="177,-25.5 177,-55.5 342,-55.5 342,-25.5 177,-25.5"/>
<text text-anchor="start" x="185" y="-43.5" font-family="Helvetica,sans-Serif" font-size="10.00">penify_hook.commands.config</text>
<text text-anchor="middle" x="259.5" y="-32.5" font-family="Helvetica,sans-Serif" font-size="10.00">_commands.config_llm_web</text>
</a>
</g>
</g>
<!-- Node1&#45;&gt;Node8 -->
<g id="edge10" class="edge">
<title>Node1&#45;&gt;Node8</title>
<path fill="none" stroke="midnightblue" d="M141.13,-54.31C149.49,-53.32 158.12,-52.31 166.74,-51.3"/>
<polygon fill="midnightblue" stroke="midnightblue" points="167.3,-54.75 176.82,-50.11 166.48,-47.8 167.3,-54.75"/>
</g>
<!-- Node9 -->
<g id="node9" class="node">
<title>Node9</title>
<g id="a_node9"><a xlink:href="namespacepenify__hook_1_1commands_1_1config__commands.html#a4617bc5956e502c9555dc0dda0376df4" target="_top" xlink:title=" ">
<polygon fill="white" stroke="black" points="378,-0.5 378,-30.5 543,-30.5 543,-0.5 378,-0.5"/>
<text text-anchor="start" x="386" y="-18.5" font-family="Helvetica,sans-Serif" font-size="10.00">penify_hook.commands.config</text>
<text text-anchor="middle" x="460.5" y="-7.5" font-family="Helvetica,sans-Serif" font-size="10.00">_commands.save_llm_config</text>
</a>
</g>
</g>
<!-- Node1&#45;&gt;Node9 -->
<g id="edge12" class="edge">
<title>Node1&#45;&gt;Node9</title>
<path fill="none" stroke="midnightblue" d="M97.34,-47.3C118.08,-36.02 148.37,-21.59 177,-15.5 239.66,-2.17 311.92,-2.45 367.68,-5.91"/>
<polygon fill="midnightblue" stroke="midnightblue" points="367.68,-9.42 377.89,-6.59 368.15,-2.43 367.68,-9.42"/>
</g>
<!-- Node3 -->
<g id="node3" class="node">
<title>Node3</title>
<g id="a_node3"><a xlink:href="namespacepenify__hook_1_1commands_1_1config__commands.html#a15bf3685c4dcb5c15ba6a4055e484cf2" target="_top" xlink:title=" ">
<polygon fill="white" stroke="black" points="378,-115.5 378,-145.5 543,-145.5 543,-115.5 378,-115.5"/>
<text text-anchor="start" x="386" y="-133.5" font-family="Helvetica,sans-Serif" font-size="10.00">penify_hook.commands.config</text>
<text text-anchor="middle" x="460.5" y="-122.5" font-family="Helvetica,sans-Serif" font-size="10.00">_commands.get_jira_config</text>
</a>
</g>
</g>
<!-- Node2&#45;&gt;Node3 -->
<g id="edge2" class="edge">
<title>Node2&#45;&gt;Node3</title>
<path fill="none" stroke="midnightblue" d="M342.02,-129.32C350.5,-129.4 359.17,-129.49 367.76,-129.58"/>
<polygon fill="midnightblue" stroke="midnightblue" points="367.75,-133.08 377.79,-129.68 367.83,-126.08 367.75,-133.08"/>
</g>
<!-- Node2&#45;&gt;Node7 -->
<g id="edge8" class="edge">
<title>Node2&#45;&gt;Node7</title>
<path fill="none" stroke="midnightblue" d="M324.01,-113.5C343.76,-108.84 365.69,-103.66 386.05,-98.85"/>
<polygon fill="midnightblue" stroke="midnightblue" points="386.98,-102.22 395.91,-96.52 385.37,-95.41 386.98,-102.22"/>
</g>
<!-- Node4 -->
<g id="node4" class="node">
<title>Node4</title>
<g id="a_node4"><a xlink:href="namespacepenify__hook_1_1commands_1_1config__commands.html#a3caf2b062dd33b1f1d7ddc7224f0ff87" target="_top" xlink:title=" ">
<polygon fill="white" stroke="black" points="579,-158 579,-199 744,-199 744,-158 579,-158"/>
<text text-anchor="start" x="587" y="-187" font-family="Helvetica,sans-Serif" font-size="10.00">penify_hook.commands.config</text>
<text text-anchor="start" x="587" y="-176" font-family="Helvetica,sans-Serif" font-size="10.00">_commands.get_env_var_or</text>
<text text-anchor="middle" x="661.5" y="-165" font-family="Helvetica,sans-Serif" font-size="10.00">_default</text>
</a>
</g>
</g>
<!-- Node3&#45;&gt;Node4 -->
<g id="edge3" class="edge">
<title>Node3&#45;&gt;Node4</title>
<path fill="none" stroke="midnightblue" d="M523.92,-145.56C538.22,-149.01 553.72,-152.75 568.97,-156.42"/>
<polygon fill="midnightblue" stroke="midnightblue" points="568.4,-159.89 578.94,-158.83 570.04,-153.08 568.4,-159.89"/>
</g>
<!-- Node5 -->
<g id="node5" class="node">
<title>Node5</title>
<g id="a_node5"><a xlink:href="namespacepenify__hook_1_1commands_1_1config__commands.html#aabe277132ce0bc0aacef951cf1dee2ae" target="_top" xlink:title=" ">
<polygon fill="white" stroke="black" points="579,-90.5 579,-120.5 744,-120.5 744,-90.5 579,-90.5"/>
<text text-anchor="start" x="587" y="-108.5" font-family="Helvetica,sans-Serif" font-size="10.00">penify_hook.commands.config</text>
<text text-anchor="middle" x="661.5" y="-97.5" font-family="Helvetica,sans-Serif" font-size="10.00">_commands.load_env_files</text>
</a>
</g>
</g>
<!-- Node3&#45;&gt;Node5 -->
<g id="edge4" class="edge">
<title>Node3&#45;&gt;Node5</title>
<path fill="none" stroke="midnightblue" d="M543.02,-120.26C551.5,-119.19 560.17,-118.1 568.76,-117.03"/>
<polygon fill="midnightblue" stroke="midnightblue" points="569.3,-120.48 578.79,-115.77 568.43,-113.54 569.3,-120.48"/>
</g>
<!-- Node5&#45;&gt;Node5 -->
<g id="edge5" class="edge">
<title>Node5&#45;&gt;Node5</title>
<path fill="none" stroke="midnightblue" d="M628.04,-120.66C619.97,-130.06 631.12,-139 661.5,-139 680.01,-139 691.38,-135.68 695.62,-130.96"/>
<polygon fill="midnightblue" stroke="midnightblue" points="699.09,-130.42 694.96,-120.66 692.1,-130.86 699.09,-130.42"/>
</g>
<!-- Node6 -->
<g id="node6" class="node">
<title>Node6</title>
<g id="a_node6"><a xlink:href="namespacepenify__hook_1_1utils.html#a95c3f9c80860d6a2e2d061d2fb660a3f" target="_top" xlink:title=" ">
<polygon fill="white" stroke="black" points="780,-46.5 780,-76.5 928,-76.5 928,-46.5 780,-46.5"/>
<text text-anchor="start" x="788" y="-64.5" font-family="Helvetica,sans-Serif" font-size="10.00">penify_hook.utils.recursive</text>
<text text-anchor="middle" x="854" y="-53.5" font-family="Helvetica,sans-Serif" font-size="10.00">_search_git_folder</text>
</a>
</g>
</g>
<!-- Node5&#45;&gt;Node6 -->
<g id="edge6" class="edge">
<title>Node5&#45;&gt;Node6</title>
<path fill="none" stroke="midnightblue" d="M727.53,-90.48C743.68,-86.75 761.13,-82.72 777.73,-78.88"/>
<polygon fill="midnightblue" stroke="midnightblue" points="778.99,-82.19 787.94,-76.53 777.41,-75.37 778.99,-82.19"/>
</g>
<!-- Node6&#45;&gt;Node6 -->
<g id="edge7" class="edge">
<title>Node6&#45;&gt;Node6</title>
<path fill="none" stroke="midnightblue" d="M820.54,-76.66C812.47,-86.06 823.62,-95 854,-95 872.51,-95 883.88,-91.68 888.12,-86.96"/>
<polygon fill="midnightblue" stroke="midnightblue" points="891.59,-86.42 887.46,-76.66 884.6,-86.86 891.59,-86.42"/>
</g>
<!-- Node7&#45;&gt;Node6 -->
<g id="edge9" class="edge">
<title>Node7&#45;&gt;Node6</title>
<path fill="none" stroke="midnightblue" d="M543.09,-77.33C609.49,-73.94 702.82,-69.17 769.68,-65.76"/>
<polygon fill="midnightblue" stroke="midnightblue" points="769.95,-69.25 779.76,-65.24 769.6,-62.26 769.95,-69.25"/>
</g>
<!-- Node9&#45;&gt;Node6 -->
<g id="edge13" class="edge">
<title>Node9&#45;&gt;Node6</title>
<path fill="none" stroke="midnightblue" d="M543.09,-25.09C609.49,-32.89 702.82,-43.85 769.68,-51.71"/>
<polygon fill="midnightblue" stroke="midnightblue" points="769.42,-55.2 779.76,-52.89 770.24,-48.25 769.42,-55.2"/>
</g>
</g>
</svg>
