<?xml version="1.0" encoding="UTF-8" standalone="no"?>
<!DOCTYPE svg PUBLIC "-//W3C//DTD SVG 1.1//EN"
 "http://www.w3.org/Graphics/SVG/1.1/DTD/svg11.dtd">
<!-- Generated by graphviz version 2.43.0 (0)
 -->
<!-- Title: penify_hook.commit_analyzer.CommitDocGenHook.run Pages: 1 -->
<svg width="851pt" height="258pt"
 viewBox="0.00 0.00 851.00 257.50" xmlns="http://www.w3.org/2000/svg" xmlns:xlink="http://www.w3.org/1999/xlink">
<g id="graph0" class="graph" transform="scale(1 1) rotate(0) translate(4 253.5)">
<title>penify_hook.commit_analyzer.CommitDocGenHook.run</title>
<polygon fill="white" stroke="transparent" points="-4,4 -4,-253.5 847,-253.5 847,4 -4,4"/>
<!-- Node1 -->
<g id="node1" class="node">
<title>Node1</title>
<g id="a_node1"><a xlink:title=" ">
<polygon fill="#bfbfbf" stroke="black" points="0,-115.5 0,-145.5 188,-145.5 188,-115.5 0,-115.5"/>
<text text-anchor="start" x="8" y="-133.5" font-family="Helvetica,sans-Serif" font-size="10.00">penify_hook.commit</text>
<text text-anchor="middle" x="94" y="-122.5" font-family="Helvetica,sans-Serif" font-size="10.00">_analyzer.CommitDocGenHook.run</text>
</a>
</g>
</g>
<!-- Node2 -->
<g id="node2" class="node">
<title>Node2</title>
<g id="a_node2"><a xlink:href="$classpenify__hook_1_1commit__analyzer_1_1CommitDocGenHook.html#ac999c5cbc852a7ec3b412ccb43c274ca" xlink:title=" ">
<polygon fill="white" stroke="black" points="242.5,-208 242.5,-249 414.5,-249 414.5,-208 242.5,-208"/>
<text text-anchor="start" x="250.5" y="-237" font-family="Helvetica,sans-Serif" font-size="10.00">penify_hook.commit</text>
<text text-anchor="start" x="250.5" y="-226" font-family="Helvetica,sans-Serif" font-size="10.00">_analyzer.CommitDocGenHook.</text>
<text text-anchor="middle" x="328.5" y="-215" font-family="Helvetica,sans-Serif" font-size="10.00">_amend_commit</text>
</a>
</g>
</g>
<!-- Node1&#45;&gt;Node2 -->
<g id="edge1" class="edge">
<title>Node1&#45;&gt;Node2</title>
<path fill="none" stroke="midnightblue" d="M123.21,-145.58C149.03,-159.07 188.5,-178.9 224,-193.5 233.21,-197.29 243,-200.99 252.73,-204.49"/>
<polygon fill="midnightblue" stroke="midnightblue" points="251.84,-207.89 262.43,-207.92 254.17,-201.29 251.84,-207.89"/>
</g>
<!-- Node3 -->
<g id="node3" class="node">
<title>Node3</title>
<g id="a_node3"><a xlink:href="$classpenify__hook_1_1commit__analyzer_1_1CommitDocGenHook.html#a8496194276441fa2eb2fa014eaab9a37" xlink:title=" ">
<polygon fill="white" stroke="black" points="234.5,-110 234.5,-151 422.5,-151 422.5,-110 234.5,-110"/>
<text text-anchor="start" x="242.5" y="-139" font-family="Helvetica,sans-Serif" font-size="10.00">penify_hook.commit</text>
<text text-anchor="start" x="242.5" y="-128" font-family="Helvetica,sans-Serif" font-size="10.00">_analyzer.CommitDocGenHook.get</text>
<text text-anchor="middle" x="328.5" y="-117" font-family="Helvetica,sans-Serif" font-size="10.00">_summary</text>
</a>
</g>
</g>
<!-- Node1&#45;&gt;Node3 -->
<g id="edge2" class="edge">
<title>Node1&#45;&gt;Node3</title>
<path fill="none" stroke="midnightblue" d="M188.23,-130.5C200.07,-130.5 212.25,-130.5 224.24,-130.5"/>
<polygon fill="midnightblue" stroke="midnightblue" points="224.25,-134 234.25,-130.5 224.25,-127 224.25,-134"/>
</g>
<!-- Node4 -->
<g id="node4" class="node">
<title>Node4</title>
<g id="a_node4"><a xlink:href="$namespacepenify__hook_1_1ui__utils.html#a811f0adf6e9bf71510c379b6fa155e44" xlink:title=" ">
<polygon fill="white" stroke="black" points="469,-121 469,-140 633,-140 633,-121 469,-121"/>
<text text-anchor="middle" x="551" y="-128" font-family="Helvetica,sans-Serif" font-size="10.00">penify_hook.ui_utils.print_info</text>
</a>
</g>
</g>
<!-- Node1&#45;&gt;Node4 -->
<g id="edge5" class="edge">
<title>Node1&#45;&gt;Node4</title>
<path fill="none" stroke="midnightblue" d="M147.25,-145.51C170.53,-151.46 198.42,-157.56 224,-160.5 316.28,-171.09 340.84,-172.13 433,-160.5 459.52,-157.15 488.64,-149.7 511.19,-143.06"/>
<polygon fill="midnightblue" stroke="midnightblue" points="512.5,-146.32 521.06,-140.09 510.48,-139.62 512.5,-146.32"/>
</g>
<!-- Node6 -->
<g id="node6" class="node">
<title>Node6</title>
<g id="a_node6"><a xlink:href="$namespacepenify__hook_1_1ui__utils.html#a2b16aa6b68a9edea5f29f84f1c4be79a" xlink:title=" ">
<polygon fill="white" stroke="black" points="258.5,-0.5 258.5,-30.5 398.5,-30.5 398.5,-0.5 258.5,-0.5"/>
<text text-anchor="start" x="266.5" y="-18.5" font-family="Helvetica,sans-Serif" font-size="10.00">penify_hook.ui_utils.print</text>
<text text-anchor="middle" x="328.5" y="-7.5" font-family="Helvetica,sans-Serif" font-size="10.00">_success</text>
</a>
</g>
</g>
<!-- Node1&#45;&gt;Node6 -->
<g id="edge6" class="edge">
<title>Node1&#45;&gt;Node6</title>
<path fill="none" stroke="midnightblue" d="M112.08,-115.41C135.64,-95.37 180.18,-60.23 224,-40.5 231.84,-36.97 240.24,-33.9 248.75,-31.23"/>
<polygon fill="midnightblue" stroke="midnightblue" points="249.77,-34.58 258.38,-28.4 247.79,-27.87 249.77,-34.58"/>
</g>
<!-- Node8 -->
<g id="node8" class="node">
<title>Node8</title>
<g id="a_node8"><a xlink:href="$classpenify__hook_1_1commit__analyzer_1_1CommitDocGenHook.html#adda13cc121d96342476ccf72b63a007f" xlink:title=" ">
<polygon fill="white" stroke="black" points="224,-50 224,-91 433,-91 433,-50 224,-50"/>
<text text-anchor="start" x="232" y="-79" font-family="Helvetica,sans-Serif" font-size="10.00">penify_hook.commit</text>
<text text-anchor="start" x="232" y="-68" font-family="Helvetica,sans-Serif" font-size="10.00">_analyzer.CommitDocGenHook.process</text>
<text text-anchor="middle" x="328.5" y="-57" font-family="Helvetica,sans-Serif" font-size="10.00">_jira_integration</text>
</a>
</g>
</g>
<!-- Node1&#45;&gt;Node8 -->
<g id="edge8" class="edge">
<title>Node1&#45;&gt;Node8</title>
<path fill="none" stroke="midnightblue" d="M153.37,-115.44C179,-108.82 209.67,-100.91 238.08,-93.58"/>
<polygon fill="midnightblue" stroke="midnightblue" points="239.21,-96.9 248.02,-91.01 237.46,-90.12 239.21,-96.9"/>
</g>
<!-- Node3&#45;&gt;Node4 -->
<g id="edge3" class="edge">
<title>Node3&#45;&gt;Node4</title>
<path fill="none" stroke="midnightblue" d="M422.69,-130.5C434.51,-130.5 446.6,-130.5 458.39,-130.5"/>
<polygon fill="midnightblue" stroke="midnightblue" points="458.66,-134 468.66,-130.5 458.66,-127 458.66,-134"/>
</g>
<!-- Node5 -->
<g id="node5" class="node">
<title>Node5</title>
<g id="a_node5"><a xlink:href="$namespacepenify__hook_1_1ui__utils.html#a92c3e466d1912058167be2eacf85b9f6" xlink:title=" ">
<polygon fill="white" stroke="black" points="669,-121 669,-140 843,-140 843,-121 669,-121"/>
<text text-anchor="middle" x="756" y="-128" font-family="Helvetica,sans-Serif" font-size="10.00">penify_hook.ui_utils.format_info</text>
</a>
</g>
</g>
<!-- Node4&#45;&gt;Node5 -->
<g id="edge4" class="edge">
<title>Node4&#45;&gt;Node5</title>
<path fill="none" stroke="midnightblue" d="M633.11,-130.5C641.52,-130.5 650.13,-130.5 658.69,-130.5"/>
<polygon fill="midnightblue" stroke="midnightblue" points="658.7,-134 668.7,-130.5 658.7,-127 658.7,-134"/>
</g>
<!-- Node7 -->
<g id="node7" class="node">
<title>Node7</title>
<g id="a_node7"><a xlink:href="$namespacepenify__hook_1_1ui__utils.html#a532cdb4de7c679ce8b29c3e9116c4776" xlink:title=" ">
<polygon fill="white" stroke="black" points="476,-0.5 476,-30.5 626,-30.5 626,-0.5 476,-0.5"/>
<text text-anchor="start" x="484" y="-18.5" font-family="Helvetica,sans-Serif" font-size="10.00">penify_hook.ui_utils.format</text>
<text text-anchor="middle" x="551" y="-7.5" font-family="Helvetica,sans-Serif" font-size="10.00">_success</text>
</a>
</g>
</g>
<!-- Node6&#45;&gt;Node7 -->
<g id="edge7" class="edge">
<title>Node6&#45;&gt;Node7</title>
<path fill="none" stroke="midnightblue" d="M398.66,-15.5C419.91,-15.5 443.53,-15.5 465.68,-15.5"/>
<polygon fill="midnightblue" stroke="midnightblue" points="465.74,-19 475.74,-15.5 465.74,-12 465.74,-19"/>
</g>
<!-- Node8&#45;&gt;Node4 -->
<g id="edge9" class="edge">
<title>Node8&#45;&gt;Node4</title>
<path fill="none" stroke="midnightblue" d="M405.08,-91.06C438.42,-100.14 476.48,-110.49 505.22,-118.32"/>
<polygon fill="midnightblue" stroke="midnightblue" points="504.41,-121.72 514.98,-120.97 506.25,-114.97 504.41,-121.72"/>
</g>
<!-- Node9 -->
<g id="node9" class="node">
<title>Node9</title>
<g id="a_node9"><a xlink:href="$namespacepenify__hook_1_1ui__utils.html#a1ffbb9671dbe233770268e2dd66a67fa" xlink:title=" ">
<polygon fill="white" stroke="black" points="481,-55.5 481,-85.5 621,-85.5 621,-55.5 481,-55.5"/>
<text text-anchor="start" x="489" y="-73.5" font-family="Helvetica,sans-Serif" font-size="10.00">penify_hook.ui_utils.print</text>
<text text-anchor="middle" x="551" y="-62.5" font-family="Helvetica,sans-Serif" font-size="10.00">_warning</text>
</a>
</g>
</g>
<!-- Node8&#45;&gt;Node9 -->
<g id="edge10" class="edge">
<title>Node8&#45;&gt;Node9</title>
<path fill="none" stroke="midnightblue" d="M433.29,-70.5C445.86,-70.5 458.54,-70.5 470.67,-70.5"/>
<polygon fill="midnightblue" stroke="midnightblue" points="470.72,-74 480.72,-70.5 470.72,-67 470.72,-74"/>
</g>
<!-- Node10 -->
<g id="node10" class="node">
<title>Node10</title>
<g id="a_node10"><a xlink:href="$namespacepenify__hook_1_1ui__utils.html#a0a6fd2613c6fe053b6e4356cd9e5cda2" xlink:title=" ">
<polygon fill="white" stroke="black" points="681,-55.5 681,-85.5 831,-85.5 831,-55.5 681,-55.5"/>
<text text-anchor="start" x="689" y="-73.5" font-family="Helvetica,sans-Serif" font-size="10.00">penify_hook.ui_utils.format</text>
<text text-anchor="middle" x="756" y="-62.5" font-family="Helvetica,sans-Serif" font-size="10.00">_warning</text>
</a>
</g>
</g>
<!-- Node9&#45;&gt;Node10 -->
<g id="edge11" class="edge">
<title>Node9&#45;&gt;Node10</title>
<path fill="none" stroke="midnightblue" d="M621.01,-70.5C637,-70.5 654.2,-70.5 670.76,-70.5"/>
<polygon fill="midnightblue" stroke="midnightblue" points="670.97,-74 680.97,-70.5 670.97,-67 670.97,-74"/>
</g>
</g>
</svg>
