<?xml version="1.0" encoding="UTF-8" standalone="no"?>
<!DOCTYPE svg PUBLIC "-//W3C//DTD SVG 1.1//EN"
 "http://www.w3.org/Graphics/SVG/1.1/DTD/svg11.dtd">
<!-- Generated by graphviz version 2.43.0 (0)
 -->
<!-- Title: penify_hook.file_analyzer.FileAnalyzerGenHook.process_file Pages: 1 -->
<svg width="369pt" height="88pt"
 viewBox="0.00 0.00 369.00 88.00" xmlns="http://www.w3.org/2000/svg" xmlns:xlink="http://www.w3.org/1999/xlink">
<g id="graph0" class="graph" transform="scale(1 1) rotate(0) translate(4 84)">
<title>penify_hook.file_analyzer.FileAnalyzerGenHook.process_file</title>
<polygon fill="white" stroke="transparent" points="-4,4 -4,-84 365,-84 365,4 -4,4"/>
<!-- Node1 -->
<g id="node1" class="node">
<title>Node1</title>
<g id="a_node1"><a xlink:title=" ">
<polygon fill="#bfbfbf" stroke="black" points="179,-24.5 179,-54.5 361,-54.5 361,-24.5 179,-24.5"/>
<text text-anchor="start" x="187" y="-42.5" font-family="Helvetica,sans-Serif" font-size="10.00">penify_hook.file_analyzer.</text>
<text text-anchor="middle" x="270" y="-31.5" font-family="Helvetica,sans-Serif" font-size="10.00">FileAnalyzerGenHook.process_file</text>
</a>
</g>
</g>
<!-- Node2 -->
<g id="node2" class="node">
<title>Node2</title>
<g id="a_node2"><a xlink:href="$classpenify__hook_1_1file__analyzer_1_1FileAnalyzerGenHook.html#a4f4dffbc432fac3e259d957dd1e187f1" xlink:title=" ">
<polygon fill="white" stroke="black" points="0,-49.5 0,-79.5 143,-79.5 143,-49.5 0,-49.5"/>
<text text-anchor="start" x="8" y="-67.5" font-family="Helvetica,sans-Serif" font-size="10.00">penify_hook.file_analyzer.</text>
<text text-anchor="middle" x="71.5" y="-56.5" font-family="Helvetica,sans-Serif" font-size="10.00">FileAnalyzerGenHook.run</text>
</a>
</g>
</g>
<!-- Node1&#45;&gt;Node2 -->
<g id="edge1" class="edge">
<title>Node1&#45;&gt;Node2</title>
<path fill="none" stroke="midnightblue" d="M168.65,-52.27C160,-53.37 151.36,-54.47 143.02,-55.53"/>
<polygon fill="midnightblue" stroke="midnightblue" points="169.32,-55.71 178.8,-50.98 168.44,-48.77 169.32,-55.71"/>
</g>
<!-- Node3 -->
<g id="node3" class="node">
<title>Node3</title>
<g id="a_node3"><a xlink:href="$classpenify__hook_1_1git__analyzer_1_1GitDocGenHook.html#a3beba14e92d717391a74bb70b1fab0ae" xlink:title=" ">
<polygon fill="white" stroke="black" points="1,-0.5 1,-30.5 142,-30.5 142,-0.5 1,-0.5"/>
<text text-anchor="start" x="9" y="-18.5" font-family="Helvetica,sans-Serif" font-size="10.00">penify_hook.git_analyzer.</text>
<text text-anchor="middle" x="71.5" y="-7.5" font-family="Helvetica,sans-Serif" font-size="10.00">GitDocGenHook.run</text>
</a>
</g>
</g>
<!-- Node1&#45;&gt;Node3 -->
<g id="edge2" class="edge">
<title>Node1&#45;&gt;Node3</title>
<path fill="none" stroke="midnightblue" d="M168.68,-27.25C159.71,-26.15 150.77,-25.06 142.15,-24.01"/>
<polygon fill="midnightblue" stroke="midnightblue" points="168.45,-30.75 178.8,-28.48 169.3,-23.8 168.45,-30.75"/>
</g>
</g>
</svg>
