<?xml version="1.0" encoding="UTF-8" standalone="no"?>
<!DOCTYPE svg PUBLIC "-//W3C//DTD SVG 1.1//EN"
 "http://www.w3.org/Graphics/SVG/1.1/DTD/svg11.dtd">
<!-- Generated by graphviz version 2.43.0 (0)
 -->
<!-- Title: penify_hook.jira_client.JiraClient.get_commit_context_from_issues Pages: 1 -->
<svg width="489pt" height="138pt"
 viewBox="0.00 0.00 489.00 137.50" xmlns="http://www.w3.org/2000/svg" xmlns:xlink="http://www.w3.org/1999/xlink">
<g id="graph0" class="graph" transform="scale(1 1) rotate(0) translate(4 133.5)">
<title>penify_hook.jira_client.JiraClient.get_commit_context_from_issues</title>
<polygon fill="white" stroke="transparent" points="-4,4 -4,-133.5 485,-133.5 485,4 -4,4"/>
<!-- Node1 -->
<g id="node1" class="node">
<title>Node1</title>
<g id="a_node1"><a xlink:title=" ">
<polygon fill="#bfbfbf" stroke="black" points="0,-39 0,-80 130,-80 130,-39 0,-39"/>
<text text-anchor="start" x="8" y="-68" font-family="Helvetica,sans-Serif" font-size="10.00">penify_hook.jira_client.</text>
<text text-anchor="start" x="8" y="-57" font-family="Helvetica,sans-Serif" font-size="10.00">JiraClient.get_commit</text>
<text text-anchor="middle" x="65" y="-46" font-family="Helvetica,sans-Serif" font-size="10.00">_context_from_issues</text>
</a>
</g>
</g>
<!-- Node2 -->
<g id="node2" class="node">
<title>Node2</title>
<g id="a_node2"><a xlink:href="$classpenify__hook_1_1jira__client_1_1JiraClient.html#aa967169a4b7970c67c0947b9ac56f746" xlink:title=" ">
<polygon fill="white" stroke="black" points="175.5,-88 175.5,-129 305.5,-129 305.5,-88 175.5,-88"/>
<text text-anchor="start" x="183.5" y="-117" font-family="Helvetica,sans-Serif" font-size="10.00">penify_hook.jira_client.</text>
<text text-anchor="start" x="183.5" y="-106" font-family="Helvetica,sans-Serif" font-size="10.00">JiraClient.get_detailed</text>
<text text-anchor="middle" x="240.5" y="-95" font-family="Helvetica,sans-Serif" font-size="10.00">_issue_context</text>
</a>
</g>
</g>
<!-- Node1&#45;&gt;Node2 -->
<g id="edge1" class="edge">
<title>Node1&#45;&gt;Node2</title>
<path fill="none" stroke="midnightblue" d="M130.11,-77.61C141.65,-80.87 153.76,-84.29 165.55,-87.62"/>
<polygon fill="midnightblue" stroke="midnightblue" points="164.79,-91.04 175.36,-90.39 166.69,-84.3 164.79,-91.04"/>
</g>
<!-- Node3 -->
<g id="node3" class="node">
<title>Node3</title>
<g id="a_node3"><a xlink:href="$classpenify__hook_1_1jira__client_1_1JiraClient.html#a00d0f9ae006313a21576362d26ac5ec8" xlink:title=" ">
<polygon fill="white" stroke="black" points="351,-44.5 351,-74.5 481,-74.5 481,-44.5 351,-44.5"/>
<text text-anchor="start" x="359" y="-62.5" font-family="Helvetica,sans-Serif" font-size="10.00">penify_hook.jira_client.</text>
<text text-anchor="middle" x="416" y="-51.5" font-family="Helvetica,sans-Serif" font-size="10.00">JiraClient.is_connected</text>
</a>
</g>
</g>
<!-- Node1&#45;&gt;Node3 -->
<g id="edge5" class="edge">
<title>Node1&#45;&gt;Node3</title>
<path fill="none" stroke="midnightblue" d="M130.01,-59.5C189.48,-59.5 278.02,-59.5 340.6,-59.5"/>
<polygon fill="midnightblue" stroke="midnightblue" points="340.8,-63 350.8,-59.5 340.8,-56 340.8,-63"/>
</g>
<!-- Node4 -->
<g id="node4" class="node">
<title>Node4</title>
<g id="a_node4"><a xlink:href="$classpenify__hook_1_1jira__client_1_1JiraClient.html#a65f6924819084b7c8d268956a784804a" xlink:title=" ">
<polygon fill="white" stroke="black" points="166,-0.5 166,-30.5 315,-30.5 315,-0.5 166,-0.5"/>
<text text-anchor="start" x="174" y="-18.5" font-family="Helvetica,sans-Serif" font-size="10.00">penify_hook.jira_client.</text>
<text text-anchor="middle" x="240.5" y="-7.5" font-family="Helvetica,sans-Serif" font-size="10.00">JiraClient.get_issue_details</text>
</a>
</g>
</g>
<!-- Node1&#45;&gt;Node4 -->
<g id="edge3" class="edge">
<title>Node1&#45;&gt;Node4</title>
<path fill="none" stroke="midnightblue" d="M130.11,-43.24C143.19,-39.92 157,-36.42 170.25,-33.06"/>
<polygon fill="midnightblue" stroke="midnightblue" points="171.42,-36.38 180.25,-30.53 169.69,-29.59 171.42,-36.38"/>
</g>
<!-- Node2&#45;&gt;Node3 -->
<g id="edge2" class="edge">
<title>Node2&#45;&gt;Node3</title>
<path fill="none" stroke="midnightblue" d="M305.61,-90.39C320.74,-86.12 336.85,-81.57 351.93,-77.31"/>
<polygon fill="midnightblue" stroke="midnightblue" points="352.99,-80.65 361.66,-74.56 351.09,-73.91 352.99,-80.65"/>
</g>
<!-- Node4&#45;&gt;Node3 -->
<g id="edge4" class="edge">
<title>Node4&#45;&gt;Node3</title>
<path fill="none" stroke="midnightblue" d="M300.72,-30.52C315.3,-34.22 331.03,-38.21 346.02,-42.01"/>
<polygon fill="midnightblue" stroke="midnightblue" points="345.2,-45.41 355.75,-44.47 346.92,-38.62 345.2,-45.41"/>
</g>
</g>
</svg>
