<?xml version="1.0" encoding="UTF-8" standalone="no"?>
<!DOCTYPE svg PUBLIC "-//W3C//DTD SVG 1.1//EN"
 "http://www.w3.org/Graphics/SVG/1.1/DTD/svg11.dtd">
<!-- Generated by graphviz version 2.43.0 (0)
 -->
<!-- Title: penify_hook.jira_client.JiraClient.get_detailed_issue_context Pages: 1 -->
<svg width="488pt" height="50pt"
 viewBox="0.00 0.00 488.00 50.00" xmlns="http://www.w3.org/2000/svg" xmlns:xlink="http://www.w3.org/1999/xlink">
<g id="graph0" class="graph" transform="scale(1 1) rotate(0) translate(4 46)">
<title>penify_hook.jira_client.JiraClient.get_detailed_issue_context</title>
<polygon fill="white" stroke="transparent" points="-4,4 -4,-46 484,-46 484,4 -4,4"/>
<!-- Node1 -->
<g id="node1" class="node">
<title>Node1</title>
<g id="a_node1"><a xlink:title=" ">
<polygon fill="#bfbfbf" stroke="black" points="350,-0.5 350,-41.5 480,-41.5 480,-0.5 350,-0.5"/>
<text text-anchor="start" x="358" y="-29.5" font-family="Helvetica,sans-Serif" font-size="10.00">penify_hook.jira_client.</text>
<text text-anchor="start" x="358" y="-18.5" font-family="Helvetica,sans-Serif" font-size="10.00">JiraClient.get_detailed</text>
<text text-anchor="middle" x="415" y="-7.5" font-family="Helvetica,sans-Serif" font-size="10.00">_issue_context</text>
</a>
</g>
</g>
<!-- Node2 -->
<g id="node2" class="node">
<title>Node2</title>
<g id="a_node2"><a xlink:href="$classpenify__hook_1_1jira__client_1_1JiraClient.html#afb41ce6f13c30b1265d439ddf04bf2cd" xlink:title=" ">
<polygon fill="white" stroke="black" points="184,-0.5 184,-41.5 314,-41.5 314,-0.5 184,-0.5"/>
<text text-anchor="start" x="192" y="-29.5" font-family="Helvetica,sans-Serif" font-size="10.00">penify_hook.jira_client.</text>
<text text-anchor="start" x="192" y="-18.5" font-family="Helvetica,sans-Serif" font-size="10.00">JiraClient.get_commit</text>
<text text-anchor="middle" x="249" y="-7.5" font-family="Helvetica,sans-Serif" font-size="10.00">_context_from_issues</text>
</a>
</g>
</g>
<!-- Node1&#45;&gt;Node2 -->
<g id="edge1" class="edge">
<title>Node1&#45;&gt;Node2</title>
<path fill="none" stroke="midnightblue" d="M339.44,-21C331,-21 322.45,-21 314.16,-21"/>
<polygon fill="midnightblue" stroke="midnightblue" points="339.65,-24.5 349.65,-21 339.65,-17.5 339.65,-24.5"/>
</g>
<!-- Node3 -->
<g id="node3" class="node">
<title>Node3</title>
<g id="a_node3"><a xlink:href="$classpenify__hook_1_1jira__client_1_1JiraClient.html#a70d2c5a6432aa6f238da0ff65d49a760" xlink:title=" ">
<polygon fill="white" stroke="black" points="0,-0.5 0,-41.5 148,-41.5 148,-0.5 0,-0.5"/>
<text text-anchor="start" x="8" y="-29.5" font-family="Helvetica,sans-Serif" font-size="10.00">penify_hook.jira_client.</text>
<text text-anchor="start" x="8" y="-18.5" font-family="Helvetica,sans-Serif" font-size="10.00">JiraClient.enhance_commit</text>
<text text-anchor="middle" x="74" y="-7.5" font-family="Helvetica,sans-Serif" font-size="10.00">_message</text>
</a>
</g>
</g>
<!-- Node2&#45;&gt;Node3 -->
<g id="edge2" class="edge">
<title>Node2&#45;&gt;Node3</title>
<path fill="none" stroke="midnightblue" d="M173.47,-21C165.09,-21 156.57,-21 148.21,-21"/>
<polygon fill="midnightblue" stroke="midnightblue" points="173.58,-24.5 183.58,-21 173.58,-17.5 173.58,-24.5"/>
</g>
</g>
</svg>
