<?xml version="1.0" encoding="UTF-8" standalone="no"?>
<!DOCTYPE svg PUBLIC "-//W3C//DTD SVG 1.1//EN"
 "http://www.w3.org/Graphics/SVG/1.1/DTD/svg11.dtd">
<!-- Generated by graphviz version 2.43.0 (0)
 -->
<!-- Title: penify_hook.jira_client.JiraClient.format_commit_message_with_jira_info Pages: 1 -->
<svg width="507pt" height="110pt"
 viewBox="0.00 0.00 507.00 110.00" xmlns="http://www.w3.org/2000/svg" xmlns:xlink="http://www.w3.org/1999/xlink">
<g id="graph0" class="graph" transform="scale(1 1) rotate(0) translate(4 106)">
<title>penify_hook.jira_client.JiraClient.format_commit_message_with_jira_info</title>
<polygon fill="white" stroke="transparent" points="-4,4 -4,-106 503,-106 503,4 -4,4"/>
<!-- Node1 -->
<g id="node1" class="node">
<title>Node1</title>
<g id="a_node1"><a xlink:title=" ">
<polygon fill="#bfbfbf" stroke="black" points="0,-17 0,-58 140,-58 140,-17 0,-17"/>
<text text-anchor="start" x="8" y="-46" font-family="Helvetica,sans-Serif" font-size="10.00">penify_hook.jira_client.</text>
<text text-anchor="start" x="8" y="-35" font-family="Helvetica,sans-Serif" font-size="10.00">JiraClient.format_commit</text>
<text text-anchor="middle" x="70" y="-24" font-family="Helvetica,sans-Serif" font-size="10.00">_message_with_jira_info</text>
</a>
</g>
</g>
<!-- Node2 -->
<g id="node2" class="node">
<title>Node2</title>
<g id="a_node2"><a xlink:href="$classpenify__hook_1_1jira__client_1_1JiraClient.html#ad2823ad1d3baaedd38039913c3a97fd7" xlink:title=" ">
<polygon fill="white" stroke="black" points="176,-71.5 176,-101.5 333,-101.5 333,-71.5 176,-71.5"/>
<text text-anchor="start" x="184" y="-89.5" font-family="Helvetica,sans-Serif" font-size="10.00">penify_hook.jira_client.</text>
<text text-anchor="middle" x="254.5" y="-78.5" font-family="Helvetica,sans-Serif" font-size="10.00">JiraClient.extract_issue_keys</text>
</a>
</g>
</g>
<!-- Node1&#45;&gt;Node2 -->
<g id="edge1" class="edge">
<title>Node1&#45;&gt;Node2</title>
<path fill="none" stroke="midnightblue" d="M140.26,-56.09C155.81,-60.27 172.26,-64.69 187.67,-68.83"/>
<polygon fill="midnightblue" stroke="midnightblue" points="187.06,-72.28 197.62,-71.5 188.87,-65.52 187.06,-72.28"/>
</g>
<!-- Node3 -->
<g id="node3" class="node">
<title>Node3</title>
<g id="a_node3"><a xlink:href="$classpenify__hook_1_1jira__client_1_1JiraClient.html#a65f6924819084b7c8d268956a784804a" xlink:title=" ">
<polygon fill="white" stroke="black" points="180,-22.5 180,-52.5 329,-52.5 329,-22.5 180,-22.5"/>
<text text-anchor="start" x="188" y="-40.5" font-family="Helvetica,sans-Serif" font-size="10.00">penify_hook.jira_client.</text>
<text text-anchor="middle" x="254.5" y="-29.5" font-family="Helvetica,sans-Serif" font-size="10.00">JiraClient.get_issue_details</text>
</a>
</g>
</g>
<!-- Node1&#45;&gt;Node3 -->
<g id="edge2" class="edge">
<title>Node1&#45;&gt;Node3</title>
<path fill="none" stroke="midnightblue" d="M140.26,-37.5C149.84,-37.5 159.76,-37.5 169.57,-37.5"/>
<polygon fill="midnightblue" stroke="midnightblue" points="169.73,-41 179.73,-37.5 169.73,-34 169.73,-41"/>
</g>
<!-- Node4 -->
<g id="node4" class="node">
<title>Node4</title>
<g id="a_node4"><a xlink:href="$classpenify__hook_1_1jira__client_1_1JiraClient.html#a00d0f9ae006313a21576362d26ac5ec8" xlink:title=" ">
<polygon fill="white" stroke="black" points="369,-0.5 369,-30.5 499,-30.5 499,-0.5 369,-0.5"/>
<text text-anchor="start" x="377" y="-18.5" font-family="Helvetica,sans-Serif" font-size="10.00">penify_hook.jira_client.</text>
<text text-anchor="middle" x="434" y="-7.5" font-family="Helvetica,sans-Serif" font-size="10.00">JiraClient.is_connected</text>
</a>
</g>
</g>
<!-- Node1&#45;&gt;Node4 -->
<g id="edge4" class="edge">
<title>Node1&#45;&gt;Node4</title>
<path fill="none" stroke="midnightblue" d="M140.09,-19.4C151.99,-16.95 164.29,-14.82 176,-13.5 237.31,-6.58 307.37,-7.72 358.84,-10.23"/>
<polygon fill="midnightblue" stroke="midnightblue" points="358.71,-13.73 368.88,-10.75 359.07,-6.74 358.71,-13.73"/>
</g>
<!-- Node3&#45;&gt;Node4 -->
<g id="edge3" class="edge">
<title>Node3&#45;&gt;Node4</title>
<path fill="none" stroke="midnightblue" d="M329.23,-28.36C338.99,-27.15 348.99,-25.91 358.76,-24.7"/>
<polygon fill="midnightblue" stroke="midnightblue" points="359.33,-28.16 368.83,-23.45 358.47,-21.21 359.33,-28.16"/>
</g>
</g>
</svg>
