<?xml version="1.0" encoding="UTF-8" standalone="no"?>
<!DOCTYPE svg PUBLIC "-//W3C//DTD SVG 1.1//EN"
 "http://www.w3.org/Graphics/SVG/1.1/DTD/svg11.dtd">
<!-- Generated by graphviz version 2.43.0 (0)
 -->
<!-- Title: penify_hook.jira_client.JiraClient.add_comment Pages: 1 -->
<svg width="308pt" height="57pt"
 viewBox="0.00 0.00 308.00 57.00" xmlns="http://www.w3.org/2000/svg" xmlns:xlink="http://www.w3.org/1999/xlink">
<g id="graph0" class="graph" transform="scale(1 1) rotate(0) translate(4 53)">
<title>penify_hook.jira_client.JiraClient.add_comment</title>
<polygon fill="white" stroke="transparent" points="-4,4 -4,-53 304,-53 304,4 -4,4"/>
<!-- Node1 -->
<g id="node1" class="node">
<title>Node1</title>
<g id="a_node1"><a xlink:title=" ">
<polygon fill="#bfbfbf" stroke="black" points="0,-0.5 0,-30.5 134,-30.5 134,-0.5 0,-0.5"/>
<text text-anchor="start" x="8" y="-18.5" font-family="Helvetica,sans-Serif" font-size="10.00">penify_hook.jira_client.</text>
<text text-anchor="middle" x="67" y="-7.5" font-family="Helvetica,sans-Serif" font-size="10.00">JiraClient.add_comment</text>
</a>
</g>
</g>
<!-- Node1&#45;&gt;Node1 -->
<g id="edge1" class="edge">
<title>Node1&#45;&gt;Node1</title>
<path fill="none" stroke="midnightblue" d="M37.72,-30.66C30.66,-40.06 40.42,-49 67,-49 83.2,-49 93.15,-45.68 96.85,-40.96"/>
<polygon fill="midnightblue" stroke="midnightblue" points="100.33,-40.45 96.28,-30.66 93.34,-40.84 100.33,-40.45"/>
</g>
<!-- Node2 -->
<g id="node2" class="node">
<title>Node2</title>
<g id="a_node2"><a xlink:href="$classpenify__hook_1_1jira__client_1_1JiraClient.html#a00d0f9ae006313a21576362d26ac5ec8" xlink:title=" ">
<polygon fill="white" stroke="black" points="170,-0.5 170,-30.5 300,-30.5 300,-0.5 170,-0.5"/>
<text text-anchor="start" x="178" y="-18.5" font-family="Helvetica,sans-Serif" font-size="10.00">penify_hook.jira_client.</text>
<text text-anchor="middle" x="235" y="-7.5" font-family="Helvetica,sans-Serif" font-size="10.00">JiraClient.is_connected</text>
</a>
</g>
</g>
<!-- Node1&#45;&gt;Node2 -->
<g id="edge2" class="edge">
<title>Node1&#45;&gt;Node2</title>
<path fill="none" stroke="midnightblue" d="M134.08,-15.5C142.44,-15.5 151.04,-15.5 159.51,-15.5"/>
<polygon fill="midnightblue" stroke="midnightblue" points="159.77,-19 169.77,-15.5 159.77,-12 159.77,-19"/>
</g>
</g>
</svg>
