<?xml version="1.0" encoding="UTF-8" standalone="no"?>
<!DOCTYPE svg PUBLIC "-//W3C//DTD SVG 1.1//EN"
 "http://www.w3.org/Graphics/SVG/1.1/DTD/svg11.dtd">
<!-- Generated by graphviz version 2.43.0 (0)
 -->
<!-- Title: penify_hook.api_client.APIClient.generate_commit_summary_with_llm Pages: 1 -->
<svg width="736pt" height="88pt"
 viewBox="0.00 0.00 736.00 88.00" xmlns="http://www.w3.org/2000/svg" xmlns:xlink="http://www.w3.org/1999/xlink">
<g id="graph0" class="graph" transform="scale(1 1) rotate(0) translate(4 84)">
<title>penify_hook.api_client.APIClient.generate_commit_summary_with_llm</title>
<polygon fill="white" stroke="transparent" points="-4,4 -4,-84 732,-84 732,4 -4,4"/>
<!-- Node1 -->
<g id="node1" class="node">
<title>Node1</title>
<g id="a_node1"><a xlink:title=" ">
<polygon fill="#bfbfbf" stroke="black" points="0,-24.5 0,-54.5 220,-54.5 220,-24.5 0,-24.5"/>
<text text-anchor="start" x="8" y="-42.5" font-family="Helvetica,sans-Serif" font-size="10.00">penify_hook.api_client.APIClient.generate</text>
<text text-anchor="middle" x="110" y="-31.5" font-family="Helvetica,sans-Serif" font-size="10.00">_commit_summary_with_llm</text>
</a>
</g>
</g>
<!-- Node2 -->
<g id="node2" class="node">
<title>Node2</title>
<g id="a_node2"><a xlink:href="$classpenify__hook_1_1api__client_1_1APIClient.html#a7ff74798e7d428b4e2f20095287eb2ce" xlink:title=" ">
<polygon fill="white" stroke="black" points="258,-49.5 258,-79.5 478,-79.5 478,-49.5 258,-49.5"/>
<text text-anchor="start" x="266" y="-67.5" font-family="Helvetica,sans-Serif" font-size="10.00">penify_hook.api_client.APIClient.generate</text>
<text text-anchor="middle" x="368" y="-56.5" font-family="Helvetica,sans-Serif" font-size="10.00">_commit_summary</text>
</a>
</g>
</g>
<!-- Node1&#45;&gt;Node2 -->
<g id="edge1" class="edge">
<title>Node1&#45;&gt;Node2</title>
<path fill="none" stroke="midnightblue" d="M220.31,-50.17C229.29,-51.05 238.41,-51.94 247.46,-52.83"/>
<polygon fill="midnightblue" stroke="midnightblue" points="247.36,-56.33 257.65,-53.82 248.04,-49.37 247.36,-56.33"/>
</g>
<!-- Node3 -->
<g id="node3" class="node">
<title>Node3</title>
<g id="a_node3"><a xlink:href="$classpenify__hook_1_1llm__client_1_1LLMClient.html#a2ad3014dac466ee1d8e00306d0cf2000" xlink:title=" ">
<polygon fill="white" stroke="black" points="256,-0.5 256,-30.5 480,-30.5 480,-0.5 256,-0.5"/>
<text text-anchor="start" x="264" y="-18.5" font-family="Helvetica,sans-Serif" font-size="10.00">penify_hook.llm_client.LLMClient.generate</text>
<text text-anchor="middle" x="368" y="-7.5" font-family="Helvetica,sans-Serif" font-size="10.00">_commit_summary</text>
</a>
</g>
</g>
<!-- Node1&#45;&gt;Node3 -->
<g id="edge2" class="edge">
<title>Node1&#45;&gt;Node3</title>
<path fill="none" stroke="midnightblue" d="M220.31,-29.25C228.62,-28.47 237.03,-27.68 245.41,-26.9"/>
<polygon fill="midnightblue" stroke="midnightblue" points="245.98,-30.36 255.61,-25.94 245.32,-23.39 245.98,-30.36"/>
</g>
<!-- Node4 -->
<g id="node4" class="node">
<title>Node4</title>
<g id="a_node4"><a xlink:href="$classpenify__hook_1_1llm__client_1_1LLMClient.html#ad6f06658ca922793f879474f2234518e" xlink:title=" ">
<polygon fill="white" stroke="black" points="516,-6 516,-25 728,-25 728,-6 516,-6"/>
<text text-anchor="middle" x="622" y="-13" font-family="Helvetica,sans-Serif" font-size="10.00">penify_hook.llm_client.LLMClient.litellm</text>
</a>
</g>
</g>
<!-- Node3&#45;&gt;Node4 -->
<g id="edge3" class="edge">
<title>Node3&#45;&gt;Node4</title>
<path fill="none" stroke="midnightblue" d="M480.26,-15.5C488.7,-15.5 497.23,-15.5 505.69,-15.5"/>
<polygon fill="midnightblue" stroke="midnightblue" points="505.97,-19 515.97,-15.5 505.97,-12 505.97,-19"/>
</g>
</g>
</svg>
