<?xml version="1.0" encoding="UTF-8" standalone="no"?>
<!DOCTYPE svg PUBLIC "-//W3C//DTD SVG 1.1//EN"
 "http://www.w3.org/Graphics/SVG/1.1/DTD/svg11.dtd">
<!-- Generated by graphviz version 2.43.0 (0)
 -->
<!-- Title: penify_hook.ui_utils.format_info Pages: 1 -->
<svg width="1060pt" height="496pt"
 viewBox="0.00 0.00 1060.00 496.04" xmlns="http://www.w3.org/2000/svg" xmlns:xlink="http://www.w3.org/1999/xlink">
<g id="graph0" class="graph" transform="scale(1 1) rotate(0) translate(4 492.04)">
<title>penify_hook.ui_utils.format_info</title>
<polygon fill="white" stroke="transparent" points="-4,4 -4,-492.04 1056,-492.04 1056,4 -4,4"/>
<!-- Node1 -->
<g id="node1" class="node">
<title>Node1</title>
<g id="a_node1"><a xlink:title=" ">
<polygon fill="#bfbfbf" stroke="black" points="878,-414.04 878,-433.04 1052,-433.04 1052,-414.04 878,-414.04"/>
<text text-anchor="middle" x="965" y="-421.04" font-family="Helvetica,sans-Serif" font-size="10.00">penify_hook.ui_utils.format_info</text>
</a>
</g>
</g>
<!-- Node2 -->
<g id="node2" class="node">
<title>Node2</title>
<g id="a_node2"><a xlink:href="$namespacepenify__hook_1_1ui__utils.html#a12b92532b1458af94f3649d411b5505c" xlink:title=" ">
<polygon fill="white" stroke="black" points="686,-408.54 686,-438.54 834,-438.54 834,-408.54 686,-408.54"/>
<text text-anchor="start" x="694" y="-426.54" font-family="Helvetica,sans-Serif" font-size="10.00">penify_hook.ui_utils.create</text>
<text text-anchor="middle" x="760" y="-415.54" font-family="Helvetica,sans-Serif" font-size="10.00">_progress_bar</text>
</a>
</g>
</g>
<!-- Node1&#45;&gt;Node2 -->
<g id="edge1" class="edge">
<title>Node1&#45;&gt;Node2</title>
<path fill="none" stroke="midnightblue" d="M867.6,-423.54C856.32,-423.54 844.97,-423.54 834.08,-423.54"/>
<polygon fill="midnightblue" stroke="midnightblue" points="867.91,-427.04 877.91,-423.54 867.91,-420.04 867.91,-427.04"/>
</g>
<!-- Node4 -->
<g id="node4" class="node">
<title>Node4</title>
<g id="a_node4"><a xlink:href="$namespacepenify__hook_1_1ui__utils.html#a3da02cd1140179a9ce60f62c85fccfef" xlink:title=" ">
<polygon fill="white" stroke="black" points="686,-457.54 686,-487.54 834,-487.54 834,-457.54 686,-457.54"/>
<text text-anchor="start" x="694" y="-475.54" font-family="Helvetica,sans-Serif" font-size="10.00">penify_hook.ui_utils.create</text>
<text text-anchor="middle" x="760" y="-464.54" font-family="Helvetica,sans-Serif" font-size="10.00">_stage_progress_bar</text>
</a>
</g>
</g>
<!-- Node1&#45;&gt;Node4 -->
<g id="edge3" class="edge">
<title>Node1&#45;&gt;Node4</title>
<path fill="none" stroke="midnightblue" d="M914.59,-435.47C887.1,-442.1 852.62,-450.43 823.3,-457.5"/>
<polygon fill="midnightblue" stroke="midnightblue" points="915.48,-438.85 924.38,-433.11 913.84,-432.05 915.48,-438.85"/>
</g>
<!-- Node6 -->
<g id="node6" class="node">
<title>Node6</title>
<g id="a_node6"><a xlink:href="$namespacepenify__hook_1_1ui__utils.html#a811f0adf6e9bf71510c379b6fa155e44" xlink:title=" ">
<polygon fill="white" stroke="black" points="678,-261.04 678,-280.04 842,-280.04 842,-261.04 678,-261.04"/>
<text text-anchor="middle" x="760" y="-268.04" font-family="Helvetica,sans-Serif" font-size="10.00">penify_hook.ui_utils.print_info</text>
</a>
</g>
</g>
<!-- Node1&#45;&gt;Node6 -->
<g id="edge5" class="edge">
<title>Node1&#45;&gt;Node6</title>
<path fill="none" stroke="midnightblue" d="M943.18,-407.85C901.24,-376.24 807.72,-305.76 773.69,-280.11"/>
<polygon fill="midnightblue" stroke="midnightblue" points="941.21,-410.75 951.3,-413.97 945.42,-405.16 941.21,-410.75"/>
</g>
<!-- Node3 -->
<g id="node3" class="node">
<title>Node3</title>
<g id="a_node3"><a xlink:href="$classpenify__hook_1_1git__analyzer_1_1GitDocGenHook.html#a3beba14e92d717391a74bb70b1fab0ae" xlink:title=" ">
<polygon fill="white" stroke="black" points="467,-408.54 467,-438.54 608,-438.54 608,-408.54 467,-408.54"/>
<text text-anchor="start" x="475" y="-426.54" font-family="Helvetica,sans-Serif" font-size="10.00">penify_hook.git_analyzer.</text>
<text text-anchor="middle" x="537.5" y="-415.54" font-family="Helvetica,sans-Serif" font-size="10.00">GitDocGenHook.run</text>
</a>
</g>
</g>
<!-- Node2&#45;&gt;Node3 -->
<g id="edge2" class="edge">
<title>Node2&#45;&gt;Node3</title>
<path fill="none" stroke="midnightblue" d="M675.75,-423.54C653.44,-423.54 629.55,-423.54 608.05,-423.54"/>
<polygon fill="midnightblue" stroke="midnightblue" points="675.88,-427.04 685.88,-423.54 675.88,-420.04 675.88,-427.04"/>
</g>
<!-- Node5 -->
<g id="node5" class="node">
<title>Node5</title>
<g id="a_node5"><a xlink:href="$classpenify__hook_1_1file__analyzer_1_1FileAnalyzerGenHook.html#a4f4dffbc432fac3e259d957dd1e187f1" xlink:title=" ">
<polygon fill="white" stroke="black" points="466,-457.54 466,-487.54 609,-487.54 609,-457.54 466,-457.54"/>
<text text-anchor="start" x="474" y="-475.54" font-family="Helvetica,sans-Serif" font-size="10.00">penify_hook.file_analyzer.</text>
<text text-anchor="middle" x="537.5" y="-464.54" font-family="Helvetica,sans-Serif" font-size="10.00">FileAnalyzerGenHook.run</text>
</a>
</g>
</g>
<!-- Node4&#45;&gt;Node5 -->
<g id="edge4" class="edge">
<title>Node4&#45;&gt;Node5</title>
<path fill="none" stroke="midnightblue" d="M675.61,-472.54C653.72,-472.54 630.33,-472.54 609.17,-472.54"/>
<polygon fill="midnightblue" stroke="midnightblue" points="675.88,-476.04 685.88,-472.54 675.88,-469.04 675.88,-476.04"/>
</g>
<!-- Node6&#45;&gt;Node3 -->
<g id="edge22" class="edge">
<title>Node6&#45;&gt;Node3</title>
<path fill="none" stroke="midnightblue" d="M746.68,-288.63C727.45,-315.49 687.73,-365.74 642,-393.54 631.61,-399.86 619.82,-404.9 608.02,-408.91"/>
<polygon fill="midnightblue" stroke="midnightblue" points="749.73,-290.38 752.61,-280.18 744,-286.36 749.73,-290.38"/>
</g>
<!-- Node7 -->
<g id="node7" class="node">
<title>Node7</title>
<g id="a_node7"><a xlink:href="$namespacepenify__hook_1_1commands_1_1commit__commands.html#a62564c4e8ad59fc46d56cb0f9122a71a" xlink:title=" ">
<polygon fill="white" stroke="black" points="451,-162.54 451,-192.54 624,-192.54 624,-162.54 451,-162.54"/>
<text text-anchor="start" x="459" y="-180.54" font-family="Helvetica,sans-Serif" font-size="10.00">penify_hook.commands.commit</text>
<text text-anchor="middle" x="537.5" y="-169.54" font-family="Helvetica,sans-Serif" font-size="10.00">_commands.commit_code</text>
</a>
</g>
</g>
<!-- Node6&#45;&gt;Node7 -->
<g id="edge6" class="edge">
<title>Node6&#45;&gt;Node7</title>
<path fill="none" stroke="midnightblue" d="M734.84,-255.56C711.68,-241.69 675.41,-221.2 642,-207.54 628.15,-201.88 612.84,-196.83 598.35,-192.55"/>
<polygon fill="midnightblue" stroke="midnightblue" points="733.25,-258.7 743.62,-260.89 736.88,-252.71 733.25,-258.7"/>
</g>
<!-- Node8 -->
<g id="node8" class="node">
<title>Node8</title>
<g id="a_node8"><a xlink:href="$namespacepenify__hook_1_1commands_1_1commit__commands.html#af4f739f524c38b437e4e47673d683e23" xlink:title=" ">
<polygon fill="white" stroke="black" points="213.5,-277.54 213.5,-307.54 386.5,-307.54 386.5,-277.54 213.5,-277.54"/>
<text text-anchor="start" x="221.5" y="-295.54" font-family="Helvetica,sans-Serif" font-size="10.00">penify_hook.commands.commit</text>
<text text-anchor="middle" x="300" y="-284.54" font-family="Helvetica,sans-Serif" font-size="10.00">_commands.handle_commit</text>
</a>
</g>
</g>
<!-- Node6&#45;&gt;Node8 -->
<g id="edge18" class="edge">
<title>Node6&#45;&gt;Node8</title>
<path fill="none" stroke="midnightblue" d="M722.78,-257.88C661.42,-238.46 533.88,-206.92 433,-240.54 414.03,-246.87 415.02,-258.86 397,-267.54 389.09,-271.36 380.52,-274.64 371.87,-277.46"/>
<polygon fill="midnightblue" stroke="midnightblue" points="721.8,-261.24 732.39,-261 723.96,-254.58 721.8,-261.24"/>
</g>
<!-- Node9 -->
<g id="node9" class="node">
<title>Node9</title>
<g id="a_node9"><a xlink:href="$namespacepenify__hook_1_1main.html#a16838b20df4bd14ee4b5e1dd2906738f" xlink:title=" ">
<polygon fill="white" stroke="black" points="18,-102.04 18,-121.04 149,-121.04 149,-102.04 18,-102.04"/>
<text text-anchor="middle" x="83.5" y="-109.04" font-family="Helvetica,sans-Serif" font-size="10.00">penify_hook.main.main</text>
</a>
</g>
</g>
<!-- Node6&#45;&gt;Node9 -->
<g id="edge19" class="edge">
<title>Node6&#45;&gt;Node9</title>
<path fill="none" stroke="midnightblue" d="M751.58,-251.28C736.55,-214.79 699.02,-135.44 642,-92.54 550.9,-24 509.72,-33.62 397,-16.54 311.75,-3.62 284.35,12.04 203,-16.54 153.74,-33.85 109.79,-81.21 92.41,-101.79"/>
<polygon fill="midnightblue" stroke="midnightblue" points="748.41,-252.77 755.37,-260.75 754.91,-250.17 748.41,-252.77"/>
</g>
<!-- Node15 -->
<g id="node15" class="node">
<title>Node15</title>
<g id="a_node15"><a xlink:href="$classpenify__hook_1_1jira__client_1_1JiraClient.html#a093d6456fe053ef7a7862d5d6851910c" xlink:title=" ">
<polygon fill="white" stroke="black" points="472.5,-102.04 472.5,-143.04 602.5,-143.04 602.5,-102.04 472.5,-102.04"/>
<text text-anchor="start" x="480.5" y="-131.04" font-family="Helvetica,sans-Serif" font-size="10.00">penify_hook.jira_client.</text>
<text text-anchor="start" x="480.5" y="-120.04" font-family="Helvetica,sans-Serif" font-size="10.00">JiraClient.extract_issue</text>
<text text-anchor="middle" x="537.5" y="-109.04" font-family="Helvetica,sans-Serif" font-size="10.00">_keys_from_branch</text>
</a>
</g>
</g>
<!-- Node6&#45;&gt;Node15 -->
<g id="edge15" class="edge">
<title>Node6&#45;&gt;Node15</title>
<path fill="none" stroke="midnightblue" d="M746.22,-252.83C726.66,-226.99 686.82,-179.16 642,-152.54 630.02,-145.43 616.24,-139.91 602.73,-135.67"/>
<polygon fill="midnightblue" stroke="midnightblue" points="743.5,-255.03 752.27,-260.98 749.12,-250.86 743.5,-255.03"/>
</g>
<!-- Node16 -->
<g id="node16" class="node">
<title>Node16</title>
<g id="a_node16"><a xlink:href="$classpenify__hook_1_1commit__analyzer_1_1CommitDocGenHook.html#a8496194276441fa2eb2fa014eaab9a37" xlink:title=" ">
<polygon fill="white" stroke="black" points="443.5,-250.04 443.5,-291.04 631.5,-291.04 631.5,-250.04 443.5,-250.04"/>
<text text-anchor="start" x="451.5" y="-279.04" font-family="Helvetica,sans-Serif" font-size="10.00">penify_hook.commit</text>
<text text-anchor="start" x="451.5" y="-268.04" font-family="Helvetica,sans-Serif" font-size="10.00">_analyzer.CommitDocGenHook.get</text>
<text text-anchor="middle" x="537.5" y="-257.04" font-family="Helvetica,sans-Serif" font-size="10.00">_summary</text>
</a>
</g>
</g>
<!-- Node6&#45;&gt;Node16 -->
<g id="edge16" class="edge">
<title>Node6&#45;&gt;Node16</title>
<path fill="none" stroke="midnightblue" d="M667.55,-270.54C655.74,-270.54 643.63,-270.54 631.79,-270.54"/>
<polygon fill="midnightblue" stroke="midnightblue" points="667.83,-274.04 677.83,-270.54 667.83,-267.04 667.83,-274.04"/>
</g>
<!-- Node17 -->
<g id="node17" class="node">
<title>Node17</title>
<g id="a_node17"><a xlink:href="$classpenify__hook_1_1commit__analyzer_1_1CommitDocGenHook.html#a6370a03f7ed9175ef6f81e931a105ea9" xlink:title=" ">
<polygon fill="white" stroke="black" points="206,-326.54 206,-356.54 394,-356.54 394,-326.54 206,-326.54"/>
<text text-anchor="start" x="214" y="-344.54" font-family="Helvetica,sans-Serif" font-size="10.00">penify_hook.commit</text>
<text text-anchor="middle" x="300" y="-333.54" font-family="Helvetica,sans-Serif" font-size="10.00">_analyzer.CommitDocGenHook.run</text>
</a>
</g>
</g>
<!-- Node6&#45;&gt;Node17 -->
<g id="edge23" class="edge">
<title>Node6&#45;&gt;Node17</title>
<path fill="none" stroke="midnightblue" d="M743.91,-287.65C723.4,-309.48 684.38,-346.13 642,-360.54 544.75,-393.62 422.95,-373.22 354.37,-356.58"/>
<polygon fill="midnightblue" stroke="midnightblue" points="746.67,-289.83 750.84,-280.09 741.5,-285.1 746.67,-289.83"/>
</g>
<!-- Node18 -->
<g id="node18" class="node">
<title>Node18</title>
<g id="a_node18"><a xlink:href="$classpenify__hook_1_1commit__analyzer_1_1CommitDocGenHook.html#adda13cc121d96342476ccf72b63a007f" xlink:title=" ">
<polygon fill="white" stroke="black" points="433,-310.04 433,-351.04 642,-351.04 642,-310.04 433,-310.04"/>
<text text-anchor="start" x="441" y="-339.04" font-family="Helvetica,sans-Serif" font-size="10.00">penify_hook.commit</text>
<text text-anchor="start" x="441" y="-328.04" font-family="Helvetica,sans-Serif" font-size="10.00">_analyzer.CommitDocGenHook.process</text>
<text text-anchor="middle" x="537.5" y="-317.04" font-family="Helvetica,sans-Serif" font-size="10.00">_jira_integration</text>
</a>
</g>
</g>
<!-- Node6&#45;&gt;Node18 -->
<g id="edge20" class="edge">
<title>Node6&#45;&gt;Node18</title>
<path fill="none" stroke="midnightblue" d="M714.29,-282.71C685.49,-290.55 647.32,-300.93 613.91,-310.02"/>
<polygon fill="midnightblue" stroke="midnightblue" points="715.33,-286.05 724.06,-280.05 713.49,-279.3 715.33,-286.05"/>
</g>
<!-- Node7&#45;&gt;Node8 -->
<g id="edge7" class="edge">
<title>Node7&#45;&gt;Node8</title>
<path fill="none" stroke="midnightblue" d="M450.53,-196.75C444.31,-199.83 438.38,-203.4 433,-207.54 408.36,-226.52 421.9,-248.91 397,-267.54 391.9,-271.36 386.27,-274.6 380.36,-277.34"/>
<polygon fill="midnightblue" stroke="midnightblue" points="452.13,-199.87 459.82,-192.59 449.27,-193.48 452.13,-199.87"/>
</g>
<!-- Node11 -->
<g id="node11" class="node">
<title>Node11</title>
<g id="a_node11"><a xlink:href="$classtests_1_1test__commit__commands_1_1TestCommitCommands.html#a43c2ff3707124aa48e8eb581106b8691" xlink:title=" ">
<polygon fill="white" stroke="black" points="216.5,-86.04 216.5,-127.04 383.5,-127.04 383.5,-86.04 216.5,-86.04"/>
<text text-anchor="start" x="224.5" y="-115.04" font-family="Helvetica,sans-Serif" font-size="10.00">tests.test_commit_commands.</text>
<text text-anchor="start" x="224.5" y="-104.04" font-family="Helvetica,sans-Serif" font-size="10.00">TestCommitCommands.test</text>
<text text-anchor="middle" x="300" y="-93.04" font-family="Helvetica,sans-Serif" font-size="10.00">_commit_code_error_handling</text>
</a>
</g>
</g>
<!-- Node7&#45;&gt;Node11 -->
<g id="edge11" class="edge">
<title>Node7&#45;&gt;Node11</title>
<path fill="none" stroke="midnightblue" d="M456.81,-159.85C448.71,-157.58 440.65,-155.14 433,-152.54 416.42,-146.91 413.38,-142.72 397,-136.54 388.34,-133.28 379.15,-130.08 370.02,-127.06"/>
<polygon fill="midnightblue" stroke="midnightblue" points="456.12,-163.28 466.69,-162.51 457.95,-156.53 456.12,-163.28"/>
</g>
<!-- Node12 -->
<g id="node12" class="node">
<title>Node12</title>
<g id="a_node12"><a xlink:href="$classtests_1_1test__commit__commands_1_1TestCommitCommands.html#af9c09013055ec39ddde86b487aefcf8b" xlink:title=" ">
<polygon fill="white" stroke="black" points="216.5,-26.04 216.5,-67.04 383.5,-67.04 383.5,-26.04 216.5,-26.04"/>
<text text-anchor="start" x="224.5" y="-55.04" font-family="Helvetica,sans-Serif" font-size="10.00">tests.test_commit_commands.</text>
<text text-anchor="start" x="224.5" y="-44.04" font-family="Helvetica,sans-Serif" font-size="10.00">TestCommitCommands.test</text>
<text text-anchor="middle" x="300" y="-33.04" font-family="Helvetica,sans-Serif" font-size="10.00">_commit_code_with_jira_client</text>
</a>
</g>
</g>
<!-- Node7&#45;&gt;Node12 -->
<g id="edge12" class="edge">
<title>Node7&#45;&gt;Node12</title>
<path fill="none" stroke="midnightblue" d="M441.79,-158.73C438.72,-156.85 435.77,-154.8 433,-152.54 404,-128.96 425.21,-101.06 397,-76.54 392.91,-72.99 388.41,-69.86 383.65,-67.1"/>
<polygon fill="midnightblue" stroke="midnightblue" points="440.3,-161.9 450.77,-163.55 443.61,-155.74 440.3,-161.9"/>
</g>
<!-- Node13 -->
<g id="node13" class="node">
<title>Node13</title>
<g id="a_node13"><a xlink:href="$classtests_1_1test__commit__commands_1_1TestCommitCommands.html#acea0d934ee0f2b914b0b893736e8fe4e" xlink:title=" ">
<polygon fill="white" stroke="black" points="203,-206.54 203,-258.54 397,-258.54 397,-206.54 203,-206.54"/>
<text text-anchor="start" x="211" y="-246.54" font-family="Helvetica,sans-Serif" font-size="10.00">tests.test_commit_commands.</text>
<text text-anchor="start" x="211" y="-235.54" font-family="Helvetica,sans-Serif" font-size="10.00">TestCommitCommands.test</text>
<text text-anchor="start" x="211" y="-224.54" font-family="Helvetica,sans-Serif" font-size="10.00">_commit_code_with_jira_connection</text>
<text text-anchor="middle" x="300" y="-213.54" font-family="Helvetica,sans-Serif" font-size="10.00">_failure</text>
</a>
</g>
</g>
<!-- Node7&#45;&gt;Node13 -->
<g id="edge13" class="edge">
<title>Node7&#45;&gt;Node13</title>
<path fill="none" stroke="midnightblue" d="M462.19,-194.9C441.53,-199.72 418.8,-205.03 397.08,-210.1"/>
<polygon fill="midnightblue" stroke="midnightblue" points="463.21,-198.25 472.15,-192.57 461.61,-191.44 463.21,-198.25"/>
</g>
<!-- Node14 -->
<g id="node14" class="node">
<title>Node14</title>
<g id="a_node14"><a xlink:href="$classtests_1_1test__commit__commands_1_1TestCommitCommands.html#acc4b1e4189792a3f7c11d2a745f479c0" xlink:title=" ">
<polygon fill="white" stroke="black" points="216.5,-146.04 216.5,-187.04 383.5,-187.04 383.5,-146.04 216.5,-146.04"/>
<text text-anchor="start" x="224.5" y="-175.04" font-family="Helvetica,sans-Serif" font-size="10.00">tests.test_commit_commands.</text>
<text text-anchor="start" x="224.5" y="-164.04" font-family="Helvetica,sans-Serif" font-size="10.00">TestCommitCommands.test</text>
<text text-anchor="middle" x="300" y="-153.04" font-family="Helvetica,sans-Serif" font-size="10.00">_commit_code_with_llm_client</text>
</a>
</g>
</g>
<!-- Node7&#45;&gt;Node14 -->
<g id="edge14" class="edge">
<title>Node7&#45;&gt;Node14</title>
<path fill="none" stroke="midnightblue" d="M440.74,-173.07C421.89,-172.19 402.25,-171.27 383.87,-170.41"/>
<polygon fill="midnightblue" stroke="midnightblue" points="440.66,-176.57 450.81,-173.54 440.99,-169.58 440.66,-176.57"/>
</g>
<!-- Node8&#45;&gt;Node9 -->
<g id="edge8" class="edge">
<title>Node8&#45;&gt;Node9</title>
<path fill="none" stroke="midnightblue" d="M212.26,-273C209.06,-271.33 205.96,-269.51 203,-267.54 143.85,-228.11 102.3,-149.09 89.04,-121.4"/>
<polygon fill="midnightblue" stroke="midnightblue" points="211,-276.27 221.54,-277.34 213.97,-269.93 211,-276.27"/>
</g>
<!-- Node10 -->
<g id="node10" class="node">
<title>Node10</title>
<g id="a_node10"><a xlink:href="$classtests_1_1test__commit__commands_1_1TestCommitCommands.html#ac13e368262340af98b30fd8ebdac6597" xlink:title=" ">
<polygon fill="white" stroke="black" points="0,-272.04 0,-313.04 167,-313.04 167,-272.04 0,-272.04"/>
<text text-anchor="start" x="8" y="-301.04" font-family="Helvetica,sans-Serif" font-size="10.00">tests.test_commit_commands.</text>
<text text-anchor="start" x="8" y="-290.04" font-family="Helvetica,sans-Serif" font-size="10.00">TestCommitCommands.test</text>
<text text-anchor="middle" x="83.5" y="-279.04" font-family="Helvetica,sans-Serif" font-size="10.00">_handle_commit</text>
</a>
</g>
</g>
<!-- Node8&#45;&gt;Node10 -->
<g id="edge10" class="edge">
<title>Node8&#45;&gt;Node10</title>
<path fill="none" stroke="midnightblue" d="M203.27,-292.54C191.26,-292.54 179.06,-292.54 167.27,-292.54"/>
<polygon fill="midnightblue" stroke="midnightblue" points="203.3,-296.04 213.3,-292.54 203.3,-289.04 203.3,-296.04"/>
</g>
<!-- Node9&#45;&gt;Node9 -->
<g id="edge9" class="edge">
<title>Node9&#45;&gt;Node9</title>
<path fill="none" stroke="midnightblue" d="M123.9,-128.16C125.31,-134.4 111.85,-139.54 83.5,-139.54 44.9,-139.54 33.89,-130 50.48,-121.15"/>
<polygon fill="midnightblue" stroke="midnightblue" points="126.18,-125.5 116.52,-121.15 121.36,-130.58 126.18,-125.5"/>
</g>
<!-- Node16&#45;&gt;Node17 -->
<g id="edge17" class="edge">
<title>Node16&#45;&gt;Node17</title>
<path fill="none" stroke="midnightblue" d="M451.36,-294.21C445.11,-296.25 438.94,-298.37 433,-300.54 416.55,-306.55 413.53,-310.76 397,-316.54 386.68,-320.15 375.57,-323.51 364.7,-326.52"/>
<polygon fill="midnightblue" stroke="midnightblue" points="452.75,-297.44 461.21,-291.06 450.62,-290.77 452.75,-297.44"/>
</g>
<!-- Node18&#45;&gt;Node17 -->
<g id="edge21" class="edge">
<title>Node18&#45;&gt;Node17</title>
<path fill="none" stroke="midnightblue" d="M422.6,-335.86C413.12,-336.3 403.6,-336.75 394.3,-337.18"/>
<polygon fill="midnightblue" stroke="midnightblue" points="423.04,-339.35 432.86,-335.38 422.71,-332.35 423.04,-339.35"/>
</g>
</g>
</svg>
