<?xml version="1.0" encoding="UTF-8" standalone="no"?>
<!DOCTYPE svg PUBLIC "-//W3C//DTD SVG 1.1//EN"
 "http://www.w3.org/Graphics/SVG/1.1/DTD/svg11.dtd">
<!-- Generated by graphviz version 2.43.0 (0)
 -->
<!-- Title: penify_hook.ui_utils.format_file_path Pages: 1 -->
<svg width="518pt" height="100pt"
 viewBox="0.00 0.00 518.00 99.50" xmlns="http://www.w3.org/2000/svg" xmlns:xlink="http://www.w3.org/1999/xlink">
<g id="graph0" class="graph" transform="scale(1 1) rotate(0) translate(4 95.5)">
<title>penify_hook.ui_utils.format_file_path</title>
<polygon fill="white" stroke="transparent" points="-4,4 -4,-95.5 514,-95.5 514,4 -4,4"/>
<!-- Node1 -->
<g id="node1" class="node">
<title>Node1</title>
<g id="a_node1"><a xlink:title=" ">
<polygon fill="#bfbfbf" stroke="black" points="360,-33 360,-63 510,-63 510,-33 360,-33"/>
<text text-anchor="start" x="368" y="-51" font-family="Helvetica,sans-Serif" font-size="10.00">penify_hook.ui_utils.format</text>
<text text-anchor="middle" x="435" y="-40" font-family="Helvetica,sans-Serif" font-size="10.00">_file_path</text>
</a>
</g>
</g>
<!-- Node2 -->
<g id="node2" class="node">
<title>Node2</title>
<g id="a_node2"><a xlink:href="$namespacepenify__hook_1_1ui__utils.html#adfcbbfe39029ab6d1dd33e7bf75ae115" xlink:title=" ">
<polygon fill="white" stroke="black" points="180.5,-61 180.5,-91 320.5,-91 320.5,-61 180.5,-61"/>
<text text-anchor="start" x="188.5" y="-79" font-family="Helvetica,sans-Serif" font-size="10.00">penify_hook.ui_utils.print</text>
<text text-anchor="middle" x="250.5" y="-68" font-family="Helvetica,sans-Serif" font-size="10.00">_processing</text>
</a>
</g>
</g>
<!-- Node1&#45;&gt;Node2 -->
<g id="edge1" class="edge">
<title>Node1&#45;&gt;Node2</title>
<path fill="none" stroke="midnightblue" d="M349.7,-60.93C339.97,-62.43 330.15,-63.93 320.66,-65.39"/>
<polygon fill="midnightblue" stroke="midnightblue" points="350.42,-64.36 359.77,-59.39 349.36,-57.45 350.42,-64.36"/>
</g>
<!-- Node4 -->
<g id="node4" class="node">
<title>Node4</title>
<g id="a_node4"><a xlink:href="$classpenify__hook_1_1file__analyzer_1_1FileAnalyzerGenHook.html#a6ab39391dfb7686f2a2d21a702dd3073" xlink:title=" ">
<polygon fill="white" stroke="black" points="177,-0.5 177,-41.5 324,-41.5 324,-0.5 177,-0.5"/>
<text text-anchor="start" x="185" y="-29.5" font-family="Helvetica,sans-Serif" font-size="10.00">penify_hook.file_analyzer.</text>
<text text-anchor="start" x="185" y="-18.5" font-family="Helvetica,sans-Serif" font-size="10.00">FileAnalyzerGenHook.print</text>
<text text-anchor="middle" x="250.5" y="-7.5" font-family="Helvetica,sans-Serif" font-size="10.00">_processing</text>
</a>
</g>
</g>
<!-- Node1&#45;&gt;Node4 -->
<g id="edge3" class="edge">
<title>Node1&#45;&gt;Node4</title>
<path fill="none" stroke="midnightblue" d="M349.79,-35.54C341.24,-34.28 332.6,-33 324.19,-31.75"/>
<polygon fill="midnightblue" stroke="midnightblue" points="349.37,-39.02 359.77,-37.02 350.39,-32.09 349.37,-39.02"/>
</g>
<!-- Node3 -->
<g id="node3" class="node">
<title>Node3</title>
<g id="a_node3"><a xlink:href="$classpenify__hook_1_1git__analyzer_1_1GitDocGenHook.html#a3beba14e92d717391a74bb70b1fab0ae" xlink:title=" ">
<polygon fill="white" stroke="black" points="0,-61 0,-91 141,-91 141,-61 0,-61"/>
<text text-anchor="start" x="8" y="-79" font-family="Helvetica,sans-Serif" font-size="10.00">penify_hook.git_analyzer.</text>
<text text-anchor="middle" x="70.5" y="-68" font-family="Helvetica,sans-Serif" font-size="10.00">GitDocGenHook.run</text>
</a>
</g>
</g>
<!-- Node2&#45;&gt;Node3 -->
<g id="edge2" class="edge">
<title>Node2&#45;&gt;Node3</title>
<path fill="none" stroke="midnightblue" d="M170.35,-76C160.61,-76 150.71,-76 141.12,-76"/>
<polygon fill="midnightblue" stroke="midnightblue" points="170.43,-79.5 180.43,-76 170.43,-72.5 170.43,-79.5"/>
</g>
</g>
</svg>
