<?xml version="1.0" encoding="UTF-8" standalone="no"?>
<!DOCTYPE svg PUBLIC "-//W3C//DTD SVG 1.1//EN"
 "http://www.w3.org/Graphics/SVG/1.1/DTD/svg11.dtd">
<!-- Generated by graphviz version 2.43.0 (0)
 -->
<!-- Title: penify_hook.commands.config_commands.save_llm_config Pages: 1 -->
<svg width="535pt" height="172pt"
 viewBox="0.00 0.00 535.00 172.00" xmlns="http://www.w3.org/2000/svg" xmlns:xlink="http://www.w3.org/1999/xlink">
<g id="graph0" class="graph" transform="scale(1 1) rotate(0) translate(4 168)">
<title>penify_hook.commands.config_commands.save_llm_config</title>
<polygon fill="white" stroke="transparent" points="-4,4 -4,-168 531,-168 531,4 -4,4"/>
<!-- Node1 -->
<g id="node1" class="node">
<title>Node1</title>
<g id="a_node1"><a xlink:title=" ">
<polygon fill="#bfbfbf" stroke="black" points="362,-66 362,-96 527,-96 527,-66 362,-66"/>
<text text-anchor="start" x="370" y="-84" font-family="Helvetica,sans-Serif" font-size="10.00">penify_hook.commands.config</text>
<text text-anchor="middle" x="444.5" y="-73" font-family="Helvetica,sans-Serif" font-size="10.00">_commands.save_llm_config</text>
</a>
</g>
</g>
<!-- Node2 -->
<g id="node2" class="node">
<title>Node2</title>
<g id="a_node2"><a xlink:href="$namespacepenify__hook_1_1config__command.html#a240e5331681eb574ac319d7458783bde" xlink:title=" ">
<polygon fill="white" stroke="black" points="176,-121 176,-151 317,-151 317,-121 176,-121"/>
<text text-anchor="start" x="184" y="-139" font-family="Helvetica,sans-Serif" font-size="10.00">penify_hook.config</text>
<text text-anchor="middle" x="246.5" y="-128" font-family="Helvetica,sans-Serif" font-size="10.00">_command.handle_config</text>
</a>
</g>
</g>
<!-- Node1&#45;&gt;Node2 -->
<g id="edge1" class="edge">
<title>Node1&#45;&gt;Node2</title>
<path fill="none" stroke="midnightblue" d="M379.99,-98.82C354.48,-105.98 325.4,-114.14 300.99,-120.99"/>
<polygon fill="midnightblue" stroke="midnightblue" points="381.26,-102.1 389.94,-96.03 379.37,-95.36 381.26,-102.1"/>
</g>
<!-- Node4 -->
<g id="node4" class="node">
<title>Node4</title>
<g id="a_node4"><a xlink:href="$classtests_1_1test__config__commands_1_1TestConfigCommands.html#a73a264dfb21e16003e095b79f6eab2ac" xlink:title=" ">
<polygon fill="white" stroke="black" points="167,-60.5 167,-101.5 326,-101.5 326,-60.5 167,-60.5"/>
<text text-anchor="start" x="175" y="-89.5" font-family="Helvetica,sans-Serif" font-size="10.00">tests.test_config_commands.</text>
<text text-anchor="start" x="175" y="-78.5" font-family="Helvetica,sans-Serif" font-size="10.00">TestConfigCommands.test</text>
<text text-anchor="middle" x="246.5" y="-67.5" font-family="Helvetica,sans-Serif" font-size="10.00">_save_llm_config_failure</text>
</a>
</g>
</g>
<!-- Node1&#45;&gt;Node4 -->
<g id="edge4" class="edge">
<title>Node1&#45;&gt;Node4</title>
<path fill="none" stroke="midnightblue" d="M351.53,-81C343.08,-81 334.56,-81 326.24,-81"/>
<polygon fill="midnightblue" stroke="midnightblue" points="351.8,-84.5 361.8,-81 351.8,-77.5 351.8,-84.5"/>
</g>
<!-- Node5 -->
<g id="node5" class="node">
<title>Node5</title>
<g id="a_node5"><a xlink:href="$classtests_1_1test__config__commands_1_1TestConfigCommands.html#acd8df8219441b9e9871b903a681400d9" xlink:title=" ">
<polygon fill="white" stroke="black" points="167,-0.5 167,-41.5 326,-41.5 326,-0.5 167,-0.5"/>
<text text-anchor="start" x="175" y="-29.5" font-family="Helvetica,sans-Serif" font-size="10.00">tests.test_config_commands.</text>
<text text-anchor="start" x="175" y="-18.5" font-family="Helvetica,sans-Serif" font-size="10.00">TestConfigCommands.test</text>
<text text-anchor="middle" x="246.5" y="-7.5" font-family="Helvetica,sans-Serif" font-size="10.00">_save_llm_config_success</text>
</a>
</g>
</g>
<!-- Node1&#45;&gt;Node5 -->
<g id="edge5" class="edge">
<title>Node1&#45;&gt;Node5</title>
<path fill="none" stroke="midnightblue" d="M384.71,-63C362.6,-56.23 337.3,-48.49 314.5,-41.51"/>
<polygon fill="midnightblue" stroke="midnightblue" points="383.71,-66.36 394.29,-65.94 385.76,-59.66 383.71,-66.36"/>
</g>
<!-- Node3 -->
<g id="node3" class="node">
<title>Node3</title>
<g id="a_node3"><a xlink:href="$namespacepenify__hook_1_1main.html#a16838b20df4bd14ee4b5e1dd2906738f" xlink:title=" ">
<polygon fill="white" stroke="black" points="0,-126.5 0,-145.5 131,-145.5 131,-126.5 0,-126.5"/>
<text text-anchor="middle" x="65.5" y="-133.5" font-family="Helvetica,sans-Serif" font-size="10.00">penify_hook.main.main</text>
</a>
</g>
</g>
<!-- Node2&#45;&gt;Node3 -->
<g id="edge2" class="edge">
<title>Node2&#45;&gt;Node3</title>
<path fill="none" stroke="midnightblue" d="M165.68,-136C154.09,-136 142.29,-136 131.06,-136"/>
<polygon fill="midnightblue" stroke="midnightblue" points="165.78,-139.5 175.78,-136 165.78,-132.5 165.78,-139.5"/>
</g>
<!-- Node3&#45;&gt;Node3 -->
<g id="edge3" class="edge">
<title>Node3&#45;&gt;Node3</title>
<path fill="none" stroke="midnightblue" d="M99.23,-153.89C98.74,-159.54 87.49,-164 65.5,-164 33.51,-164 24.26,-154.57 37.76,-145.76"/>
<polygon fill="midnightblue" stroke="midnightblue" points="101.99,-151.73 93.24,-145.76 96.35,-155.88 101.99,-151.73"/>
</g>
</g>
</svg>
