<?xml version="1.0" encoding="UTF-8" standalone="no"?>
<!DOCTYPE svg PUBLIC "-//W3C//DTD SVG 1.1//EN"
 "http://www.w3.org/Graphics/SVG/1.1/DTD/svg11.dtd">
<!-- Generated by graphviz version 2.43.0 (0)
 -->
<!-- Title: penify_hook.commands.commit_commands.handle_commit Pages: 1 -->
<svg width="384pt" height="106pt"
 viewBox="0.00 0.00 384.00 106.00" xmlns="http://www.w3.org/2000/svg" xmlns:xlink="http://www.w3.org/1999/xlink">
<g id="graph0" class="graph" transform="scale(1 1) rotate(0) translate(4 102)">
<title>penify_hook.commands.commit_commands.handle_commit</title>
<polygon fill="white" stroke="transparent" points="-4,4 -4,-102 380,-102 380,4 -4,4"/>
<!-- Node1 -->
<g id="node1" class="node">
<title>Node1</title>
<g id="a_node1"><a xlink:title=" ">
<polygon fill="#bfbfbf" stroke="black" points="203,-30 203,-60 376,-60 376,-30 203,-30"/>
<text text-anchor="start" x="211" y="-48" font-family="Helvetica,sans-Serif" font-size="10.00">penify_hook.commands.commit</text>
<text text-anchor="middle" x="289.5" y="-37" font-family="Helvetica,sans-Serif" font-size="10.00">_commands.handle_commit</text>
</a>
</g>
</g>
<!-- Node2 -->
<g id="node2" class="node">
<title>Node2</title>
<g id="a_node2"><a xlink:href="$namespacepenify__hook_1_1main.html#a16838b20df4bd14ee4b5e1dd2906738f" xlink:title=" ">
<polygon fill="white" stroke="black" points="18,-60.5 18,-79.5 149,-79.5 149,-60.5 18,-60.5"/>
<text text-anchor="middle" x="83.5" y="-67.5" font-family="Helvetica,sans-Serif" font-size="10.00">penify_hook.main.main</text>
</a>
</g>
</g>
<!-- Node1&#45;&gt;Node2 -->
<g id="edge1" class="edge">
<title>Node1&#45;&gt;Node2</title>
<path fill="none" stroke="midnightblue" d="M192.69,-56.74C177.93,-58.55 162.99,-60.38 149.12,-62.08"/>
<polygon fill="midnightblue" stroke="midnightblue" points="193.37,-60.18 202.87,-55.49 192.52,-53.24 193.37,-60.18"/>
</g>
<!-- Node3 -->
<g id="node3" class="node">
<title>Node3</title>
<g id="a_node3"><a xlink:href="$classtests_1_1test__commit__commands_1_1TestCommitCommands.html#ac13e368262340af98b30fd8ebdac6597" xlink:title=" ">
<polygon fill="white" stroke="black" points="0,-0.5 0,-41.5 167,-41.5 167,-0.5 0,-0.5"/>
<text text-anchor="start" x="8" y="-29.5" font-family="Helvetica,sans-Serif" font-size="10.00">tests.test_commit_commands.</text>
<text text-anchor="start" x="8" y="-18.5" font-family="Helvetica,sans-Serif" font-size="10.00">TestCommitCommands.test</text>
<text text-anchor="middle" x="83.5" y="-7.5" font-family="Helvetica,sans-Serif" font-size="10.00">_handle_commit</text>
</a>
</g>
</g>
<!-- Node1&#45;&gt;Node3 -->
<g id="edge3" class="edge">
<title>Node1&#45;&gt;Node3</title>
<path fill="none" stroke="midnightblue" d="M192.88,-33.75C184.33,-32.74 175.72,-31.73 167.3,-30.74"/>
<polygon fill="midnightblue" stroke="midnightblue" points="192.53,-37.23 202.87,-34.93 193.35,-30.28 192.53,-37.23"/>
</g>
<!-- Node2&#45;&gt;Node2 -->
<g id="edge2" class="edge">
<title>Node2&#45;&gt;Node2</title>
<path fill="none" stroke="midnightblue" d="M122.11,-87.11C122.68,-93.13 109.82,-98 83.5,-98 46.89,-98 36.3,-88.57 51.75,-79.76"/>
<polygon fill="midnightblue" stroke="midnightblue" points="124.63,-84.69 115.25,-79.76 119.51,-89.46 124.63,-84.69"/>
</g>
</g>
</svg>
