<?xml version="1.0" encoding="UTF-8" standalone="no"?>
<!DOCTYPE svg PUBLIC "-//W3C//DTD SVG 1.1//EN"
 "http://www.w3.org/Graphics/SVG/1.1/DTD/svg11.dtd">
<!-- Generated by graphviz version 2.43.0 (0)
 -->
<!-- Title: penify_hook.commands.config_commands.save_jira_config Pages: 1 -->
<svg width="723pt" height="156pt"
 viewBox="0.00 0.00 723.00 156.00" xmlns="http://www.w3.org/2000/svg" xmlns:xlink="http://www.w3.org/1999/xlink">
<g id="graph0" class="graph" transform="scale(1 1) rotate(0) translate(4 152)">
<title>penify_hook.commands.config_commands.save_jira_config</title>
<polygon fill="white" stroke="transparent" points="-4,4 -4,-152 719,-152 719,4 -4,4"/>
<!-- Node1 -->
<g id="node1" class="node">
<title>Node1</title>
<g id="a_node1"><a xlink:title=" ">
<polygon fill="#bfbfbf" stroke="black" points="550,-61 550,-91 715,-91 715,-61 550,-61"/>
<text text-anchor="start" x="558" y="-79" font-family="Helvetica,sans-Serif" font-size="10.00">penify_hook.commands.config</text>
<text text-anchor="middle" x="632.5" y="-68" font-family="Helvetica,sans-Serif" font-size="10.00">_commands.save_jira_config</text>
</a>
</g>
</g>
<!-- Node2 -->
<g id="node2" class="node">
<title>Node2</title>
<g id="a_node2"><a xlink:href="$namespacepenify__hook_1_1commands_1_1config__commands.html#af115198ea5d6808ccb98733957f50b06" xlink:title=" ">
<polygon fill="white" stroke="black" points="349,-61 349,-91 514,-91 514,-61 349,-61"/>
<text text-anchor="start" x="357" y="-79" font-family="Helvetica,sans-Serif" font-size="10.00">penify_hook.commands.config</text>
<text text-anchor="middle" x="431.5" y="-68" font-family="Helvetica,sans-Serif" font-size="10.00">_commands.config_jira_web</text>
</a>
</g>
</g>
<!-- Node1&#45;&gt;Node2 -->
<g id="edge1" class="edge">
<title>Node1&#45;&gt;Node2</title>
<path fill="none" stroke="midnightblue" d="M539.96,-76C531.37,-76 522.7,-76 514.21,-76"/>
<polygon fill="midnightblue" stroke="midnightblue" points="539.98,-79.5 549.98,-76 539.98,-72.5 539.98,-79.5"/>
</g>
<!-- Node3 -->
<g id="node3" class="node">
<title>Node3</title>
<g id="a_node3"><a xlink:href="$namespacepenify__hook_1_1config__command.html#a240e5331681eb574ac319d7458783bde" xlink:title=" ">
<polygon fill="white" stroke="black" points="169.5,-105 169.5,-135 310.5,-135 310.5,-105 169.5,-105"/>
<text text-anchor="start" x="177.5" y="-123" font-family="Helvetica,sans-Serif" font-size="10.00">penify_hook.config</text>
<text text-anchor="middle" x="240" y="-112" font-family="Helvetica,sans-Serif" font-size="10.00">_command.handle_config</text>
</a>
</g>
</g>
<!-- Node1&#45;&gt;Node3 -->
<g id="edge6" class="edge">
<title>Node1&#45;&gt;Node3</title>
<path fill="none" stroke="midnightblue" d="M555.63,-92.98C541.83,-95.64 527.53,-98.13 514,-100 445.15,-109.51 365.87,-114.68 310.54,-117.37"/>
<polygon fill="midnightblue" stroke="midnightblue" points="556.44,-96.39 565.57,-91.01 555.09,-89.52 556.44,-96.39"/>
</g>
<!-- Node6 -->
<g id="node6" class="node">
<title>Node6</title>
<g id="a_node6"><a xlink:href="$classtests_1_1test__config__commands_1_1TestConfigCommands.html#af8d62310da2d768e21770f8f01ff5375" xlink:title=" ">
<polygon fill="white" stroke="black" points="352,-0.5 352,-41.5 511,-41.5 511,-0.5 352,-0.5"/>
<text text-anchor="start" x="360" y="-29.5" font-family="Helvetica,sans-Serif" font-size="10.00">tests.test_config_commands.</text>
<text text-anchor="start" x="360" y="-18.5" font-family="Helvetica,sans-Serif" font-size="10.00">TestConfigCommands.test</text>
<text text-anchor="middle" x="431.5" y="-7.5" font-family="Helvetica,sans-Serif" font-size="10.00">_save_jira_config_success</text>
</a>
</g>
</g>
<!-- Node1&#45;&gt;Node6 -->
<g id="edge7" class="edge">
<title>Node1&#45;&gt;Node6</title>
<path fill="none" stroke="midnightblue" d="M567.27,-58.25C548.04,-52.93 526.79,-47.06 506.95,-41.58"/>
<polygon fill="midnightblue" stroke="midnightblue" points="566.55,-61.68 577.12,-60.97 568.42,-54.93 566.55,-61.68"/>
</g>
<!-- Node2&#45;&gt;Node3 -->
<g id="edge2" class="edge">
<title>Node2&#45;&gt;Node3</title>
<path fill="none" stroke="midnightblue" d="M355.66,-93.38C339.15,-97.21 321.79,-101.24 305.72,-104.97"/>
<polygon fill="midnightblue" stroke="midnightblue" points="356.87,-96.69 365.81,-91.02 355.28,-89.87 356.87,-96.69"/>
</g>
<!-- Node5 -->
<g id="node5" class="node">
<title>Node5</title>
<g id="a_node5"><a xlink:href="$classtests_1_1test__web__config_1_1TestWebConfig.html#a06e600222e426b003850509cb1d3190a" xlink:title=" ">
<polygon fill="white" stroke="black" points="167,-44.5 167,-85.5 313,-85.5 313,-44.5 167,-44.5"/>
<text text-anchor="start" x="175" y="-73.5" font-family="Helvetica,sans-Serif" font-size="10.00">tests.test_web_config.Test</text>
<text text-anchor="start" x="175" y="-62.5" font-family="Helvetica,sans-Serif" font-size="10.00">WebConfig.test_config_jira</text>
<text text-anchor="middle" x="240" y="-51.5" font-family="Helvetica,sans-Serif" font-size="10.00">_web_server_setup</text>
</a>
</g>
</g>
<!-- Node2&#45;&gt;Node5 -->
<g id="edge5" class="edge">
<title>Node2&#45;&gt;Node5</title>
<path fill="none" stroke="midnightblue" d="M338.74,-70.67C330.17,-70.18 321.58,-69.68 313.23,-69.19"/>
<polygon fill="midnightblue" stroke="midnightblue" points="338.57,-74.17 348.76,-71.26 338.98,-67.18 338.57,-74.17"/>
</g>
<!-- Node4 -->
<g id="node4" class="node">
<title>Node4</title>
<g id="a_node4"><a xlink:href="$namespacepenify__hook_1_1main.html#a16838b20df4bd14ee4b5e1dd2906738f" xlink:title=" ">
<polygon fill="white" stroke="black" points="0,-110.5 0,-129.5 131,-129.5 131,-110.5 0,-110.5"/>
<text text-anchor="middle" x="65.5" y="-117.5" font-family="Helvetica,sans-Serif" font-size="10.00">penify_hook.main.main</text>
</a>
</g>
</g>
<!-- Node3&#45;&gt;Node4 -->
<g id="edge3" class="edge">
<title>Node3&#45;&gt;Node4</title>
<path fill="none" stroke="midnightblue" d="M159.19,-120C149.79,-120 140.28,-120 131.12,-120"/>
<polygon fill="midnightblue" stroke="midnightblue" points="159.33,-123.5 169.33,-120 159.33,-116.5 159.33,-123.5"/>
</g>
<!-- Node4&#45;&gt;Node4 -->
<g id="edge4" class="edge">
<title>Node4&#45;&gt;Node4</title>
<path fill="none" stroke="midnightblue" d="M98.06,-138.27C97.13,-143.74 86.28,-148 65.5,-148 34.57,-148 25.63,-138.57 38.68,-129.76"/>
<polygon fill="midnightblue" stroke="midnightblue" points="100.81,-136.09 92.32,-129.76 95.01,-140.01 100.81,-136.09"/>
</g>
</g>
</svg>
